<?xml version="1.0" standalone="no"?>
<!DOCTYPE svg PUBLIC "-//W3C//DTD SVG 1.1//EN" "http://www.w3.org/Graphics/SVG/1.1/DTD/svg11.dtd" >
<svg xmlns="http://www.w3.org/2000/svg" xmlns:xlink="http://www.w3.org/1999/xlink" version="1.1">
<metadata></metadata>
<defs>
<font id="be_vietnam_pro_extrabolditalic" horiz-adv-x="1312" >
<font-face units-per-em="2048" ascent="1638" descent="-410" />
<missing-glyph horiz-adv-x="471" />
<glyph horiz-adv-x="0" />
<glyph horiz-adv-x="682" />
<glyph unicode="&#xd;" horiz-adv-x="1228" />
<glyph unicode=" "  horiz-adv-x="471" />
<glyph unicode="&#x09;" horiz-adv-x="471" />
<glyph unicode="&#xa0;" horiz-adv-x="471" />
<glyph unicode="!" horiz-adv-x="604" d="M63 160q0 76 50.5 128t130.5 52q78 0 128 -52t50 -128q0 -74 -50 -126t-128 -52q-80 0 -130.5 52t-50.5 126zM160 467l178 1049h383l-275 -1049h-286z" />
<glyph unicode="&#x22;" horiz-adv-x="860" d="M221 1042l123 474h303l-217 -474h-209zM596 1042l123 474h303l-217 -474h-209z" />
<glyph unicode="#" horiz-adv-x="1667" d="M4 338l119 285h272l111 268h-266l120 285h265l139 340h299l-141 -340h256l141 340h297l-139 -340h276l-121 -285h-274l-111 -268h269l-119 -285h-269l-139 -338h-297l139 338h-256l-139 -338h-299l139 338h-272zM692 623h256l113 268h-256z" />
<glyph unicode="$" horiz-adv-x="1396" d="M47 477h334l4 -25q4 -26 21.5 -62t56.5 -70.5t106 -53.5l80 381l-39 12q-158 51 -261 148.5t-103 263.5q0 123 66.5 229.5t195.5 171t317 64.5h15l34 170h164l-39 -186q117 -25 194 -77t121 -114.5t64.5 -120t25.5 -95.5l5 -38h-324l-9 34q-9 34 -38.5 76t-95.5 66 l-78 -368l27 -9q174 -55 281.5 -155.5t107.5 -263.5q0 -127 -71.5 -235.5t-208 -174t-328.5 -65.5l-37 -175h-164l39 187q-139 23 -227 78t-137.5 124.5t-70 134t-24.5 106.5zM578 1092q0 -106 133 -158l71 334q-98 -10 -151 -59t-53 -117zM731 256q96 12 154.5 61t58.5 123 q0 55 -38 93t-103 63z" />
<glyph unicode="%" horiz-adv-x="1820" d="M225 1163q0 90 45 176t131 142.5t213 56.5q106 0 176 -43t105 -111.5t35 -146.5q0 -90 -44 -176t-131 -142.5t-212 -56.5q-106 0 -177 42t-106 111.5t-35 147.5zM229 0l1188 1516h248l-1188 -1516h-248zM436 1180q0 -49 31 -87t94 -38q76 0 117 52t41 112q0 47 -31 85.5 t-94 38.5q-76 0 -117 -52t-41 -111zM1001 283q0 90 44.5 176t131.5 142t212 56q109 0 178 -43t103 -111.5t34 -146.5q0 -88 -44 -175t-130 -143t-211 -56q-109 0 -178.5 43t-104.5 111.5t-35 146.5zM1212 299q0 -47 31 -86t94 -39q74 0 115 52.5t41 111.5q0 49 -30.5 87 t-92.5 38q-76 0 -117 -52.5t-41 -111.5z" />
<glyph unicode="&#x26;" horiz-adv-x="1449" d="M25 397q0 111 49 195t129 148.5t178 113.5q-43 68 -67.5 137.5t-24.5 147.5q0 123 61.5 212t162.5 137t218 48q106 0 203.5 -40t159 -119t61.5 -191q0 -106 -53 -180t-134 -126.5t-165 -88.5l190 -248q33 66 56.5 144.5t33.5 172.5h279q-18 -172 -68.5 -308t-122.5 -239 l242 -313h-405l-68 92q-94 -57 -196.5 -86t-202.5 -29q-135 0 -253 48.5t-190.5 142.5t-72.5 229zM350 444q0 -94 67.5 -146t168.5 -52q100 0 196 57l-194 262q-18 27 -38 51.5t-38 49.5q-78 -43 -120 -97.5t-42 -124.5zM584 1161q0 -49 23.5 -95t56.5 -93q45 18 91 44.5 t77.5 66.5t31.5 96q0 63 -41 95t-90 32q-55 0 -102 -37t-47 -109z" />
<glyph unicode="'" horiz-adv-x="485" d="M221 1042l123 474h303l-217 -474h-209z" />
<glyph unicode="(" horiz-adv-x="905" d="M72 381q0 180 44 364.5t129 351.5t209 300t283.5 212t352.5 83l-66 -316q-111 -10 -203 -74.5t-165.5 -168t-125 -231.5t-78 -264t-26.5 -267q0 -129 29.5 -242t90 -190.5t150.5 -102.5l-67 -315q-190 41 -314.5 168t-183.5 307t-59 385z" />
<glyph unicode=")" horiz-adv-x="882" d="M-184 -479l65 315q111 10 204 74.5t166 168t124 230.5t78.5 264.5t27.5 268.5q0 129 -30.5 241.5t-91 190.5t-150.5 102l67 316q190 -43 314.5 -170t185 -307.5t60.5 -383.5q0 -180 -45.5 -364t-130.5 -352t-208.5 -300t-283.5 -211t-352 -83z" />
<glyph unicode="*" horiz-adv-x="1062" d="M201 1102l73 231l261 -94l-7 277h242l-6 -277l260 94l76 -231l-264 -78l168 -221l-199 -144l-156 228l-155 -228l-197 144l168 221z" />
<glyph unicode="+" horiz-adv-x="1275" d="M182 502l58 274h311l65 307h273l-66 -307h307l-57 -274h-307l-66 -309h-274l66 309h-310z" />
<glyph unicode="," horiz-adv-x="606" d="M49 170q0 78 53.5 132t137.5 54t141 -53t57 -145q0 -47 -23.5 -105.5t-76.5 -140.5t-137 -201l-17 -22h-135l176 293q-78 4 -127 58t-49 130z" />
<glyph unicode="-" horiz-adv-x="1159" d="M188 502l52 274h768l-50 -274h-770z" />
<glyph unicode="." horiz-adv-x="591" d="M49 168q0 80 52.5 134t136.5 54q82 0 135 -54t53 -134q0 -78 -53 -133t-135 -55q-84 0 -136.5 56t-52.5 132z" />
<glyph unicode="/" horiz-adv-x="1107" d="M-162 -391l1159 2093h326l-1159 -2093h-326z" />
<glyph unicode="0" horiz-adv-x="1474" d="M113 631q0 160 50 319.5t147.5 292.5t239.5 213t324 80q145 0 254 -52t179.5 -144.5t105.5 -209t35 -245.5q0 -160 -51 -319.5t-148.5 -293t-239 -213t-323.5 -79.5q-147 0 -254.5 52t-178.5 144t-105.5 209t-34.5 246zM475 618q0 -90 23.5 -163.5t73.5 -118.5t128 -45 q86 0 157 55t122 146.5t77.5 197t26.5 205.5q0 90 -23.5 164t-72.5 119t-129 45q-86 0 -156.5 -55.5t-121 -146.5t-78 -196.5t-27.5 -206.5z" />
<glyph unicode="1" horiz-adv-x="876" d="M156 1055l45 215l47 14q141 35 238.5 84t191.5 131l18 17h205l-321 -1516h-353l224 1055h-295z" />
<glyph unicode="2" horiz-adv-x="1411" d="M31 0l51 244l399 274q160 111 276.5 197t179 163.5t62.5 165.5q0 82 -56 133.5t-152 51.5q-86 0 -134.5 -34t-70 -79t-26.5 -80l-5 -35h-340l4 39t20.5 99.5t54.5 129t102.5 129t165 99.5t245.5 39q180 0 303 -63.5t185.5 -169t62.5 -232.5t-59.5 -230.5t-158 -189.5 t-214 -160.5t-228.5 -146.5l-55 -37h621l-64 -307h-1169z" />
<glyph unicode="3" horiz-adv-x="1384" d="M78 467h336l6 -29q6 -30 28.5 -69t76 -69t147.5 -30q90 0 147.5 30t85 76t27.5 95q0 68 -58.5 114t-158.5 46h-203l57 272h215q115 0 173.5 54.5t58.5 123.5q0 66 -51.5 115t-157.5 49q-88 0 -138.5 -30.5t-75 -70.5t-30.5 -71l-6 -31h-324l5 35q6 35 23.5 91.5t55 120 t103 119.5t165 92t240.5 36q180 0 300 -58.5t180.5 -150.5t60.5 -194q0 -125 -86 -223.5t-219 -135.5l-2 -12q100 -41 167.5 -123t67.5 -195q0 -84 -38.5 -165.5t-116.5 -149.5t-194.5 -108.5t-272.5 -40.5q-158 0 -263.5 34.5t-170 91t-99.5 118t-47 117.5t-13 91z" />
<glyph unicode="4" horiz-adv-x="1521" d="M51 297l66 305l811 914h483l-197 -924h226l-64 -297h-225l-61 -295h-355l62 295zM473 592h387l121 569z" />
<glyph unicode="5" horiz-adv-x="1376" d="M88 473h328l6 -31q6 -32 28.5 -73t73.5 -73t144 -32q92 0 154.5 41t94 103.5t31.5 128.5q0 84 -55 150.5t-170 66.5q-70 0 -116 -19.5t-73.5 -45t-39.5 -45.5l-13 -19h-350l256 891h975l-66 -308h-692l-92 -319h8l30 31q30 32 96.5 63t176.5 31q160 0 265.5 -65.5 t158.5 -171t53 -224.5q0 -104 -38.5 -205.5t-118.5 -184.5t-198.5 -133t-276.5 -50q-152 0 -253.5 35.5t-165 92t-98 119t-48 118.5t-14.5 92z" />
<glyph unicode="6" horiz-adv-x="1441" d="M117 563q0 190 67.5 365.5t193.5 312.5t305 216t400 79q164 0 244 -20l80 -19l-66 -311l-71 18q-72 19 -187 19q-176 0 -321.5 -79t-222.5 -237q43 41 110.5 73t167.5 32q170 0 281.5 -67.5t167 -175t55.5 -228.5q0 -102 -37 -201.5t-111.5 -180.5t-187 -130t-262.5 -49 q-203 0 -338 80.5t-201.5 214t-66.5 288.5zM483 492q0 -86 55.5 -155t170.5 -69q84 0 141 39t87 99.5t30 123.5q0 84 -54.5 153t-169.5 69q-86 0 -143 -39t-87 -98.5t-30 -122.5z" />
<glyph unicode="7" horiz-adv-x="1294" d="M201 1208l65 308h1137l-51 -252l-44 -38t-115 -112t-156 -182.5t-168 -248.5t-149.5 -312t-101.5 -371h-378q51 250 140 449.5t192.5 349t198.5 252t161 157.5h-731z" />
<glyph unicode="8" horiz-adv-x="1392" d="M74 414q0 129 91 241.5t277 155.5v8q-217 104 -217 303q0 125 81 218.5t213 144.5t288 51q154 0 280.5 -49t203.5 -138t77 -210q0 -119 -78 -210t-229 -143v-10q123 -51 182.5 -141t59.5 -193q0 -113 -72 -219t-213 -174.5t-350 -68.5q-201 0 -333 64.5t-196.5 163.5 t-64.5 206zM434 451q0 -74 60.5 -133.5t181.5 -59.5q86 0 145.5 30.5t88 80t28.5 102.5q0 72 -59.5 132.5t-180.5 60.5q-88 0 -146 -32t-88 -80t-30 -101zM580 1083q0 -63 53.5 -115.5t159.5 -52.5q115 0 172 57.5t57 125.5q0 63 -53.5 114.5t-159.5 51.5q-115 0 -172 -56.5 t-57 -124.5z" />
<glyph unicode="9" horiz-adv-x="1441" d="M53 18l66 312l71 -18q72 -19 189 -19q176 0 320.5 79t224.5 236q-43 -41 -111 -72.5t-168 -31.5q-170 0 -281.5 67.5t-168 175t-56.5 228.5q0 102 38 201.5t113 180.5t186 130t263 49q203 0 337 -81t202 -213t68 -290q0 -190 -68 -365t-195 -312.5t-305 -216t-399 -78.5 q-166 0 -246 19zM494 985q0 -84 55 -152.5t168 -68.5q86 0 144.5 39t87 98.5t28.5 122.5q0 86 -55 154.5t-170 68.5q-84 0 -141.5 -39t-87 -99t-29.5 -124z" />
<glyph unicode=":" horiz-adv-x="602" d="M57 168q0 80 52.5 134t136.5 54q82 0 135 -54t53 -134q0 -78 -53 -133t-135 -55q-84 0 -136.5 56t-52.5 132zM209 918q0 78 53 133t135 55t136.5 -55.5t54.5 -132.5q0 -78 -54.5 -133.5t-136.5 -55.5t-135 55.5t-53 133.5z" />
<glyph unicode=";" horiz-adv-x="616" d="M57 170q0 78 53.5 132t137.5 54t141 -53t57 -145q0 -47 -23.5 -105.5t-76.5 -140.5t-137 -201l-16 -22h-136l176 293q-78 4 -127 58t-49 130zM209 918q0 78 53 133t135 55t136.5 -55.5t54.5 -132.5q0 -78 -54.5 -133.5t-136.5 -55.5t-135 55.5t-53 133.5z" />
<glyph unicode="&#x3c;" horiz-adv-x="1185" d="M156 596l43 203l972 385l-59 -301l-561 -207l473 -203l-61 -264z" />
<glyph unicode="=" horiz-adv-x="1470" d="M127 242l61 284h1086l-62 -284h-1085zM225 711l62 284h1085l-61 -284h-1086z" />
<glyph unicode="&#x3e;" horiz-adv-x="1185" d="M98 209l60 301l561 209l-473 201l61 264l807 -385l-43 -203z" />
<glyph unicode="?" horiz-adv-x="1329" d="M184 1004l6 38q5 37 22 98.5t56 129t104.5 128t167 99.5t244.5 39q172 0 293 -62.5t184.5 -166t63.5 -226.5q0 -113 -46 -189.5t-115.5 -130.5t-142.5 -95t-129 -82t-75 -95l-8 -30h-344l6 45q14 92 67.5 154.5t126 108.5t141 85t115 86t46.5 115q0 80 -56.5 129 t-148.5 49q-86 0 -134 -35t-69.5 -80t-28.5 -78l-6 -34h-340zM428 158q0 76 50 128t130 52q76 0 127 -52.5t51 -127.5q0 -74 -51 -126t-127 -52q-80 0 -130 53t-50 125z" />
<glyph unicode="@" horiz-adv-x="2123" d="M86 506q0 152 45 302t132 284.5t216 239t297 163.5t373 59q246 0 421 -71.5t286.5 -189t164 -262t52.5 -292.5q0 -121 -34 -231.5t-98.5 -197.5t-154.5 -138t-205 -51q-96 0 -158.5 25.5t-97.5 60.5t-48 61l-13 25h-19l-17 -25q-18 -26 -54.5 -61t-94 -60.5t-137.5 -25.5 q-119 0 -196.5 54t-114.5 141t-37 186q0 92 30.5 184t88 168t140.5 122t189 46q70 0 117 -20.5t75 -48t40 -47.5l12 -21h10l27 121h283l-90 -437q-10 -51 -11.5 -101t20 -83t77.5 -33q53 0 99 55.5t74.5 144.5t28.5 191q0 98 -32.5 198.5t-108.5 183.5t-202 134.5t-312 51.5 q-188 0 -335.5 -71t-248 -187.5t-153 -259t-52.5 -283.5q0 -123 40 -235.5t121 -199.5t206 -138.5t297 -51.5q100 0 190.5 16.5t160 37t108.5 37.5l39 16l88 -228l-42 -19q-42 -19 -120 -44t-185.5 -44t-238.5 -19q-242 0 -418 71.5t-291.5 194.5t-172 278.5t-56.5 323.5z M866 524q0 -68 35 -120t113 -52q70 0 119 41t75.5 102.5t26.5 122.5q0 70 -36 121.5t-116 51.5q-68 0 -116.5 -41t-74.5 -101.5t-26 -124.5z" />
<glyph unicode="A" horiz-adv-x="1560" d="M-78 0l832 1516h473l188 -1516h-352l-31 276h-573l-148 -276h-389zM618 580h383l-65 594z" />
<glyph unicode="B" horiz-adv-x="1472" d="M14 0l322 1516h663q150 0 245 -49.5t141.5 -126t46.5 -162.5q0 -76 -34 -149t-98.5 -129t-156.5 -81l-2 -18q121 -29 179 -112t58 -185q0 -86 -40 -175t-116.5 -163t-189 -120t-258.5 -46h-760zM432 295h344q72 0 124 30.5t80 78t28 96.5q0 57 -44.5 101t-136.5 44h-321z M563 911h309q96 0 149.5 58.5t53.5 122.5q0 51 -36.5 90t-116.5 39h-293z" />
<glyph unicode="C" horiz-adv-x="1591" d="M115 649q0 160 54 316.5t160.5 285.5t263.5 207t359 78q162 0 272.5 -40t180.5 -104.5t107.5 -135t53 -135t17.5 -104.5l2 -40h-350l-3 25q-3 24 -16.5 61t-44 72.5t-87 60.5t-146.5 25q-113 0 -200 -47.5t-146.5 -127t-89 -175t-29.5 -191.5q0 -100 35 -188.5 t108.5 -141.5t188.5 -53q106 0 175 36t108.5 84t57.5 85l17 37h350l-11 -40q-11 -40 -39.5 -104.5t-82 -135.5t-135.5 -135.5t-198.5 -104t-274.5 -39.5q-168 0 -292 54t-205.5 149.5t-120.5 215t-39 250.5z" />
<glyph unicode="D" horiz-adv-x="1538" d="M14 0l322 1516h477q176 0 307 -54.5t217 -148.5t129 -214t43 -251q0 -152 -57 -302.5t-171 -274.5t-282 -197.5t-389 -73.5h-596zM436 315h203q127 0 224.5 45.5t164 120t100 165.5t33.5 181q0 98 -41 184.5t-125 139.5t-211 53h-159z" />
<glyph unicode="E" horiz-adv-x="1294" d="M14 0l322 1516h1061l-66 -308h-704l-64 -293h615l-64 -292h-612l-68 -316h715l-64 -307h-1071z" />
<glyph unicode="F" horiz-adv-x="1286" d="M14 0l322 1516h1063l-64 -308h-708l-78 -362h616l-63 -295h-615l-116 -551h-357z" />
<glyph unicode="G" horiz-adv-x="1605" d="M115 659q0 154 54 309.5t161.5 283.5t268.5 206t372 78q156 0 262 -40t174 -104.5t105.5 -135t53 -135t18.5 -104.5l3 -40h-350l-3 25q-3 24 -16.5 61t-44 72.5t-86 60.5t-141.5 25q-115 0 -204 -47.5t-148 -126t-90 -173t-31 -188.5q0 -104 39 -193.5t118 -142.5 t199 -53q127 0 216.5 63.5t130.5 192.5h-355l60 274h700l-14 -114q-33 -254 -142.5 -416t-272 -239.5t-357.5 -77.5q-170 0 -297 54t-212 148t-128 217t-43 260z" />
<glyph unicode="H" horiz-adv-x="1529" d="M14 0l322 1516h356l-125 -588h557l123 588h357l-322 -1516h-356l133 625h-557l-131 -625h-357z" />
<glyph unicode="I" horiz-adv-x="618" d="M14 0l322 1516h356l-321 -1516h-357z" />
<glyph unicode="J" horiz-adv-x="1040" d="M-20 0l61 293l50 -6t112 -6q133 0 231 78.5t131 234.5l195 922h352l-201 -947q-33 -160 -116.5 -294t-227 -214.5t-358.5 -80.5q-98 0 -163 10z" />
<glyph unicode="K" horiz-adv-x="1458" d="M14 0l322 1516h356l-139 -650l631 650h463l-779 -773l439 -743h-400l-391 688l-145 -688h-357z" />
<glyph unicode="L" horiz-adv-x="1292" d="M14 0l322 1516h356l-258 -1209h713l-64 -307h-1069z" />
<glyph unicode="M" horiz-adv-x="1845" d="M14 0l322 1516h463l157 -738l484 738h479l-322 -1516h-356l205 954l-402 -610h-327l-142 621l-204 -965h-357z" />
<glyph unicode="N" horiz-adv-x="1546" d="M14 0l322 1516h328l405 -920l197 920h354l-322 -1516h-329l-410 885l-188 -885h-357z" />
<glyph unicode="O" horiz-adv-x="1673" d="M117 664q0 158 55 312t162.5 281t265.5 203t363 76q174 0 302 -56.5t213 -152.5t126 -219t41 -256q0 -158 -55.5 -312.5t-163 -281.5t-265 -202.5t-360.5 -75.5q-176 0 -304 56t-213 152.5t-126 219t-41 256.5zM477 672q0 -100 36 -185.5t110.5 -137.5t191.5 -52 q113 0 200 48t147.5 129t92 177.5t31.5 192.5q0 100 -36 185t-110.5 137.5t-191.5 52.5q-111 0 -198.5 -48.5t-148 -129t-92.5 -177t-32 -192.5z" />
<glyph unicode="P" horiz-adv-x="1431" d="M14 0l322 1516h586q180 0 295.5 -66t173 -172.5t57.5 -224.5q0 -100 -40 -198.5t-118 -179.5t-192.5 -130t-261.5 -49h-361l-104 -496h-357zM541 803h311q76 0 129 33.5t82 84t29 103.5q0 72 -51.5 127t-157.5 55h-256z" />
<glyph unicode="Q" horiz-adv-x="1722" d="M117 664q0 158 55 312t162.5 281t265.5 203t363 76q174 0 302 -56.5t213 -152.5t126 -219t41 -256q0 -158 -56.5 -315.5t-165.5 -282.5l179 -254h-365l-49 70q-84 -43 -180 -66.5t-207 -23.5q-176 0 -304 56t-213 152.5t-126 219t-41 256.5zM477 672q0 -100 36 -185.5 t110.5 -137.5t191.5 -52q94 0 178 39l-188 256l258 178l151 -215q72 135 72 289q0 100 -36 185t-110.5 137.5t-191.5 52.5q-111 0 -198.5 -48.5t-148 -129t-92.5 -177t-32 -192.5z" />
<glyph unicode="R" horiz-adv-x="1458" d="M14 0l322 1516h584q180 0 297.5 -63.5t175 -164t57.5 -213.5q0 -100 -44 -197.5t-132 -173t-215 -110.5l188 -594h-362l-172 567h-224l-118 -567h-357zM551 852h321q111 0 169.5 61.5t58.5 133.5q0 63 -48.5 113t-144.5 50h-280z" />
<glyph unicode="S" horiz-adv-x="1411" d="M47 481h350l9 -33q8 -32 34.5 -74t86 -75t163.5 -33q115 0 183.5 49.5t68.5 126.5q0 57 -41 95t-119 63l-166 51q-162 47 -268 146.5t-106 267.5q0 127 67.5 233.5t199.5 172t322 65.5q143 0 243 -34t164.5 -86t102 -111.5t56 -112.5t23.5 -86l5 -33h-342l-7 27 q-7 28 -31.5 64t-74.5 63.5t-139 27.5q-115 0 -176 -49t-61 -121q0 -59 42 -97t116 -60l151 -47q180 -55 286.5 -157.5t106.5 -264.5q0 -127 -72.5 -236.5t-210.5 -176t-337 -66.5q-158 0 -266.5 35.5t-177 93t-106.5 122t-54.5 121t-20.5 92.5z" />
<glyph unicode="T" horiz-adv-x="1427" d="M193 1208l63 308h1286l-63 -308h-463l-258 -1208h-355l256 1208h-466z" />
<glyph unicode="U" horiz-adv-x="1505" d="M142 339q-13 54 -12 118q0 84 22 184l184 875h356l-186 -879q-12 -57 -12 -105q0 -79 34 -133q54 -86 189 -86q129 0 208 84t111 240l187 879h354l-193 -912q-49 -233 -154.5 -369.5t-253 -195.5t-321.5 -59q-117 0 -223 36.5t-183 116.5t-107 206z" />
<glyph unicode="V" horiz-adv-x="1538" d="M219 1516h352l127 -1174l625 1174h389l-831 -1516h-473z" />
<glyph unicode="W" horiz-adv-x="2172" d="M240 1516h338l28 -1057l479 1057h365l37 -1059l469 1059h371l-691 -1516h-452l-31 920l-418 -920h-446z" />
<glyph unicode="X" horiz-adv-x="1595" d="M-39 0l655 797l-284 719h401l176 -490l383 490h457l-659 -795l292 -721h-401l-178 494l-387 -494h-455z" />
<glyph unicode="Y" horiz-adv-x="1441" d="M229 1516h365l186 -639l457 639h414l-748 -1004l-106 -512h-357l109 514z" />
<glyph unicode="Z" horiz-adv-x="1400" d="M-6 0l53 248l887 960h-684l65 308h1184l-53 -248l-889 -961h686l-65 -307h-1184z" />
<glyph unicode="[" horiz-adv-x="1028" d="M-80 -444l467 2201h735l-63 -299h-375l-342 -1603h377l-64 -299h-735z" />
<glyph unicode="\" horiz-adv-x="1069" d="M276 1702h289l269 -2093h-289z" />
<glyph unicode="]" horiz-adv-x="1044" d="M-33 -444l64 299h375l342 1603h-377l63 299h735l-467 -2201h-735z" />
<glyph unicode="^" horiz-adv-x="1198" d="M315 1137l353 379h272l193 -379h-254l-95 211l-188 -211h-281z" />
<glyph unicode="_" horiz-adv-x="1474" d="M33 -225l71 225h1055l-69 -225h-1057z" />
<glyph unicode="`" horiz-adv-x="649" d="M102 1599h308l137 -366l-240 -2z" />
<glyph unicode="a" horiz-adv-x="1343" d="M80 440q0 117 38 235t108.5 215t174 156.5t234.5 59.5q88 0 146.5 -24.5t93 -57.5t51 -60.5t18.5 -33.5h17l32 155h350l-227 -1085h-350l27 125h-17l-16 -21q-15 -22 -49.5 -50.5t-92 -51t-141.5 -22.5q-135 0 -223 64.5t-131 169.5t-43 226zM434 479q0 -88 44 -153.5 t143 -65.5q86 0 148 53.5t96 132t34 158.5q0 88 -45 154.5t-141 66.5q-88 0 -150.5 -53t-95.5 -133t-33 -160z" />
<glyph unicode="b" horiz-adv-x="1347" d="M20 0l326 1556h350l-125 -595h15l16 21q16 22 51 50.5t91.5 51t140.5 22.5q135 0 223 -64.5t131 -170t43 -226.5q0 -117 -37 -234.5t-108.5 -215t-174 -156.5t-233.5 -59q-88 0 -146.5 24.5t-93 57t-51 60.5t-18.5 34h-17l-32 -156h-351zM465 481q0 -88 45 -154.5 t141 -66.5q86 0 148.5 53.5t96.5 133t34 159.5q0 88 -45 153.5t-142 65.5q-88 0 -150.5 -53t-95 -132t-32.5 -159z" />
<glyph unicode="c" horiz-adv-x="1253" d="M86 477q0 115 41 226.5t123 202.5t202.5 145.5t278.5 54.5q145 0 236.5 -43t141.5 -106.5t70.5 -127t24.5 -106.5l4 -43h-325l-2 22q-2 23 -16.5 53.5t-47.5 53t-96 22.5q-88 0 -151.5 -53t-97.5 -134t-34 -165q0 -92 45 -158.5t142 -66.5q61 0 100 22.5t62.5 53 t32.5 53.5l9 23h326l-13 -44q-14 -43 -47.5 -106t-96 -126.5t-160 -106.5t-238.5 -43q-176 0 -289.5 69.5t-169 183t-55.5 244.5z" />
<glyph unicode="d" horiz-adv-x="1366" d="M80 440q0 117 38 235t108.5 215t174 156.5t234.5 59.5q88 0 146.5 -24.5t93 -57.5t51 -60.5t18.5 -33.5h17l131 626h350l-326 -1556h-350l27 125h-17l-16 -21q-15 -22 -49.5 -50.5t-92 -51t-141.5 -22.5q-135 0 -223 64.5t-131 169.5t-43 226zM434 479q0 -88 44.5 -153.5 t142.5 -65.5q86 0 148 53.5t96 132t34 158.5q0 88 -45 154.5t-141 66.5q-88 0 -150.5 -53t-95.5 -133t-33 -160z" />
<glyph unicode="e" horiz-adv-x="1267" d="M88 479q0 113 40 223.5t119 201.5t196.5 146.5t273.5 55.5q150 0 250 -54.5t155 -143.5q56 -88 70 -196q6 -44 6 -89q0 -63 -12 -127l-8 -43h-746q4 -98 53.5 -157.5t141.5 -59.5q74 0 115.5 29.5t59.5 60.5l19 30h328l-15 -38q-14 -37 -49.5 -93.5t-98 -113t-157 -94 t-227.5 -37.5q-178 0 -291.5 70.5t-168 185t-54.5 243.5zM463 655h416q3 16 3 32q0 59 -36 105q-45 58 -141 58q-92 0 -155.5 -56.5t-86.5 -138.5z" />
<glyph unicode="f" horiz-adv-x="835" d="M80 807l59 278h172l29 138q18 86 66.5 168t143.5 134t249 52q74 0 123 -11l49 -12l-51 -241l-24 5t-54 5q-129 0 -156 -129l-24 -109h208l-59 -278h-207l-172 -807h-350l170 807h-172z" />
<glyph unicode="g" horiz-adv-x="1351" d="M-6 -59h338l4 -17q4 -16 21.5 -37.5t53 -38t99.5 -16.5q113 0 183.5 63.5t90.5 163.5l21 101h-14l-17 -20q-18 -21 -53 -47.5t-90.5 -46t-128.5 -19.5q-141 0 -232.5 64.5t-136.5 167.5t-45 222q0 111 37 221.5t106.5 201.5t171 146.5t232.5 55.5q94 0 155.5 -28.5 t97.5 -65.5t50 -66l14 -28h17l35 167h348l-219 -1044q-47 -223 -200.5 -351t-432.5 -128q-156 0 -252 38t-149.5 95t-76 113.5t-25.5 94.5zM451 520q0 -90 45 -157.5t143 -67.5q82 0 140.5 48t88 122t29.5 147q0 90 -46 158t-144 68q-80 0 -138.5 -48.5t-88 -122 t-29.5 -147.5z" />
<glyph unicode="h" horiz-adv-x="1263" d="M14 0l332 1556h352l-133 -624h10l17 26q16 25 54 60t97.5 61.5t145.5 26.5q119 0 193 -58q74 -57 100 -152q14 -50 13 -105q0 -50 -11 -103l-148 -688h-350l133 625q7 32 7 61q0 42 -16 77q-26 58 -105 58q-86 0 -138.5 -61.5t-68.5 -147.5l-131 -612h-353z" />
<glyph unicode="i" horiz-adv-x="612" d="M14 0l232 1085h350l-231 -1085h-351zM285 1407q0 80 57 137.5t147 57.5q88 0 145.5 -57.5t57.5 -137.5q0 -82 -57.5 -139.5t-145.5 -57.5q-90 0 -147 58.5t-57 138.5z" />
<glyph unicode="j" horiz-adv-x="665" d="M-250 -416l55 260l21 -2q20 -2 45 -2q76 0 128 39t71 123l229 1083h350l-233 -1097q-14 -72 -47 -146.5t-90.5 -136t-149.5 -98.5t-227 -37q-66 0 -109 7zM338 1407q0 80 57.5 137.5t147.5 57.5q88 0 145 -57.5t57 -137.5q0 -82 -57 -139.5t-145 -57.5q-90 0 -147.5 58.5 t-57.5 138.5z" />
<glyph unicode="k" horiz-adv-x="1296" d="M14 0l332 1556h352l-190 -892l405 421h428l-528 -530l317 -555h-387l-274 487l-102 -487h-353z" />
<glyph unicode="l" horiz-adv-x="616" d="M14 0l334 1556h350l-331 -1556h-353z" />
<glyph unicode="m" horiz-adv-x="1878" d="M4 0l232 1085h350l-33 -153h10l19 26q18 25 57 60t97.5 61.5t140.5 26.5q119 0 189.5 -61.5t90.5 -153.5h10l21 33q20 32 62 74t108.5 75t161.5 33q115 0 185.5 -54.5t94.5 -142.5q13 -47 14 -98q0 -43 -10 -88l-153 -723h-351l138 647q6 29 6 53q0 42 -18 73 q-28 48 -97 48q-72 0 -123 -53t-67 -135l-135 -633h-351l138 647q6 29 6 53q-1 41 -17 72q-26 49 -98 49q-74 0 -124 -54t-69 -134l-133 -633h-352z" />
<glyph unicode="n" horiz-adv-x="1253" d="M4 0l232 1085h352l-35 -153h12l17 26q16 25 54 60t97.5 61.5t145.5 26.5q119 0 193 -58q74 -57 100 -152q14 -50 13 -105q0 -50 -11 -103l-148 -688h-350l133 625q7 32 7 61q0 42 -16 77q-26 58 -106 58q-86 0 -138 -61.5t-69 -147.5l-131 -612h-352z" />
<glyph unicode="o" d="M86 475q0 113 41 224.5t123 203.5t200.5 147.5t274.5 55.5q176 0 292 -70.5t172 -183.5t56 -242q0 -113 -42 -225.5t-124 -203.5t-200.5 -146t-272.5 -55q-178 0 -293.5 70.5t-171 183t-55.5 241.5zM436 479q0 -86 44 -151.5t138 -65.5q84 0 144.5 50t93.5 129t33 165 t-44 151.5t-138 65.5q-84 0 -144.5 -50t-93.5 -129t-33 -165z" />
<glyph unicode="p" horiz-adv-x="1345" d="M-63 -399l309 1484h350l-27 -124h17l15 21q15 22 50 50.5t92.5 51t139.5 22.5q137 0 224 -64.5t130 -170t43 -226.5q0 -117 -37 -234.5t-108.5 -215t-174 -156.5t-233.5 -59q-88 0 -146.5 24.5t-93 57t-51 60.5t-18.5 34h-17l-114 -555h-350zM463 481q0 -88 45 -154.5 t141 -66.5q88 0 150.5 53.5t95.5 133t33 159.5q0 88 -45 153.5t-142 65.5q-86 0 -148.5 -53t-96 -132t-33.5 -159z" />
<glyph unicode="q" horiz-adv-x="1368" d="M80 438q0 117 38 235t108.5 215t174 156.5t234.5 59.5q88 0 146.5 -23.5t93 -57.5t51 -60.5t18.5 -34.5h17l32 155h350l-311 -1482h-350l109 524h-15l-16 -23q-15 -22 -49.5 -50.5t-92 -51.5t-141.5 -23q-135 0 -223 64.5t-131 170t-43 226.5zM434 479q0 -90 44.5 -155.5 t142.5 -65.5q86 0 148 53.5t96 132t34 158.5q0 90 -45 155.5t-141 65.5q-88 0 -150.5 -53t-95.5 -133t-33 -158z" />
<glyph unicode="r" horiz-adv-x="933" d="M4 0l232 1085h348l-35 -163h10q47 82 127 133t195 51q47 0 71 -6l23 -6l-74 -342l-25 4q-26 4 -65 4q-154 0 -246 -105.5t-129 -275.5l-80 -379h-352z" />
<glyph unicode="s" horiz-adv-x="1132" d="M16 354h336l6 -18q7 -19 25 -42.5t57 -40.5t101 -17q78 0 112.5 28.5t34.5 63.5q0 33 -24.5 50t-65.5 28l-149 32q-135 31 -214 109t-79 196q0 98 55 180.5t160.5 132.5t255.5 50q129 0 215 -35t136 -87t74.5 -104.5t31.5 -87.5l8 -34h-322l-11 24q-11 23 -46 45.5 t-107 22.5q-68 0 -101.5 -25.5t-33.5 -62.5q0 -33 26.5 -52.5t73.5 -29.5l125 -27q156 -31 236 -113.5t80 -197.5q0 -98 -57.5 -181t-168 -132t-270.5 -49q-145 0 -238.5 37.5t-146.5 93t-77.5 112t-31.5 93.5z" />
<glyph unicode="t" horiz-adv-x="919" d="M111 807l59 278h180l58 269h352l-58 -269h211l-59 -278h-211l-86 -404q-6 -27 -6 -49q0 -102 131 -102h2q35 0 62 5l28 5l-57 -264l-50 -9t-126 -9q-127 0 -202 39.5t-109 104.5q-32 64 -36 138q-1 14 -1 28q0 59 12 116l86 401h-180z" />
<glyph unicode="u" horiz-adv-x="1234" d="M90 399l146 686h350l-137 -653q-6 -30 -6 -55q0 -42 17 -69q27 -44 99 -44q82 0 130 56.5t67 136.5l133 628h350l-229 -1085h-351l31 154h-12q-55 -72 -138 -123t-196 -51q-154 0 -224 114q-45 72 -45 174q0 60 15 131z" />
<glyph unicode="v" horiz-adv-x="1253" d="M158 1085h323l99 -698l372 698h369l-608 -1085h-396z" />
<glyph unicode="w" horiz-adv-x="1830" d="M158 1085h329l33 -657l330 657h319l50 -657l311 657h368l-561 -1085h-370l-47 592l-293 -592h-371z" />
<glyph unicode="x" horiz-adv-x="1249" d="M-84 0l467 578l-205 507h363l116 -321l248 321h408l-479 -581l219 -504h-361l-125 326l-241 -326h-410z" />
<glyph unicode="y" horiz-adv-x="1243" d="M-92 -391l59 289l21 -2q22 -2 57 -2q76 0 142.5 22.5t129.5 95.5l-159 1073h329l84 -696l371 696h369l-596 -1028q-88 -154 -186.5 -255t-221 -151t-284.5 -50q-57 0 -86 4z" />
<glyph unicode="z" horiz-adv-x="1112" d="M-16 0l49 240l614 567h-479l61 278h934l-51 -239l-614 -567h493l-59 -279h-948z" />
<glyph unicode="{" horiz-adv-x="1019" d="M57 508l62 297h84q135 0 164 141l88 420q41 193 153.5 292t321.5 99h272l-63 -299h-178q-127 0 -154 -129l-84 -399q-23 -111 -71 -173.5t-160 -92.5l-5 -15q98 -33 119 -104.5t-2 -165.5l-84 -399q-27 -125 115 -125h164l-64 -299h-186q-164 0 -257 58t-122 162.5 t0 237.5l78 369q25 125 -98 125h-93z" />
<glyph unicode="|" horiz-adv-x="829" d="M47 -516l526 2478h285l-526 -2478h-285z" />
<glyph unicode="}" horiz-adv-x="1019" d="M-139 -444l61 299h180q125 0 154 129l84 399q23 111 70 172t161 94l2 15q-96 33 -116.5 104.5t0.5 165.5l86 399q25 125 -115 125h-164l64 299h186q164 0 256 -59.5t122 -162.5t1 -239l-78 -366q-25 -125 98 -125h93l-64 -297h-82q-135 0 -164 -141l-88 -420 q-41 -193 -153.5 -292t-323.5 -99h-270z" />
<glyph unicode="~" horiz-adv-x="1019" d="M164 653q16 80 42.5 150.5t77 117t138.5 46.5q55 0 95 -19.5t69.5 -44t55.5 -44t52 -19.5q31 0 48.5 29.5t29.5 84.5h176q-16 -78 -42.5 -149.5t-77 -117.5t-136.5 -46q-55 0 -95 19.5t-70.5 44t-56.5 44t-52 19.5q-55 0 -78 -115h-176z" />
<glyph unicode="&#xa1;" horiz-adv-x="602" d="M-84 -453l277 1049h286l-178 -1049h-385zM215 903q0 74 51 127t129 53t128 -53t50 -127q0 -76 -50 -128t-128 -52t-129 52t-51 128z" />
<glyph unicode="&#xa2;" horiz-adv-x="1253" d="M86 477q0 111 38 217.5t111.5 195.5t184 146.5t256.5 67.5l35 170h161l-36 -176q115 -16 185.5 -63.5t109 -108t55 -116.5t19.5 -93l3 -37h-325l-5 30q-4 29 -25.5 64t-74.5 51l-121 -569q68 10 106 47t52 70l14 33h326l-13 -44q-14 -43 -47.5 -106t-96 -126.5 t-160 -106.5t-238.5 -43h-2l-35 -168h-164l41 186q-121 31 -199.5 102.5t-116.5 170t-38 206.5zM438 479q0 -55 16.5 -102t49.5 -80l108 508q-84 -43 -129 -136.5t-45 -189.5z" />
<glyph unicode="&#xa3;" horiz-adv-x="1267" d="M10 0l62 293q162 14 255 70.5t93 160.5q0 29 -8.5 57.5t-18.5 59.5h-278l28 139h189q-18 45 -30.5 98.5t-12.5 114.5q0 139 75.5 263t229.5 202t385 78q96 0 177 -11.5t130 -22.5l49 -11l-63 -301l-37 10t-99.5 21.5t-142.5 11.5q-172 0 -266 -66.5t-94 -183.5 q0 -55 17.5 -103.5t37.5 -99.5h383l-31 -139h-321q2 -12 2 -25q0 -90 -33 -150t-74 -97t-73.5 -55.5t-34.5 -22.5h641l-62 -291h-1075z" />
<glyph unicode="&#xa4;" horiz-adv-x="1415" d="M102 309l187 189q-37 57 -57.5 126.5t-20.5 145.5q0 74 20.5 142.5t57.5 125.5l-187 187l150 147l186 -186q121 82 271 82t272 -80l184 184l148 -147l-185 -185q80 -123 80 -270q0 -152 -82 -272l187 -189l-148 -147l-186 186q-123 -78 -270 -78q-74 0 -142.5 20.5 t-128.5 57.5l-186 -186zM451 768q0 -70 34.5 -129t93 -94t130.5 -35t130 35t93 94t35 129q0 72 -35 130t-93.5 93t-129.5 35q-72 0 -130.5 -35t-93 -93t-34.5 -130z" />
<glyph unicode="&#xa5;" horiz-adv-x="1441" d="M139 403l37 172h354l-51 160h-270l37 174h178l-195 607h365l186 -639l457 639h414l-451 -607h168l-37 -174h-262l-117 -160h346l-36 -172h-381l-84 -403h-357l86 403h-387z" />
<glyph unicode="&#xa6;" horiz-adv-x="831" d="M47 -516l219 1030h285l-219 -1030h-285zM338 856l235 1106h285l-233 -1106h-287z" />
<glyph unicode="&#xa7;" horiz-adv-x="1470" d="M-45 41h348l8 -33t37 -76t88.5 -75.5t161.5 -32.5q117 0 185.5 50t68.5 128q0 59 -41 98t-117 62l-209 61q-166 47 -272.5 136.5t-106.5 238.5q0 94 40 160.5t104.5 105.5t136.5 51l4 15q-6 4 -30.5 30.5t-47 78t-22.5 130.5q0 123 67.5 227.5t198.5 167t320 62.5 q141 0 241.5 -33.5t166 -87t104 -113t57 -112.5t24.5 -87l7 -34h-342l-7 29q-8 29 -32.5 65.5t-75.5 65.5t-139 29q-113 0 -176.5 -49.5t-63.5 -122.5q0 -59 43 -99.5t121 -62.5l196 -58q166 -49 273.5 -138t107.5 -238q0 -92 -41 -159t-105.5 -106t-135.5 -53l-4 -14 q6 -4 33.5 -32t52 -78t24.5 -120q0 -129 -71.5 -238.5t-210.5 -176t-346 -66.5q-154 0 -260.5 37t-175 94.5t-107.5 121t-55.5 120.5t-20.5 94zM455 651q0 -57 42 -94t119 -61l314 -101q31 18 68.5 49t37.5 86q0 100 -153 150l-322 100q-33 -16 -69.5 -45.5t-36.5 -83.5z " />
<glyph unicode="&#xa8;" horiz-adv-x="1044" d="M43 1380q0 80 53.5 133.5t139.5 53.5q82 0 137 -53.5t55 -133.5q0 -74 -55 -128t-137 -54q-86 0 -139.5 54.5t-53.5 127.5zM530 1380q0 80 53.5 133.5t139.5 53.5q82 0 137 -53.5t55 -133.5q0 -74 -55 -128t-137 -54q-86 0 -139.5 54.5t-53.5 127.5z" />
<glyph unicode="&#xa9;" horiz-adv-x="1654" d="M115 659q0 145 51 286.5t152.5 257.5t252 184.5t347.5 68.5q176 0 306 -56.5t216 -152.5t128 -217t42 -252q0 -145 -51.5 -286.5t-153.5 -257t-251.5 -184t-346.5 -68.5q-176 0 -307 56t-216 152.5t-127 218t-42 250.5zM334 670q0 -127 53 -239t159.5 -181.5t268.5 -69.5 q143 0 251 51.5t180.5 137.5t109.5 190.5t37 210.5q0 125 -51.5 235.5t-157 180t-269.5 69.5q-141 0 -248.5 -50t-182 -135t-112.5 -189.5t-38 -210.5zM485 672q0 104 52.5 206.5t154 169t248.5 66.5q102 0 165.5 -30.5t97.5 -74.5t48.5 -89.5t16.5 -75.5l2 -29h-223l-5 27 q-4 28 -27.5 55t-82.5 27q-63 0 -108.5 -39t-70 -96.5t-24.5 -114.5q0 -66 33 -114t102 -48q57 0 89 27.5t45 55.5l12 28h223l-9 -31q-10 -31 -33.5 -75t-66.5 -89t-111.5 -74.5t-166.5 -29.5q-123 0 -203 49t-119 129t-39 170z" />
<glyph unicode="&#xaa;" horiz-adv-x="868" d="M190 1014q0 90 68 154.5t201 74.5l207 14l2 11q8 39 -9.5 62.5t-62.5 23.5q-39 0 -56.5 -13.5t-22.5 -26.5l-5 -14h-238l12 36q11 36 47 82t103.5 82t179.5 36q117 0 190 -43t100.5 -110.5t13.5 -137.5l-89 -407h-253l16 75h-8q-27 -39 -70 -63.5t-110 -24.5 q-100 0 -158 50.5t-58 138.5zM446 1044q0 -53 68 -53q39 0 74 25.5t47 77.5l4 20l-123 -10q-39 -2 -54.5 -22t-15.5 -38z" />
<glyph unicode="&#xab;" horiz-adv-x="1579" d="M106 629l535 454h383l-553 -473l317 -436h-339zM741 629l535 454h381l-553 -473l319 -436h-342z" />
<glyph unicode="&#xac;" horiz-adv-x="1341" d="M215 813l57 272h1014l-57 -272l-64 -297h-293l62 297h-719z" />
<glyph unicode="&#xad;" horiz-adv-x="1228" d="M188 502l52 274h768l-50 -274h-770z" />
<glyph unicode="&#xae;" horiz-adv-x="880" d="M197 1139q0 98 46 192t137 154.5t224 60.5q115 0 191.5 -49t116.5 -128t40 -167q0 -98 -47 -192.5t-137 -155.5t-223 -61q-115 0 -193 50t-116.5 129t-38.5 167zM293 1141q0 -66 27.5 -125.5t85 -96t143.5 -36.5q100 0 167.5 47t102.5 120.5t35 149.5q0 66 -26.5 124 t-83 95t-142.5 37q-100 0 -168.5 -47t-104.5 -119.5t-36 -148.5zM385 983l82 395h162q76 0 111.5 -37.5t35.5 -83.5q0 -39 -24.5 -74.5t-71.5 -52.5l43 -147h-119l-37 137h-41l-28 -137h-113zM547 1208h71q23 0 35.5 12.5t12.5 26.5q0 33 -41 33h-64z" />
<glyph unicode="&#xaf;" horiz-adv-x="794" d="M35 1333l43 197h682l-43 -197h-682z" />
<glyph unicode="&#xb0;" horiz-adv-x="935" d="M223 1153q0 106 52.5 192.5t138.5 138.5t192 52t193.5 -52t138.5 -138t51 -193q0 -106 -51 -193.5t-138.5 -138.5t-193.5 -51t-192 51t-138.5 138.5t-52.5 193.5zM461 1153q0 -59 42 -103t103 -44t104.5 44t43.5 103q0 61 -43 104t-105 43q-61 0 -103 -43t-42 -104z" />
<glyph unicode="&#xb1;" horiz-adv-x="1294" d="M76 0l39 186h911l-41 -186h-909zM217 629l59 274h310l65 307h273l-66 -307h309l-59 -274h-307l-66 -310h-274l65 310h-309z" />
<glyph unicode="&#xb2;" horiz-adv-x="976" d="M217 825l37 176l240 156q147 96 227 166t80 141q0 45 -31 72t-82 27q-45 0 -70.5 -17.5t-37 -41t-14.5 -42.5l-3 -18h-248l5 34q4 33 22 84.5t59 102.5t114 86t185 35q119 0 199 -42t121 -110.5t41 -148.5q0 -82 -38 -148.5t-98.5 -120t-129 -95.5t-129.5 -74h354 l-47 -222h-756z" />
<glyph unicode="&#xb3;" horiz-adv-x="970" d="M217 1122h244l7 -26q7 -25 37 -49.5t95 -24.5q76 0 108.5 32.5t32.5 69.5q0 27 -27.5 53.5t-86.5 26.5h-131l41 197h137q66 0 94.5 28.5t28.5 63.5q0 31 -28 57.5t-87 26.5q-66 0 -94.5 -27.5t-35.5 -55.5l-7 -28h-236l7 33q6 33 25 80t60 94t113 80t180 33 q119 0 198 -38t118 -96.5t39 -121.5q0 -72 -47.5 -134.5t-141.5 -86.5l-2 -13q68 -25 105.5 -76t37.5 -116q0 -70 -44 -136.5t-133 -110.5t-222 -44q-123 0 -198.5 30.5t-114.5 77t-54.5 92.5t-16.5 77z" />
<glyph unicode="&#xb4;" horiz-adv-x="649" d="M311 1233l164 366h318l-232 -368z" />
<glyph unicode="&#xb5;" horiz-adv-x="1359" d="M-98 -401l315 1486h350l-135 -645q-18 -78 7.5 -127t101.5 -49q82 0 130 57.5t66 143.5l133 620h351l-148 -696q-12 -57 4.5 -96t98.5 -39q25 0 43 3l18 3l-55 -266l-52 -7q-51 -7 -110 -7q-143 0 -215 52t-92 122h-17l-12 -27q-12 -27 -41 -60.5t-78 -60t-121 -26.5 q-63 0 -103 17t-59 35l-18 17l-12 -10q39 -86 41 -169t-25 -204l-16 -67h-350z" />
<glyph unicode="&#xb6;" horiz-adv-x="1204" d="M168 991q0 106 55.5 207.5t164 168.5t267.5 67h648l-306 -1434h-211l242 1128h-133l-240 -1128h-211l131 621q-137 2 -228 55t-135 137t-44 178z" />
<glyph unicode="&#xb7;" horiz-adv-x="657" d="M29 748q0 78 53 133t137 55q80 0 134.5 -55.5t54.5 -132.5q0 -78 -54.5 -133.5t-134.5 -55.5q-84 0 -137 55.5t-53 133.5z" />
<glyph unicode="&#xb8;" horiz-adv-x="540" d="M-109 -508l27 180l26 -3q27 -3 63 -6t63 -3q74 0 100.5 23.5t26.5 52.5q0 25 -20.5 43t-61.5 18q-37 0 -63 -12l-25 -12l-88 108l178 193h219l-131 -137h2q102 0 164.5 -60.5t62.5 -142.5q0 -61 -38 -120.5t-118.5 -98.5t-209.5 -39q-70 0 -124 8z" />
<glyph unicode="&#xb9;" horiz-adv-x="673" d="M244 1454l32 158l29 8q92 27 157.5 59.5t131.5 85.5l10 9h152l-203 -949h-256l131 629h-184z" />
<glyph unicode="&#xba;" horiz-adv-x="913" d="M223 1145q0 96 47 187t139.5 149.5t225.5 58.5q117 0 192.5 -45t113.5 -117.5t38 -156.5q0 -94 -47 -183.5t-139.5 -149t-225.5 -59.5q-117 0 -193.5 45.5t-113.5 118t-37 152.5zM483 1151q0 -45 22.5 -80t69.5 -35q63 0 102.5 55.5t39.5 127.5q0 47 -22.5 80.5 t-73.5 33.5q-61 0 -99.5 -55t-38.5 -127z" />
<glyph unicode="&#xbb;" horiz-adv-x="1576" d="M8 174l553 473l-317 436h340l342 -454l-535 -455h-383zM643 174l553 473l-317 436h340l342 -454l-537 -455h-381z" />
<glyph unicode="&#xbc;" horiz-adv-x="1851" d="M213 1186l29 139l18 4q78 20 133.5 47t104.5 68l6 6h131l-152 -727h-225l98 463h-143zM293 0l1104 1434h260l-1104 -1434h-260zM1192 139l41 174l360 416h305l-90 -422h99l-35 -168h-98l-31 -137h-217l30 137h-364zM1448 307h143l47 221z" />
<glyph unicode="&#xbd;" horiz-adv-x="1820" d="M213 1186l29 139l18 4q78 20 133.5 47t104.5 68l6 6h131l-152 -727h-225l98 463h-143zM293 0l1104 1434h260l-1104 -1434h-260zM1219 2l30 145l178 113q125 78 179.5 129t54.5 94q0 33 -20.5 53.5t-57.5 20.5q-43 0 -60.5 -21.5t-21.5 -41.5l-4 -21h-207l3 27 q3 26 17.5 66t46.5 80t89 66.5t145 26.5q141 0 214 -70.5t73 -164.5q0 -80 -44 -140.5t-110.5 -104.5t-132.5 -75h258l-39 -182h-591z" />
<glyph unicode="&#xbe;" horiz-adv-x="1923" d="M176 948h201l5 -15t26.5 -31.5t68.5 -16.5q53 0 77 22.5t24 42.5q0 18 -18.5 37t-63.5 19h-101l35 161h105q47 0 64 21.5t17 42.5q0 23 -18 41t-59 18q-47 0 -68.5 -19.5t-28.5 -40.5l-6 -20h-190l4 26q4 26 20.5 62.5t49 73.5t88 62.5t141.5 25.5q94 0 155.5 -29.5 t91 -75.5t29.5 -93q0 -55 -41 -103.5t-110 -66.5v-9q53 -18 85 -57t32 -90t-35 -103.5t-105.5 -86t-181.5 -33.5q-92 0 -149.5 23.5t-87 59t-42 70.5t-13.5 58zM461 0l1104 1434h260l-1104 -1434h-260zM1360 139l41 174l360 416h305l-90 -422h99l-35 -168h-98l-31 -137h-217 l30 137h-364zM1616 307h143l47 221z" />
<glyph unicode="&#xbf;" horiz-adv-x="1327" d="M-25 0q0 113 46.5 189.5t116 131t142 95.5t129 82t74.5 94l9 31h344l-7 -45q-14 -92 -67 -155t-126 -109t-141.5 -85t-114.5 -86t-46 -114q0 -80 56 -129.5t149 -49.5q86 0 134 35t69.5 80t27.5 79l6 34h340l-5 -38t-22.5 -99.5t-56.5 -129t-104.5 -128t-167 -99.5 t-244.5 -39q-172 0 -293 62.5t-184.5 166t-63.5 226.5zM514 922q0 76 51 129t127 53q80 0 130 -53.5t50 -128.5q0 -74 -50 -126.5t-130 -52.5q-76 0 -127 52.5t-51 126.5z" />
<glyph unicode="&#xc0;" horiz-adv-x="1552" d="M-82 0l834 1516h471l188 -1516h-350l-31 276h-575l-148 -276h-389zM616 580h381l-65 594zM670 2030h309l135 -367l-240 -2z" />
<glyph unicode="&#xc1;" horiz-adv-x="1552" d="M-82 0l834 1516h471l188 -1516h-350l-31 276h-575l-148 -276h-389zM616 580h381l-65 594zM909 1663l164 367h318l-232 -369z" />
<glyph unicode="&#xc2;" horiz-adv-x="1552" d="M-82 0l834 1516h471l188 -1516h-350l-31 276h-575l-148 -276h-389zM590 1642l338 322h274l203 -322h-252l-104 179l-179 -179h-280zM616 580h381l-65 594z" />
<glyph unicode="&#xc3;" horiz-adv-x="1552" d="M-82 0l834 1516h471l188 -1516h-350l-31 276h-575l-148 -276h-389zM616 580h381l-65 594zM668 1698q16 80 42.5 151.5t78 116.5t137.5 45q55 0 96 -18.5t70.5 -43t55.5 -44t52 -19.5q31 0 48.5 29t29.5 84h178q-16 -80 -44 -151.5t-78 -116.5t-136 -45q-55 0 -95 18 t-71 44t-56.5 44t-53.5 18q-53 0 -76 -112h-178z" />
<glyph unicode="&#xc4;" horiz-adv-x="1552" d="M-82 0l834 1516h471l188 -1516h-350l-31 276h-575l-148 -276h-389zM610 1812q0 76 54.5 130.5t138.5 54.5t138 -54.5t54 -130.5t-54 -131t-138 -55t-138.5 55.5t-54.5 130.5zM616 580h381l-65 594zM1098 1812q0 76 54 130.5t138 54.5t138.5 -54.5t54.5 -130.5t-54.5 -131 t-138.5 -55t-138 55.5t-54 130.5z" />
<glyph unicode="&#xc5;" horiz-adv-x="1552" d="M-82 0l834 1516h471l188 -1516h-350l-31 276h-575l-148 -276h-389zM616 580h381l-65 594zM766 1907q0 78 38 142.5t102.5 102t142.5 37.5t142 -37.5t103 -102t39 -142.5t-39 -142.5t-103 -102.5t-142 -38t-142.5 38t-102.5 102.5t-38 142.5zM940 1907q0 -45 32 -77 t77 -32t76.5 32t31.5 77t-31.5 75.5t-76.5 30.5t-77 -30.5t-32 -75.5z" />
<glyph unicode="&#xc6;" horiz-adv-x="2095" d="M-78 0l979 1516h1297l-66 -308h-688l-64 -293h598l-63 -292h-596l-68 -316h699l-64 -307h-1055l60 276h-402l-180 -276h-387zM682 575h272l131 625z" />
<glyph unicode="&#xc7;" horiz-adv-x="1591" d="M115 649q0 160 54 316.5t160.5 285.5t263.5 207t359 78q162 0 272.5 -40t180.5 -104.5t107.5 -135t53 -135t17.5 -104.5l2 -40h-350l-3 25q-3 24 -16.5 61t-44 72.5t-87 60.5t-146.5 25q-113 0 -200 -47.5t-146.5 -127t-89 -175t-29.5 -191.5q0 -100 35 -188.5 t108.5 -141.5t188.5 -53q106 0 175 36t108.5 84t57.5 85l17 37h350l-11 -40q-11 -40 -39.5 -104.5t-81 -135.5t-133.5 -135.5t-195.5 -104t-268.5 -39.5l-55 -56h4q102 0 165 -60.5t63 -144.5q0 -61 -39 -120.5t-120 -97.5t-210 -38q-68 0 -121 9l-53 8l26 180l27 -3 t62.5 -6t62.5 -3q74 0 100.5 23.5t26.5 52.5q0 25 -20.5 43t-61.5 18q-37 0 -63.5 -12.5t-24.5 -12.5l-88 109l121 131q-160 39 -264.5 136t-155.5 231.5t-51 281.5z" />
<glyph unicode="&#xc8;" horiz-adv-x="1292" d="M14 0l322 1516h1044l-65 -308h-688l-64 -293h598l-63 -292h-596l-68 -316h699l-64 -307h-1055zM539 2030h309l137 -367l-242 -2z" />
<glyph unicode="&#xc9;" horiz-adv-x="1292" d="M14 0l322 1516h1044l-65 -308h-688l-64 -293h598l-63 -292h-596l-68 -316h699l-64 -307h-1055zM778 1663l164 367h318l-232 -369z" />
<glyph unicode="&#xca;" horiz-adv-x="1292" d="M14 0l322 1516h1044l-65 -308h-688l-64 -293h598l-63 -292h-596l-68 -316h699l-64 -307h-1055zM459 1642l340 322h272l203 -322h-250l-106 179l-177 -179h-282z" />
<glyph unicode="&#xcb;" horiz-adv-x="1292" d="M14 0l322 1516h1044l-65 -308h-688l-64 -293h598l-63 -292h-596l-68 -316h699l-64 -307h-1055zM479 1812q0 76 54.5 130.5t138.5 54.5t139 -54.5t55 -130.5t-55 -131t-139 -55t-138.5 55.5t-54.5 130.5zM967 1812q0 76 54 130.5t138 54.5t139.5 -54.5t55.5 -130.5 t-55.5 -131t-139.5 -55t-138 55.5t-54 130.5z" />
<glyph unicode="&#xcc;" horiz-adv-x="618" d="M14 0l322 1516h356l-321 -1516h-357zM195 2007h309l137 -367l-242 -2z" />
<glyph unicode="&#xcd;" horiz-adv-x="618" d="M14 0l322 1516h356l-321 -1516h-357zM434 1640l164 367h317l-231 -369z" />
<glyph unicode="&#xce;" horiz-adv-x="618" d="M14 0l322 1516h356l-321 -1516h-357zM129 1620l350 379h275l190 -379h-252l-96 211l-186 -211h-281z" />
<glyph unicode="&#xcf;" horiz-adv-x="618" d="M14 0l322 1516h356l-321 -1516h-357zM135 1788q0 78 54.5 132t138.5 54t139 -54t55 -132q0 -76 -55 -130t-139 -54t-138.5 54t-54.5 130zM623 1788q0 78 54 132t138 54t139.5 -54t55.5 -132q0 -76 -55.5 -130t-139.5 -54t-138 54t-54 130z" />
<glyph unicode="&#xd0;" horiz-adv-x="1585" d="M-2 618l61 279h193l131 619h475q178 0 309 -54.5t217 -148.5t129 -214t43 -251q0 -152 -57 -302.5t-171 -274.5t-282.5 -197.5t-390.5 -73.5h-594l132 618h-195zM483 315h203q127 0 224.5 45.5t164 120t100 165.5t33.5 181q0 98 -41 184.5t-125 139.5t-211 53h-159 l-66 -307h236l-60 -279h-233z" />
<glyph unicode="&#xd1;" horiz-adv-x="1546" d="M14 0l322 1516h328l405 -920l197 920h354l-322 -1516h-329l-410 885l-188 -885h-357zM655 1698q16 80 43 151.5t77 116.5t138 45q55 0 96.5 -18.5t71 -43t55 -44t52.5 -19.5q31 0 48 29t30 84h178q-18 -80 -45 -151.5t-77 -116.5t-138 -45q-55 0 -95 18t-70 44t-55.5 44 t-54.5 18q-55 0 -78 -112h-176z" />
<glyph unicode="&#xd2;" horiz-adv-x="1673" d="M117 664q0 158 55 312t162.5 281t265.5 203t363 76q174 0 302 -56.5t213 -152.5t126 -219t41 -256q0 -158 -55.5 -312.5t-163 -281.5t-265 -202.5t-360.5 -75.5q-176 0 -304 56t-213 152.5t-126 219t-41 256.5zM477 672q0 -100 36 -185.5t110.5 -137.5t191.5 -52 q113 0 200 48t147.5 129t92 177.5t31.5 192.5q0 100 -36 185t-110.5 137.5t-191.5 52.5q-111 0 -198.5 -48.5t-148 -129t-92.5 -177t-32 -192.5zM670 2030h309l135 -367l-240 -2z" />
<glyph unicode="&#xd3;" horiz-adv-x="1673" d="M117 664q0 158 55 312t162.5 281t265.5 203t363 76q174 0 302 -56.5t213 -152.5t126 -219t41 -256q0 -158 -55.5 -312.5t-163 -281.5t-265 -202.5t-360.5 -75.5q-176 0 -304 56t-213 152.5t-126 219t-41 256.5zM477 672q0 -100 36 -185.5t110.5 -137.5t191.5 -52 q113 0 200 48t147.5 129t92 177.5t31.5 192.5q0 100 -36 185t-110.5 137.5t-191.5 52.5q-111 0 -198.5 -48.5t-148 -129t-92.5 -177t-32 -192.5zM909 1663l164 367h318l-232 -369z" />
<glyph unicode="&#xd4;" horiz-adv-x="1673" d="M117 664q0 158 55 312t162.5 281t265.5 203t363 76q174 0 302 -56.5t213 -152.5t126 -219t41 -256q0 -158 -55.5 -312.5t-163 -281.5t-265 -202.5t-360.5 -75.5q-176 0 -304 56t-213 152.5t-126 219t-41 256.5zM477 672q0 -100 36 -185.5t110.5 -137.5t191.5 -52 q113 0 200 48t147.5 129t92 177.5t31.5 192.5q0 100 -36 185t-110.5 137.5t-191.5 52.5q-111 0 -198.5 -48.5t-148 -129t-92.5 -177t-32 -192.5zM590 1642l338 322h274l203 -322h-252l-104 179l-179 -179h-280z" />
<glyph unicode="&#xd5;" horiz-adv-x="1673" d="M117 664q0 158 55 312t162.5 281t265.5 203t363 76q174 0 302 -56.5t213 -152.5t126 -219t41 -256q0 -158 -55.5 -312.5t-163 -281.5t-265 -202.5t-360.5 -75.5q-176 0 -304 56t-213 152.5t-126 219t-41 256.5zM477 672q0 -100 36 -185.5t110.5 -137.5t191.5 -52 q113 0 200 48t147.5 129t92 177.5t31.5 192.5q0 100 -36 185t-110.5 137.5t-191.5 52.5q-111 0 -198.5 -48.5t-148 -129t-92.5 -177t-32 -192.5zM668 1698q16 80 42.5 151.5t78 116.5t137.5 45q55 0 96 -18.5t70.5 -43t55.5 -44t52 -19.5q31 0 48.5 29t29.5 84h178 q-16 -80 -44 -151.5t-78 -116.5t-136 -45q-55 0 -95 18t-71 44t-56.5 44t-53.5 18q-53 0 -76 -112h-178z" />
<glyph unicode="&#xd6;" horiz-adv-x="1673" d="M117 664q0 158 55 312t162.5 281t265.5 203t363 76q174 0 302 -56.5t213 -152.5t126 -219t41 -256q0 -158 -55.5 -312.5t-163 -281.5t-265 -202.5t-360.5 -75.5q-176 0 -304 56t-213 152.5t-126 219t-41 256.5zM477 672q0 -100 36 -185.5t110.5 -137.5t191.5 -52 q113 0 200 48t147.5 129t92 177.5t31.5 192.5q0 100 -36 185t-110.5 137.5t-191.5 52.5q-111 0 -198.5 -48.5t-148 -129t-92.5 -177t-32 -192.5zM610 1812q0 76 54.5 130.5t138.5 54.5t138 -54.5t54 -130.5t-54 -131t-138 -55t-138.5 55.5t-54.5 130.5zM1098 1812 q0 76 54 130.5t138 54.5t138.5 -54.5t54.5 -130.5t-54.5 -131t-138.5 -55t-138 55.5t-54 130.5z" />
<glyph unicode="&#xd7;" horiz-adv-x="1243" d="M164 428l268 221l-160 203l234 209l168 -213l260 215l182 -211l-268 -221l160 -205l-236 -209l-168 213l-258 -213z" />
<glyph unicode="&#xd8;" horiz-adv-x="1673" d="M23 -49l231 272q-70 92 -103.5 205t-33.5 236q0 156 55 310t162.5 281t265.5 203t363 76q100 0 186 -19.5t158 -56.5l90 105h342l-232 -273q70 -92 104 -205.5t34 -234.5q0 -158 -55.5 -311.5t-163 -280.5t-265 -204t-360.5 -77q-102 0 -189.5 20.5t-156.5 57.5l-90 -104 h-342zM477 670q0 -84 25 -156l579 680q-59 25 -133 25q-111 0 -198.5 -49.5t-148 -129t-92.5 -177t-32 -193.5zM680 319q59 -24 135 -24q113 0 200 48t147.5 129t92 177t31.5 193q0 86 -26 159z" />
<glyph unicode="&#xd9;" horiz-adv-x="1505" d="M142.5 339q-29.5 126 9.5 302l184 875h356l-186 -879q-33 -152 21.5 -238t189.5 -86q129 0 208 84t111 240l187 879h354l-193 -912q-49 -233 -154.5 -369.5t-253 -195.5t-321.5 -59q-117 0 -223 36.5t-183 116.5t-106.5 206zM641 2030h309l137 -367l-241 -2z" />
<glyph unicode="&#xda;" horiz-adv-x="1505" d="M142.5 339q-29.5 126 9.5 302l184 875h356l-186 -879q-33 -152 21.5 -238t189.5 -86q129 0 208 84t111 240l187 879h354l-193 -912q-49 -233 -154.5 -369.5t-253 -195.5t-321.5 -59q-117 0 -223 36.5t-183 116.5t-106.5 206zM881 1663l163 367h318l-232 -369z" />
<glyph unicode="&#xdb;" horiz-adv-x="1505" d="M142.5 339q-29.5 126 9.5 302l184 875h356l-186 -879q-33 -152 21.5 -238t189.5 -86q129 0 208 84t111 240l187 879h354l-193 -912q-49 -233 -154.5 -369.5t-253 -195.5t-321.5 -59q-117 0 -223 36.5t-183 116.5t-106.5 206zM575 1642l351 379h274l191 -379h-252l-97 211 l-188 -211h-279z" />
<glyph unicode="&#xdc;" horiz-adv-x="1505" d="M142.5 339q-29.5 126 9.5 302l184 875h356l-186 -879q-33 -152 21.5 -238t189.5 -86q129 0 208 84t111 240l187 879h354l-193 -912q-49 -233 -154.5 -369.5t-253 -195.5t-321.5 -59q-117 0 -223 36.5t-183 116.5t-106.5 206zM582 1812q0 76 54 130.5t138 54.5 t138.5 -54.5t54.5 -130.5t-54.5 -131t-138.5 -55t-138 55.5t-54 130.5zM1069 1812q0 76 54.5 130.5t138.5 54.5t138 -54.5t54 -130.5t-54 -131t-138 -55t-138.5 55.5t-54.5 130.5z" />
<glyph unicode="&#xdd;" horiz-adv-x="1433" d="M229 1516h365l186 -639l457 639h414l-748 -1004l-106 -512h-357l109 514zM862 1663l166 367h318l-234 -369z" />
<glyph unicode="&#xde;" horiz-adv-x="1441" d="M14 0l322 1516h356l-53 -248h242q178 0 294.5 -65.5t174 -171t57.5 -224.5q0 -102 -40 -200.5t-118 -179.5t-192.5 -129t-263.5 -48h-371l-51 -250h-357zM487 557h322q78 0 131 33t81 84t28 102q0 72 -50.5 127t-156.5 55h-269z" />
<glyph unicode="&#xdf;" horiz-adv-x="1441" d="M14 0l213 995q23 111 73 215.5t131 185.5t198.5 129t277.5 48q170 0 291 -54.5t185.5 -146.5t64.5 -203q0 -139 -95.5 -237t-234.5 -137v-15q6 0 42 -17.5t81 -55t78 -100t33 -154.5q0 -137 -79 -244t-221.5 -168t-328.5 -61q-55 0 -109.5 4t-90.5 8l-36 4l62 287l47 -7 q47 -6 98 -6q137 0 222 57.5t85 153.5q0 70 -51 119t-178 49h-96l57 275h109q109 0 176 54t67 136q0 76 -53 121t-147 45q-123 0 -203 -79t-111 -224l-206 -977h-351z" />
<glyph unicode="&#xe0;" d="M63 440q0 117 38 235t109 215t174 156.5t234 59.5q88 0 146.5 -24.5t93.5 -57.5t51.5 -60.5t18.5 -33.5h16l33 155h350l-227 -1085h-350l26 125h-16l-16 -21q-15 -22 -50 -50.5t-92 -51t-141 -22.5q-135 0 -223 64.5t-131.5 169.5t-43.5 226zM418 479q0 -88 44 -153.5 t142 -65.5q86 0 148.5 53.5t96.5 132t34 158.5q0 88 -45.5 154.5t-141.5 66.5q-88 0 -150.5 -53t-95 -133t-32.5 -160zM457 1599h309l137 -366l-241 -2z" />
<glyph unicode="&#xe1;" d="M63 440q0 117 38 235t109 215t174 156.5t234 59.5q88 0 146.5 -24.5t93.5 -57.5t51.5 -60.5t18.5 -33.5h16l33 155h350l-227 -1085h-350l26 125h-16l-16 -21q-15 -22 -50 -50.5t-92 -51t-141 -22.5q-135 0 -223 64.5t-131.5 169.5t-43.5 226zM418 479q0 -88 44 -153.5 t142 -65.5q86 0 148.5 53.5t96.5 132t34 158.5q0 88 -45.5 154.5t-141.5 66.5q-88 0 -150.5 -53t-95 -133t-32.5 -160zM696 1233l164 366h318l-232 -368z" />
<glyph unicode="&#xe2;" d="M63 440q0 117 38 235t109 215t174 156.5t234 59.5q88 0 146.5 -24.5t93.5 -57.5t51.5 -60.5t18.5 -33.5h16l33 155h350l-227 -1085h-350l26 125h-16l-16 -21q-15 -22 -50 -50.5t-92 -51t-141 -22.5q-135 0 -223 64.5t-131.5 169.5t-43.5 226zM391 1212l350 379h275 l190 -379h-252l-96 211l-186 -211h-281zM418 479q0 -88 44 -153.5t142 -65.5q86 0 148.5 53.5t96.5 132t34 158.5q0 88 -45.5 154.5t-141.5 66.5q-88 0 -150.5 -53t-95 -133t-32.5 -160z" />
<glyph unicode="&#xe3;" d="M63 440q0 117 38 235t109 215t174 156.5t234 59.5q88 0 146.5 -24.5t93.5 -57.5t51.5 -60.5t18.5 -33.5h16l33 155h350l-227 -1085h-350l26 125h-16l-16 -21q-15 -22 -50 -50.5t-92 -51t-141 -22.5q-135 0 -223 64.5t-131.5 169.5t-43.5 226zM418 479q0 -88 44 -153.5 t142 -65.5q86 0 148.5 53.5t96.5 132t34 158.5q0 88 -45.5 154.5t-141.5 66.5q-88 0 -150.5 -53t-95 -133t-32.5 -160zM455 1268q18 80 44.5 151.5t77 116.5t138.5 45q55 0 95 -18.5t70.5 -43t56.5 -44t52 -19.5q31 0 48.5 28.5t27.5 84.5h178q-16 -80 -44 -151.5t-78 -117 t-136 -45.5q-55 0 -95 18.5t-71 44t-56.5 44t-51.5 18.5q-55 0 -78 -112h-178z" />
<glyph unicode="&#xe4;" d="M63 440q0 117 38 235t109 215t174 156.5t234 59.5q88 0 146.5 -24.5t93.5 -57.5t51.5 -60.5t18.5 -33.5h16l33 155h350l-227 -1085h-350l26 125h-16l-16 -21q-15 -22 -50 -50.5t-92 -51t-141 -22.5q-135 0 -223 64.5t-131.5 169.5t-43.5 226zM397 1380q0 80 54.5 133.5 t138.5 53.5t138 -53.5t54 -133.5q0 -74 -54 -128t-138 -54t-138.5 54.5t-54.5 127.5zM418 479q0 -88 44 -153.5t142 -65.5q86 0 148.5 53.5t96.5 132t34 158.5q0 88 -45.5 154.5t-141.5 66.5q-88 0 -150.5 -53t-95 -133t-32.5 -160zM885 1380q0 80 54 133.5t138 53.5 t138.5 -53.5t54.5 -133.5q0 -74 -54.5 -128t-138.5 -54t-138 54.5t-54 127.5z" />
<glyph unicode="&#xe5;" d="M63 440q0 117 38 235t109 215t174 156.5t234 59.5q88 0 146.5 -24.5t93.5 -57.5t51.5 -60.5t18.5 -33.5h16l33 155h350l-227 -1085h-350l26 125h-16l-16 -21q-15 -22 -50 -50.5t-92 -51t-141 -22.5q-135 0 -223 64.5t-131.5 169.5t-43.5 226zM418 479q0 -88 44 -153.5 t142 -65.5q86 0 148.5 53.5t96.5 132t34 158.5q0 88 -45.5 154.5t-141.5 66.5q-88 0 -150.5 -53t-95 -133t-32.5 -160zM553 1477q0 78 38 142t102.5 102t144.5 38q78 0 142 -38t102 -102.5t38 -141.5q0 -78 -38 -142.5t-102 -102.5t-142 -38q-80 0 -144.5 38t-102.5 102.5 t-38 142.5zM729 1477q0 -45 32 -77t77 -32q43 0 74.5 32t31.5 77t-31.5 75.5t-74.5 30.5q-45 0 -77 -30.5t-32 -75.5z" />
<glyph unicode="&#xe6;" horiz-adv-x="1929" d="M33 283q0 139 108.5 239.5t317.5 114.5l317 22l12 39q10 68 -26.5 113t-120.5 45q-76 0 -111.5 -28.5t-45.5 -57.5l-11 -29h-328l13 37q12 37 43.5 91.5t88 108.5t144.5 91t213 37q96 0 159.5 -21.5t102.5 -51t56.5 -56.5t23.5 -37h12q8 12 54.5 53t129.5 77t208 36 q141 0 238.5 -54.5t152.5 -143.5t70.5 -196.5t-5.5 -215.5l-8 -43h-747q4 -98 53 -157.5t143 -59.5q72 0 115 29.5t61 60.5l17 30h329l-15 -38q-15 -37 -51 -93.5t-97.5 -113t-154.5 -94t-224 -37.5q-111 0 -191 27.5t-130 65.5t-75.5 71.5t-29.5 43.5h-10l-24 -32 q-24 -31 -75 -72t-131.5 -72.5t-195.5 -31.5q-172 0 -273.5 80.5t-101.5 222.5zM381 317q0 -55 39 -80.5t88 -25.5q72 0 137.5 54t85.5 153l6 35l-211 -17q-70 -4 -107.5 -36.5t-37.5 -82.5zM1124 655h418q10 78 -35 136.5t-141 58.5q-90 0 -153.5 -56.5t-88.5 -138.5z" />
<glyph unicode="&#xe7;" horiz-adv-x="1249" d="M82 477q0 115 41 226.5t123 202.5t202.5 145.5t278.5 54.5q145 0 236.5 -43t141.5 -106.5t70.5 -127t24.5 -106.5l4 -43h-325l-3 22q-2 23 -16 53.5t-47 53t-96 22.5q-88 0 -151.5 -53t-97.5 -134t-34 -165q0 -92 45 -158.5t142 -66.5q61 0 100 22.5t62.5 53t32.5 53.5 l9 23h326l-13 -44q-14 -43 -46.5 -106t-94 -126.5t-157 -106.5t-234.5 -43l-53 -56h4q102 0 163.5 -60.5t61.5 -144.5q0 -61 -37.5 -120.5t-118.5 -97.5t-210 -38q-68 0 -121 9l-53 8l26 180l26 -3q25 -3 61 -6t65 -3q74 0 99.5 23.5t25.5 52.5q0 25 -20.5 43t-61.5 18 q-37 0 -63 -13l-25 -12l-86 109l125 135q-113 33 -186.5 104.5t-109.5 168t-36 200.5z" />
<glyph unicode="&#xe8;" horiz-adv-x="1263" d="M84 479q0 113 40 223.5t119 201.5t196.5 146.5t273.5 55.5q150 0 250 -54.5t155.5 -143.5t69.5 -196.5t-6 -215.5l-8 -43h-746q4 -98 53 -157.5t142 -59.5q74 0 115.5 29.5t59.5 60.5l19 30h328l-15 -38q-14 -37 -50 -93.5t-98 -113t-156.5 -94t-227.5 -37.5 q-178 0 -291.5 70.5t-168 185t-54.5 243.5zM418 1599h307l137 -366l-239 -2zM459 655h415q12 78 -32.5 136.5t-141.5 58.5q-92 0 -155 -56.5t-86 -138.5z" />
<glyph unicode="&#xe9;" horiz-adv-x="1263" d="M84 479q0 113 40 223.5t119 201.5t196.5 146.5t273.5 55.5q150 0 250 -54.5t155.5 -143.5t69.5 -196.5t-6 -215.5l-8 -43h-746q4 -98 53 -157.5t142 -59.5q74 0 115.5 29.5t59.5 60.5l19 30h328l-15 -38q-14 -37 -50 -93.5t-98 -113t-156.5 -94t-227.5 -37.5 q-178 0 -291.5 70.5t-168 185t-54.5 243.5zM459 655h415q12 78 -32.5 136.5t-141.5 58.5q-92 0 -155 -56.5t-86 -138.5zM655 1233l166 366h318l-234 -368z" />
<glyph unicode="&#xea;" horiz-adv-x="1263" d="M84 479q0 113 40 223.5t119 201.5t196.5 146.5t273.5 55.5q150 0 250 -54.5t155.5 -143.5t69.5 -196.5t-6 -215.5l-8 -43h-746q4 -98 53 -157.5t142 -59.5q74 0 115.5 29.5t59.5 60.5l19 30h328l-15 -38q-14 -37 -50 -93.5t-98 -113t-156.5 -94t-227.5 -37.5 q-178 0 -291.5 70.5t-168 185t-54.5 243.5zM350 1212l350 379h275l190 -379h-252l-94 211l-188 -211h-281zM459 655h415q12 78 -32.5 136.5t-141.5 58.5q-92 0 -155 -56.5t-86 -138.5z" />
<glyph unicode="&#xeb;" horiz-adv-x="1263" d="M84 479q0 113 40 223.5t119 201.5t196.5 146.5t273.5 55.5q150 0 250 -54.5t155.5 -143.5t69.5 -196.5t-6 -215.5l-8 -43h-746q4 -98 53 -157.5t142 -59.5q74 0 115.5 29.5t59.5 60.5l19 30h328l-15 -38q-14 -37 -50 -93.5t-98 -113t-156.5 -94t-227.5 -37.5 q-178 0 -291.5 70.5t-168 185t-54.5 243.5zM358 1382q0 76 53.5 130.5t139.5 54.5q82 0 137 -54.5t55 -130.5t-55 -131t-137 -55q-86 0 -139.5 55.5t-53.5 130.5zM459 655h415q12 78 -32.5 136.5t-141.5 58.5q-92 0 -155 -56.5t-86 -138.5zM846 1382q0 76 53 130.5t139 54.5 q82 0 137.5 -54.5t55.5 -130.5t-55.5 -131t-137.5 -55q-86 0 -139 55.5t-53 130.5z" />
<glyph unicode="&#xec;" horiz-adv-x="628" d="M14 0l232 1085h350l-231 -1085h-351zM106 1599h310l135 -366l-240 -2z" />
<glyph unicode="&#xed;" horiz-adv-x="628" d="M14 0l232 1085h350l-231 -1085h-351zM346 1233l164 366h317l-231 -368z" />
<glyph unicode="&#xee;" horiz-adv-x="628" d="M14 0l232 1085h350l-231 -1085h-351zM39 1212l352 379h273l192 -379h-254l-94 211l-189 -211h-280z" />
<glyph unicode="&#xef;" horiz-adv-x="628" d="M14 0l232 1085h350l-231 -1085h-351zM47 1382q0 76 54.5 130.5t138.5 54.5t138 -54.5t54 -130.5t-54 -131t-138 -55t-138.5 55.5t-54.5 130.5zM535 1382q0 76 54 130.5t138 54.5t138.5 -54.5t54.5 -130.5t-54.5 -131t-138.5 -55t-138 55.5t-54 130.5z" />
<glyph unicode="&#xf0;" horiz-adv-x="1341" d="M88 489q0 106 38 211t111.5 190t181 135t247.5 50q109 0 177 -30.5t107 -67.5q-39 90 -108.5 167t-149.5 138l-297 -156l-59 222l145 75q-66 39 -109 59l-44 19l141 232l42 -17q42 -16 113.5 -50t153.5 -87l307 162l58 -221l-168 -88q84 -80 156.5 -180.5t116.5 -226.5 t44 -277q0 -152 -43 -290.5t-126 -246t-206.5 -169.5t-287.5 -62q-184 0 -304 73.5t-178.5 190t-58.5 245.5zM440 496q0 -94 48.5 -165t148.5 -71q86 0 145.5 49t90 125t30.5 152q0 94 -48 166.5t-150 72.5q-84 0 -143.5 -50t-90.5 -126t-31 -153z" />
<glyph unicode="&#xf1;" horiz-adv-x="1253" d="M4 0l232 1085h352l-35 -153h12l17 26q16 25 54 60t97.5 61.5t145.5 26.5q119 0 192.5 -57.5t100 -152.5t2.5 -208l-148 -688h-350l133 625q18 80 -8.5 138t-106.5 58q-86 0 -138 -61.5t-69 -147.5l-131 -612h-352zM430 1268q18 80 45 151.5t77 116.5t138 45 q55 0 95 -18.5t71 -43t56.5 -44t52.5 -19.5q31 0 48 28.5t29 84.5h177q-16 -80 -44 -151.5t-78 -117t-136 -45.5q-55 0 -95.5 18.5t-70 44t-56 44t-53.5 18.5q-55 0 -78 -112h-178z" />
<glyph unicode="&#xf2;" horiz-adv-x="1308" d="M82 475q0 113 41 224.5t123 203.5t200.5 147.5t274.5 55.5q176 0 291.5 -70.5t172 -183.5t56.5 -242q0 -113 -42 -225.5t-124 -203.5t-200.5 -146t-272.5 -55q-178 0 -293.5 70.5t-171 183t-55.5 241.5zM430 1599h307l137 -366l-239 -2zM432 479q0 -86 44 -151.5 t138 -65.5q84 0 144.5 50t93.5 129t33 165t-44 151.5t-139 65.5q-84 0 -144 -50t-93 -129t-33 -165z" />
<glyph unicode="&#xf3;" horiz-adv-x="1308" d="M82 475q0 113 41 224.5t123 203.5t200.5 147.5t274.5 55.5q176 0 291.5 -70.5t172 -183.5t56.5 -242q0 -113 -42 -225.5t-124 -203.5t-200.5 -146t-272.5 -55q-178 0 -293.5 70.5t-171 183t-55.5 241.5zM432 479q0 -86 44 -151.5t138 -65.5q84 0 144.5 50t93.5 129 t33 165t-44 151.5t-139 65.5q-84 0 -144 -50t-93 -129t-33 -165zM668 1233l166 366h317l-233 -368z" />
<glyph unicode="&#xf4;" horiz-adv-x="1308" d="M82 475q0 113 41 224.5t123 203.5t200.5 147.5t274.5 55.5q176 0 291.5 -70.5t172 -183.5t56.5 -242q0 -113 -42 -225.5t-124 -203.5t-200.5 -146t-272.5 -55q-178 0 -293.5 70.5t-171 183t-55.5 241.5zM362 1212l351 379h274l191 -379h-252l-95 211l-188 -211h-281z M432 479q0 -86 44 -151.5t138 -65.5q84 0 144.5 50t93.5 129t33 165t-44 151.5t-139 65.5q-84 0 -144 -50t-93 -129t-33 -165z" />
<glyph unicode="&#xf5;" horiz-adv-x="1308" d="M82 475q0 113 41 224.5t123 203.5t200.5 147.5t274.5 55.5q176 0 291.5 -70.5t172 -183.5t56.5 -242q0 -113 -42 -225.5t-124 -203.5t-200.5 -146t-272.5 -55q-178 0 -293.5 70.5t-171 183t-55.5 241.5zM428 1268q16 80 43 151.5t77 116.5t138 45q55 0 96 -18.5t71 -43 t55.5 -44t52.5 -19.5q31 0 48 28.5t29 84.5h179q-18 -80 -45 -151.5t-77.5 -117t-138.5 -45.5q-55 0 -95 18.5t-69.5 44t-55 44t-54.5 18.5q-55 0 -78 -112h-176zM432 479q0 -86 44 -151.5t138 -65.5q84 0 144.5 50t93.5 129t33 165t-44 151.5t-139 65.5q-84 0 -144 -50 t-93 -129t-33 -165z" />
<glyph unicode="&#xf6;" horiz-adv-x="1308" d="M82 475q0 113 41 224.5t123 203.5t200.5 147.5t274.5 55.5q176 0 291.5 -70.5t172 -183.5t56.5 -242q0 -113 -42 -225.5t-124 -203.5t-200.5 -146t-272.5 -55q-178 0 -293.5 70.5t-171 183t-55.5 241.5zM371 1382q0 76 53 130.5t139 54.5q82 0 137.5 -54.5t55.5 -130.5 t-55.5 -131t-137.5 -55q-86 0 -139 55.5t-53 130.5zM432 479q0 -86 44 -151.5t138 -65.5q84 0 144.5 50t93.5 129t33 165t-44 151.5t-139 65.5q-84 0 -144 -50t-93 -129t-33 -165zM858 1382q0 76 53.5 130.5t139.5 54.5q82 0 137 -54.5t55 -130.5t-55 -131t-137 -55 q-86 0 -139.5 55.5t-53.5 130.5z" />
<glyph unicode="&#xf7;" horiz-adv-x="1406" d="M195 571l53 246h1024l-53 -246h-1024zM457 262q0 80 53 135.5t135 55.5t135.5 -55.5t53.5 -135.5q0 -76 -53.5 -132t-135.5 -56t-135 56t-53 132zM633 1124q0 78 52 133.5t136 55.5q82 0 135.5 -55.5t53.5 -133.5t-53.5 -133t-135.5 -55q-84 0 -136 55.5t-52 132.5z" />
<glyph unicode="&#xf8;" d="M86 475q0 113 41 224.5t123 203.5t200.5 147.5t274.5 55.5q68 0 131 -12l39 71h240l-86 -151q98 -68 147 -176.5t49 -227.5q0 -113 -42 -225.5t-124 -203.5t-200.5 -146t-272.5 -55q-78 0 -143 14l-43 -74h-238l90 158q-96 70 -141 175t-45 222zM436 479q0 -49 15 -92 l249 436q-82 -2 -141 -52t-91 -128t-32 -164zM616 262h2q84 0 144.5 50t93.5 129t33 165q0 55 -17 103z" />
<glyph unicode="&#xf9;" horiz-adv-x="1234" d="M90 399l146 686h350l-137 -653q-16 -80 11 -124t99 -44q82 0 130 56.5t67 136.5l133 628h350l-229 -1085h-351l31 154h-12q-55 -72 -138 -123t-196 -51q-154 0 -224.5 113.5t-29.5 305.5zM424 1599h307l137 -366l-239 -2z" />
<glyph unicode="&#xfa;" horiz-adv-x="1234" d="M90 399l146 686h350l-137 -653q-16 -80 11 -124t99 -44q82 0 130 56.5t67 136.5l133 628h350l-229 -1085h-351l31 154h-12q-55 -72 -138 -123t-196 -51q-154 0 -224.5 113.5t-29.5 305.5zM662 1233l165 366h318l-234 -368z" />
<glyph unicode="&#xfb;" horiz-adv-x="1234" d="M90 399l146 686h350l-137 -653q-16 -80 11 -124t99 -44q82 0 130 56.5t67 136.5l133 628h350l-229 -1085h-351l31 154h-12q-55 -72 -138 -123t-196 -51q-154 0 -224.5 113.5t-29.5 305.5zM356 1212l351 379h274l190 -379h-251l-95 211l-188 -211h-281z" />
<glyph unicode="&#xfc;" horiz-adv-x="1234" d="M90 399l146 686h350l-137 -653q-16 -80 11 -124t99 -44q82 0 130 56.5t67 136.5l133 628h350l-229 -1085h-351l31 154h-12q-55 -72 -138 -123t-196 -51q-154 0 -224.5 113.5t-29.5 305.5zM365 1382q0 76 53 130.5t139 54.5q82 0 137.5 -54.5t55.5 -130.5t-55.5 -131 t-137.5 -55q-86 0 -139 55.5t-53 130.5zM852 1382q0 76 53 130.5t139 54.5q82 0 137.5 -54.5t55.5 -130.5t-55.5 -131t-137.5 -55q-86 0 -139 55.5t-53 130.5z" />
<glyph unicode="&#xfd;" horiz-adv-x="1243" d="M-92 -391l59 289l21 -2q22 -2 57 -2q76 0 142.5 22.5t129.5 95.5l-159 1073h329l84 -696l371 696h369l-596 -1028q-88 -154 -186.5 -255t-221 -151t-284.5 -50q-57 0 -86 4zM645 1233l164 366h317l-231 -368z" />
<glyph unicode="&#xfe;" horiz-adv-x="1347" d="M-63 -399l83 399l125 594l103 491l98 471h350l-125 -595h15l16 21q16 22 51 50.5t91.5 51t140.5 22.5q135 0 223 -64.5t131 -170t43 -226.5q0 -117 -37 -234.5t-108.5 -215t-174 -156.5t-233.5 -59q-88 0 -146.5 24.5t-93 57t-51 60.5t-18.5 34h-17l-114 -555h-352z M465 481q0 -88 45 -154.5t141 -66.5q86 0 148.5 53.5t96.5 133t34 159.5q0 88 -45 153.5t-142 65.5q-88 0 -150.5 -53t-95 -132t-32.5 -159z" />
<glyph unicode="&#xff;" horiz-adv-x="1243" d="M-92 -391l59 289l21 -2q22 -2 57 -2q76 0 142.5 22.5t129.5 95.5l-159 1073h329l84 -696l371 696h369l-596 -1028q-88 -154 -186.5 -255t-221 -151t-284.5 -50q-57 0 -86 4zM346 1382q0 76 54.5 130.5t138.5 54.5t138 -54.5t54 -130.5t-54 -131t-138 -55t-138.5 55.5 t-54.5 130.5zM834 1382q0 76 54 130.5t138 54.5t138.5 -54.5t54.5 -130.5t-54.5 -131t-138.5 -55t-138 55.5t-54 130.5z" />
<glyph unicode="&#x152;" horiz-adv-x="2052" d="M117 668q0 152 57 302t171 274t282 198t389 74h1138l-63 -308h-694l-62 -293h600l-61 -292h-602l-66 -316h703l-66 -307h-1057q-170 4 -295.5 60.5t-208.5 150.5t-124 212t-41 245zM465 688q0 -98 41 -184t125 -139.5t211 -53.5h10l188 889h-53q-127 0 -225 -45 t-164 -119.5t-99.5 -166t-33.5 -181.5z" />
<glyph unicode="&#x153;" horiz-adv-x="2068" d="M86 479q0 113 42 224.5t121 202.5t192.5 145.5t258.5 54.5q102 0 176 -25.5t122.5 -62.5t74 -68.5t29.5 -42.5q8 10 37.5 42t83 69t130.5 62.5t177 25.5q141 0 237.5 -54.5t151.5 -143.5t71.5 -196.5t-3.5 -215.5l-9 -43h-745q4 -98 53 -157.5t144 -59.5q72 0 113.5 29.5 t60.5 60.5l18 30h328l-14 -38q-13 -37 -48 -93.5t-94 -113t-149.5 -94t-217.5 -37.5q-104 0 -178.5 26.5t-122 63t-72 68.5t-28.5 44q-8 -12 -38 -44t-83 -68.5t-131 -63t-184 -26.5q-164 0 -275.5 69.5t-170 183t-58.5 246.5zM438 483q0 -92 44.5 -156.5t138.5 -64.5 q84 0 144 51.5t93 130t33 160.5q0 90 -44 154.5t-140 64.5q-82 0 -142.5 -50t-93.5 -128t-33 -162zM1264 655h415q12 78 -32.5 136.5t-141.5 58.5q-92 0 -155 -56.5t-86 -138.5z" />
<glyph unicode="&#x178;" horiz-adv-x="1433" d="M229 1516h365l186 -639l457 639h414l-748 -1004l-106 -512h-357l109 514zM565 1812q0 76 53.5 130.5t139.5 54.5q82 0 137 -54.5t55 -130.5t-55 -131t-137 -55q-86 0 -139.5 55.5t-53.5 130.5zM1053 1812q0 76 53 130.5t139 54.5q82 0 137.5 -54.5t55.5 -130.5 t-55.5 -131t-137.5 -55q-86 0 -139 55.5t-53 130.5z" />
<glyph unicode="&#x2c6;" horiz-adv-x="1198" d="M315 1137l353 379h272l193 -379h-254l-95 211l-188 -211h-281z" />
<glyph unicode="&#x2dc;" horiz-adv-x="827" d="M311 1268q16 80 43 151.5t78 116.5t137 45q55 0 96.5 -18.5t71 -43t55 -44t52.5 -19.5q31 0 48 28.5t30 84.5h178q-16 -80 -44 -151.5t-78 -117t-136 -45.5q-55 0 -95 18.5t-71 44t-56.5 44t-54.5 18.5q-53 0 -76 -112h-178z" />
<glyph unicode="&#x2000;" horiz-adv-x="1094" />
<glyph unicode="&#x2001;" horiz-adv-x="2189" />
<glyph unicode="&#x2002;" horiz-adv-x="1094" />
<glyph unicode="&#x2003;" horiz-adv-x="2189" />
<glyph unicode="&#x2004;" horiz-adv-x="729" />
<glyph unicode="&#x2005;" horiz-adv-x="547" />
<glyph unicode="&#x2006;" horiz-adv-x="364" />
<glyph unicode="&#x2007;" horiz-adv-x="364" />
<glyph unicode="&#x2008;" horiz-adv-x="273" />
<glyph unicode="&#x2009;" horiz-adv-x="437" />
<glyph unicode="&#x200a;" horiz-adv-x="121" />
<glyph unicode="&#x2010;" horiz-adv-x="1159" d="M188 502l52 274h768l-50 -274h-770z" />
<glyph unicode="&#x2011;" horiz-adv-x="1159" d="M188 502l52 274h768l-50 -274h-770z" />
<glyph unicode="&#x2012;" horiz-adv-x="1159" d="M188 502l52 274h768l-50 -274h-770z" />
<glyph unicode="&#x2013;" horiz-adv-x="1386" d="M186 502l68 274h983l-66 -274h-985z" />
<glyph unicode="&#x2014;" horiz-adv-x="1730" d="M188 502l86 274h1307l-86 -274h-1307z" />
<glyph unicode="&#x2018;" horiz-adv-x="503" d="M158 1047q0 49 23.5 107t75.5 139t138 200l17 23h135l-176 -293q78 -4 127 -58.5t49 -128.5q0 -80 -54.5 -134t-138.5 -54t-140 53t-56 146z" />
<glyph unicode="&#x2019;" horiz-adv-x="491" d="M199 1348q0 80 54 134t138 54t141.5 -53t57.5 -146q0 -49 -23.5 -107.5t-77 -140t-139.5 -198.5l-14 -23h-135l176 291q-78 6 -128 59.5t-50 129.5z" />
<glyph unicode="&#x201a;" horiz-adv-x="628" d="M47 170q0 78 54.5 132t138.5 54t141 -53t57 -145q0 -47 -23.5 -105.5t-76.5 -140.5t-139 -201l-15 -22h-135l176 293q-78 4 -128 58t-50 130z" />
<glyph unicode="&#x201c;" horiz-adv-x="976" d="M158 1047q0 49 23.5 107t75.5 139t138 200l17 23h135l-176 -293q78 -4 127 -58.5t49 -128.5q0 -80 -54.5 -134t-138.5 -54t-140 53t-56 146zM629 1047q0 49 24.5 107t76.5 139t138 200l17 23h135l-176 -293q78 -4 127 -58.5t49 -128.5q0 -80 -54.5 -134t-138.5 -54 t-141 53t-57 146z" />
<glyph unicode="&#x201d;" horiz-adv-x="964" d="M199 1348q0 80 54 134t138 54t141.5 -53t57.5 -146q0 -49 -23.5 -107.5t-77 -140t-139.5 -198.5l-14 -23h-135l176 291q-78 6 -128 59.5t-50 129.5zM672 868l176 291q-78 6 -127 59.5t-49 129.5q0 80 54 134t138 54t141.5 -53t57.5 -146q0 -49 -24.5 -107.5t-77 -140 t-138.5 -198.5l-16 -23h-135z" />
<glyph unicode="&#x201e;" horiz-adv-x="1079" d="M49 170q0 78 53.5 132t137.5 54t141 -53t57 -145q0 -47 -23.5 -105.5t-76.5 -140.5t-137 -201l-17 -22h-135l176 293q-78 4 -127 58t-49 130zM520 170q0 78 54.5 132t138.5 54t141 -53t57 -145q0 -47 -23.5 -105.5t-76.5 -140.5t-139 -201l-15 -22h-135l176 293 q-78 4 -128 58t-50 130z" />
<glyph unicode="&#x2022;" horiz-adv-x="1101" d="M240 735q0 98 44 178t123.5 127t182.5 47q102 0 181 -47t125 -126.5t46 -178.5q0 -96 -46 -176t-125 -128t-181 -48t-182 48t-124 128t-44 176z" />
<glyph unicode="&#x2026;" horiz-adv-x="1859" d="M70 168q0 80 53 134t137 54q80 0 134.5 -54t54.5 -134q0 -78 -54.5 -133t-134.5 -55q-84 0 -137 56t-53 132zM627 168q0 80 53 134t137 54q80 0 134.5 -54t54.5 -134q0 -78 -54.5 -133t-134.5 -55q-84 0 -137 56t-53 132zM1178 168q0 80 52 134t136 54q82 0 135 -54 t53 -134q0 -78 -53 -133t-135 -55q-84 0 -136 56t-52 132z" />
<glyph unicode="&#x202f;" horiz-adv-x="437" />
<glyph unicode="&#x2039;" horiz-adv-x="944" d="M74 629l536 454h381l-553 -473l318 -436h-340z" />
<glyph unicode="&#x203a;" horiz-adv-x="944" d="M8 174l553 473l-317 436h340l342 -454l-535 -455h-383z" />
<glyph unicode="&#x205f;" horiz-adv-x="547" />
<glyph unicode="&#x20ac;" horiz-adv-x="1472" d="M41 551l33 162h211q2 47 8 92h-199l33 162h205q53 154 163.5 283.5t278.5 207.5t393 78q156 0 243 -18l87 -19l-65 -305l-34 9t-90.5 18.5t-123.5 9.5q-174 0 -292 -77t-179 -187h456l-34 -162h-480q-8 -47 -8 -92h467l-33 -162h-407q39 -113 137 -189.5t260 -76.5 q70 0 133.5 9t104.5 20l41 10l-64 -310l-80 -17q-80 -17 -215 -17q-209 0 -355.5 78.5t-231.5 208.5t-109 284h-254z" />
<glyph unicode="&#x2122;" horiz-adv-x="1751" d="M217 1327l39 189h649l-39 -189h-213l-112 -528h-222l113 528h-215zM856 799l152 717h290l50 -291l184 291h291l-152 -717h-219l84 397l-152 -248h-180l-45 254l-86 -403h-217z" />
<glyph unicode="&#x25fc;" horiz-adv-x="1085" d="M0 0v1085h1085v-1085h-1085z" />
</font>
</defs>
</svg>
