<?xml version="1.0" standalone="no"?>
<!DOCTYPE svg PUBLIC "-//W3C//DTD SVG 1.1//EN" "http://www.w3.org/Graphics/SVG/1.1/DTD/svg11.dtd" >
<svg xmlns="http://www.w3.org/2000/svg" xmlns:xlink="http://www.w3.org/1999/xlink" version="1.1">
<metadata></metadata>
<defs>
<font id="be_vietnam_pro_bolditalic" horiz-adv-x="1658" >
<font-face units-per-em="2048" ascent="1638" descent="-410" />
<missing-glyph horiz-adv-x="471" />
<glyph horiz-adv-x="0" />
<glyph horiz-adv-x="682" />
<glyph unicode="&#xd;" horiz-adv-x="1228" />
<glyph unicode=" "  horiz-adv-x="471" />
<glyph unicode="&#x09;" horiz-adv-x="471" />
<glyph unicode="&#xa0;" horiz-adv-x="471" />
<glyph unicode="!" horiz-adv-x="579" d="M57 147q0 68 46.5 117t119.5 49q72 0 119 -49t47 -117q0 -70 -47 -117.5t-119 -47.5q-74 0 -120 49t-46 116zM154 449l190 1067h338l-270 -1067h-258z" />
<glyph unicode="&#x22;" horiz-adv-x="806" d="M217 1055l121 461h274l-204 -461h-191zM569 1055l121 461h275l-205 -461h-191z" />
<glyph unicode="#" horiz-adv-x="1654" d="M10 356l111 260h280l117 281h-276l108 260h275l147 359h272l-147 -359h268l150 359h270l-147 -359h284l-108 -260h-283l-117 -281h279l-111 -260h-276l-148 -356h-270l148 356h-271l-147 -356h-273l148 356h-283zM674 616h268l117 281h-271z" />
<glyph unicode="$" horiz-adv-x="1382" d="M57 471h299l4 -29q5 -28 23 -68t60 -77t118 -55l88 417l-43 17q-98 33 -177 86t-125 131t-46 188q0 119 65.5 223.5t191.5 168t308 63.5h13l36 172h162l-39 -188q115 -25 188.5 -76t115.5 -112.5t60.5 -119t24.5 -94.5l5 -37h-293l-8 38q-9 38 -41.5 84t-104.5 71 l-86 -404l25 -8q106 -37 192 -91t135 -133t49 -194q0 -125 -71.5 -231.5t-203.5 -169.5t-314 -63l-37 -177h-164l41 189q-139 23 -225 78t-133.5 122.5t-67 131t-22.5 105.5zM559 1100q0 -63 38 -105.5t108 -68.5l79 366q-106 -10 -165.5 -64t-59.5 -128zM721 231 q104 10 169.5 64.5t65.5 138.5q0 61 -43 102.5t-112 69.5z" />
<glyph unicode="%" horiz-adv-x="1800" d="M231 1171q0 88 43 172t127 139.5t205 55.5q104 0 171 -42t100.5 -108.5t33.5 -142.5q0 -88 -43 -172t-126.5 -139t-204.5 -55q-102 0 -171 42t-102 108.5t-33 141.5zM238 0l1171 1516h229l-1171 -1516h-229zM422 1186q0 -51 31.5 -92t99.5 -41q80 0 123 56t43 120 q0 51 -32 92t-97 41q-80 0 -124 -55.5t-44 -120.5zM995 274q0 88 43 172t126 138.5t204 54.5q104 0 172 -41t100.5 -107.5t32.5 -142.5q0 -88 -43 -172t-126 -139t-204 -55q-104 0 -171.5 40.5t-100.5 108.5t-33 143zM1186 289q0 -51 31.5 -92t97.5 -41q80 0 124 56t44 120 q0 51 -33 92t-98 41q-80 0 -123 -56.5t-43 -119.5z" />
<glyph unicode="&#x26;" horiz-adv-x="1431" d="M23 395q0 113 50 199t134 150.5t184 111.5q-43 70 -68.5 141.5t-25.5 149.5q0 123 59.5 210t156.5 133t210 46q102 0 195.5 -40t151.5 -115.5t58 -186.5q0 -106 -54 -182t-137 -128.5t-167 -88.5l211 -279q37 70 64.5 157t39.5 189h252q-23 -174 -74 -312t-124 -243 l235 -307h-362l-76 104q-94 -63 -199 -95t-209 -32q-137 0 -251.5 49.5t-184 142.5t-69.5 226zM313 436q0 -100 73 -158.5t183 -58.5q119 0 228 76l-211 287q-18 27 -38 52t-38 50q-90 -45 -143.5 -103.5t-53.5 -144.5zM561 1165q0 -51 23.5 -101t60.5 -103q45 18 98.5 47.5 t90 72.5t36.5 107q0 70 -46 104.5t-101 34.5q-59 0 -110.5 -40t-51.5 -122z" />
<glyph unicode="'" horiz-adv-x="454" d="M217 1055l121 461h274l-204 -461h-191z" />
<glyph unicode="(" horiz-adv-x="886" d="M72 379q0 178 43 361.5t126 349t203.5 299t275 213t341.5 88.5l-60 -283q-113 -12 -208 -79.5t-170.5 -173t-128 -237t-80 -271.5t-27.5 -275q0 -133 33 -250t94 -198t150 -107l-62 -283q-178 45 -296 170t-176 302t-58 374z" />
<glyph unicode=")" horiz-adv-x="868" d="M-172 -467l59 283q113 12 208 79.5t170 174t127 236.5t80 271.5t28 276.5q0 131 -33 248t-94.5 197.5t-147.5 107.5l60 283q180 -43 297.5 -169t175 -303.5t57.5 -373.5q0 -178 -43 -360.5t-126 -349.5t-202.5 -300t-274.5 -213t-341 -88z" />
<glyph unicode="*" horiz-adv-x="1050" d="M203 1114l67 211l273 -96l-6 287h219l-4 -287l270 96l70 -211l-275 -84l172 -229l-180 -129l-162 233l-164 -233l-178 129l172 229z" />
<glyph unicode="+" horiz-adv-x="1259" d="M188 516l52 246h307l65 307h246l-63 -307h305l-53 -246h-306l-65 -307h-246l66 307h-308z" />
<glyph unicode="," horiz-adv-x="585" d="M39 -297l168 279q-70 6 -116 55t-46 119q0 76 51 125t127 49t129.5 -49.5t53.5 -133.5q0 -47 -23 -101t-73 -131t-130 -189l-14 -23h-127z" />
<glyph unicode="-" horiz-adv-x="1181" d="M203 516l37 246h768l-39 -246h-766z" />
<glyph unicode="." horiz-adv-x="575" d="M45 154q0 74 49 125t127 51q74 0 124 -51.5t50 -124.5q0 -72 -50 -123t-124 -51q-78 0 -127 52t-49 122z" />
<glyph unicode="/" horiz-adv-x="1099" d="M-133 -371l1153 2069h295l-1153 -2069h-295z" />
<glyph unicode="0" horiz-adv-x="1433" d="M113 618q0 129 31.5 259.5t93 248t152.5 211t208 146.5t258 53q186 0 307 -89t180.5 -234.5t59.5 -315.5q0 -129 -32 -259t-93 -248t-151.5 -211t-208.5 -146t-259 -53q-186 0 -308 89t-180 234.5t-58 314.5zM436 606q0 -94 24.5 -173t77 -127t134.5 -48q92 0 167.5 60.5 t129 156.5t82 210t28.5 222q0 94 -24.5 173t-76.5 127t-134 48q-92 0 -167 -60t-129 -156.5t-83 -210t-29 -222.5z" />
<glyph unicode="1" horiz-adv-x="849" d="M166 1083l41 191l49 14q133 37 225 84t181 125l20 19h182l-321 -1516h-316l232 1085z" />
<glyph unicode="2" horiz-adv-x="1380" d="M33 0l47 217l412 293q156 111 272.5 199t182 172t65.5 176t-62.5 147.5t-167.5 55.5q-94 0 -146 -38t-76.5 -87.5t-31.5 -86.5l-6 -38h-303l5 38q5 37 21.5 97.5t53.5 127t100.5 127t160.5 98.5t237 38q174 0 292.5 -62.5t180 -166t61.5 -228.5q0 -117 -54 -216 t-146.5 -185t-207 -167t-237.5 -161l-106 -74h653l-59 -276h-1141z" />
<glyph unicode="3" horiz-adv-x="1361" d="M82 463h301l5 -34t29.5 -78t82 -77.5t162.5 -33.5q98 0 160.5 33.5t94 85t31.5 108.5q0 84 -69.5 132t-171.5 48h-197l51 246h209q123 0 190.5 58.5t67.5 142.5q0 74 -57.5 128t-167.5 54q-96 0 -150.5 -34t-80 -78t-32.5 -78l-8 -33h-288l4 35q4 34 21.5 89.5t54 117 t100 116.5t160 90t233.5 35q174 0 290 -57.5t175 -147.5t59 -194q0 -92 -45 -166t-115.5 -123t-146.5 -72l-2 -12q57 -23 112.5 -67t90.5 -107.5t35 -147.5q0 -111 -67.5 -217t-202.5 -175.5t-338 -69.5q-152 0 -255.5 34.5t-167 90t-96 117t-45 116.5t-14.5 90z" />
<glyph unicode="4" horiz-adv-x="1495" d="M55 311l58 275l835 930h424l-201 -941h236l-57 -266h-234l-65 -309h-318l66 309zM432 575h424l131 617z" />
<glyph unicode="5" horiz-adv-x="1374" d="M94 467h295l5 -35t30 -81t80 -80.5t153 -34.5q102 0 171 45t105 114.5t36 143.5q0 61 -27 116.5t-82 90t-139 34.5q-76 0 -127 -21.5t-82 -50t-45 -50.5l-14 -21h-310l250 879h953l-60 -275h-698l-101 -350h9l32 31q31 30 99.5 62t181.5 32q158 0 263.5 -66.5t157.5 -172 t52 -224.5q0 -104 -39 -205.5t-116.5 -184.5t-195.5 -133t-276 -50q-145 0 -243.5 34.5t-160 91t-94 119t-46 117.5t-15.5 90z" />
<glyph unicode="6" horiz-adv-x="1425" d="M123 559q0 186 65.5 361.5t191.5 314.5t302 220t395 81q160 0 238 -18l78 -19l-60 -280l-71 18q-70 18 -185 18q-190 0 -342.5 -93t-232.5 -269q45 47 116.5 83t180.5 36q168 0 278.5 -67.5t165.5 -176.5t55 -229q0 -100 -36.5 -199.5t-110.5 -181.5t-184.5 -130 t-257.5 -48q-197 0 -328 79.5t-194.5 211.5t-63.5 288zM451 487q0 -63 26.5 -120.5t81.5 -92t139 -34.5q92 0 156 43t96.5 109.5t32.5 137.5q0 63 -26.5 120t-81 91.5t-138.5 34.5q-94 0 -157.5 -43t-96 -109.5t-32.5 -136.5z" />
<glyph unicode="7" horiz-adv-x="1265" d="M207 1241l59 275h1112l-45 -226l-45 -41t-117.5 -117.5t-159.5 -189.5t-172 -256t-154 -315t-103 -371h-338q53 252 145 455.5t198.5 359.5t205 262.5t161.5 163.5h-747z" />
<glyph unicode="8" horiz-adv-x="1359" d="M74 412q0 129 91 243.5t273 157.5v10q-213 102 -213 303q0 121 77 213.5t206 144.5t285 52q152 0 274.5 -49t195 -138t72.5 -206t-77.5 -210t-227.5 -142v-11q121 -51 180.5 -143t59.5 -195q0 -113 -71 -219t-208 -174.5t-340 -68.5q-197 0 -324.5 63t-190 162.5 t-62.5 206.5zM395 444q0 -82 64.5 -148.5t197.5 -66.5q94 0 159 35t96.5 89.5t31.5 113.5q0 80 -64.5 146.5t-195.5 66.5q-96 0 -160.5 -35t-96.5 -89t-32 -112zM541 1094q0 -70 58 -128.5t175 -58.5q125 0 188.5 62.5t63.5 138.5q0 70 -57.5 126t-175.5 56 q-125 0 -188.5 -62.5t-63.5 -133.5z" />
<glyph unicode="9" horiz-adv-x="1425" d="M70 16l59 281l71 -19q70 -18 185 -18q190 0 342 93t234 270q-45 -47 -118 -83t-179 -36q-168 0 -280 67.5t-166 176t-54 229.5q0 100 37 199.5t110.5 181.5t184.5 130t258 48q197 0 326.5 -80t194 -212t64.5 -288q0 -186 -66.5 -361t-191.5 -314.5t-301 -220t-395 -80.5 q-160 0 -237 18zM479 985q0 -63 26.5 -119.5t81 -91.5t136.5 -35q96 0 159.5 43t96.5 109.5t33 136.5q0 63 -28 120.5t-82 92.5t-140 35q-92 0 -154.5 -43t-95.5 -109.5t-33 -138.5z" />
<glyph unicode=":" horiz-adv-x="583" d="M51 154q0 74 49.5 125t126.5 51q74 0 124 -51.5t50 -124.5q0 -72 -50 -123t-124 -51q-78 0 -127 52t-49 122zM213 932q0 72 49 123t127 51q76 0 125 -51t49 -123t-49 -124t-125 -52q-78 0 -127 52t-49 124z" />
<glyph unicode=";" horiz-adv-x="593" d="M45 -297l168 279q-70 6 -116 55t-46 119q0 76 51.5 125t126.5 49q76 0 129.5 -49.5t53.5 -133.5q0 -47 -22.5 -101t-73 -131t-130.5 -189l-14 -23h-127zM213 932q0 72 49 123t127 51q76 0 125 -51t49 -123t-49 -124t-125 -52q-78 0 -127 52t-49 124z" />
<glyph unicode="&#x3c;" horiz-adv-x="1173" d="M164 604l37 180l954 387l-55 -272l-584 -225l490 -219l-56 -238z" />
<glyph unicode="=" horiz-adv-x="1466" d="M135 264l53 254h1065l-53 -254h-1065zM233 729l54 254h1065l-54 -254h-1065z" />
<glyph unicode="&#x3e;" horiz-adv-x="1173" d="M109 217l53 272l583 224l-489 221l55 237l789 -387l-39 -180z" />
<glyph unicode="?" horiz-adv-x="1300" d="M190 1012l6 38q5 37 22.5 96.5t55 127t102 127t162 97.5t238.5 38q164 0 281 -60.5t179 -161t62 -222.5q0 -115 -48 -195t-119.5 -135t-147.5 -99.5t-133 -88.5t-74 -101l-8 -33h-305l6 45q14 92 69.5 157t129 113t145.5 92t119 95t47 125q0 88 -62.5 142.5t-160.5 54.5 q-94 0 -147.5 -39t-78 -88.5t-30.5 -86.5l-6 -38h-304zM420 145q0 70 47 118t119 48t120 -48t48 -118q0 -68 -48 -116.5t-120 -48.5t-119 49t-47 116z" />
<glyph unicode="@" horiz-adv-x="2091" d="M90 522q0 150 44 298.5t129 279.5t211 233.5t291 160.5t368 58q238 0 408.5 -70.5t280 -188t161 -261t51.5 -287.5q0 -119 -33 -228t-95.5 -195t-151.5 -136.5t-200 -50.5q-94 0 -153.5 26.5t-92 61.5t-44.5 61l-13 27h-16l-19 -27q-18 -26 -55 -61t-94 -61.5t-139 -26.5 q-117 0 -194 54.5t-113.5 141.5t-36.5 185q0 92 30.5 184.5t88 169t139.5 121.5t188 45q72 0 119 -21.5t75.5 -50t41.5 -50.5l12 -21h12l27 127h258l-90 -430q-12 -59 -13.5 -114.5t20 -91.5t81.5 -36q57 0 107.5 55.5t80 146.5t29.5 198q0 100 -35 203.5t-110.5 188.5 t-201.5 137t-310 52q-193 0 -340.5 -70.5t-248 -187.5t-152.5 -259t-52 -286q0 -125 40 -238.5t123 -203.5t209 -142.5t300 -52.5q102 0 191 16.5t159 39t108 39.5l39 16l82 -209l-42 -19q-42 -20 -118.5 -45.5t-183 -44t-235.5 -18.5q-236 0 -410 70.5t-287.5 192.5 t-169 275.5t-55.5 319.5zM831 537q0 -76 39 -133.5t123 -57.5q74 0 126 45t81 111.5t29 134.5q0 76 -39 132t-123 56q-74 0 -127 -44t-81 -110.5t-28 -133.5z" />
<glyph unicode="A" horiz-adv-x="1529" d="M-72 0l838 1516h414l194 -1516h-311l-37 297h-590l-160 -297h-348zM584 571h413l-73 629z" />
<glyph unicode="B" horiz-adv-x="1445" d="M27 0l321 1516h631q145 0 238.5 -49.5t138.5 -126t45 -162.5q0 -76 -33 -150t-96.5 -131t-155.5 -84l-2 -16q119 -31 174 -113t55 -184q0 -86 -38.5 -174t-113.5 -162t-184.5 -119t-250.5 -45h-729zM399 264h361q80 0 137 35t88 88t31 109q0 63 -48.5 112t-152.5 49h-334 zM532 899h322q74 0 125 32t77.5 79t26.5 94q0 57 -41 102t-127 45h-307z" />
<glyph unicode="C" horiz-adv-x="1576" d="M115 649q0 158 54 314.5t159.5 286.5t261 208t358.5 78q158 0 265.5 -40t175 -102.5t104.5 -133t51.5 -133t17.5 -102.5l3 -40h-314l-3 27q-3 28 -16 68t-47 80t-93.5 67.5t-155.5 27.5q-123 0 -216 -51t-156.5 -136t-96.5 -187.5t-33 -204.5q0 -109 38 -203t118 -152.5 t203 -58.5q115 0 189.5 41t117.5 93.5t60 93.5l18 40h315l-13 -40q-12 -39 -40.5 -101.5t-80.5 -133.5t-132 -133.5t-193.5 -102t-267.5 -39.5q-168 0 -291 54t-202.5 148t-118.5 215t-39 252z" />
<glyph unicode="D" horiz-adv-x="1511" d="M27 0l321 1516h449q174 0 302 -54.5t213 -146.5t126 -211t41 -248q0 -154 -57.5 -305.5t-170 -276t-278.5 -199.5t-383 -75h-563zM401 281h213q133 0 236.5 49t173.5 131t106.5 180t36.5 197q0 106 -43 197t-131 147.5t-223 56.5h-164z" />
<glyph unicode="E" horiz-adv-x="1284" d="M27 0l321 1516h1026l-59 -275h-709l-71 -340h616l-57 -264h-617l-76 -363h719l-57 -274h-1036z" />
<glyph unicode="F" horiz-adv-x="1280" d="M27 0l321 1516h1032l-57 -275h-717l-84 -397h623l-58 -264h-622l-123 -580h-315z" />
<glyph unicode="G" horiz-adv-x="1589" d="M117 655q0 156 53 311.5t159.5 284.5t265.5 207t368 78q152 0 256 -40t170.5 -102.5t103.5 -133t52.5 -133t17.5 -102.5l2 -40h-314l-3 27q-3 28 -16 68t-46 80t-92.5 67.5t-151.5 27.5q-125 0 -219 -51t-158.5 -136t-96.5 -186.5t-32 -201.5q0 -111 41 -206t125 -153.5 t211 -58.5q147 0 245.5 80t139.5 227h-375l54 248h679l-14 -112q-31 -242 -136.5 -403t-266 -241.5t-357.5 -80.5q-168 0 -292.5 54t-207.5 148t-124 216t-41 257z" />
<glyph unicode="H" horiz-adv-x="1509" d="M27 0l321 1516h316l-127 -605h591l129 605h316l-322 -1516h-315l135 637h-594l-135 -637h-315z" />
<glyph unicode="I" horiz-adv-x="600" d="M27 0l321 1516h316l-322 -1516h-315z" />
<glyph unicode="J" horiz-adv-x="1024" d="M-18 2l55 264l50 -7t112 -7q147 0 244.5 83t129.5 238l201 943h313l-204 -961q-33 -160 -115 -291t-221 -207.5t-346 -76.5q-94 0 -157 11z" />
<glyph unicode="K" horiz-adv-x="1423" d="M27 0l321 1516h316l-138 -652l658 652h418l-801 -768l471 -748h-359l-424 690l-147 -690h-315z" />
<glyph unicode="L" horiz-adv-x="1277" d="M27 0l321 1516h316l-263 -1242h713l-57 -274h-1030z" />
<glyph unicode="M" horiz-adv-x="1824" d="M27 0l321 1516h412l182 -781l522 781h424l-321 -1516h-316l215 1012l-442 -658h-295l-166 680l-221 -1034h-315z" />
<glyph unicode="N" horiz-adv-x="1538" d="M27 0l321 1516h289l442 -979l207 979h318l-322 -1516h-293l-444 952l-203 -952h-315z" />
<glyph unicode="O" d="M117 659q0 158 55 312.5t161.5 282.5t263.5 205t357 77q172 0 298 -55.5t208 -151.5t123 -218t41 -255q0 -158 -55.5 -312.5t-162 -282.5t-262 -204.5t-358.5 -76.5q-170 0 -297 55t-208.5 151.5t-122.5 218t-41 254.5zM438 666q0 -106 39 -198.5t119 -149t203 -56.5 q121 0 215 52.5t158.5 138.5t98.5 190.5t34 206.5q0 106 -39 198.5t-119 148.5t-203 56q-121 0 -214 -52t-158.5 -138t-99.5 -190.5t-34 -206.5z" />
<glyph unicode="P" horiz-adv-x="1396" d="M27 0l321 1516h553q176 0 291 -66t171 -170t56 -221q0 -100 -40 -198.5t-117.5 -179.5t-191.5 -129t-261 -48h-360l-107 -504h-315zM508 778h317q88 0 149.5 38t93.5 97.5t32 118.5q0 82 -56.5 144.5t-175.5 62.5h-262z" />
<glyph unicode="Q" horiz-adv-x="1701" d="M117 659q0 158 55 312.5t161.5 282.5t263.5 205t357 77q172 0 298 -55.5t208 -151.5t123 -218t41 -255q0 -160 -58.5 -320.5t-168.5 -287.5l178 -248h-334l-57 78q-84 -47 -183.5 -72.5t-214.5 -25.5q-170 0 -297 55t-208.5 151.5t-122.5 218t-41 254.5zM438 666 q0 -106 39 -198.5t119 -149t203 -56.5q59 0 111.5 13.5t97.5 37.5l-197 265l231 163l166 -233q47 78 72 167t25 175q0 106 -39 198.5t-119 148.5t-203 56q-121 0 -214 -52t-158.5 -138t-99.5 -190.5t-34 -206.5z" />
<glyph unicode="R" horiz-adv-x="1425" d="M27 0l321 1516h543q174 0 287.5 -61.5t170 -160t56.5 -209.5q0 -100 -46 -198.5t-135 -173t-220 -107.5l200 -606h-323l-189 584h-225l-125 -584h-315zM520 842h318q82 0 138 32.5t85 84t29 104.5q0 70 -51.5 125t-157.5 55h-275z" />
<glyph unicode="S" horiz-adv-x="1392" d="M57 473h314l6 -35t34.5 -82t91 -82.5t175.5 -35.5q121 0 198.5 55t77.5 143q0 66 -47 107t-127 69l-168 58q-100 33 -181 85t-128 132t-47 190q0 121 65.5 225.5t193.5 169t314 64.5q139 0 235.5 -33t160 -85t99.5 -110.5t52.5 -110.5t20.5 -85l4 -33h-305l-8 31 q-7 31 -32.5 72t-78.5 71.5t-148 30.5q-123 0 -191.5 -55t-68.5 -133q0 -66 44 -108t120 -66l156 -54q166 -55 273.5 -153.5t107.5 -265.5q0 -127 -72 -233.5t-207 -171t-323 -64.5q-154 0 -260.5 35.5t-173 92t-103.5 119t-52.5 118.5t-18.5 92z" />
<glyph unicode="T" horiz-adv-x="1419" d="M207 1241l57 275h1262l-58 -275h-473l-262 -1241h-317l264 1241h-473z" />
<glyph unicode="U" horiz-adv-x="1503" d="M150 336q-11 51 -12 110q0 83 22 181l188 889h316l-191 -898q-12 -57 -12 -105q-1 -86 37 -145q58 -92 209 -92q141 0 230 91.5t124 250.5l190 898h316l-195 -922q-47 -221 -149.5 -356.5t-248 -196.5t-321.5 -61q-119 0 -224 37.5t-179 116.5t-100 202z" />
<glyph unicode="V" horiz-adv-x="1497" d="M221 1516h311l140 -1201l647 1201h348l-838 -1516h-413z" />
<glyph unicode="W" horiz-adv-x="2127" d="M242 1516h301l35 -1100l505 1100h324l45 -1100l492 1100h331l-696 -1516h-395l-41 985l-455 -985h-391z" />
<glyph unicode="X" horiz-adv-x="1542" d="M-35 0l662 797l-293 719h356l195 -517l413 517h406l-662 -791l301 -725h-356l-196 522l-420 -522h-406z" />
<glyph unicode="Y" horiz-adv-x="1402" d="M219 1516h324l202 -672l486 672h368l-745 -998l-109 -518h-315l109 522z" />
<glyph unicode="Z" horiz-adv-x="1374" d="M-10 0l47 225l930 1016h-715l59 275h1153l-47 -224l-930 -1018h715l-59 -274h-1153z" />
<glyph unicode="[" horiz-adv-x="1007" d="M-68 -436l463 2181h705l-56 -266h-387l-350 -1647h387l-57 -268h-705z" />
<glyph unicode="\" horiz-adv-x="1050" d="M276 1698h263l272 -2069h-260z" />
<glyph unicode="]" horiz-adv-x="1005" d="M-47 -436l55 268h387l350 1647h-387l58 266h704l-463 -2181h-704z" />
<glyph unicode="^" horiz-adv-x="1175" d="M322 1147l342 369h247l187 -369h-230l-98 213l-192 -213h-256z" />
<glyph unicode="_" horiz-adv-x="1466" d="M47 -209l53 209h1030l-53 -209h-1030z" />
<glyph unicode="`" horiz-adv-x="589" d="M98 1606h279l135 -369l-219 -2z" />
<glyph unicode="a" horiz-adv-x="1335" d="M86 444q0 117 37 234t108.5 214t176 155.5t237.5 58.5q86 0 145.5 -23.5t95.5 -55.5t54 -61.5t25 -43.5h14l35 163h313l-229 -1085h-312l27 133h-14l-17 -23q-16 -24 -53 -53.5t-95.5 -53t-144.5 -23.5q-137 0 -226 65.5t-133 171t-44 227.5zM397 475q0 -98 50.5 -171 t158.5 -73q94 0 164 58.5t106.5 145.5t36.5 175q0 98 -50 171t-156 73q-96 0 -166 -58.5t-107 -146.5t-37 -174z" />
<glyph unicode="b" horiz-adv-x="1343" d="M31 0l327 1556h312l-127 -604h14l17 24q16 23 53 53t96 53.5t143 23.5q137 0 226.5 -65.5t133.5 -171t44 -228.5q0 -117 -37 -233.5t-108.5 -214t-176 -155.5t-237.5 -58q-86 0 -144.5 23.5t-95.5 55t-55.5 61.5t-24.5 44h-14l-35 -164h-311zM444 475q0 -98 49 -171 t158 -73q96 0 165 58.5t105.5 146.5t36.5 174q0 98 -50 171t-156 73q-96 0 -165 -58.5t-106 -145.5t-37 -175z" />
<glyph unicode="c" horiz-adv-x="1241" d="M90 473q0 117 41 229.5t122 203.5t199.5 145.5t272.5 54.5q141 0 230 -42t137.5 -104.5t68 -125t22.5 -104.5l3 -42h-291l-2 26q-2 25 -17.5 59t-53.5 59.5t-107 25.5q-98 0 -168 -56.5t-108 -143.5t-38 -179q0 -104 51.5 -178t159.5 -74q68 0 112 26t69.5 59.5 t36.5 59.5l10 25h293l-13 -42q-14 -42 -48 -104.5t-95.5 -125t-156.5 -104t-232 -41.5q-170 0 -280.5 68.5t-164 181t-53.5 243.5z" />
<glyph unicode="d" horiz-adv-x="1357" d="M86 444q0 117 37 234t108.5 214t176 155.5t237.5 58.5q86 0 145.5 -23.5t95.5 -55.5t54 -61.5t25 -43.5h14l135 634h311l-327 -1556h-312l27 133h-14l-17 -23q-16 -24 -53 -53.5t-95.5 -53t-144.5 -23.5q-137 0 -226 65.5t-133 171t-44 227.5zM397 475q0 -98 50 -171 t159 -73q94 0 164 58.5t106.5 145.5t36.5 175q0 98 -50 171t-156 73q-96 0 -166 -58.5t-107 -146.5t-37 -174z" />
<glyph unicode="e" horiz-adv-x="1253" d="M90 473q0 115 40 226.5t119 203.5t194.5 147.5t267.5 55.5q147 0 244.5 -54.5t150.5 -144.5q52 -91 66 -197q5 -42 5 -82q0 -64 -12 -126l-8 -41h-760q2 -111 55.5 -179.5t159.5 -68.5q63 0 105.5 20.5t67 47t35.5 47.5l11 22h291l-14 -38q-14 -38 -49 -93t-95.5 -110.5 t-152.5 -92t-219 -36.5q-174 0 -284.5 69.5t-164 182t-53.5 241.5zM426 649h467q2 17 2 34q0 67 -39 121q-49 68 -158 68q-102 0 -172.5 -64.5t-99.5 -158.5z" />
<glyph unicode="f" horiz-adv-x="825" d="M98 0l176 838h-176l54 247h174l32 148q18 88 66.5 167t139.5 128t237 49q68 0 113 -11l44 -10l-47 -219l-25 5q-24 6 -55 6q-72 0 -111.5 -36t-53.5 -102l-27 -125h215l-53 -247h-213l-178 -838h-312z" />
<glyph unicode="g" horiz-adv-x="1335" d="M-4 -61h303l4 -19q4 -20 22.5 -46t58.5 -45t112 -19q131 0 205.5 71.5t97.5 177.5l20 95h-14l-17 -20q-18 -21 -55 -48t-93 -46.5t-134 -19.5q-141 0 -233.5 63.5t-136.5 168t-44 223.5q0 113 37 224.5t107.5 203.5t173 147.5t235.5 55.5q94 0 156.5 -28.5t98.5 -66.5 t52 -67l15 -29h14l37 170h309l-219 -1038q-47 -231 -201 -357t-418 -126q-152 0 -245.5 38t-146 93t-73 111.5t-24.5 94.5zM412 512q0 -98 51 -174t160 -76q92 0 156.5 54.5t98 135t33.5 162.5q0 98 -51 173t-160 75q-92 0 -156.5 -53t-98 -134t-33.5 -163z" />
<glyph unicode="h" horiz-adv-x="1251" d="M27 0l331 1556h312l-133 -626h10l17 26q18 27 55.5 62t98 61.5t146.5 26.5q119 0 194 -58q76 -59 102 -156q14 -50 13 -104q0 -51 -12 -106l-145 -682h-314l138 637q7 33 7 62q1 49 -19 89q-30 62 -119 62q-98 0 -159 -69.5t-81 -168.5l-131 -612h-311z" />
<glyph unicode="i" horiz-adv-x="589" d="M18 0l232 1085h311l-231 -1085h-312zM289 1407q0 74 51 126t133 52q80 0 132 -52t52 -126t-52 -126t-132 -52q-82 0 -133 52t-51 126z" />
<glyph unicode="j" horiz-adv-x="655" d="M-246 -406l51 238l21 -3q22 -3 51 -3q80 0 134.5 44t74.5 138l229 1077h312l-232 -1093q-16 -72 -48 -144.5t-88 -133t-144 -97.5t-213 -37q-66 0 -107 7zM354 1407q0 74 52.5 126t132.5 52t132 -52t52 -126t-52 -126t-132 -52t-132.5 52t-52.5 126z" />
<glyph unicode="k" horiz-adv-x="1269" d="M27 0l331 1556h312l-193 -903l438 432h390l-547 -526l336 -559h-351l-297 504l-108 -504h-311z" />
<glyph unicode="l" horiz-adv-x="598" d="M27 0l331 1556h314l-334 -1556h-311z" />
<glyph unicode="m" horiz-adv-x="1871" d="M16 0l230 1085h313l-35 -155h11l18 26q18 27 57 62t98.5 61.5t141.5 26.5q117 0 188.5 -60.5t94.5 -154.5h10l21 33q22 32 65 74t110.5 75t159.5 33q115 0 187 -56q72 -55 98 -144q14 -49 14 -102q0 -44 -10 -91l-152 -713h-311l139 653q7 33 7 61q1 48 -19 82 q-30 54 -113 54q-88 0 -146 -66.5t-79 -162.5l-131 -621h-313l139 653q7 32 7 60q0 47 -18 81q-30 56 -112 56q-90 0 -148.5 -68.5t-78.5 -160.5l-131 -621h-312z" />
<glyph unicode="n" horiz-adv-x="1241" d="M16 0l232 1085h311l-33 -155h11l17 26q17 27 55 62t98.5 61.5t146.5 26.5q119 0 193.5 -58.5t101.5 -155.5q14 -50 14 -105q0 -51 -12 -105l-145 -682h-314l137 637q7 33 7 62q0 49 -20 89q-30 62 -118 62q-98 0 -158.5 -69.5t-80.5 -168.5l-131 -612h-312z" />
<glyph unicode="o" horiz-adv-x="1296" d="M88 469q0 113 41 225.5t122 205.5t197.5 149.5t270.5 56.5q170 0 280.5 -69.5t166 -181.5t55.5 -239q0 -115 -42 -227.5t-123 -204.5t-197.5 -148t-268.5 -56q-172 0 -282.5 69.5t-165 181t-54.5 238.5zM399 475q0 -96 49.5 -169t155.5 -73q94 0 160.5 56.5t103.5 142.5 t37 178q0 96 -49 169t-156 73q-92 0 -159.5 -56.5t-104.5 -142.5t-37 -178z" />
<glyph unicode="p" horiz-adv-x="1343" d="M-55 -399l313 1484h311l-28 -133h14l17 24q16 23 53 53t96 53.5t145 23.5q137 0 226.5 -65.5t133.5 -171t44 -228.5q0 -117 -38 -233.5t-109.5 -214t-175 -155.5t-236.5 -58q-86 0 -145.5 23.5t-96.5 55t-55.5 61.5t-22.5 44h-16l-117 -563h-313zM442 475 q0 -98 50.5 -171t156.5 -73q96 0 165 58.5t105.5 146.5t36.5 174q0 98 -49 171t-157 73q-96 0 -165 -58.5t-106 -145.5t-37 -175z" />
<glyph unicode="q" horiz-adv-x="1357" d="M86 444q0 117 37 233t108.5 213t176 155.5t237.5 58.5q86 0 145.5 -22.5t95.5 -55.5t54 -62.5t25 -43.5h14l35 163h313l-313 -1482h-314l113 530h-14l-17 -23q-16 -22 -53 -52.5t-96.5 -54.5t-143.5 -24q-137 0 -226 66t-133 172.5t-44 228.5zM397 473q0 -98 50 -171 t159 -73q94 0 164 58.5t106.5 146.5t36.5 174q0 98 -50 171t-156 73q-96 0 -166 -58.5t-107 -145.5t-37 -175z" />
<glyph unicode="r" horiz-adv-x="905" d="M16 0l232 1085h309l-33 -157h11q47 78 125.5 128t193.5 50q43 0 68 -5l24 -5l-63 -303l-25 4q-24 4 -61 4q-152 0 -247 -104.5t-134 -288.5l-88 -408h-312z" />
<glyph unicode="s" horiz-adv-x="1105" d="M23 348h301l6 -20q6 -21 25.5 -47.5t59.5 -47t109 -20.5q84 0 124 31.5t40 74.5q0 41 -29.5 61.5t-74.5 35.5l-140 35q-131 35 -205.5 109.5t-74.5 189.5q0 96 53 177t153.5 130t245.5 49q125 0 207 -35t130 -85t72 -100t31 -85l7 -35h-289l-12 26q-12 27 -49 54.5 t-115 27.5q-74 0 -111.5 -30.5t-37.5 -73.5q0 -37 28.5 -59.5t77.5 -36.5l123 -33q135 -31 218 -108.5t83 -198.5q0 -96 -55.5 -177t-161.5 -129t-260 -48q-139 0 -229.5 36.5t-140.5 92t-73.5 109.5t-29.5 92z" />
<glyph unicode="t" horiz-adv-x="903" d="M121 838l53 247h184l58 269h313l-57 -269h225l-53 -247h-226l-96 -453q-6 -28 -6 -51q0 -109 137 -109q37 0 69 5l32 6l-54 -238l-48 -9t-120 -9q-119 0 -189.5 36.5t-104 97t-38.5 132.5q-1 17 -1 34q0 55 12 109l94 449h-184z" />
<glyph unicode="u" horiz-adv-x="1222" d="M100 393l146 692h313l-141 -669q-6 -31 -7 -56q-1 -46 21 -77q32 -47 109 -47q98 0 156.5 69.5t76.5 161.5l131 618h314l-230 -1085h-313l33 154h-13q-49 -63 -131 -118.5t-203 -55.5q-156 0 -230 112q-47 72 -47 175q0 58 15 126z" />
<glyph unicode="v" horiz-adv-x="1230" d="M160 1085h293l106 -737l404 737h333l-618 -1085h-352z" />
<glyph unicode="w" horiz-adv-x="1808" d="M160 1085h297l43 -692l356 692h289l61 -692l338 692h330l-567 -1085h-330l-55 645l-328 -645h-332z" />
<glyph unicode="x" horiz-adv-x="1228" d="M-76 0l473 575l-211 510h324l131 -340l270 340h369l-485 -577l225 -508h-324l-137 344l-266 -344h-369z" />
<glyph unicode="y" horiz-adv-x="1220" d="M-98 -391l53 260l23 -3q24 -3 57 -3q82 0 153.5 29.5t137.5 113.5l-166 1079h297l96 -735l401 735h332l-608 -1042q-131 -223 -287 -332.5t-377 -109.5q-55 0 -84 4z" />
<glyph unicode="z" horiz-adv-x="1091" d="M-23 0l46 213l655 625h-504l53 247h912l-47 -213l-656 -624h525l-54 -248h-930z" />
<glyph unicode="{" horiz-adv-x="983" d="M61 522l56 264h82q135 0 163 142l95 446q39 182 146.5 276.5t301.5 94.5h262l-55 -266h-184q-68 0 -106 -34t-52 -102l-90 -428q-23 -104 -68 -163.5t-151 -89.5l-2 -13q92 -33 110.5 -102.5t-2.5 -161.5l-92 -426q-27 -127 113 -127h174l-57 -268h-189q-150 0 -236.5 55 t-114.5 151.5t-1 221.5l86 403q27 127 -100 127h-89z" />
<glyph unicode="|" horiz-adv-x="835" d="M68 -500l522 2458h258l-522 -2458h-258z" />
<glyph unicode="}" horiz-adv-x="983" d="M-154 -436l58 268h184q68 0 105.5 34t52.5 99l90 428q20 104 65 163.5t152 92.5l4 13q-92 33 -110.5 101t2.5 161l90 428q27 127 -113 127h-172l55 266h191q150 0 235.5 -54.5t113.5 -151.5t1 -220l-86 -404q-27 -129 100 -129h90l-55 -264h-84q-135 0 -164 -139 l-94 -446q-37 -182 -145.5 -277.5t-300.5 -95.5h-265z" />
<glyph unicode="~" horiz-adv-x="1003" d="M174 655q16 78 42 145.5t74 110.5t128 43q55 0 94 -19.5t68.5 -46t54 -46t53.5 -19.5q31 0 49.5 32t28.5 89h162q-16 -76 -42 -144.5t-73 -112.5t-129 -44q-53 0 -92 20.5t-68.5 46t-55.5 46t-52 20.5q-33 0 -51.5 -31.5t-28.5 -89.5h-162z" />
<glyph unicode="&#xa1;" horiz-adv-x="579" d="M-76 -451l269 1067h258l-191 -1067h-336zM217 920q0 68 47 116.5t119 48.5t119 -49t47 -116q0 -70 -47 -119t-119 -49t-119 49t-47 119z" />
<glyph unicode="&#xa2;" horiz-adv-x="1241" d="M90 473q0 111 37 219.5t110.5 197.5t181 146.5t249.5 67.5l37 168h161l-37 -174q111 -16 178.5 -62.5t105.5 -105t53.5 -113.5t17.5 -92l2 -37h-291l-4 34t-28.5 73t-86.5 55l-131 -621q57 8 95 34t59.5 57.5t30.5 53.5l10 23h293l-13 -42q-14 -42 -48 -104.5t-94 -125 t-154.5 -104t-231.5 -41.5l-35 -166h-164l39 184q-117 29 -192.5 100.5t-112.5 169t-37 205.5zM401 479q0 -68 21.5 -125t66.5 -90l123 576q-68 -29 -114.5 -85.5t-71.5 -129t-25 -146.5z" />
<glyph unicode="&#xa3;" horiz-adv-x="1241" d="M0 0l55 262q160 16 257.5 82t97.5 178q0 31 -8.5 61.5t-20.5 61.5h-272l30 137h187q-18 49 -31.5 102.5t-13.5 116.5q0 137 74.5 260t224 199t372.5 76q96 0 176 -11.5t128 -23.5l49 -12l-58 -268l-37 10q-36 10 -101 21.5t-144 11.5q-182 0 -279.5 -74t-97.5 -197 q0 -57 17.5 -107t35.5 -104h399l-28 -137h-336q2 -20 2 -43q0 -94 -33 -158.5t-77 -103.5t-77.5 -57.5t-35.5 -22.5h659l-55 -260h-1059z" />
<glyph unicode="&#xa4;" horiz-adv-x="1366" d="M102 315l181 183q-37 55 -58.5 123.5t-21.5 142.5q0 145 80 264l-181 180l136 133l180 -178q119 84 268 84q147 0 266 -82l178 176l134 -133l-177 -178q80 -119 80 -266q0 -76 -21.5 -143.5t-60.5 -124.5l179 -181l-134 -135l-180 180q-121 -78 -264 -77 q-74 0 -142.5 20.5t-125.5 58.5l-180 -182zM420 764q0 -74 36 -134.5t96 -96t134 -35.5q72 0 132.5 35.5t96 96t35.5 134.5q0 72 -35.5 132t-96 96t-132.5 36q-74 0 -134 -36t-96 -96t-36 -132z" />
<glyph unicode="&#xa5;" horiz-adv-x="1402" d="M123 393l37 168h366l-49 152h-287l37 168h197l-205 635h324l202 -672l486 672h368l-475 -635h193l-37 -168h-281l-112 -152h362l-37 -168h-383l-84 -393h-315l82 393h-389z" />
<glyph unicode="&#xa6;" horiz-adv-x="837" d="M68 -500l217 1016h258l-217 -1016h-258zM356 856l234 1102h258l-234 -1102h-258z" />
<glyph unicode="&#xa7;" horiz-adv-x="1449" d="M-37 31h311l8 -36q9 -36 39.5 -83t93 -84t173.5 -37q127 0 201.5 55.5t74.5 145.5q0 68 -45 111.5t-125 70.5l-215 66q-160 47 -261 134t-101 230q0 96 44 161.5t109.5 102.5t132.5 50l3 12q-10 8 -37 36.5t-48.5 80t-21.5 129.5q0 123 66.5 224t193.5 162.5t309 61.5 q137 0 233.5 -34t160 -86t101.5 -111.5t55.5 -111.5t23.5 -85l6 -33h-305l-7 32q-8 32 -33.5 73t-80.5 72.5t-152 31.5q-119 0 -189.5 -53t-70.5 -135q0 -66 45 -111t129 -72l205 -61q162 -49 264.5 -136t102.5 -231q0 -96 -45 -161.5t-111.5 -102.5t-132.5 -49l-4 -12 q14 -8 43 -39t52.5 -81t23.5 -122q0 -127 -71 -234.5t-207 -172t-335 -64.5q-150 0 -253 36t-169.5 92t-104.5 119.5t-54.5 120t-20.5 92.5zM428 651q0 -113 170 -168l309 -102q16 12 50 27.5t62 43t28 76.5q0 111 -166 164l-316 103q-16 -10 -50 -25.5t-60.5 -43.5 t-26.5 -75z" />
<glyph unicode="&#xa8;" horiz-adv-x="919" d="M20 1380q0 72 49.5 121t127.5 49q76 0 126 -49t50 -121q0 -70 -50 -120t-126 -50q-78 0 -127.5 50.5t-49.5 119.5zM483 1380q0 72 49.5 121t126.5 49q76 0 126.5 -49t50.5 -121q0 -70 -50.5 -120t-126.5 -50q-78 0 -127 50.5t-49 119.5z" />
<glyph unicode="&#xa9;" horiz-adv-x="1648" d="M115 659q0 145 51 286.5t152.5 257.5t251 185.5t343.5 69.5q174 0 303.5 -56t214.5 -151.5t125.5 -216.5t40.5 -252q0 -145 -51 -287.5t-152.5 -258t-250.5 -184t-344 -68.5q-174 0 -303 56t-213 151.5t-126 217t-42 250.5zM315 666q0 -129 53.5 -244t163 -186.5 t273.5 -71.5q147 0 258 53t185.5 142.5t112.5 198t38 218.5q0 127 -52.5 242t-160 185.5t-275.5 70.5q-143 0 -254.5 -52.5t-187.5 -140.5t-115 -196.5t-39 -218.5zM473 666q0 84 29.5 165.5t88 149.5t145.5 107.5t200 39.5q102 0 164.5 -30.5t97.5 -74.5t49.5 -89t16.5 -76 l2 -31h-207l-1 19q-1 20 -12.5 44.5t-39 43t-78.5 18.5q-74 0 -126 -43t-80 -108.5t-28 -128.5q0 -74 38 -129.5t118 -55.5q68 0 103.5 31t50.5 62l16 32h205l-9 -30q-10 -31 -34.5 -75t-68.5 -89t-112.5 -76t-166.5 -31q-123 0 -203 50.5t-119 131t-39 173.5z" />
<glyph unicode="&#xaa;" horiz-adv-x="866" d="M195 1014q0 90 67.5 154.5t202.5 72.5l209 14l2 15q8 39 -10.5 67.5t-71.5 28.5q-43 0 -64.5 -15.5t-27.5 -31.5l-6 -16h-217l11 35q11 36 45 82t100.5 81t174.5 35q115 0 185.5 -43t97.5 -109.5t12 -136.5l-88 -407h-231l14 75h-8q-20 -33 -64.5 -60.5t-119.5 -27.5 q-98 0 -155.5 51.5t-57.5 135.5zM430 1042q0 -29 20.5 -45t55.5 -16q45 0 84 29.5t51 87.5l4 22l-133 -10q-43 -2 -62.5 -23.5t-19.5 -44.5z" />
<glyph unicode="&#xab;" horiz-adv-x="1513" d="M109 633l530 450h344l-549 -469l318 -430h-306zM707 633l530 450h346l-549 -469l316 -430h-303z" />
<glyph unicode="&#xac;" horiz-adv-x="1341" d="M223 840l51 245h1014l-51 -245l-68 -314h-266l66 314h-746z" />
<glyph unicode="&#xad;" horiz-adv-x="1228" d="M203 516l37 246h768l-39 -246h-766z" />
<glyph unicode="&#xae;" horiz-adv-x="872" d="M197 1139q0 100 46 193t136 153.5t221 60.5q115 0 191.5 -48t115.5 -127t39 -165q0 -100 -47 -194t-137 -154.5t-221 -60.5q-115 0 -192 49t-114.5 128t-37.5 165zM285 1143q0 -68 28.5 -128.5t86 -97t145.5 -36.5q100 0 169.5 48t105.5 122.5t36 150.5q0 68 -27.5 127.5 t-85 96t-143.5 36.5q-102 0 -172 -48t-106.5 -121.5t-36.5 -149.5zM383 983l84 395h156q74 0 109.5 -37.5t35.5 -80.5q0 -39 -25.5 -75t-72.5 -52l45 -150h-111l-39 139h-47l-29 -139h-106zM537 1206h77q25 0 37.5 13.5t12.5 29.5q0 14 -11.5 24.5t-31.5 10.5h-68z" />
<glyph unicode="&#xaf;" horiz-adv-x="770" d="M31 1327l41 184h667l-41 -184h-667z" />
<glyph unicode="&#xb0;" horiz-adv-x="940" d="M229 1157q0 104 50.5 190.5t136.5 137.5t190 51t190.5 -51t137.5 -137t51 -191q0 -104 -51 -190t-137.5 -136.5t-190.5 -50.5t-190 50.5t-136.5 136.5t-50.5 190zM442 1157q0 -68 48 -116t116 -48t116 48.5t48 115.5q0 70 -48 118t-116 48t-116 -48t-48 -118z" />
<glyph unicode="&#xb1;" horiz-adv-x="1292" d="M78 0l37 172h893l-37 -172h-893zM227 627l54 245h305l65 308h246l-63 -308h305l-54 -245h-305l-65 -308h-246l66 308h-308z" />
<glyph unicode="&#xb2;" horiz-adv-x="960" d="M225 827l33 162l240 160q143 94 223 164.5t80 144.5q0 47 -32 76t-87 29q-47 0 -73.5 -19.5t-39 -45t-15.5 -44.5l-3 -18h-227l4 32q4 33 21.5 82t57 99.5t109.5 83t178 32.5q113 0 190 -39.5t116.5 -105.5t39.5 -143q0 -80 -37.5 -145.5t-98 -118t-130 -96.5t-133.5 -81 l-8 -6h364l-45 -203h-727z" />
<glyph unicode="&#xb3;" horiz-adv-x="958" d="M221 1116h225l6 -28q7 -27 37.5 -53.5t102.5 -26.5q78 0 112.5 34.5t34.5 75.5q0 33 -30.5 59.5t-92.5 26.5h-124l36 180h134q68 0 99.5 31t31.5 70q0 35 -30 62.5t-91 27.5q-66 0 -96.5 -28.5t-37.5 -58.5l-8 -30h-215l5 32q6 32 24 77t58 91t109 76.5t173 30.5 q113 0 188.5 -35.5t113.5 -92t38 -119.5q0 -72 -49 -132.5t-137 -85.5l-2 -10q63 -25 103 -75t40 -115q0 -68 -43 -133.5t-130 -108.5t-216 -43q-117 0 -188.5 31t-109.5 75t-52.5 89t-16.5 76z" />
<glyph unicode="&#xb4;" horiz-adv-x="589" d="M281 1237l170 369h286l-229 -371z" />
<glyph unicode="&#xb5;" horiz-adv-x="1359" d="M-92 -403l317 1488h312l-142 -663q-18 -84 12.5 -135t110.5 -51q98 0 156.5 69.5t79.5 167.5l129 612h311l-150 -710q-14 -70 7.5 -109t101.5 -39q27 0 47 5l19 4l-52 -242l-45 -7t-102 -7q-137 0 -208 51t-89 123h-16l-13 -26q-14 -26 -43.5 -60.5t-81 -61t-127.5 -26.5 q-70 0 -113.5 19t-62.5 39l-20 19l-10 -8q29 -86 28.5 -167t-24.5 -193l-21 -92h-311z" />
<glyph unicode="&#xb6;" horiz-adv-x="1161" d="M166 999q0 106 55 206t160.5 164.5t261.5 64.5h614l-305 -1434h-190l248 1161h-136l-247 -1161h-191l135 637q-137 2 -227 54t-134 134t-44 174z" />
<glyph unicode="&#xb7;" horiz-adv-x="624" d="M39 762q0 74 49 124t125 50t126 -50t50 -124q0 -72 -50 -123t-126 -51t-125 51t-49 123z" />
<glyph unicode="&#xb8;" horiz-adv-x="524" d="M-102 -502l26 164l26 -4q25 -4 60 -7t64 -3q76 0 103.5 25.5t27.5 56.5q0 27 -22.5 47t-67.5 20q-39 0 -65.5 -12t-24.5 -12l-80 98l174 195h203l-129 -140l4 2q104 0 163.5 -59t59.5 -141q0 -59 -37 -116.5t-113.5 -94.5t-199.5 -37q-68 0 -120 9z" />
<glyph unicode="&#xb9;" horiz-adv-x="661" d="M248 1456l28 143l29 9q88 25 150.5 56.5t124.5 80.5l10 10h139l-199 -928h-235l133 629h-180z" />
<glyph unicode="&#xba;" horiz-adv-x="907" d="M227 1143q0 94 46 186t136.5 151.5t223.5 59.5q113 0 186.5 -45t110.5 -116.5t37 -153.5q0 -94 -47.5 -185.5t-138.5 -150t-220 -58.5q-115 0 -188.5 44.5t-109.5 116t-36 151.5zM465 1147q0 -49 24.5 -88t79.5 -39q72 0 114 62.5t42 140.5q0 49 -24.5 87t-82.5 38 q-70 0 -111.5 -61.5t-41.5 -139.5z" />
<glyph unicode="&#xbb;" horiz-adv-x="1513" d="M12 184l549 467l-317 432h305l338 -450l-531 -449h-344zM610 184l549 467l-315 432h303l340 -450l-531 -449h-346z" />
<glyph unicode="&#xbc;" horiz-adv-x="1845" d="M215 1200l29 131l18 4q76 18 128 44t102 67l6 8h123l-152 -727h-211l100 473h-143zM311 0l1043 1434h243l-1046 -1434h-240zM1174 141l36 166l369 422h287l-92 -428h100l-33 -160h-102l-29 -139h-205l29 139h-360zM1417 301h152l49 231z" />
<glyph unicode="&#xbd;" horiz-adv-x="1824" d="M215 1200l29 131l18 4q76 18 128 44t102 67l6 8h123l-152 -727h-211l100 473h-143zM311 0l1043 1434h243l-1046 -1434h-240zM1204 2l31 137l180 117q123 78 179.5 131t56.5 100q0 35 -21.5 56.5t-62.5 21.5q-45 0 -64.5 -22.5t-23.5 -44.5l-4 -23h-195l3 27q3 26 17.5 65 t45 79t87 66.5t144.5 26.5q137 0 209 -69.5t72 -163.5q0 -82 -48.5 -143.5t-119 -107.5t-138.5 -81h273l-35 -172h-586z" />
<glyph unicode="&#xbe;" horiz-adv-x="1951" d="M174 952h191l5 -18q5 -19 27.5 -37t73.5 -18q57 0 82 25.5t25 49.5q0 23 -21.5 42.5t-67.5 19.5h-98l33 153h104q47 0 68.5 22.5t21.5 47.5q0 23 -20 43.5t-63 20.5q-49 0 -72 -21.5t-30 -41.5l-7 -21h-180l7 37q7 36 35.5 84.5t89 86t167.5 37.5q137 0 203.5 -63.5 t66.5 -132.5q0 -59 -42 -106.5t-107 -65.5l-2 -6q53 -20 84.5 -59.5t31.5 -90.5q0 -53 -33.5 -104.5t-103 -85t-178.5 -33.5q-92 0 -148.5 23.5t-86 58.5t-41 70.5t-13.5 58.5zM500 0l1042 1434h244l-1047 -1434h-239zM1362 141l37 166l368 422h287l-92 -428h100l-32 -160 h-103l-29 -139h-204l28 139h-360zM1606 301h151l49 231z" />
<glyph unicode="&#xbf;" horiz-adv-x="1298" d="M-23 -10q0 115 48.5 194.5t120 135t147.5 99.5t133 88t74 101l8 33h305l-6 -45q-14 -92 -69.5 -156.5t-129 -112.5t-145.5 -92.5t-119 -95.5t-47 -125q0 -88 62.5 -142t160.5 -54q94 0 147.5 39t78 88t30.5 87l6 38h303l-5 -38t-22.5 -97.5t-55 -127t-102 -127 t-162 -97.5t-238.5 -38q-164 0 -281 60.5t-179.5 161t-62.5 223.5zM522 936q0 68 48 118t118 50q74 0 121 -50t47 -118q0 -70 -47 -118t-121 -48q-70 0 -118 48t-48 118z" />
<glyph unicode="&#xc0;" horiz-adv-x="1523" d="M-74 0l838 1516h414l194 -1516h-311l-37 297h-590l-162 -297h-346zM582 571h413l-73 629zM676 2036h278l138 -369l-220 -2z" />
<glyph unicode="&#xc1;" horiz-adv-x="1523" d="M-74 0l838 1516h414l194 -1516h-311l-37 297h-590l-162 -297h-346zM582 571h413l-73 629zM905 1667l172 369h287l-231 -371z" />
<glyph unicode="&#xc2;" horiz-adv-x="1523" d="M-74 0l838 1516h414l194 -1516h-311l-37 297h-590l-162 -297h-346zM582 571h413l-73 629zM594 1651l332 315h248l198 -315h-229l-109 180l-182 -180h-258z" />
<glyph unicode="&#xc3;" horiz-adv-x="1523" d="M-74 0l838 1516h414l194 -1516h-311l-37 297h-590l-162 -297h-346zM582 571h413l-73 629zM666 1700q16 80 42.5 148.5t74.5 110.5t128 42q55 0 95.5 -19.5t70 -45t55 -45t52.5 -19.5q31 0 48 30.5t30 88.5h165q-18 -80 -44.5 -149.5t-74.5 -111.5t-128 -42q-55 0 -94 19 t-69 45t-55.5 45.5t-52.5 19.5q-57 0 -80 -117h-163z" />
<glyph unicode="&#xc4;" horiz-adv-x="1523" d="M-74 0l838 1516h414l194 -1516h-311l-37 297h-590l-162 -297h-346zM582 571h413l-73 629zM625 1810q0 72 49 121t127 49q76 0 126 -49t50 -121q0 -70 -50 -120t-126 -50q-78 0 -127 50.5t-49 119.5zM1087 1810q0 72 49.5 121t127.5 49q76 0 126 -49t50 -121 q0 -70 -50 -120t-126 -50q-78 0 -127.5 50.5t-49.5 119.5z" />
<glyph unicode="&#xc5;" horiz-adv-x="1523" d="M-74 0l838 1516h414l194 -1516h-311l-37 297h-590l-162 -297h-346zM582 571h413l-73 629zM739 1911q0 78 38 140.5t101.5 100t139.5 37.5q78 0 140.5 -37.5t100 -100t37.5 -140.5q0 -76 -37.5 -139.5t-100 -100.5t-140.5 -37q-76 0 -139.5 37t-101.5 100.5t-38 139.5z M905 1911q0 -47 34 -79t79 -32q47 0 79.5 32t32.5 79t-32.5 78.5t-79.5 31.5q-45 0 -79 -31.5t-34 -78.5z" />
<glyph unicode="&#xc6;" horiz-adv-x="2084" d="M-72 0l1010 1516h1237l-57 -275h-699l-71 -340h606l-58 -264h-604l-78 -363h707l-57 -274h-1024l63 297h-426l-198 -297h-351zM657 567h304l141 664z" />
<glyph unicode="&#xc7;" horiz-adv-x="1576" d="M115 649q0 158 54 314.5t159.5 286.5t261 208t358.5 78q158 0 265.5 -40t175 -102.5t104.5 -133t51.5 -133t17.5 -102.5l3 -40h-314l-3 27q-3 28 -16 68t-47 80t-93.5 67.5t-155.5 27.5q-123 0 -216 -51t-156.5 -136t-96.5 -187.5t-33 -204.5q0 -109 38 -203t118 -152.5 t203 -58.5q115 0 189.5 41t117.5 93.5t60 93.5l18 40h315l-13 -40q-12 -39 -40.5 -101.5t-79.5 -133.5t-130 -133.5t-191.5 -102t-262.5 -39.5l-63 -68h6q102 0 161.5 -59.5t59.5 -139.5q0 -59 -36 -116.5t-112.5 -95.5t-199.5 -38q-68 0 -120 9l-52 10l24 164l26 -3 t61.5 -7.5t62.5 -4.5q76 0 103.5 27t27.5 57q0 27 -21.5 47.5t-66.5 20.5q-39 0 -65 -13l-27 -14l-80 101l129 141q-164 35 -269.5 132t-157.5 232.5t-52 286.5z" />
<glyph unicode="&#xc8;" horiz-adv-x="1282" d="M27 0l321 1516h1014l-59 -275h-697l-71 -340h604l-58 -264h-604l-76 -363h707l-57 -274h-1024zM555 2036h279l137 -369l-221 -2z" />
<glyph unicode="&#xc9;" horiz-adv-x="1282" d="M27 0l321 1516h1014l-59 -275h-697l-71 -340h604l-58 -264h-604l-76 -363h707l-57 -274h-1024zM784 1667l170 369h287l-229 -371z" />
<glyph unicode="&#xca;" horiz-adv-x="1282" d="M27 0l321 1516h1014l-59 -275h-697l-71 -340h604l-58 -264h-604l-76 -363h707l-57 -274h-1024zM473 1651l332 315h248l196 -315h-227l-109 180l-182 -180h-258z" />
<glyph unicode="&#xcb;" horiz-adv-x="1282" d="M27 0l321 1516h1014l-59 -275h-697l-71 -340h604l-58 -264h-604l-76 -363h707l-57 -274h-1024zM504 1810q0 72 49 121t127 49q76 0 126 -49t50 -121q0 -70 -50 -120t-126 -50q-78 0 -127 50.5t-49 119.5zM967 1810q0 72 49 121t127 49q76 0 126 -49t50 -121 q0 -70 -50 -120t-126 -50q-78 0 -127 50.5t-49 119.5z" />
<glyph unicode="&#xcc;" horiz-adv-x="600" d="M27 0l321 1516h316l-322 -1516h-315zM205 1997h278l138 -367l-222 -2z" />
<glyph unicode="&#xcd;" horiz-adv-x="600" d="M27 0l321 1516h316l-322 -1516h-315zM434 1630l170 367h287l-229 -369z" />
<glyph unicode="&#xce;" horiz-adv-x="600" d="M27 0l321 1516h316l-322 -1516h-315zM139 1612l342 370h248l186 -370h-229l-100 213l-191 -213h-256z" />
<glyph unicode="&#xcf;" horiz-adv-x="600" d="M27 0l321 1516h316l-322 -1516h-315zM154 1774q0 70 49 120t127 50q76 0 126 -50.5t50 -119.5q0 -72 -50 -122t-126 -50q-78 0 -127 51t-49 121zM616 1774q0 70 49.5 120t127.5 50q76 0 126 -50.5t50 -119.5q0 -72 -50 -122t-126 -50q-78 0 -127.5 51t-49.5 121z" />
<glyph unicode="&#xd0;" horiz-adv-x="1572" d="M20 633l54 252h200l134 631h450q174 0 302 -54.5t212 -146.5t126 -211t42 -248q0 -154 -57.5 -305.5t-170 -276t-278.5 -199.5t-383 -75h-565l135 633h-201zM463 281h213q133 0 235.5 49t173 131t106.5 180t36 197q0 106 -43 197t-131 147.5t-222 56.5h-165l-76 -354h254 l-56 -252h-251z" />
<glyph unicode="&#xd1;" horiz-adv-x="1538" d="M27 0l321 1516h289l442 -979l207 979h318l-322 -1516h-293l-444 952l-203 -952h-315zM664 1700q16 80 42.5 148.5t74.5 110.5t130 42q55 0 95.5 -19.5t70 -45t54 -45t51.5 -19.5q33 0 50 30.5t30 88.5h163q-16 -80 -42.5 -149.5t-74.5 -111.5t-128 -42q-55 0 -94 19 t-69 45t-55.5 45.5t-54.5 19.5q-55 0 -78 -117h-165z" />
<glyph unicode="&#xd2;" d="M117 659q0 158 55 312.5t161.5 282.5t263.5 205t357 77q172 0 298 -55.5t208 -151.5t123 -218t41 -255q0 -158 -55.5 -312.5t-162 -282.5t-262 -204.5t-358.5 -76.5q-170 0 -297 55t-208.5 151.5t-122.5 218t-41 254.5zM438 666q0 -106 39 -198.5t119 -149t203 -56.5 q121 0 215 52.5t158.5 138.5t98.5 190.5t34 206.5q0 106 -39 198.5t-119 148.5t-203 56q-121 0 -214 -52t-158.5 -138t-99.5 -190.5t-34 -206.5zM682 2036h279l137 -369l-219 -2z" />
<glyph unicode="&#xd3;" d="M117 659q0 158 55 312.5t161.5 282.5t263.5 205t357 77q172 0 298 -55.5t208 -151.5t123 -218t41 -255q0 -158 -55.5 -312.5t-162 -282.5t-262 -204.5t-358.5 -76.5q-170 0 -297 55t-208.5 151.5t-122.5 218t-41 254.5zM438 666q0 -106 39 -198.5t119 -149t203 -56.5 q121 0 215 52.5t158.5 138.5t98.5 190.5t34 206.5q0 106 -39 198.5t-119 148.5t-203 56q-121 0 -214 -52t-158.5 -138t-99.5 -190.5t-34 -206.5zM911 1667l172 369h287l-231 -371z" />
<glyph unicode="&#xd4;" d="M117 659q0 158 55 312.5t161.5 282.5t263.5 205t357 77q172 0 298 -55.5t208 -151.5t123 -218t41 -255q0 -158 -55.5 -312.5t-162 -282.5t-262 -204.5t-358.5 -76.5q-170 0 -297 55t-208.5 151.5t-122.5 218t-41 254.5zM438 666q0 -106 39 -198.5t119 -149t203 -56.5 q121 0 215 52.5t158.5 138.5t98.5 190.5t34 206.5q0 106 -39 198.5t-119 148.5t-203 56q-121 0 -214 -52t-158.5 -138t-99.5 -190.5t-34 -206.5zM600 1651l332 315h248l198 -315h-229l-109 180l-182 -180h-258z" />
<glyph unicode="&#xd5;" d="M117 659q0 158 55 312.5t161.5 282.5t263.5 205t357 77q172 0 298 -55.5t208 -151.5t123 -218t41 -255q0 -158 -55.5 -312.5t-162 -282.5t-262 -204.5t-358.5 -76.5q-170 0 -297 55t-208.5 151.5t-122.5 218t-41 254.5zM438 666q0 -106 39 -198.5t119 -149t203 -56.5 q121 0 215 52.5t158.5 138.5t98.5 190.5t34 206.5q0 106 -39 198.5t-119 148.5t-203 56q-121 0 -214 -52t-158.5 -138t-99.5 -190.5t-34 -206.5zM672 1700q16 80 42.5 148.5t75 110.5t128.5 42q55 0 95 -19.5t69.5 -45t55 -45t52.5 -19.5q31 0 48 30.5t30 88.5h166 q-18 -80 -45 -149.5t-75 -111.5t-128 -42q-55 0 -94 19t-69 45t-55.5 45.5t-52.5 19.5q-57 0 -79 -117h-164z" />
<glyph unicode="&#xd6;" d="M117 659q0 158 55 312.5t161.5 282.5t263.5 205t357 77q172 0 298 -55.5t208 -151.5t123 -218t41 -255q0 -158 -55.5 -312.5t-162 -282.5t-262 -204.5t-358.5 -76.5q-170 0 -297 55t-208.5 151.5t-122.5 218t-41 254.5zM438 666q0 -106 39 -198.5t119 -149t203 -56.5 q121 0 215 52.5t158.5 138.5t98.5 190.5t34 206.5q0 106 -39 198.5t-119 148.5t-203 56q-121 0 -214 -52t-158.5 -138t-99.5 -190.5t-34 -206.5zM631 1810q0 72 49 121t127 49q76 0 126 -49t50 -121q0 -70 -50 -120t-126 -50q-78 0 -127 50.5t-49 119.5zM1094 1810 q0 72 49 121t127 49q76 0 126 -49t50 -121q0 -70 -50 -120t-126 -50q-78 0 -127 50.5t-49 119.5z" />
<glyph unicode="&#xd7;" horiz-adv-x="1220" d="M168 426l272 223l-164 209l207 186l170 -217l267 220l161 -191l-272 -225l164 -209l-207 -184l-172 217l-266 -219z" />
<glyph unicode="&#xd8;" d="M25 -49l229 268q-70 90 -103.5 204t-33.5 234q0 158 55 313.5t161.5 282.5t263.5 204t357 77q104 0 192.5 -21.5t158.5 -60.5l94 111h317l-229 -269q70 -90 103.5 -203.5t33.5 -234.5q0 -158 -55.5 -313.5t-162 -283.5t-262 -205t-358.5 -77q-104 0 -192 23t-158 61 l-94 -110h-317zM438 664q0 -102 35 -187l633 742q-72 33 -162 32q-121 0 -214 -52t-158.5 -138t-99.5 -189.5t-34 -207.5zM635 295q72 -33 164 -33q121 0 215 52.5t158.5 138.5t98.5 189t34 206q0 106 -35 190z" />
<glyph unicode="&#xd9;" horiz-adv-x="1503" d="M149.5 336q-26.5 123 10.5 291l188 889h316l-191 -898q-33 -158 25.5 -250t208.5 -92q141 0 230 91.5t124 250.5l190 898h316l-195 -922q-47 -221 -149.5 -356.5t-248 -196.5t-321.5 -61q-119 0 -224 37.5t-179 116.5t-100.5 202zM659 2036h281l135 -369l-219 -2z" />
<glyph unicode="&#xda;" horiz-adv-x="1503" d="M149.5 336q-26.5 123 10.5 291l188 889h316l-191 -898q-33 -158 25.5 -250t208.5 -92q141 0 230 91.5t124 250.5l190 898h316l-195 -922q-47 -221 -149.5 -356.5t-248 -196.5t-321.5 -61q-119 0 -224 37.5t-179 116.5t-100.5 202zM891 1667l170 369h287l-230 -371z" />
<glyph unicode="&#xdb;" horiz-adv-x="1503" d="M149.5 336q-26.5 123 10.5 291l188 889h316l-191 -898q-33 -158 25.5 -250t208.5 -92q141 0 230 91.5t124 250.5l190 898h316l-195 -922q-47 -221 -149.5 -356.5t-248 -196.5t-321.5 -61q-119 0 -224 37.5t-179 116.5t-100.5 202zM594 1651l344 368h246l188 -368h-231 l-99 213l-190 -213h-258z" />
<glyph unicode="&#xdc;" horiz-adv-x="1503" d="M149.5 336q-26.5 123 10.5 291l188 889h316l-191 -898q-33 -158 25.5 -250t208.5 -92q141 0 230 91.5t124 250.5l190 898h316l-195 -922q-47 -221 -149.5 -356.5t-248 -196.5t-321.5 -61q-119 0 -224 37.5t-179 116.5t-100.5 202zM608 1810q0 72 50.5 121t125.5 49 q76 0 126.5 -49t50.5 -121q0 -70 -50.5 -120t-126.5 -50t-126 50.5t-50 119.5zM1071 1810q0 72 50 121t126 49t126 -49t50 -121q0 -70 -50 -120t-126 -50t-126 50.5t-50 119.5z" />
<glyph unicode="&#xdd;" horiz-adv-x="1384" d="M219 1516h324l202 -672l486 672h368l-745 -998l-109 -518h-315l109 522zM842 1667l170 369h286l-229 -371z" />
<glyph unicode="&#xde;" horiz-adv-x="1406" d="M27 0l321 1516h316l-54 -252h250q176 0 291 -64.5t170 -169t55 -223.5q0 -100 -39 -198.5t-116.5 -179.5t-191.5 -129t-261 -48h-373l-53 -252h-315zM455 526h329q88 0 149.5 39t93.5 97.5t32 119.5q0 80 -56.5 143.5t-175.5 63.5h-274z" />
<glyph unicode="&#xdf;" horiz-adv-x="1406" d="M25 -2l215 1008q33 152 110.5 279.5t211.5 204.5t335 77q162 0 277.5 -52.5t177 -141.5t61.5 -199q0 -139 -93 -239.5t-237 -139.5l-2 -13q12 -4 50 -23.5t81 -58t74 -100t31 -149.5q0 -135 -78 -242t-217 -168t-326 -61q-53 0 -106 4t-89 8l-36 4l55 256l50 -6 q51 -6 104 -6q150 0 241 65.5t91 171.5q0 78 -57.5 132.5t-186.5 54.5h-111l54 247h118q119 0 194 61.5t75 151.5q0 84 -58.5 133.5t-156.5 49.5q-125 0 -211 -80t-119 -236l-211 -993h-311z" />
<glyph unicode="&#xe0;" horiz-adv-x="1302" d="M74 444q0 117 36.5 234t108.5 214t176.5 155.5t237.5 58.5q86 0 145.5 -23.5t95 -55.5t54 -61.5t24.5 -43.5h15l34 163h314l-230 -1085h-311l27 133h-15l-16 -23q-16 -24 -53 -53.5t-95.5 -53t-144.5 -23.5q-137 0 -226 65.5t-133 171t-44 227.5zM385 475q0 -98 50 -171 t159 -73q94 0 163.5 58.5t106.5 145.5t37 175q0 98 -50.5 171t-156.5 73q-96 0 -165.5 -58.5t-106.5 -146.5t-37 -174zM473 1606h279l137 -369l-221 -2z" />
<glyph unicode="&#xe1;" horiz-adv-x="1302" d="M74 444q0 117 36.5 234t108.5 214t176.5 155.5t237.5 58.5q86 0 145.5 -23.5t95 -55.5t54 -61.5t24.5 -43.5h15l34 163h314l-230 -1085h-311l27 133h-15l-16 -23q-16 -24 -53 -53.5t-95.5 -53t-144.5 -23.5q-137 0 -226 65.5t-133 171t-44 227.5zM385 475q0 -98 50 -171 t159 -73q94 0 163.5 58.5t106.5 145.5t37 175q0 98 -50.5 171t-156.5 73q-96 0 -165.5 -58.5t-106.5 -146.5t-37 -174zM702 1237l170 369h287l-229 -371z" />
<glyph unicode="&#xe2;" horiz-adv-x="1302" d="M74 444q0 117 36.5 234t108.5 214t176.5 155.5t237.5 58.5q86 0 145.5 -23.5t95 -55.5t54 -61.5t24.5 -43.5h15l34 163h314l-230 -1085h-311l27 133h-15l-16 -23q-16 -24 -53 -53.5t-95.5 -53t-144.5 -23.5q-137 0 -226 65.5t-133 171t-44 227.5zM385 475q0 -98 50 -171 t159 -73q94 0 163.5 58.5t106.5 145.5t37 175q0 98 -50.5 171t-156.5 73q-96 0 -165.5 -58.5t-106.5 -146.5t-37 -174zM408 1221l342 368h247l187 -368h-230l-100 213l-190 -213h-256z" />
<glyph unicode="&#xe3;" horiz-adv-x="1302" d="M74 444q0 117 36.5 234t108.5 214t176.5 155.5t237.5 58.5q86 0 145.5 -23.5t95 -55.5t54 -61.5t24.5 -43.5h15l34 163h314l-230 -1085h-311l27 133h-15l-16 -23q-16 -24 -53 -53.5t-95.5 -53t-144.5 -23.5q-137 0 -226 65.5t-133 171t-44 227.5zM385 475q0 -98 50 -171 t159 -73q94 0 163.5 58.5t106.5 145.5t37 175q0 98 -50.5 171t-156.5 73q-96 0 -165.5 -58.5t-106.5 -146.5t-37 -174zM461 1270q16 80 42.5 148.5t76 110.5t129.5 42q55 0 95 -19.5t69.5 -45t54 -45t53.5 -19.5q31 0 48.5 30.5t29.5 88.5h164q-16 -80 -43 -150t-75 -112 t-128 -42q-55 0 -94 19.5t-69 45.5t-55.5 45t-51.5 19q-57 0 -80 -116h-166z" />
<glyph unicode="&#xe4;" horiz-adv-x="1302" d="M74 444q0 117 36.5 234t108.5 214t176.5 155.5t237.5 58.5q86 0 145.5 -23.5t95 -55.5t54 -61.5t24.5 -43.5h15l34 163h314l-230 -1085h-311l27 133h-15l-16 -23q-16 -24 -53 -53.5t-95.5 -53t-144.5 -23.5q-137 0 -226 65.5t-133 171t-44 227.5zM385 475q0 -98 50 -171 t159 -73q94 0 163.5 58.5t106.5 145.5t37 175q0 98 -50.5 171t-156.5 73q-96 0 -165.5 -58.5t-106.5 -146.5t-37 -174zM422 1380q0 72 49 121t127 49q76 0 126 -49t50 -121q0 -70 -50 -120t-126 -50q-78 0 -127 50.5t-49 119.5zM885 1380q0 72 49 121t127 49q76 0 126 -49 t50 -121q0 -70 -50 -120t-126 -50q-78 0 -127 50.5t-49 119.5z" />
<glyph unicode="&#xe5;" horiz-adv-x="1302" d="M74 444q0 117 36.5 234t108.5 214t176.5 155.5t237.5 58.5q86 0 145.5 -23.5t95 -55.5t54 -61.5t24.5 -43.5h15l34 163h314l-230 -1085h-311l27 133h-15l-16 -23q-16 -24 -53 -53.5t-95.5 -53t-144.5 -23.5q-137 0 -226 65.5t-133 171t-44 227.5zM385 475q0 -98 50 -171 t159 -73q94 0 163.5 58.5t106.5 145.5t37 175q0 98 -50.5 171t-156.5 73q-96 0 -165.5 -58.5t-106.5 -146.5t-37 -174zM537 1481q0 78 37.5 140t101 100t139.5 38q78 0 140.5 -38t100.5 -100t38 -140q0 -76 -38 -139.5t-100.5 -100.5t-140.5 -37q-76 0 -139.5 37t-101 100.5 t-37.5 139.5zM702 1481q0 -47 33 -79t80 -32t80 32t33 79t-33 78.5t-80 31.5t-80 -31.5t-33 -78.5z" />
<glyph unicode="&#xe6;" horiz-adv-x="1931" d="M41 283q0 137 107.5 237.5t324.5 114.5l322 18l10 41q14 76 -25 129.5t-137 53.5q-66 0 -103.5 -19.5t-57 -46.5t-26.5 -47l-7 -19h-291l11 36t42 90.5t86 107.5t141 90t211 37q117 0 187.5 -33t106.5 -74t48 -65h13q20 25 69 65.5t131 73.5t195 33q141 0 236.5 -54.5 t148.5 -144.5t66.5 -196.5t-7.5 -208.5l-8 -41h-760q2 -109 56.5 -178.5t160.5 -69.5q61 0 103.5 20.5t67 47t35.5 47.5l11 22h293l-15 -38q-15 -38 -50 -93t-95.5 -110.5t-150.5 -92t-217 -36.5q-104 0 -180 25.5t-127.5 62t-79 73.5t-37.5 60h-10l-24 -34 q-23 -34 -73.5 -77t-132 -76.5t-200.5 -33.5q-172 0 -270.5 81.5t-98.5 221.5zM350 311q0 -63 44.5 -90.5t101.5 -27.5q86 0 159.5 61t94.5 170l8 37l-234 -15q-86 -6 -130 -41.5t-44 -93.5zM1104 649h467q12 88 -37 155.5t-158 67.5q-102 0 -172.5 -64.5t-99.5 -158.5z" />
<glyph unicode="&#xe7;" horiz-adv-x="1232" d="M82 473q0 117 41 229.5t122 203.5t199.5 145.5t272.5 54.5q141 0 230 -42t137.5 -104.5t67.5 -125t22 -104.5l4 -42h-291l-2 26q-2 25 -17.5 59t-53.5 59.5t-107 25.5q-98 0 -168 -56.5t-108 -143.5t-38 -179q0 -104 51.5 -178t159.5 -74q68 0 112 26t69.5 59.5 t35.5 59.5l10 25h293l-13 -41q-13 -41 -45 -102t-91.5 -122.5t-150.5 -104.5t-224 -47l-61 -68h4q102 0 161.5 -59.5t59.5 -139.5q0 -59 -36 -116.5t-112.5 -95.5t-199.5 -38q-68 0 -120 9l-52 10l26 164l26 -3t60.5 -7.5t63.5 -4.5q76 0 102.5 27t26.5 57q0 27 -21.5 47.5 t-66.5 20.5q-39 0 -65 -13l-27 -14l-78 101l129 143q-117 31 -191.5 101.5t-110.5 167t-36 204.5z" />
<glyph unicode="&#xe8;" horiz-adv-x="1245" d="M82 473q0 115 40 226.5t118.5 203.5t194.5 147.5t267 55.5q147 0 244.5 -54.5t151 -144.5t67 -196.5t-7.5 -208.5l-8 -41h-760q2 -111 55.5 -179.5t159.5 -68.5q63 0 105.5 20.5t67 47t35.5 47.5l11 22h291l-14 -38q-15 -38 -49.5 -93t-95 -110.5t-152.5 -92t-219 -36.5 q-174 0 -285 69.5t-164 182t-53 241.5zM418 649h467q12 88 -37 155.5t-158 67.5q-102 0 -172.5 -64.5t-99.5 -158.5zM430 1606h279l135 -369l-219 -2z" />
<glyph unicode="&#xe9;" horiz-adv-x="1245" d="M82 473q0 115 40 226.5t118.5 203.5t194.5 147.5t267 55.5q147 0 244.5 -54.5t151 -144.5t67 -196.5t-7.5 -208.5l-8 -41h-760q2 -111 55.5 -179.5t159.5 -68.5q63 0 105.5 20.5t67 47t35.5 47.5l11 22h291l-14 -38q-15 -38 -49.5 -93t-95 -110.5t-152.5 -92t-219 -36.5 q-174 0 -285 69.5t-164 182t-53 241.5zM418 649h467q12 88 -37 155.5t-158 67.5q-102 0 -172.5 -64.5t-99.5 -158.5zM659 1237l170 369h287l-229 -371z" />
<glyph unicode="&#xea;" horiz-adv-x="1245" d="M82 473q0 115 40 226.5t118.5 203.5t194.5 147.5t267 55.5q147 0 244.5 -54.5t151 -144.5t67 -196.5t-7.5 -208.5l-8 -41h-760q2 -111 55.5 -179.5t159.5 -68.5q63 0 105.5 20.5t67 47t35.5 47.5l11 22h291l-14 -38q-15 -38 -49.5 -93t-95 -110.5t-152.5 -92t-219 -36.5 q-174 0 -285 69.5t-164 182t-53 241.5zM362 1221l345 368h245l189 -368h-232l-98 213l-190 -213h-259zM418 649h467q12 88 -37 155.5t-158 67.5q-102 0 -172.5 -64.5t-99.5 -158.5z" />
<glyph unicode="&#xeb;" horiz-adv-x="1245" d="M82 473q0 115 40 226.5t118.5 203.5t194.5 147.5t267 55.5q147 0 244.5 -54.5t151 -144.5t67 -196.5t-7.5 -208.5l-8 -41h-760q2 -111 55.5 -179.5t159.5 -68.5q63 0 105.5 20.5t67 47t35.5 47.5l11 22h291l-14 -38q-15 -38 -49.5 -93t-95 -110.5t-152.5 -92t-219 -36.5 q-174 0 -285 69.5t-164 182t-53 241.5zM377 1380q0 72 50 121t128 49q76 0 126 -49t50 -121q0 -70 -50 -120t-126 -50q-78 0 -128 50.5t-50 119.5zM418 649h467q12 88 -37 155.5t-158 67.5q-102 0 -172.5 -64.5t-99.5 -158.5zM840 1380q0 72 50 121t128 49q76 0 126 -49 t50 -121q0 -70 -50 -120t-126 -50q-78 0 -128 50.5t-50 119.5z" />
<glyph unicode="&#xec;" horiz-adv-x="602" d="M18 0l232 1085h311l-231 -1085h-312zM111 1606h278l137 -369l-219 -2z" />
<glyph unicode="&#xed;" horiz-adv-x="602" d="M18 0l232 1085h311l-231 -1085h-312zM340 1237l172 369h287l-232 -371z" />
<glyph unicode="&#xee;" horiz-adv-x="602" d="M18 0l232 1085h311l-231 -1085h-312zM45 1221l342 368h248l186 -368h-229l-98 213l-193 -213h-256z" />
<glyph unicode="&#xef;" horiz-adv-x="602" d="M18 0l232 1085h311l-231 -1085h-312zM59 1380q0 72 49.5 121t127.5 49q76 0 126 -49t50 -121q0 -70 -50 -120t-126 -50q-78 0 -127.5 50.5t-49.5 119.5zM522 1380q0 72 49.5 121t126.5 49q76 0 126 -49t50 -121q0 -70 -50 -120t-126 -50q-78 0 -127 50.5t-49 119.5z" />
<glyph unicode="&#xf0;" horiz-adv-x="1329" d="M92 483q0 109 38 214.5t111.5 192.5t180 138t244.5 51q119 0 190.5 -36.5t110.5 -79.5q-41 102 -116 188t-159 152l-293 -152l-53 199l156 80q-72 41 -119 62l-47 21l123 209l43 -16t112.5 -50t153.5 -87l303 160l51 -199l-178 -94q88 -78 162 -179.5t120 -229.5t46 -284 q0 -150 -43 -287t-127 -244.5t-206 -169.5t-282 -62q-178 0 -293.5 71.5t-172 187t-56.5 244.5zM406 489q0 -102 52 -180t165 -78q96 0 162.5 55.5t101.5 138.5t35 169q0 68 -24 127t-72 96t-124 37q-94 0 -160.5 -56.5t-101 -140.5t-34.5 -168z" />
<glyph unicode="&#xf1;" horiz-adv-x="1241" d="M16 0l232 1085h311l-33 -155h11l17 26q17 27 55 62t98.5 61.5t146.5 26.5q119 0 193.5 -58.5t101.5 -155.5t2 -210l-145 -682h-314l137 637q18 88 -12.5 150.5t-118.5 62.5q-98 0 -158.5 -69.5t-80.5 -168.5l-131 -612h-312zM438 1270q16 80 43 148.5t75 110.5t130 42 q55 0 94 -19.5t69 -45t55.5 -45t51.5 -19.5q31 0 49.5 30.5t28.5 88.5h166q-16 -80 -43 -150t-75 -112t-130 -42q-53 0 -93 19.5t-68.5 45.5t-54 45t-54.5 19q-57 0 -80 -116h-164z" />
<glyph unicode="&#xf2;" horiz-adv-x="1288" d="M80 469q0 113 41 225.5t122 205.5t197.5 149.5t270.5 56.5q170 0 280.5 -69.5t165.5 -181.5t55 -239q0 -115 -42 -227.5t-122.5 -204.5t-197 -148t-268.5 -56q-172 0 -283 69.5t-165 181t-54 238.5zM391 475q0 -96 49.5 -169t155.5 -73q94 0 160.5 56.5t103.5 142.5 t37 178q0 96 -49 169t-156 73q-92 0 -159.5 -56.5t-104.5 -142.5t-37 -178zM438 1606h279l135 -369l-219 -2z" />
<glyph unicode="&#xf3;" horiz-adv-x="1288" d="M80 469q0 113 41 225.5t122 205.5t197.5 149.5t270.5 56.5q170 0 280.5 -69.5t165.5 -181.5t55 -239q0 -115 -42 -227.5t-122.5 -204.5t-197 -148t-268.5 -56q-172 0 -283 69.5t-165 181t-54 238.5zM391 475q0 -96 49.5 -169t155.5 -73q94 0 160.5 56.5t103.5 142.5 t37 178q0 96 -49 169t-156 73q-92 0 -159.5 -56.5t-104.5 -142.5t-37 -178zM668 1237l170 369h286l-229 -371z" />
<glyph unicode="&#xf4;" horiz-adv-x="1288" d="M80 469q0 113 41 225.5t122 205.5t197.5 149.5t270.5 56.5q170 0 280.5 -69.5t165.5 -181.5t55 -239q0 -115 -42 -227.5t-122.5 -204.5t-197 -148t-268.5 -56q-172 0 -283 69.5t-165 181t-54 238.5zM371 1221l344 368h246l188 -368h-231l-99 213l-190 -213h-258zM391 475 q0 -96 49.5 -169t155.5 -73q94 0 160.5 56.5t103.5 142.5t37 178q0 96 -49 169t-156 73q-92 0 -159.5 -56.5t-104.5 -142.5t-37 -178z" />
<glyph unicode="&#xf5;" horiz-adv-x="1288" d="M80 469q0 113 41 225.5t122 205.5t197.5 149.5t270.5 56.5q170 0 280.5 -69.5t165.5 -181.5t55 -239q0 -115 -42 -227.5t-122.5 -204.5t-197 -148t-268.5 -56q-172 0 -283 69.5t-165 181t-54 238.5zM391 475q0 -96 49.5 -169t155.5 -73q94 0 160.5 56.5t103.5 142.5 t37 178q0 96 -49 169t-156 73q-92 0 -159.5 -56.5t-104.5 -142.5t-37 -178zM426 1270q16 80 43 148.5t75 110.5t130 42q55 0 95 -19.5t69.5 -45t54.5 -45t51 -19.5q33 0 50.5 30.5t29.5 88.5h164q-16 -80 -43 -150t-75 -112t-128 -42q-55 0 -94 19.5t-68.5 45.5t-55.5 45 t-54 19q-55 0 -78 -116h-166z" />
<glyph unicode="&#xf6;" horiz-adv-x="1288" d="M80 469q0 113 41 225.5t122 205.5t197.5 149.5t270.5 56.5q170 0 280.5 -69.5t165.5 -181.5t55 -239q0 -115 -42 -227.5t-122.5 -204.5t-197 -148t-268.5 -56q-172 0 -283 69.5t-165 181t-54 238.5zM385 1380q0 72 50 121t128 49q76 0 126 -49t50 -121q0 -70 -50 -120 t-126 -50q-78 0 -128 50.5t-50 119.5zM391 475q0 -96 49.5 -169t155.5 -73q94 0 160.5 56.5t103.5 142.5t37 178q0 96 -49 169t-156 73q-92 0 -159.5 -56.5t-104.5 -142.5t-37 -178zM848 1380q0 72 50 121t128 49q76 0 126 -49t50 -121q0 -70 -50 -120t-126 -50 q-78 0 -128 50.5t-50 119.5z" />
<glyph unicode="&#xf7;" horiz-adv-x="1386" d="M195 557l49 223h987l-49 -223h-987zM453 256q0 72 49 123t125 51t126 -51t50 -123t-50 -124t-126 -52t-125 52t-49 124zM623 1079q0 74 49 124t127 50q74 0 124 -50t50 -124q0 -72 -50 -123t-124 -51q-78 0 -127 51.5t-49 122.5z" />
<glyph unicode="&#xf8;" horiz-adv-x="1296" d="M88 469q0 113 41 225.5t122 205.5t197.5 149.5t270.5 56.5q72 0 135 -14l45 77h215l-86 -151q96 -70 144.5 -176.5t48.5 -225.5q0 -115 -42 -227.5t-123 -204.5t-198 -148t-268 -56q-76 0 -144 16l-45 -80h-215l88 156q-94 70 -140 175t-46 222zM399 475q0 -78 29 -135 l289 510l-17 2q-92 0 -159.5 -56.5t-104.5 -142.5t-37 -178zM584 236q4 -1 20 -3q94 0 160.5 56.5t103.5 142.5t37 178q0 80 -31 138z" />
<glyph unicode="&#xf9;" horiz-adv-x="1222" d="M100 393l146 692h313l-141 -669q-18 -86 14.5 -133t108.5 -47q98 0 156.5 69.5t76.5 161.5l131 618h314l-230 -1085h-313l33 154h-13q-49 -63 -131 -118.5t-203 -55.5q-156 0 -229.5 111.5t-32.5 301.5zM438 1606h279l135 -369l-219 -2z" />
<glyph unicode="&#xfa;" horiz-adv-x="1222" d="M100 393l146 692h313l-141 -669q-18 -86 14.5 -133t108.5 -47q98 0 156.5 69.5t76.5 161.5l131 618h314l-230 -1085h-313l33 154h-13q-49 -63 -131 -118.5t-203 -55.5q-156 0 -229.5 111.5t-32.5 301.5zM668 1237l170 369h286l-229 -371z" />
<glyph unicode="&#xfb;" horiz-adv-x="1222" d="M100 393l146 692h313l-141 -669q-18 -86 14.5 -133t108.5 -47q98 0 156.5 69.5t76.5 161.5l131 618h314l-230 -1085h-313l33 154h-13q-49 -63 -131 -118.5t-203 -55.5q-156 0 -229.5 111.5t-32.5 301.5zM371 1221l344 368h246l188 -368h-231l-99 213l-190 -213h-258z" />
<glyph unicode="&#xfc;" horiz-adv-x="1222" d="M100 393l146 692h313l-141 -669q-18 -86 14.5 -133t108.5 -47q98 0 156.5 69.5t76.5 161.5l131 618h314l-230 -1085h-313l33 154h-13q-49 -63 -131 -118.5t-203 -55.5q-156 0 -229.5 111.5t-32.5 301.5zM385 1380q0 72 50 121t128 49q76 0 126 -49t50 -121 q0 -70 -50 -120t-126 -50q-78 0 -128 50.5t-50 119.5zM848 1380q0 72 50 121t128 49q76 0 126 -49t50 -121q0 -70 -50 -120t-126 -50q-78 0 -128 50.5t-50 119.5z" />
<glyph unicode="&#xfd;" horiz-adv-x="1220" d="M-98 -391l53 260l23 -3q24 -3 57 -3q82 0 153.5 29.5t137.5 113.5l-166 1079h297l96 -735l401 735h332l-608 -1042q-131 -223 -287 -332.5t-377 -109.5q-55 0 -84 4zM639 1237l172 369h287l-232 -371z" />
<glyph unicode="&#xfe;" horiz-adv-x="1343" d="M-53 -399l84 399l96 461l131 624l100 471h312l-127 -604h14l17 24q16 23 53 53t96 53.5t143 23.5q137 0 226.5 -65.5t133.5 -171t44 -228.5q0 -117 -37 -233.5t-108.5 -214t-176 -155.5t-237.5 -58q-86 0 -144.5 23.5t-95.5 55t-55.5 61.5t-24.5 44h-14l-119 -563h-311z M444 475q0 -98 49.5 -171t157.5 -73q96 0 165 58.5t105.5 146.5t36.5 174q0 98 -50 171t-156 73q-96 0 -165 -58.5t-106 -145.5t-37 -175z" />
<glyph unicode="&#xff;" horiz-adv-x="1220" d="M-98 -391l53 260l23 -3q24 -3 57 -3q82 0 153.5 29.5t137.5 113.5l-166 1079h297l96 -735l401 735h332l-608 -1042q-131 -223 -287 -332.5t-377 -109.5q-55 0 -84 4zM358 1380q0 72 49.5 121t127.5 49q76 0 126 -49t50 -121q0 -70 -50 -120t-126 -50q-78 0 -127.5 50.5 t-49.5 119.5zM821 1380q0 72 49.5 121t126.5 49q76 0 126.5 -49t50.5 -121q0 -70 -50.5 -120t-126.5 -50q-78 0 -127 50.5t-49 119.5z" />
<glyph unicode="&#x152;" horiz-adv-x="2027" d="M117 659q0 154 57 305.5t169 276.5t277.5 200t383.5 75h1114l-58 -275h-704l-74 -340h614l-57 -264h-612l-78 -363h717l-60 -274h-1030q-168 4 -293 59.5t-205.5 147.5t-120.5 208.5t-40 243.5zM428 678q0 -106 43 -197.5t131 -148t223 -56.5h9l204 959h-57 q-135 0 -237.5 -49t-173 -131t-106.5 -180.5t-36 -196.5z" />
<glyph unicode="&#x153;" horiz-adv-x="2064" d="M90 471q0 115 41 227.5t120 204.5t191.5 147.5t257.5 55.5q127 0 210 -40t128 -90t60 -79q20 29 74.5 79t144.5 90t215 40q139 0 234.5 -54.5t148.5 -144.5t67.5 -196.5t-6.5 -208.5l-8 -41h-760q2 -109 55.5 -178.5t161.5 -69.5q61 0 103.5 20.5t67 47t35.5 47.5l11 22 h291l-13 -38t-47 -93t-92.5 -110.5t-147.5 -92t-212 -36.5q-131 0 -215 40.5t-128 91t-58 81.5q-20 -31 -74.5 -81.5t-145.5 -91t-220 -40.5q-162 0 -270.5 68.5t-164 180t-55.5 242.5zM401 477q0 -100 49.5 -172t153.5 -72q96 0 164 58.5t103.5 145.5t35.5 173 q0 98 -49 170t-156 72q-94 0 -161.5 -56.5t-103.5 -142.5t-36 -176zM1237 649h467q12 88 -37 155.5t-158 67.5q-102 0 -172.5 -64.5t-99.5 -158.5z" />
<glyph unicode="&#x178;" horiz-adv-x="1384" d="M219 1516h324l202 -672l486 672h368l-745 -998l-109 -518h-315l109 522zM559 1810q0 72 50 121t128 49q76 0 126 -49t50 -121q0 -70 -50 -120t-126 -50q-78 0 -128 50.5t-50 119.5zM1022 1810q0 72 50 121t128 49q76 0 126 -49t50 -121q0 -70 -50 -120t-126 -50 q-78 0 -128 50.5t-50 119.5z" />
<glyph unicode="&#x2c6;" horiz-adv-x="1175" d="M322 1147l342 369h247l187 -369h-230l-98 213l-192 -213h-256z" />
<glyph unicode="&#x2dc;" horiz-adv-x="811" d="M297 1270q16 80 43 148.5t75 110.5t128 42q55 0 95 -19.5t69.5 -45t55 -45t52.5 -19.5q31 0 48.5 30.5t29.5 88.5h166q-16 -80 -44 -150t-76 -112t-128 -42q-55 0 -94 19.5t-69 45.5t-55.5 45t-51.5 19q-57 0 -80 -116h-164z" />
<glyph unicode="&#x2000;" horiz-adv-x="1094" />
<glyph unicode="&#x2001;" horiz-adv-x="2189" />
<glyph unicode="&#x2002;" horiz-adv-x="1094" />
<glyph unicode="&#x2003;" horiz-adv-x="2189" />
<glyph unicode="&#x2004;" horiz-adv-x="729" />
<glyph unicode="&#x2005;" horiz-adv-x="547" />
<glyph unicode="&#x2006;" horiz-adv-x="364" />
<glyph unicode="&#x2007;" horiz-adv-x="364" />
<glyph unicode="&#x2008;" horiz-adv-x="273" />
<glyph unicode="&#x2009;" horiz-adv-x="437" />
<glyph unicode="&#x200a;" horiz-adv-x="121" />
<glyph unicode="&#x2010;" horiz-adv-x="1181" d="M203 516l37 246h768l-39 -246h-766z" />
<glyph unicode="&#x2011;" horiz-adv-x="1181" d="M203 516l37 246h768l-39 -246h-766z" />
<glyph unicode="&#x2012;" horiz-adv-x="1181" d="M203 516l37 246h768l-39 -246h-766z" />
<glyph unicode="&#x2013;" horiz-adv-x="1388" d="M201 516l49 246h967l-50 -246h-966z" />
<glyph unicode="&#x2014;" horiz-adv-x="1742" d="M201 516l65 246h1303l-64 -246h-1304z" />
<glyph unicode="&#x2018;" horiz-adv-x="493" d="M166 1073q0 45 22.5 100.5t72.5 132t130 187.5l17 23h127l-170 -279q72 -4 116.5 -54t44.5 -120q0 -74 -50 -123t-128 -49q-76 0 -129 49t-53 133z" />
<glyph unicode="&#x2019;" horiz-adv-x="468" d="M199 911l170 279q-72 4 -117 53t-45 119q0 76 50 125t126 49q78 0 131 -49t53 -133q0 -47 -23.5 -101.5t-72.5 -131.5t-129 -189l-16 -21h-127z" />
<glyph unicode="&#x201a;" horiz-adv-x="622" d="M37 -297l170 279q-72 6 -117 55t-45 119q0 76 50 125t126 49q78 0 131.5 -49.5t53.5 -133.5q0 -47 -24 -101t-73 -131t-129 -189l-16 -23h-127z" />
<glyph unicode="&#x201c;" horiz-adv-x="940" d="M166 1073q0 45 22.5 100.5t72.5 132t130 187.5l17 23h127l-170 -279q72 -4 116.5 -54t44.5 -120q0 -74 -50 -123t-128 -49q-76 0 -129 49t-53 133zM612 1073q0 45 22.5 100.5t72 132t131.5 187.5l14 23h127l-168 -279q70 -4 116 -54t46 -120q0 -74 -51.5 -123t-126.5 -49 q-78 0 -130.5 49t-52.5 133z" />
<glyph unicode="&#x201d;" horiz-adv-x="915" d="M199 911l170 279q-72 4 -117 53t-45 119q0 76 50 125t126 49q78 0 131 -49t53 -133q0 -47 -23.5 -101.5t-72.5 -131.5t-129 -189l-16 -21h-127zM645 911l168 279q-70 4 -116 53t-46 119q0 76 51.5 125t126.5 49q78 0 130.5 -49t52.5 -133q0 -47 -22.5 -101.5t-72 -131.5 t-131.5 -189l-14 -21h-127z" />
<glyph unicode="&#x201e;" horiz-adv-x="1032" d="M39 -297l168 279q-70 6 -116 55t-46 119q0 76 51 125t127 49t129.5 -49.5t53.5 -133.5q0 -47 -23 -101t-73 -131t-130 -189l-14 -23h-127zM483 -297l170 279q-72 6 -116.5 55t-44.5 119q0 76 50 125t126 49q78 0 131 -49.5t53 -133.5q0 -47 -23.5 -101t-72.5 -131 t-129 -189l-17 -23h-127z" />
<glyph unicode="&#x2022;" horiz-adv-x="1103" d="M246 756q0 96 44 174t121.5 125t180.5 47q98 0 176 -47t123 -125t45 -174q0 -94 -45 -173t-123 -126t-176 -47q-102 0 -180 47t-122 126t-44 173z" />
<glyph unicode="&#x2026;" horiz-adv-x="1767" d="M57 154q0 74 49.5 125t124.5 51q76 0 126.5 -51.5t50.5 -124.5q0 -72 -50.5 -123t-126.5 -51t-125 52t-49 122zM598 154q0 74 49 125t125 51t126 -51.5t50 -124.5q0 -72 -50 -123t-126 -51t-125 52t-49 122zM1135 154q0 74 49 125t127 51q74 0 124 -51.5t50 -124.5 q0 -72 -50 -123t-124 -51q-78 0 -127 52t-49 122z" />
<glyph unicode="&#x202f;" horiz-adv-x="437" />
<glyph unicode="&#x2039;" horiz-adv-x="913" d="M80 633l530 450h344l-548 -469l317 -430h-305z" />
<glyph unicode="&#x203a;" horiz-adv-x="913" d="M12 184l549 467l-317 432h305l338 -450l-531 -449h-344z" />
<glyph unicode="&#x205f;" horiz-adv-x="547" />
<glyph unicode="&#x20ac;" horiz-adv-x="1488" d="M45 547l33 158h217q2 55 10 108h-203l33 158h209q53 152 162.5 280.5t276.5 206.5t388 78q152 0 243 -20l91 -19l-59 -274l-36 10t-96.5 19.5t-131.5 9.5q-186 0 -311.5 -84t-188.5 -207h473l-33 -158h-493q-10 -53 -11 -106v-2h482l-33 -158h-426q39 -123 144.5 -209 t277.5 -86q72 0 139.5 11t110.5 21l43 11l-60 -277l-82 -19q-81 -19 -217 -19q-207 0 -352 77.5t-229 206.5t-111 283h-260z" />
<glyph unicode="&#x2122;" horiz-adv-x="1736" d="M227 1341l37 175h633l-35 -175h-217l-115 -542h-200l114 542h-217zM854 799l152 717h264l61 -314l203 314h268l-151 -717h-201l88 422l-170 -269h-170l-55 275l-90 -428h-199z" />
<glyph unicode="&#x25fc;" horiz-adv-x="1085" d="M0 0v1085h1085v-1085h-1085z" />
</font>
</defs>
</svg>
