<?xml version="1.0" standalone="no"?>
<!DOCTYPE svg PUBLIC "-//W3C//DTD SVG 1.1//EN" "http://www.w3.org/Graphics/SVG/1.1/DTD/svg11.dtd" >
<svg xmlns="http://www.w3.org/2000/svg" xmlns:xlink="http://www.w3.org/1999/xlink" version="1.1">
<metadata></metadata>
<defs>
<font id="be_vietnam_pro_extrabold" horiz-adv-x="1597" >
<font-face units-per-em="2048" ascent="1638" descent="-410" />
<missing-glyph horiz-adv-x="471" />
<glyph horiz-adv-x="0" />
<glyph horiz-adv-x="682" />
<glyph unicode="&#xd;" horiz-adv-x="1228" />
<glyph unicode=" "  horiz-adv-x="471" />
<glyph unicode="&#x09;" horiz-adv-x="471" />
<glyph unicode="&#xa0;" horiz-adv-x="471" />
<glyph unicode="!" horiz-adv-x="739" d="M176 1516h385l-53 -1049h-285zM188 160q0 76 50.5 128t130.5 52q78 0 128 -52t50 -128q0 -74 -50 -126t-128 -52q-80 0 -130.5 52t-50.5 126z" />
<glyph unicode="&#x22;" horiz-adv-x="851" d="M123 1042l20 474h285l-117 -474h-188zM489 1042l21 474h285l-117 -474h-189z" />
<glyph unicode="#" horiz-adv-x="1757" d="M94 340l60 285h280l53 268h-276l61 285h273l67 338h285l-68 -338h271l67 338h285l-68 -338h281l-61 -285h-277l-55 -268h274l-59 -285h-273l-67 -340h-285l68 340h-268l-70 -340h-285l70 340h-283zM719 625h268l55 268h-270z" />
<glyph unicode="$" horiz-adv-x="1333" d="M72 483h331l5 -29q6 -28 25.5 -69t60.5 -77t114 -52v389l-16 4q-78 16 -161 43t-155.5 74t-117.5 123t-45 192q0 133 65.5 230.5t178 154t251.5 68.5v172h164v-174q135 -16 224 -66.5t141.5 -116t78 -128t32.5 -104.5l7 -42h-325l-10 37q-9 37 -42.5 81t-105.5 69v-361 l31 -8q68 -14 148.5 -40t153.5 -74t119 -127t46 -199q0 -195 -134.5 -322t-363.5 -149v-177h-164v175q-160 12 -260 66t-157.5 128t-83 144.5t-30.5 117.5zM434 1096q0 -59 43 -96t131 -62v334q-82 -14 -128 -63.5t-46 -112.5zM772 256q80 18 127 68t47 120q0 66 -45 103 t-129 61v-352z" />
<glyph unicode="%" horiz-adv-x="1798" d="M98 1196q0 88 41 166t120 126t194 48q113 0 191.5 -48t118.5 -126t40 -166t-40 -166t-118.5 -126t-191.5 -48q-115 0 -194 48t-120 126t-41 166zM315 1194q0 -55 35 -98t101 -43q63 0 99 43t36 98q0 57 -36 100t-99 43q-66 0 -101 -43t-35 -100zM332 0l866 1516h268 l-866 -1516h-268zM993 322q0 88 41 164.5t120 124.5t194 48t192.5 -48t118.5 -124.5t41 -164.5q0 -90 -41 -168t-118.5 -126t-192.5 -48t-194 48t-120 125.5t-41 168.5zM1210 319q0 -57 36.5 -100t99.5 -43q66 0 100.5 43t34.5 100q0 55 -35 98.5t-100 43.5q-63 0 -99.5 -43 t-36.5 -99z" />
<glyph unicode="&#x26;" horiz-adv-x="1576" d="M84 440q0 135 67.5 232.5t198.5 173.5q-45 55 -83 130t-38 179q0 127 61.5 211t158 127t202.5 43q104 0 198.5 -40t153 -119t58.5 -191q0 -139 -81 -229.5t-196 -153.5l240 -254q20 61 31.5 139t11.5 170h272q0 -166 -28.5 -298t-81.5 -232l301 -324h-426l-80 88 q-84 -57 -183.5 -84.5t-203.5 -27.5q-156 0 -281 55t-198.5 157.5t-73.5 247.5zM399 465q0 -88 66.5 -153.5t189.5 -65.5q47 0 94.5 12t90.5 39l-324 362q-55 -41 -86 -88t-31 -106zM516 1167q0 -51 32 -99t73 -91q63 31 110 78t47 121q0 61 -40 95t-89 34t-91 -35t-42 -103 z" />
<glyph unicode="'" horiz-adv-x="485" d="M123 1042l20 474h285l-117 -474h-188z" />
<glyph unicode="(" horiz-adv-x="937" d="M72 610q0 201 52 387.5t154.5 337t251 246.5t338.5 117v-316q-92 -16 -173 -84.5t-141 -175t-94 -238.5t-34 -274q0 -141 34 -273t94 -238.5t141 -175t173 -85.5v-315q-190 20 -338.5 116.5t-251 247t-154.5 337t-52 386.5z" />
<glyph unicode=")" horiz-adv-x="937" d="M70 -162q92 16 173 85t141 175.5t94 238.5t34 273t-34 273.5t-94 239t-141 175t-173 84.5v316q193 -20 341 -116.5t249.5 -247t153.5 -337t52 -387.5t-52 -387t-153.5 -336.5t-250 -247t-340.5 -116.5v315z" />
<glyph unicode="*" horiz-adv-x="1062" d="M82 1102l74 231l260 -94l-6 277h241l-6 -277l260 94l76 -231l-264 -78l166 -221l-197 -144l-156 228l-155 -228l-197 144l166 221z" />
<glyph unicode="+" horiz-adv-x="1363" d="M238 502v274h307v307h274v-307h309v-274h-309v-309h-274v309h-307z" />
<glyph unicode="," horiz-adv-x="739" d="M178 170q0 78 53.5 132t137.5 54t141 -53t57 -145q0 -47 -23.5 -105.5t-76.5 -140.5t-137 -201l-17 -22h-135l176 293q-78 4 -127 58t-49 130z" />
<glyph unicode="-" horiz-adv-x="1241" d="M238 502v274h768v-274h-768z" />
<glyph unicode="." horiz-adv-x="720" d="M172 168q0 80 52 134t136 54q82 0 135.5 -54t53.5 -134q0 -78 -53.5 -133t-135.5 -55q-84 0 -136 56t-52 132z" />
<glyph unicode="/" horiz-adv-x="1132" d="M66 -391l714 2093h310l-713 -2093h-311z" />
<glyph unicode="0" horiz-adv-x="1449" d="M72 758q0 162 44 302t128 247.5t204.5 168t276.5 60.5t276.5 -60.5t204.5 -168t128 -247.5t44 -302q0 -160 -44 -301.5t-128 -248t-204.5 -167.5t-276.5 -61t-276.5 61t-204.5 167.5t-128 248t-44 301.5zM438 758q0 -231 81 -348t206 -117t206 115.5t81 349.5 q0 233 -81 349t-206 116t-206 -116t-81 -349z" />
<glyph unicode="1" horiz-adv-x="913" d="M88 1055v215l45 14q135 35 220 85t163 130l14 17h207v-1516h-354v1055h-295z" />
<glyph unicode="2" horiz-adv-x="1370" d="M96 989q0 152 72 276t202 197.5t304 73.5q156 0 282.5 -60.5t202.5 -170t76 -256.5q0 -139 -68.5 -254t-194.5 -222.5t-296 -232.5l-41 -33h618v-307h-1149v244l238 194q172 139 292 235.5t183.5 177.5t63.5 173q0 68 -33 114t-82 68.5t-102 22.5q-76 0 -126.5 -35 t-76 -90t-25.5 -115h-340z" />
<glyph unicode="3" horiz-adv-x="1406" d="M117 467h336q0 -14 8 -47t32.5 -67t74.5 -58.5t134 -24.5q106 0 171 51.5t65 131.5q0 74 -56.5 127t-166.5 53h-205v272h209q94 0 146.5 50.5t52.5 117.5q0 74 -59.5 124t-156.5 50q-74 0 -119.5 -26.5t-69.5 -63.5t-32 -70.5t-8 -48.5h-328q0 18 9.5 74.5t38 128.5 t90 139.5t164 111.5t260.5 44q109 0 208 -28.5t179 -84t126 -135.5t46 -180q0 -96 -39 -163.5t-95.5 -109.5t-105.5 -57v-14q68 -25 129.5 -68t99 -108.5t37.5 -157.5q0 -143 -81 -243.5t-213.5 -153.5t-288.5 -53q-168 0 -277.5 43t-173 109.5t-94.5 136t-39 125t-8 73.5z " />
<glyph unicode="4" horiz-adv-x="1480" d="M78 297v305l645 914h440v-924h226v-297h-226v-295h-354v295zM424 592h385v549z" />
<glyph unicode="5" horiz-adv-x="1411" d="M125 471h330l7 -31q7 -30 30.5 -71t73.5 -73t136 -32q84 0 140.5 36t84 91t27.5 117q0 61 -27.5 117.5t-83 92.5t-136.5 36q-61 0 -103.5 -19.5t-66 -44t-33.5 -44.5l-10 -19h-351l138 889h919v-308h-682l-51 -317h10q4 6 35 36.5t97.5 60.5t178.5 30q166 0 280 -72 t173 -186.5t59 -243.5q0 -98 -36.5 -194.5t-109.5 -173t-184.5 -122.5t-258.5 -46q-188 0 -318.5 71.5t-198 184t-69.5 235.5z" />
<glyph unicode="6" horiz-adv-x="1445" d="M113 670q0 152 49 304t152.5 280t264 205t384.5 77q88 0 153 -9l64 -9v-316l-34 5t-83 10.5t-98 5.5q-141 0 -245 -51.5t-164 -140.5t-73 -200q20 35 63.5 76t116 71t179.5 30q162 0 271.5 -70t164.5 -181.5t55 -236.5q0 -98 -35.5 -194.5t-109.5 -175t-183.5 -124.5 t-256.5 -46q-162 0 -282 56t-198 153.5t-116.5 221.5t-38.5 259zM510 508q0 -98 64.5 -168t175.5 -70q113 0 176 70t63 168t-63.5 167.5t-175.5 69.5q-111 0 -175.5 -69.5t-64.5 -167.5z" />
<glyph unicode="7" horiz-adv-x="1226" d="M59 1208v308h1123v-252l-50 -56q-51 -55 -125.5 -162.5t-152.5 -262t-133 -351t-66 -432.5h-356q10 231 67.5 426t136.5 349.5t156.5 264t128.5 168.5h-729z" />
<glyph unicode="8" horiz-adv-x="1390" d="M104 416q0 104 41 175t95.5 111.5t96.5 59t44 18.5v13l-37 16t-84 53t-83 99.5t-36 154.5q0 129 75 223.5t201 145.5t277 51q152 0 278 -51t199.5 -145.5t73.5 -221.5q0 -92 -35.5 -155.5t-83 -100.5t-83 -53t-37.5 -16v-13q2 0 44 -18.5t96 -59t95 -111.5t41 -175 q0 -143 -82 -240.5t-216 -146.5t-290 -49t-290 49t-217 146t-83 241zM444 457q0 -76 63.5 -139.5t186.5 -63.5t185.5 63.5t62.5 139.5q0 72 -62.5 134t-185.5 62q-125 0 -187.5 -62.5t-62.5 -133.5zM475 1087q0 -84 65.5 -132t153.5 -48t153.5 49.5t65.5 133.5 q0 82 -65.5 130t-153.5 48t-153.5 -48.5t-65.5 -132.5z" />
<glyph unicode="9" horiz-adv-x="1445" d="M113 995q0 98 36.5 194.5t109.5 175.5t183.5 125t257.5 46q162 0 281 -56.5t197.5 -153.5t116.5 -221t38 -259q0 -152 -49 -304.5t-151.5 -280.5t-263 -204.5t-384.5 -76.5q-88 0 -153 9l-64 9v315l33 -5t83 -10t97 -5q143 0 245.5 51t163 140t73.5 200 q-20 -35 -63.5 -76t-115 -70.5t-180.5 -29.5q-162 0 -271.5 69.5t-164.5 181t-55 236.5zM459 1008q0 -98 63.5 -168t173.5 -70q111 0 175.5 69.5t64.5 168.5q0 98 -64.5 167.5t-175.5 69.5t-174 -69.5t-63 -167.5z" />
<glyph unicode=":" horiz-adv-x="720" d="M172 168q0 80 52 134t136 54q82 0 135.5 -54t53.5 -134q0 -78 -53.5 -133t-135.5 -55q-84 0 -136 56t-52 132zM172 918q0 78 52 133t136 55q82 0 135.5 -55.5t53.5 -132.5q0 -78 -53.5 -133.5t-135.5 -55.5q-84 0 -136 55.5t-52 133.5z" />
<glyph unicode=";" horiz-adv-x="739" d="M178 170q0 80 53.5 134t137.5 54t141 -54t57 -144q0 -49 -23.5 -107.5t-76.5 -140.5t-137 -201l-17 -20h-135l176 291q-78 6 -127 59t-49 129zM180 918q0 78 53.5 133t137.5 55q80 0 134 -55.5t54 -132.5q0 -78 -54 -133.5t-134 -55.5q-84 0 -137.5 55.5t-53.5 133.5z " />
<glyph unicode="&#x3c;" horiz-adv-x="1185" d="M147 596v203l891 385v-285l-512 -201l512 -204v-285z" />
<glyph unicode="=" horiz-adv-x="1558" d="M238 242v284h1085v-284h-1085zM238 711v284h1085v-284h-1085z" />
<glyph unicode="&#x3e;" horiz-adv-x="1185" d="M147 209v285l512 204l-512 201v285l891 -385v-203z" />
<glyph unicode="?" horiz-adv-x="1304" d="M109 1014q0 178 78.5 293.5t204.5 172t267 56.5q145 0 266.5 -57.5t194 -159.5t72.5 -242q0 -100 -37 -170.5t-92 -122t-109.5 -91.5t-92.5 -80t-38 -89v-65h-348v65q0 90 37 154.5t90 113t107.5 89.5t90.5 86t36 102q0 70 -53.5 116t-135.5 46q-80 0 -140.5 -52.5 t-60.5 -164.5h-337zM469 158q0 76 50 128t130 52q78 0 128 -52.5t50 -127.5q0 -74 -50 -126t-128 -52q-80 0 -130 53t-50 125z" />
<glyph unicode="@" horiz-adv-x="2095" d="M72 582q0 182 63.5 355t188.5 312.5t311 221t430 81.5q193 0 366 -60t306 -176t209.5 -282t76.5 -377q0 -152 -45 -273.5t-138 -193t-238 -71.5q-111 0 -180.5 34.5t-102.5 74.5t-37 53h-18q-2 -6 -18.5 -31t-51.5 -55.5t-91 -53t-138 -22.5q-131 0 -219.5 66.5 t-131.5 171t-43 216.5q0 113 42 215.5t127 167t216 64.5q86 0 139.5 -24.5t80 -52.5t30.5 -36h13v97h284v-351q0 -137 28 -219t101 -82q68 0 99.5 71t31.5 200q0 180 -58 310t-157.5 213t-224.5 123t-258 40q-178 0 -312.5 -61.5t-225.5 -166t-136 -232.5t-45 -263 q0 -133 44 -259t134 -226.5t226.5 -160t320.5 -59.5q135 0 242.5 26.5t170.5 53.5l64 27l90 -230l-66 -32q-67 -31 -193 -63t-304 -32q-254 0 -442.5 81t-313 216t-186 305t-61.5 349zM862 569q0 -55 20.5 -104t60.5 -82t101 -33q59 0 100.5 33t61 82t19.5 104 q0 82 -45 149.5t-136 67.5q-90 0 -136 -67.5t-46 -149.5z" />
<glyph unicode="A" d="M51 0l510 1516h475l510 -1516h-370l-89 276h-577l-88 -276h-371zM608 580h383l-192 596z" />
<glyph unicode="B" horiz-adv-x="1476" d="M131 0v1516h739q147 0 249 -50.5t154 -135.5t52 -187q0 -96 -35 -162t-88 -106.5t-108 -55.5v-18q57 -12 125.5 -53t119 -118t50.5 -198q0 -109 -50.5 -207t-161 -161.5t-290.5 -63.5h-756zM485 295h344q104 0 153.5 50t49.5 128q0 74 -49.5 123t-153.5 49h-344v-350z M485 911h318q92 0 136 44t44 112q0 66 -44 110t-136 44h-318v-310z" />
<glyph unicode="C" horiz-adv-x="1599" d="M72 760q0 143 48 282.5t143 250t238.5 177t332.5 66.5q162 0 275.5 -40t190 -104.5t122.5 -135t68.5 -134t29.5 -104.5l8 -41h-350l-12 37q-11 37 -45 85t-101.5 85t-181.5 37q-133 0 -222.5 -68t-133.5 -173.5t-44 -219.5q0 -115 44 -221.5t133.5 -174t222.5 -67.5 q115 0 182 37t101 84t45 84l12 37h350l-8 -40q-7 -40 -29.5 -104.5t-68.5 -135.5t-122.5 -135.5t-190 -104t-275.5 -39.5q-188 0 -332 66.5t-239 178t-143 250.5t-48 285z" />
<glyph unicode="D" horiz-adv-x="1552" d="M131 0v1516h600q186 0 327.5 -65t234.5 -173.5t140.5 -243.5t47.5 -276t-47.5 -276.5t-140.5 -244t-234 -173t-328 -64.5h-600zM485 315h230q141 0 232 65.5t134 167t43 214.5q0 109 -43 211t-134 166.5t-232 64.5h-230v-889z" />
<glyph unicode="E" horiz-adv-x="1329" d="M131 0v1516h1071v-308h-717v-293h625v-292h-625v-316h727v-307h-1081z" />
<glyph unicode="F" horiz-adv-x="1325" d="M131 0v1516h1077v-308h-723v-362h631v-295h-631v-551h-354z" />
<glyph unicode="G" horiz-adv-x="1624" d="M72 756q0 145 49 284.5t146.5 251t244.5 178t344 66.5q156 0 266.5 -39t185 -100.5t121 -130t70 -129t30.5 -99.5l7 -39h-352l-12 34q-11 34 -44.5 79t-99 79t-172.5 34q-139 0 -232.5 -67.5t-140.5 -174t-47 -221.5q0 -119 48 -226.5t142.5 -177t233.5 -69.5 q147 0 234.5 71.5t107.5 190.5h-375v276h725v-120q0 -240 -91 -402t-250.5 -243.5t-364.5 -81.5q-193 0 -338.5 65.5t-242.5 177t-145 249.5t-48 284z" />
<glyph unicode="H" horiz-adv-x="1515" d="M131 0v1516h354v-588h545v588h354v-1516h-354v625h-545v-625h-354z" />
<glyph unicode="I" horiz-adv-x="616" d="M131 0v1516h354v-1516h-354z" />
<glyph unicode="J" horiz-adv-x="1021" d="M82 -2v293l50 -5t112 -5q135 0 216 65.5t81 231.5v938h350v-947q0 -160 -56.5 -294t-183.5 -214.5t-338 -80.5q-96 0 -163 9z" />
<glyph unicode="K" horiz-adv-x="1490" d="M131 0v1516h354v-625l504 625h432l-608 -725l629 -791h-449l-508 653v-653h-354z" />
<glyph unicode="L" horiz-adv-x="1331" d="M131 0v1516h354v-1209h729v-307h-1083z" />
<glyph unicode="M" horiz-adv-x="1843" d="M131 0v1516h479l314 -738l325 738h463v-1516h-350v969l-277 -625h-327l-277 629v-973h-350z" />
<glyph unicode="N" horiz-adv-x="1544" d="M131 0v1516h326l606 -904v904h350v-1516h-328l-602 868v-868h-352z" />
<glyph unicode="O" horiz-adv-x="1697" d="M72 760q0 145 49 283.5t146.5 249t242.5 177t340 66.5q193 0 338 -66.5t242.5 -177t146.5 -249t49 -283.5t-49 -284.5t-146.5 -251t-242.5 -178t-338 -66.5q-195 0 -340 66.5t-242.5 178t-146.5 250.5t-49 285zM442 760q0 -117 45 -222.5t136.5 -173t226.5 -67.5 q133 0 224 67.5t137 173t46 222.5q0 115 -46 220t-137 173t-224 68q-135 0 -226.5 -68t-136.5 -173.5t-45 -219.5z" />
<glyph unicode="P" horiz-adv-x="1413" d="M131 0v1516h653q190 0 317.5 -74t190 -190.5t62.5 -243.5q0 -129 -62.5 -246t-189.5 -191.5t-318 -74.5h-299v-496h-354zM485 803h297q109 0 162 63.5t53 139.5t-53 138t-162 62h-297v-403z" />
<glyph unicode="Q" horiz-adv-x="1695" d="M72 760q0 145 49 283.5t146.5 249t242.5 177t340 66.5q193 0 338 -66.5t242.5 -177t146.5 -249t49 -283.5q0 -141 -46 -277.5t-136 -244.5l207 -238h-365l-57 66q-80 -41 -175 -63.5t-204 -22.5q-195 0 -340 66.5t-242.5 178t-146.5 250.5t-49 285zM442 760 q0 -117 45 -222.5t136.5 -173t226.5 -67.5q80 0 149 27l-229 258l221 178l211 -244q55 111 55 244q0 115 -46 220t-137 173t-224 68q-135 0 -226.5 -68t-136.5 -173.5t-45 -219.5z" />
<glyph unicode="R" horiz-adv-x="1486" d="M131 0v1516h641q168 0 293 -57.5t192.5 -164t67.5 -254.5q0 -152 -72.5 -260t-203.5 -164l313 -616h-391l-281 567h-205v-567h-354zM485 852h283q92 0 147.5 49t55.5 129q0 82 -55.5 131t-147.5 49h-283v-358z" />
<glyph unicode="S" horiz-adv-x="1386" d="M72 479h358l8 -31q8 -32 38 -73t90.5 -73t162.5 -32q127 0 183.5 51.5t56.5 116.5q0 59 -42 94t-136 54l-203 35q-127 23 -238.5 71.5t-180.5 139t-69 233.5q0 141 71 246.5t202 165t309 59.5q139 0 237.5 -34t164 -86t105.5 -110.5t59.5 -111.5t25.5 -86l6 -33h-350 l-8 25q-7 26 -32.5 60t-76.5 60.5t-139 26.5q-123 0 -174 -52t-51 -110q0 -63 56 -96t142 -49l215 -37q125 -23 229.5 -76t168 -143t63.5 -223q0 -137 -70.5 -247t-205.5 -172t-330 -62q-154 0 -261.5 35.5t-178 93t-112.5 121t-61.5 121t-25.5 93.5z" />
<glyph unicode="T" horiz-adv-x="1429" d="M76 1208v308h1278v-308h-461v-1208h-356v1208h-461z" />
<glyph unicode="U" horiz-adv-x="1519" d="M131 600v916h354v-916q0 -121 66.5 -204t208.5 -83q141 0 207.5 83t66.5 204v916h355v-916q0 -168 -52.5 -286.5t-141.5 -192.5t-201.5 -107.5t-233.5 -33.5t-233.5 33.5t-201.5 107.5t-141.5 192.5t-52.5 286.5z" />
<glyph unicode="V" horiz-adv-x="1552" d="M29 1516h370l377 -1180l377 1180h371l-510 -1516h-475z" />
<glyph unicode="W" horiz-adv-x="2199" d="M49 1516h352l252 -1059l265 1059h364l264 -1059l252 1059h352l-368 -1516h-461l-221 899l-221 -899h-461z" />
<glyph unicode="X" horiz-adv-x="1609" d="M96 0l461 758l-459 758h422l283 -498l287 498h421l-467 -758l469 -758h-423l-287 498l-283 -498h-424z" />
<glyph unicode="Y" horiz-adv-x="1507" d="M43 1516h387l324 -642l321 642h389l-532 -1004v-512h-354v512z" />
<glyph unicode="Z" horiz-adv-x="1370" d="M90 0v248l723 958h-723v310h1188v-248l-727 -957h727v-311h-1188z" />
<glyph unicode="[" horiz-adv-x="1062" d="M131 -444v2201h735v-299h-377v-1603h377v-299h-735z" />
<glyph unicode="\" horiz-adv-x="1118" d="M27 1702h311l715 -2093h-312z" />
<glyph unicode="]" horiz-adv-x="1062" d="M197 -145h376v1603h-376v299h735v-2201h-735v299z" />
<glyph unicode="^" horiz-adv-x="1288" d="M238 1137l270 379h274l271 -379h-267l-141 211l-141 -211h-266z" />
<glyph unicode="_" horiz-adv-x="1529" d="M238 0h1054v-225h-1054v225z" />
<glyph unicode="`" horiz-adv-x="649" d="M68 1599h317l162 -366l-250 -2z" />
<glyph unicode="a" horiz-adv-x="1357" d="M98 543q0 104 29 204.5t88 181.5t147 129t207 48q106 0 173 -35t101 -70.5t38 -44.5h16v129h350v-1085h-350v129h-16q-4 -8 -38 -45t-100.5 -70.5t-173.5 -33.5q-119 0 -207 48t-147 129t-88 181t-29 205zM453 543q0 -70 24.5 -134.5t75.5 -106.5t127 -42t126 42 t75.5 106.5t25.5 134.5t-25.5 134t-75.5 106t-126 42t-127 -42t-75.5 -106.5t-24.5 -133.5z" />
<glyph unicode="b" horiz-adv-x="1378" d="M131 0v1556h350v-600h17q4 8 36.5 45t100 71t172.5 34q121 0 209 -48t146.5 -129t88 -181.5t29.5 -204.5t-29.5 -204.5t-88 -181.5t-146.5 -129t-209 -48q-104 0 -172 34.5t-100.5 70.5t-36.5 44h-17v-129h-350zM471 543q0 -70 24.5 -134.5t75.5 -106.5t127 -42t127.5 42 t76 106.5t24.5 134.5t-24.5 134t-76 106t-127.5 42t-127 -42t-75.5 -106.5t-24.5 -133.5z" />
<glyph unicode="c" horiz-adv-x="1300" d="M98 543q0 106 35 206.5t106.5 180.5t179 128t255.5 48q150 0 247 -43t154.5 -106.5t84 -127t34.5 -106.5l8 -43h-325l-7 22q-6 23 -25.5 53.5t-58 53t-102.5 22.5q-119 0 -177 -84.5t-58 -203.5t58 -204t177 -85q63 0 102 22.5t58.5 53t25.5 53.5l7 23h325l-8 -44 q-8 -43 -34.5 -106t-84 -126.5t-154.5 -106.5t-247 -43q-147 0 -255 48t-179.5 128t-106.5 180t-35 207z" />
<glyph unicode="d" horiz-adv-x="1378" d="M98 543q0 104 29 204.5t88 181.5t147.5 129t206.5 48q106 0 173 -35t101 -70.5t38 -44.5h16v600h350v-1556h-350v129h-16q-4 -8 -38 -45t-101 -70.5t-173 -33.5q-119 0 -207 48t-147 129t-88 181t-29 205zM453 543q0 -70 24.5 -134.5t75.5 -106.5t127 -42t126 42 t75.5 106.5t25.5 134.5t-25.5 134t-75.5 106t-126 42t-127 -42t-75.5 -106.5t-24.5 -133.5z" />
<glyph unicode="e" horiz-adv-x="1277" d="M98 545q0 102 33 202.5t100.5 181.5t173 129t250.5 48q156 0 274 -66.5t184.5 -194.5t66.5 -310v-82h-729q6 -84 60 -146.5t155 -62.5q76 0 115.5 27.5t54.5 56.5l14 28h321l-10 -38q-10 -37 -38.5 -93.5t-84 -113t-146.5 -94t-226 -37.5q-145 0 -252 48t-177.5 129 t-104.5 181t-34 207zM449 655h395q-4 96 -58.5 145.5t-136.5 49.5q-80 0 -136 -49.5t-64 -145.5z" />
<glyph unicode="f" horiz-adv-x="851" d="M68 807v278h170v70q0 57 16 130t59 139.5t123 109.5t209 43q68 0 111 -9l43 -9v-242l-21 3q-22 3 -43 3q-82 0 -114.5 -45t-32.5 -123v-70h209v-278h-209v-807h-350v807h-170z" />
<glyph unicode="g" horiz-adv-x="1361" d="M98 565q0 102 30 198.5t90.5 173.5t149.5 123t207 46q86 0 147.5 -25.5t102.5 -62.5t60 -70h16v137h350v-1013q0 -131 -60.5 -247t-186 -188.5t-326.5 -72.5q-154 0 -254 38t-158.5 94t-85 112.5t-34.5 94.5l-7 38h338l13 -27q14 -27 56 -54.5t128 -27.5q111 0 169 63.5 t58 176.5v112h-16q-20 -33 -60.5 -69.5t-101.5 -62t-148 -25.5q-119 0 -207.5 45t-149 122.5t-90.5 174t-30 196.5zM449 565q0 -66 26.5 -127t77.5 -100t127 -39q78 0 129 39t76.5 100.5t25.5 126.5q0 70 -25.5 130.5t-76.5 99.5t-129 39q-76 0 -127 -39t-77.5 -99.5 t-26.5 -130.5z" />
<glyph unicode="h" horiz-adv-x="1263" d="M131 0v1556h350v-624h11q20 33 56 74t96.5 70.5t150.5 29.5q131 0 209.5 -59.5t113.5 -150.5t35 -187v-709h-350v643q0 70 -37 124t-121 54q-92 0 -128 -60.5t-36 -131.5v-629h-350z" />
<glyph unicode="i" horiz-adv-x="626" d="M111 1407q0 82 57 139.5t145 57.5t145.5 -57.5t57.5 -139.5q0 -78 -57.5 -135.5t-145.5 -57.5t-145 57.5t-57 135.5zM137 0v1085h350v-1085h-350z" />
<glyph unicode="j" horiz-adv-x="634" d="M-84 -156l20 -2q21 -2 46 -2q98 0 130.5 43t32.5 127v1075h351v-1085q0 -57 -13.5 -131t-55.5 -142.5t-127 -112.5t-230 -44q-66 0 -110 7l-44 7v260zM119 1407q0 82 56 139.5t144 57.5t146.5 -57.5t58.5 -139.5q0 -78 -58.5 -135.5t-146.5 -57.5t-144 57.5t-56 135.5z " />
<glyph unicode="k" horiz-adv-x="1255" d="M131 0v1556h350v-892l334 421h389l-405 -495l424 -590h-404l-338 475v-475h-350z" />
<glyph unicode="l" horiz-adv-x="612" d="M131 0v1556h350v-1556h-350z" />
<glyph unicode="m" horiz-adv-x="1837" d="M111 0v1085h350v-145h12q37 66 107.5 116t185.5 50q123 0 195.5 -56.5t103.5 -138.5h6q25 43 69 88t109.5 76t155.5 31q113 0 183.5 -50t104 -128t33.5 -162v-766h-350v664q0 68 -34.5 112.5t-104.5 44.5q-76 0 -109.5 -51t-33.5 -117v-653h-351v664q0 66 -33.5 111.5 t-105.5 45.5q-76 0 -109.5 -52t-33.5 -116v-653h-350z" />
<glyph unicode="n" horiz-adv-x="1243" d="M111 0v1085h350v-153h10q20 33 56 74t96.5 70.5t150.5 29.5q131 0 210 -59.5t114 -150.5t35 -187v-709h-351v643q0 70 -36.5 124t-120.5 54q-92 0 -128 -60.5t-36 -131.5v-629h-350z" />
<glyph unicode="o" horiz-adv-x="1357" d="M98 543q0 150 69 278.5t198 206.5t313 78q186 0 315 -78t198 -207t69 -278q0 -150 -69 -279t-198 -206.5t-315 -77.5q-184 0 -313 77.5t-198 206.5t-69 279zM449 543q0 -115 61.5 -198t167.5 -83q109 0 169 83t60 198t-60.5 197.5t-168.5 82.5q-106 0 -167.5 -83 t-61.5 -197z" />
<glyph unicode="p" horiz-adv-x="1378" d="M131 -399v1484h350v-129h17q4 8 36.5 45t100 71t172.5 34q121 0 209 -48t146.5 -129t88 -181.5t29.5 -204.5t-29.5 -204.5t-88 -181.5t-146.5 -129t-209 -48q-104 0 -172 34.5t-100.5 70.5t-36.5 44h-17v-528h-350zM471 543q0 -70 24.5 -134.5t76 -106.5t126.5 -42 q76 0 127.5 42t76 106.5t24.5 134.5t-24.5 134t-76 106t-127.5 42t-127 -42t-75.5 -106t-24.5 -134z" />
<glyph unicode="q" horiz-adv-x="1378" d="M98 543q0 104 29 204.5t88 181.5t147.5 129t206.5 48q106 0 173 -35t101 -70.5t38 -44.5h16v129h350v-1484h-350v528h-16q-4 -8 -38 -45t-100.5 -70.5t-173.5 -33.5q-119 0 -207 48t-147 129t-88 181t-29 205zM453 543q0 -70 24.5 -134.5t75.5 -106.5t127 -42t126 42 t75.5 106.5t25.5 134.5t-25.5 134t-75.5 106t-126 42t-127 -42t-75.5 -106.5t-24.5 -133.5z" />
<glyph unicode="r" horiz-adv-x="903" d="M111 0v1085h346v-163h12q16 43 48 85t89.5 70.5t151.5 28.5q45 0 72 -6l26 -6v-346l-28 6q-29 6 -80 6q-145 0 -216 -78t-71 -254v-428h-350z" />
<glyph unicode="s" horiz-adv-x="1118" d="M90 348h320l7 -18q7 -17 26.5 -40.5t58.5 -41t104 -17.5q80 0 104.5 31t24.5 55q0 61 -104 82l-150 27q-98 16 -184 53t-139.5 102.5t-53.5 170.5q0 100 52.5 180t152 127t240.5 47q129 0 215 -35t137 -86t75.5 -102.5t33.5 -86.5l8 -34h-309l-13 24q-12 25 -48 49.5 t-107 24.5q-72 0 -98.5 -27.5t-26.5 -56.5q0 -37 34.5 -54t88.5 -28l137 -26q162 -31 265 -108t103 -224q0 -152 -117.5 -254t-338.5 -102q-139 0 -230.5 36.5t-144.5 92t-80 110.5t-35 92z" />
<glyph unicode="t" horiz-adv-x="903" d="M55 807v278h181v269h350v-269h221v-278h-221v-422q0 -61 33.5 -97t115.5 -36q35 0 61 5l27 5v-262l-58 -10t-134 -10q-139 0 -220 43t-118 107.5t-47 131t-10 113.5v432h-181z" />
<glyph unicode="u" horiz-adv-x="1220" d="M111 346v739h346v-661q0 -70 36.5 -115t110.5 -45q84 0 120 56.5t36 128.5v636h350v-1085h-350v154h-12q-41 -72 -115 -123t-189 -51q-119 0 -191.5 50t-107 133t-34.5 183z" />
<glyph unicode="v" horiz-adv-x="1228" d="M39 1085h348l231 -696l224 696h348l-395 -1085h-363z" />
<glyph unicode="w" horiz-adv-x="1818" d="M39 1085h348l172 -665l195 665h313l193 -665l174 665h346l-330 -1085h-371l-170 580l-170 -580h-370z" />
<glyph unicode="x" horiz-adv-x="1277" d="M82 0l321 541l-321 544h362l193 -333l199 333h360l-336 -544l336 -541h-360l-199 334l-193 -334h-362z" />
<glyph unicode="y" horiz-adv-x="1230" d="M41 1085h350l230 -696l223 696h348l-377 -1028q-55 -154 -130 -255t-187.5 -151t-282.5 -50q-57 0 -91 4l-34 4v278l26 -2q27 -2 68 -2q90 0 149.5 21.5t102.5 87.5z" />
<glyph unicode="z" horiz-adv-x="1079" d="M92 0v240l512 573h-498v272h918v-239l-514 -574h514v-272h-932z" />
<glyph unicode="{" horiz-adv-x="1019" d="M57 508v297h93q125 0 124 125v387q0 213 114 326.5t327 113.5h223v-299h-180q-125 0 -125 -125v-403q0 -115 -35 -175.5t-139 -90.5v-15q104 -33 139 -95t35 -171v-403q0 -125 125 -125h180v-299h-223q-213 0 -327 113.5t-114 326.5v387q0 125 -124 125h-93z" />
<glyph unicode="|" horiz-adv-x="907" d="M311 -516v2478h285v-2478h-285z" />
<glyph unicode="}" horiz-adv-x="1019" d="M82 -145h180q125 0 125 125v403q0 113 35 173t139 93v15q-104 33 -139 95t-35 171v403q0 125 -125 125h-180v299h223q213 0 326.5 -113.5t113.5 -326.5v-387q0 -125 125 -125h93v-297h-93q-125 0 -125 -125v-387q0 -213 -113.5 -326.5t-326.5 -113.5h-223v299z" />
<glyph unicode="~" horiz-adv-x="1019" d="M127 653q0 70 17.5 141.5t66.5 121t141 49.5q59 0 102.5 -18.5t77 -43t62.5 -43t57 -18.5q57 0 58 112h184q0 -70 -18.5 -142.5t-66.5 -121.5t-140 -49q-59 0 -102.5 18.5t-76 43t-61.5 44t-57 19.5q-35 0 -48.5 -30.5t-13.5 -82.5h-182z" />
<glyph unicode="&#xa1;" horiz-adv-x="739" d="M176 -453l47 1049h285l53 -1049h-385zM188 903q0 74 51.5 127t129.5 53t129 -53t51 -127q0 -76 -51.5 -128t-128.5 -52q-78 0 -129.5 52t-51.5 128z" />
<glyph unicode="&#xa2;" horiz-adv-x="1300" d="M98 543q0 129 53.5 249.5t161 204.5t273.5 103v184h159v-182q129 -10 213 -56.5t133.5 -107.5t73 -120.5t30.5 -98.5l7 -39h-325l-9 30q-8 29 -36.5 64t-86.5 49v-561q57 14 86 49t37 65l9 30h325l-7 -39q-7 -39 -30.5 -98.5t-73 -121t-133.5 -107.5t-213 -56v-185h-159 v187q-166 18 -273.5 102t-161 205t-53.5 250zM449 543q0 -90 33.5 -163t103.5 -106v537q-70 -33 -103.5 -105.5t-33.5 -162.5z" />
<glyph unicode="&#xa3;" horiz-adv-x="1415" d="M141 637v139h189q-37 53 -65.5 120t-28.5 161q0 145 77.5 253.5t220 167t336.5 58.5q86 0 158 -9t114 -19l42 -9v-303l-38 9t-101.5 17.5t-139.5 8.5q-147 0 -236 -48t-89 -153q0 -72 35.5 -130t72.5 -124h379v-139h-319q10 -43 10 -86q0 -61 -21.5 -108.5t-52.5 -80 t-55.5 -51t-28.5 -20.5h645v-291h-1073v293q139 12 216 74.5t77 154.5q0 31 -9.5 59.5t-23.5 55.5h-291z" />
<glyph unicode="&#xa4;" horiz-adv-x="1415" d="M102 309l187 189q-37 57 -57.5 126.5t-20.5 145.5q0 74 20.5 142.5t57.5 125.5l-187 187l150 147l186 -186q121 82 271 82t272 -80l184 184l148 -147l-185 -185q80 -123 80 -270q0 -152 -82 -272l187 -189l-148 -147l-186 186q-123 -78 -270 -78q-74 0 -142.5 20.5 t-128.5 57.5l-186 -186zM451 768q0 -70 34.5 -129t93 -94t130.5 -35t130 35t93 94t35 129q0 72 -35 130t-93.5 93t-129.5 35q-72 0 -130.5 -35t-93 -93t-34.5 -130z" />
<glyph unicode="&#xa5;" horiz-adv-x="1507" d="M43 1516h387l324 -642l321 642h389l-321 -607h172v-174h-266l-84 -160h350v-172h-383v-403h-354v403h-385v172h350l-84 160h-269v174h177z" />
<glyph unicode="&#xa6;" horiz-adv-x="907" d="M311 514h285v-1030h-285v1030zM311 856v1106h285v-1106h-285z" />
<glyph unicode="&#xa7;" horiz-adv-x="1466" d="M72 606q0 121 68.5 204t193.5 110v12q-92 63 -141.5 142t-49.5 188q0 135 71 238.5t203 163.5t312 60q139 0 238.5 -33.5t166 -87t105.5 -112.5t58.5 -112.5t25.5 -86.5l6 -32h-350l-7 26q-7 27 -33 61.5t-78 62.5t-142 28q-84 0 -134 -26t-71.5 -63.5t-21.5 -76.5 q0 -68 58 -100.5t148 -49.5l211 -37q129 -23 242 -71.5t183.5 -132.5t70.5 -213q0 -121 -68.5 -204t-195.5 -110v-12q100 -31 162.5 -115t62.5 -211q0 -139 -71.5 -246.5t-207.5 -170t-329 -62.5q-156 0 -264.5 37t-180 94.5t-113.5 121t-61.5 120.5t-24.5 93l-5 36h356 l8 -32t38 -75t91.5 -74.5t169.5 -31.5q127 0 183.5 51t56.5 117q0 63 -46 98t-135 51l-264 45q-129 23 -242.5 71t-183 133t-69.5 214zM418 666q0 -68 57 -107t154 -55l262 -45q16 0 56 11t75 44t35 94q0 68 -57.5 107t-153.5 55l-260 45q-16 0 -57.5 -11t-76 -44t-34.5 -94 z" />
<glyph unicode="&#xa8;" horiz-adv-x="1044" d="M90 1380q0 80 54.5 133.5t138.5 53.5t138 -53.5t54 -133.5q0 -74 -54 -128t-138 -54t-138.5 54.5t-54.5 127.5zM580 1380q0 80 54 133.5t138 53.5t138.5 -53.5t54.5 -133.5q0 -74 -54.5 -128t-138.5 -54t-138 54.5t-54 127.5z" />
<glyph unicode="&#xa9;" horiz-adv-x="1630" d="M72 717q0 139 47 270t139 236.5t231.5 168t325.5 62.5q184 0 324.5 -62.5t232.5 -168t139.5 -236.5t47.5 -270q0 -137 -47.5 -269.5t-139.5 -238t-232.5 -167.5t-324.5 -62q-186 0 -325.5 62t-231.5 167.5t-139 238t-47 269.5zM279 717q0 -100 33.5 -195.5t100 -172.5 t167 -123t235.5 -46q133 0 233.5 46t168 123t100.5 172t33 196q0 100 -33 195.5t-100.5 172t-168 122.5t-233.5 46q-135 0 -235.5 -46t-167 -122.5t-100 -172t-33.5 -195.5zM422 717q0 98 46 188t138 148.5t232 58.5q104 0 171.5 -30.5t107.5 -75.5t58.5 -90.5t23.5 -75.5 l5 -31h-239l-9 25q-8 24 -35.5 48.5t-86.5 24.5q-80 0 -119 -56t-39 -134t39 -134.5t119 -56.5q59 0 85.5 24.5t36.5 49.5l9 25h239l-5 -31q-5 -31 -23.5 -76t-58.5 -90t-107.5 -75.5t-171.5 -30.5q-139 0 -231.5 58t-138.5 148t-46 189z" />
<glyph unicode="&#xaa;" horiz-adv-x="882" d="M98 1026q0 188 285 219l133 15v14q0 76 -76 76q-37 0 -52 -15.5t-20 -30.5l-6 -14h-239l4 24q4 25 19.5 62t50 74t96 61.5t158.5 24.5q121 0 190.5 -40t100 -96.5t30.5 -107.5v-448h-256v69h-8q-23 -31 -70 -56.5t-116 -25.5q-94 0 -159 51.5t-65 143.5zM348 1049 q0 -25 19.5 -39.5t52.5 -14.5q41 0 68.5 26t27.5 75v20l-102 -12q-66 -8 -66 -55z" />
<glyph unicode="&#xab;" horiz-adv-x="1576" d="M74 629l442 454h363l-435 -456l435 -453h-363zM709 629l442 454h360l-432 -456l432 -453h-360z" />
<glyph unicode="&#xac;" horiz-adv-x="1341" d="M164 813v272h1014v-569h-271v297h-743z" />
<glyph unicode="&#xad;" horiz-adv-x="1228" d="M238 502v274h768v-274h-768z" />
<glyph unicode="&#xae;" horiz-adv-x="882" d="M63 1155q0 94 42 182t126 143.5t209 55.5q127 0 211 -55.5t126 -143.5t42 -182t-42 -182t-126 -143.5t-211 -55.5q-125 0 -209 55.5t-126 143.5t-42 182zM150 1155q0 -74 32.5 -142.5t97 -111.5t160.5 -43q98 0 163 43t96.5 111.5t31.5 142.5q0 76 -31.5 143.5t-96 110.5 t-163.5 43q-96 0 -160.5 -43t-97 -110.5t-32.5 -143.5zM279 963v395h180q72 0 118 -35t46 -100q0 -84 -72 -119l76 -141h-129l-64 120h-35v-120h-120zM399 1178h58q45 0 45 39q0 20 -13.5 29t-31.5 9h-58v-77z" />
<glyph unicode="&#xaf;" horiz-adv-x="794" d="M57 1333v197h680v-197h-680z" />
<glyph unicode="&#xb0;" horiz-adv-x="960" d="M98 1153q0 106 51.5 192.5t138.5 138.5t193 52q104 0 191.5 -52t138.5 -138t51 -193q0 -106 -51 -193.5t-138.5 -138.5t-191.5 -51q-106 0 -193 51t-138.5 138.5t-51.5 193.5zM334 1153q0 -59 43 -103t104 -44q59 0 102.5 44t43.5 103q0 61 -43 104t-103 43 q-61 0 -104 -43t-43 -104z" />
<glyph unicode="&#xb1;" horiz-adv-x="1384" d="M238 0v186h909v-186h-909zM246 629v274h309v307h274v-307h308v-274h-308v-310h-274v310h-309z" />
<glyph unicode="&#xb2;" horiz-adv-x="952" d="M96 1401q0 117 52.5 191.5t136.5 110.5t180 36q104 0 187 -38t130 -104.5t47 -150.5q0 -113 -92 -204t-262 -185h361v-226h-734v189l213 156q100 74 171 128t71 119q0 43 -29.5 65.5t-70.5 22.5t-72 -26.5t-31 -83.5h-258z" />
<glyph unicode="&#xb3;" horiz-adv-x="985" d="M117 1118h254q0 -6 7 -28.5t31.5 -43t75.5 -20.5q59 0 85 27.5t26 58.5q0 33 -27.5 52.5t-70.5 19.5h-123v188h119q49 0 72.5 21.5t23.5 52.5q0 35 -25.5 56.5t-75.5 21.5q-45 0 -67.5 -19.5t-28.5 -41t-6 -29.5h-246q0 10 6.5 43.5t24.5 77.5t57 86t104.5 70t166.5 28 q94 0 175 -31t130 -88t49 -139q0 -66 -27.5 -108t-63.5 -64.5t-61 -26.5v-10q66 -18 116 -65.5t50 -129.5t-50 -141t-135 -91t-191 -32q-104 0 -173 27.5t-110 69.5t-60.5 86t-25.5 78t-6 44z" />
<glyph unicode="&#xb4;" horiz-adv-x="649" d="M82 1233l162 366h317l-229 -368z" />
<glyph unicode="&#xb5;" horiz-adv-x="1335" d="M84 -401v1486h350v-661q0 -70 37 -115t111 -45q84 0 119.5 56.5t35.5 128.5v636h350v-700q0 -53 25 -92t107 -39q25 0 43 3l18 3v-266l-49 -7t-109 -7q-145 0 -227 52t-117 122h-16l-10 -27q-9 -27 -34.5 -60.5t-70.5 -60t-117 -26.5q-57 0 -97 16t-59 32l-20 17l-10 -10 q53 -82 71.5 -162t18.5 -190v-84h-350z" />
<glyph unicode="&#xb6;" horiz-adv-x="1204" d="M8 1022q0 109 49 203t143.5 151.5t233.5 57.5h684v-1434h-211v1128h-133v-1128h-211v621h-129q-141 0 -236.5 55t-142.5 146t-47 200z" />
<glyph unicode="&#xb7;" horiz-adv-x="657" d="M152 748q0 78 53 133t137 55q80 0 134 -55.5t54 -132.5q0 -78 -54 -133.5t-134 -55.5q-84 0 -137 55.5t-53 133.5z" />
<glyph unicode="&#xb8;" horiz-adv-x="540" d="M-35 -119l135 193h217l-92 -125q18 2 39 2q102 0 161.5 -62.5t59.5 -152.5q0 -66 -36.5 -126.5t-111.5 -97t-192 -36.5q-41 0 -80.5 4t-66.5 7l-27 3v182l26 -3t62.5 -6t67.5 -3q90 0 119.5 25.5t29.5 52.5t-21.5 43t-57.5 16q-45 0 -78 -19l-33 -20z" />
<glyph unicode="&#xb9;" horiz-adv-x="704" d="M88 1425v152l27 8q90 27 146 56.5t110 84.5l10 11h147v-906h-254v594h-186z" />
<glyph unicode="&#xba;" horiz-adv-x="935" d="M98 1188q0 94 44 174t127 129t198 49q117 0 200 -49t127 -129t44 -174q0 -96 -44 -177t-127 -130.5t-200 -49.5t-199 49.5t-126 130.5t-44 177zM352 1188q0 -63 33 -105.5t82 -42.5q53 0 84 41t31 107q0 59 -31 100t-84 41q-49 0 -82 -41t-33 -100z" />
<glyph unicode="&#xbb;" horiz-adv-x="1576" d="M74 174l434 453l-434 456h360l445 -454l-445 -455h-360zM709 174l434 453l-434 456h360l442 -454l-442 -455h-360z" />
<glyph unicode="&#xbc;" horiz-adv-x="1671" d="M20 1178v135l19 4q72 18 120 45t89 68l8 8h127v-715h-219v455h-144zM315 0l861 1434h243l-862 -1434h-242zM1143 139v150l272 432h289v-418h96v-164h-96v-135h-225v135h-336zM1348 303h131v213z" />
<glyph unicode="&#xbd;" horiz-adv-x="1644" d="M20 1178v135l19 4q72 18 120 45t89 68l8 8h127v-715h-219v455h-144zM315 0l861 1434h243l-862 -1434h-242zM1180 455q0 94 42 155.5t110.5 91t146.5 29.5q125 0 209 -66.5t84 -175.5q0 -90 -63.5 -161.5t-203.5 -145.5h269v-178h-590v150l78 55q145 102 214.5 155.5 t69.5 110.5q0 37 -22.5 53.5t-50.5 16.5q-31 0 -55.5 -21.5t-24.5 -68.5h-213z" />
<glyph unicode="&#xbe;" horiz-adv-x="1712" d="M66 954h200q0 -6 7.5 -23.5t25.5 -31.5t59 -14q45 0 64.5 20.5t19.5 44.5q0 23 -17 41.5t-63 18.5h-77v149h77q39 0 58.5 19.5t19.5 44.5q0 23 -19.5 42t-60.5 19q-55 0 -69.5 -28.5t-14.5 -38.5h-196q0 10 8 46.5t35 81t83 76t152 31.5q78 0 144.5 -24.5t105.5 -70.5 t39 -112q0 -72 -42 -111.5t-75 -46.5v-8q23 -6 52.5 -21.5t52 -45t22.5 -80.5q0 -96 -83 -156.5t-216 -60.5q-104 0 -163.5 32.5t-87 76.5t-34.5 82t-7 48zM473 0l860 1434h244l-862 -1434h-242zM1300 139v150l273 432h289v-418h96v-164h-96v-135h-226v135h-336zM1503 303 h133v213z" />
<glyph unicode="&#xbf;" horiz-adv-x="1304" d="M109 4q0 100 37.5 171t92 122t109.5 91t92 80t37 89v66h348v-66q0 -90 -35.5 -154.5t-90 -112.5t-107.5 -89t-90 -86t-37 -103q0 -70 53 -116t137 -46q80 0 140.5 52.5t60.5 165.5h336q0 -178 -79 -294t-205 -172.5t-265 -56.5q-147 0 -268 57.5t-193.5 160t-72.5 241.5z M473 922q0 76 51 129t127 53q80 0 130 -53.5t50 -128.5q0 -74 -50 -126.5t-130 -52.5q-76 0 -127 52.5t-51 126.5z" />
<glyph unicode="&#xc0;" d="M51 0l510 1516h475l510 -1516h-370l-89 276h-577l-88 -276h-371zM449 2030h319l162 -367l-252 -2zM606 580h385l-192 596z" />
<glyph unicode="&#xc1;" d="M51 0l510 1516h475l510 -1516h-370l-89 276h-577l-88 -276h-371zM606 580h385l-192 596zM676 1663l162 367h319l-229 -369z" />
<glyph unicode="&#xc2;" d="M51 0l510 1516h475l510 -1516h-370l-89 276h-577l-88 -276h-371zM393 1642l271 322h274l270 -322h-266l-141 173l-142 -173h-266zM606 580h385l-192 596z" />
<glyph unicode="&#xc3;" d="M51 0l510 1516h475l510 -1516h-370l-89 276h-577l-88 -276h-371zM442 1698q0 70 16.5 142.5t62.5 121.5t134 49q57 0 98.5 -18.5t73 -43t57 -43t52.5 -18.5q53 0 53 111h180q0 -70 -16 -142.5t-62.5 -121.5t-136.5 -49q-55 0 -95 18t-70.5 43t-57 43t-55.5 18 q-31 0 -43 -28.5t-12 -81.5h-179zM606 580h385l-192 596z" />
<glyph unicode="&#xc4;" d="M51 0l510 1516h475l510 -1516h-370l-89 276h-577l-88 -276h-371zM360 1812q0 76 54.5 130.5t140.5 54.5q82 0 137.5 -54.5t55.5 -130.5t-55.5 -131t-137.5 -55q-86 0 -140.5 55.5t-54.5 130.5zM606 580h385l-192 596zM850 1812q0 76 54 130.5t138 54.5t139.5 -54.5 t55.5 -130.5t-55.5 -131t-139.5 -55t-138 55.5t-54 130.5z" />
<glyph unicode="&#xc5;" d="M51 0l510 1516h475l510 -1516h-370l-89 276h-577l-88 -276h-371zM516 1907q0 78 38 142.5t102.5 102t142.5 37.5q80 0 143.5 -37.5t102 -102t38.5 -142.5t-38.5 -142.5t-102 -102.5t-143.5 -38q-78 0 -142.5 38t-102.5 102.5t-38 142.5zM606 580h385l-192 596zM690 1907 q0 -45 32 -77t77 -32t76.5 32t31.5 77t-31.5 75.5t-76.5 30.5t-77 -30.5t-32 -75.5z" />
<glyph unicode="&#xc6;" horiz-adv-x="2148" d="M51 0l658 1516h1312v-308h-716v-293h624v-292h-624v-316h727v-307h-1082v276h-409l-119 -276h-371zM672 575h278v639z" />
<glyph unicode="&#xc7;" horiz-adv-x="1599" d="M72 760q0 143 48 282.5t143 250t238.5 177t332.5 66.5q162 0 275.5 -40t190 -104.5t122.5 -135t68.5 -134t29.5 -104.5l8 -41h-350l-12 37q-11 37 -45 85t-101.5 85t-181.5 37q-133 0 -222.5 -68t-133.5 -173.5t-44 -219.5q0 -115 44 -221.5t133.5 -174t222.5 -67.5 q115 0 182 37t101 84t45 84l12 37h350l-6 -38q-6 -38 -26.5 -97.5t-62.5 -128t-110 -132t-170 -107.5t-246 -54l-45 -60q20 4 45 4q100 0 159.5 -59.5t59.5 -151.5q0 -66 -35.5 -123t-110.5 -93t-192 -36q-41 0 -80.5 4.5t-66.5 7.5l-27 3v176l26 -3t62.5 -6t67.5 -3 q88 0 118 25.5t30 51.5q0 27 -20.5 43.5t-57.5 16.5q-45 0 -79 -19l-34 -20l-119 123l90 127q-156 25 -273.5 97.5t-196 179t-117.5 233.5t-39 260z" />
<glyph unicode="&#xc8;" horiz-adv-x="1333" d="M135 0v1516h1071v-308h-717v-293h625v-292h-625v-316h728v-307h-1082zM324 2030h319l162 -367l-252 -2z" />
<glyph unicode="&#xc9;" horiz-adv-x="1333" d="M135 0v1516h1071v-308h-717v-293h625v-292h-625v-316h728v-307h-1082zM551 1663l162 367h319l-229 -369z" />
<glyph unicode="&#xca;" horiz-adv-x="1333" d="M135 0v1516h1071v-308h-717v-293h625v-292h-625v-316h728v-307h-1082zM268 1642l271 322h274l270 -322h-266l-141 173l-141 -173h-267z" />
<glyph unicode="&#xcb;" horiz-adv-x="1333" d="M135 0v1516h1071v-308h-717v-293h625v-292h-625v-316h728v-307h-1082zM236 1812q0 76 54 130.5t140 54.5q82 0 137.5 -54.5t55.5 -130.5t-55.5 -131t-137.5 -55q-86 0 -140 55.5t-54 130.5zM725 1812q0 76 54.5 130.5t138.5 54.5t139 -54.5t55 -130.5t-55 -131t-139 -55 t-138.5 55.5t-54.5 130.5z" />
<glyph unicode="&#xcc;" horiz-adv-x="624" d="M-37 2030h318l161 -367l-252 -2zM135 0v1516h354v-1516h-354z" />
<glyph unicode="&#xcd;" horiz-adv-x="624" d="M135 0v1516h354v-1516h-354zM188 1663l162 367h320l-230 -369z" />
<glyph unicode="&#xce;" horiz-adv-x="624" d="M-94 1642l270 379h275l270 -379h-266l-142 211l-141 -211h-266zM135 0v1516h354v-1516h-354z" />
<glyph unicode="&#xcf;" horiz-adv-x="624" d="M-125 1812q0 76 53.5 130.5t139.5 54.5q82 0 137 -54.5t55 -130.5t-55 -131t-137 -55q-86 0 -139.5 55.5t-53.5 130.5zM135 0v1516h354v-1516h-354zM362 1812q0 76 54.5 130.5t140.5 54.5q82 0 137.5 -54.5t55.5 -130.5t-55.5 -131t-137.5 -55q-86 0 -140.5 55.5 t-54.5 130.5z" />
<glyph unicode="&#xd0;" horiz-adv-x="1603" d="M25 618v279h157v619h600q186 0 327.5 -65t235 -173.5t140.5 -243.5t47 -276t-47 -276.5t-140.5 -244t-234.5 -173t-328 -64.5h-600v618h-157zM537 315h229q139 0 230 65.5t135.5 167t44.5 214.5q0 109 -44.5 211t-135.5 166.5t-230 64.5h-229v-307h272v-279h-272v-303z " />
<glyph unicode="&#xd1;" horiz-adv-x="1552" d="M135 0v1516h326l606 -904v904h350v-1516h-327l-603 868v-868h-352zM412 1698q0 70 16 142.5t62.5 121.5t134.5 49q57 0 98 -18.5t72.5 -43t57.5 -43t52 -18.5q55 0 56 111h178q0 -70 -16.5 -142.5t-62.5 -121.5t-134 -49q-57 0 -97.5 18t-71 43t-57 43t-55.5 18 q-31 0 -43 -28.5t-12 -81.5h-178z" />
<glyph unicode="&#xd2;" horiz-adv-x="1697" d="M72 760q0 145 49 283.5t146.5 249t242.5 177t340 66.5q193 0 338 -66.5t242.5 -177t146.5 -249t49 -283.5t-49 -284.5t-146.5 -251t-242.5 -178t-338 -66.5q-195 0 -340 66.5t-242.5 178t-146.5 250.5t-49 285zM442 760q0 -117 45 -222.5t136.5 -173t226.5 -67.5 q133 0 224 67.5t137 173t46 222.5q0 115 -46 220t-137 173t-224 68q-135 0 -226.5 -68t-136.5 -173.5t-45 -219.5zM500 2050h317l162 -367l-252 -2z" />
<glyph unicode="&#xd3;" horiz-adv-x="1697" d="M72 760q0 145 49 283.5t146.5 249t242.5 177t340 66.5q193 0 338 -66.5t242.5 -177t146.5 -249t49 -283.5t-49 -284.5t-146.5 -251t-242.5 -178t-338 -66.5q-195 0 -340 66.5t-242.5 178t-146.5 250.5t-49 285zM442 760q0 -117 45 -222.5t136.5 -173t226.5 -67.5 q133 0 224 67.5t137 173t46 222.5q0 115 -46 220t-137 173t-224 68q-135 0 -226.5 -68t-136.5 -173.5t-45 -219.5zM725 1683l162 367h319l-229 -369z" />
<glyph unicode="&#xd4;" horiz-adv-x="1697" d="M72 760q0 145 49 283.5t146.5 249t242.5 177t340 66.5q193 0 338 -66.5t242.5 -177t146.5 -249t49 -283.5t-49 -284.5t-146.5 -251t-242.5 -178t-338 -66.5q-195 0 -340 66.5t-242.5 178t-146.5 250.5t-49 285zM442 760q0 -117 45 -222.5t136.5 -173t226.5 -67.5 q133 0 224 67.5t137 173t46 222.5q0 115 -46 220t-137 173t-224 68q-135 0 -226.5 -68t-136.5 -173.5t-45 -219.5zM442 1663l271 322h274l270 -322h-266l-141 172l-141 -172h-267z" />
<glyph unicode="&#xd5;" horiz-adv-x="1697" d="M72 760q0 145 49 283.5t146.5 249t242.5 177t340 66.5q193 0 338 -66.5t242.5 -177t146.5 -249t49 -283.5t-49 -284.5t-146.5 -251t-242.5 -178t-338 -66.5q-195 0 -340 66.5t-242.5 178t-146.5 250.5t-49 285zM442 760q0 -117 45 -222.5t136.5 -173t226.5 -67.5 q133 0 224 67.5t137 173t46 222.5q0 115 -46 220t-137 173t-224 68q-135 0 -226.5 -68t-136.5 -173.5t-45 -219.5zM492 1718q0 70 16 142.5t62 122t135 49.5q57 0 98 -18.5t72.5 -43t57 -43t52.5 -18.5q55 0 55 110h179q0 -70 -16.5 -142.5t-62.5 -121.5t-134 -49 q-57 0 -97.5 18.5t-71 43t-57 43t-55.5 18.5q-31 0 -43 -28.5t-12 -82.5h-178z" />
<glyph unicode="&#xd6;" horiz-adv-x="1697" d="M72 760q0 145 49 283.5t146.5 249t242.5 177t340 66.5q193 0 338 -66.5t242.5 -177t146.5 -249t49 -283.5t-49 -284.5t-146.5 -251t-242.5 -178t-338 -66.5q-195 0 -340 66.5t-242.5 178t-146.5 250.5t-49 285zM412 1833q0 76 53 130t139 54q82 0 137.5 -54t55.5 -130 t-55.5 -131t-137.5 -55q-86 0 -139 55t-53 131zM442 760q0 -117 45 -222.5t136.5 -173t226.5 -67.5q133 0 224 67.5t137 173t46 222.5q0 115 -46 220t-137 173t-224 68q-135 0 -226.5 -68t-136.5 -173.5t-45 -219.5zM899 1833q0 76 54.5 130t140.5 54q82 0 137 -54t55 -130 t-55 -131t-137 -55q-86 0 -140.5 55t-54.5 131z" />
<glyph unicode="&#xd7;" horiz-adv-x="1320" d="M238 426l213 211l-213 213l211 211l213 -213l212 213l209 -209l-213 -213l213 -213l-211 -211l-213 213l-210 -211z" />
<glyph unicode="&#xd8;" horiz-adv-x="1697" d="M72 760q0 145 49 283.5t146.5 249t242.5 177t340 66.5q84 0 159.5 -13.5t141.5 -39.5l51 80h324l-142 -222q121 -113 181.5 -266t60.5 -315q0 -145 -49 -284.5t-146.5 -251t-243 -178t-337.5 -66.5q-86 0 -162 13t-141 40l-53 -82h-324l143 225q-121 113 -181 267.5 t-60 316.5zM442 760q0 -74 17.5 -143.5t54.5 -129.5l457 715q-57 18 -121 19q-135 0 -226.5 -68t-136.5 -173t-45 -220zM727 315q57 -18 123 -18q133 0 224 67.5t137 173t46 222.5q0 72 -17 142.5t-54 129.5z" />
<glyph unicode="&#xd9;" horiz-adv-x="1527" d="M135 600v916h354v-916q0 -121 67 -204t208 -83t207.5 83t66.5 204v916h355v-916q0 -168 -52.5 -286.5t-141.5 -192.5t-201.5 -107.5t-233.5 -33.5t-233.5 33.5t-201.5 107.5t-141.5 192.5t-52.5 286.5zM412 2030h319l160 -367l-250 -2z" />
<glyph unicode="&#xda;" horiz-adv-x="1527" d="M135 600v916h354v-916q0 -121 67 -204t208 -83t207.5 83t66.5 204v916h355v-916q0 -168 -52.5 -286.5t-141.5 -192.5t-201.5 -107.5t-233.5 -33.5t-233.5 33.5t-201.5 107.5t-141.5 192.5t-52.5 286.5zM639 1663l162 367h317l-229 -369z" />
<glyph unicode="&#xdb;" horiz-adv-x="1527" d="M135 600v916h354v-916q0 -121 67 -204t208 -83t207.5 83t66.5 204v916h355v-916q0 -168 -52.5 -286.5t-141.5 -192.5t-201.5 -107.5t-233.5 -33.5t-233.5 33.5t-201.5 107.5t-141.5 192.5t-52.5 286.5zM354 1642l273 379h272l272 -379h-266l-141 211l-143 -211h-267z" />
<glyph unicode="&#xdc;" horiz-adv-x="1527" d="M135 600v916h354v-916q0 -121 67 -204t208 -83t207.5 83t66.5 204v916h355v-916q0 -168 -52.5 -286.5t-141.5 -192.5t-201.5 -107.5t-233.5 -33.5t-233.5 33.5t-201.5 107.5t-141.5 192.5t-52.5 286.5zM324 1812q0 76 54 130.5t138 54.5t138.5 -54.5t54.5 -130.5 t-54.5 -131t-138.5 -55t-138 55.5t-54 130.5zM813 1812q0 76 54.5 130.5t138.5 54.5t138 -54.5t54 -130.5t-54 -131t-138 -55t-138.5 55.5t-54.5 130.5z" />
<glyph unicode="&#xdd;" horiz-adv-x="1507" d="M43 1516h387l324 -642l321 642h389l-532 -1004v-512h-354v512zM633 1663l160 367h319l-229 -369z" />
<glyph unicode="&#xde;" horiz-adv-x="1413" d="M131 0v1516h354v-250h299q190 0 317.5 -74t190 -190.5t62.5 -243.5t-62.5 -245t-189.5 -191.5t-318 -73.5h-299v-248h-354zM485 555h297q109 0 162 62.5t53 138.5t-53 139t-162 63h-297v-403z" />
<glyph unicode="&#xdf;" horiz-adv-x="1486" d="M131 0v956q0 104 32 212t103.5 199t188 146.5t284.5 55.5q154 0 285 -51.5t211 -148.5t80 -232q0 -98 -40 -169t-96.5 -115t-107.5 -60v-13l31 -9t75 -31.5t89 -63.5t74.5 -104.5t29.5 -153.5q0 -135 -76.5 -233.5t-209 -151.5t-300.5 -53q-80 0 -131 8l-51 8v287l47 -7 q47 -6 101 -6q141 0 203.5 59.5t62.5 139.5t-58.5 129t-169.5 49h-135v277h111q96 0 148.5 51t52.5 123q0 78 -59.5 129t-157.5 51q-121 0 -195 -83t-74 -237v-958h-348z" />
<glyph unicode="&#xe0;" horiz-adv-x="1366" d="M100 543q0 104 29 204.5t88 181.5t147 129t207 48q106 0 173 -35t101 -70.5t38 -44.5h16v129h350v-1085h-350v129h-16q-4 -8 -38 -45t-100.5 -70.5t-173.5 -33.5q-119 0 -207 48t-147 129t-88 181t-29 205zM332 1599h319l162 -366l-252 -2zM455 543q0 -70 24.5 -134.5 t75.5 -106.5t127 -42t126 42t75.5 106.5t25.5 134.5t-25.5 134t-75.5 106t-126 42t-127 -42t-75.5 -106.5t-24.5 -133.5z" />
<glyph unicode="&#xe1;" horiz-adv-x="1366" d="M100 543q0 104 29 204.5t88 181.5t147 129t207 48q106 0 173 -35t101 -70.5t38 -44.5h16v129h350v-1085h-350v129h-16q-4 -8 -38 -45t-100.5 -70.5t-173.5 -33.5q-119 0 -207 48t-147 129t-88 181t-29 205zM455 543q0 -70 24.5 -134.5t75.5 -106.5t127 -42t126 42 t75.5 106.5t25.5 134.5t-25.5 134t-75.5 106t-126 42t-127 -42t-75.5 -106.5t-24.5 -133.5zM559 1233l162 366h319l-229 -368z" />
<glyph unicode="&#xe2;" horiz-adv-x="1366" d="M100 543q0 104 29 204.5t88 181.5t147 129t207 48q106 0 173 -35t101 -70.5t38 -44.5h16v129h350v-1085h-350v129h-16q-4 -8 -38 -45t-100.5 -70.5t-173.5 -33.5q-119 0 -207 48t-147 129t-88 181t-29 205zM276 1212l271 379h274l271 -379h-267l-141 211l-141 -211h-267z M455 543q0 -70 24.5 -134.5t75.5 -106.5t127 -42t126 42t75.5 106.5t25.5 134.5t-25.5 134t-75.5 106t-126 42t-127 -42t-75.5 -106.5t-24.5 -133.5z" />
<glyph unicode="&#xe3;" horiz-adv-x="1366" d="M100 543q0 104 29 204.5t88 181.5t147 129t207 48q106 0 173 -35t101 -70.5t38 -44.5h16v129h350v-1085h-350v129h-16q-4 -8 -38 -45t-100.5 -70.5t-173.5 -33.5q-119 0 -207 48t-147 129t-88 181t-29 205zM326 1268q0 70 16 142.5t62.5 121.5t134.5 49q57 0 98 -18.5 t72.5 -43t57.5 -43t52 -18.5q53 0 53 111h181q0 -70 -16.5 -142.5t-62.5 -122t-136 -49.5q-55 0 -95.5 18.5t-71 43t-57 43t-55.5 18.5q-31 0 -43 -28.5t-12 -81.5h-178zM455 543q0 -70 24.5 -134.5t75.5 -106.5t127 -42t126 42t75.5 106.5t25.5 134.5t-25.5 134t-75.5 106 t-126 42t-127 -42t-75.5 -106.5t-24.5 -133.5z" />
<glyph unicode="&#xe4;" horiz-adv-x="1366" d="M100 543q0 104 29 204.5t88 181.5t147 129t207 48q106 0 173 -35t101 -70.5t38 -44.5h16v129h350v-1085h-350v129h-16q-4 -8 -38 -45t-100.5 -70.5t-173.5 -33.5q-119 0 -207 48t-147 129t-88 181t-29 205zM246 1380q0 80 53 133.5t139 53.5q82 0 137.5 -53.5 t55.5 -133.5q0 -74 -55.5 -128t-137.5 -54q-86 0 -139 54.5t-53 127.5zM455 543q0 -70 24.5 -134.5t75.5 -106.5t127 -42t126 42t75.5 106.5t25.5 134.5t-25.5 134t-75.5 106t-126 42t-127 -42t-75.5 -106.5t-24.5 -133.5zM733 1380q0 80 54.5 133.5t138.5 53.5t138 -53.5 t54 -133.5q0 -74 -54 -128t-138 -54t-138.5 54.5t-54.5 127.5z" />
<glyph unicode="&#xe5;" horiz-adv-x="1366" d="M100 543q0 104 29 204.5t88 181.5t147 129t207 48q106 0 173 -35t101 -70.5t38 -44.5h16v129h350v-1085h-350v129h-16q-4 -8 -38 -45t-100.5 -70.5t-173.5 -33.5q-119 0 -207 48t-147 129t-88 181t-29 205zM399 1477q0 78 38 142t102.5 102t142.5 38q80 0 143.5 -38 t102.5 -102.5t39 -141.5q0 -78 -39 -142.5t-102.5 -102.5t-143.5 -38q-78 0 -142.5 38t-102.5 102.5t-38 142.5zM455 543q0 -70 24.5 -134.5t75.5 -106.5t127 -42t126 42t75.5 106.5t25.5 134.5t-25.5 134t-75.5 106t-126 42t-127 -42t-75.5 -106.5t-24.5 -133.5zM573 1477 q0 -45 32 -77t77 -32t77 32t32 77t-32 75.5t-77 30.5t-77 -30.5t-32 -75.5z" />
<glyph unicode="&#xe6;" horiz-adv-x="1951" d="M82 311q0 152 111.5 241t338.5 93l240 6v39q0 68 -40 112t-124 44q-57 0 -90 -18.5t-50 -41t-22 -40.5l-6 -19h-329l8 39t34.5 95.5t79 112.5t140.5 94t221 38t212 -35t114.5 -72.5t40.5 -50.5h8q4 10 44 49t118.5 74t203.5 35q147 0 265 -63.5t185.5 -190.5t67.5 -320 v-81h-737q6 -82 64.5 -145.5t160.5 -63.5q78 0 119 28.5t56 57.5l16 28h315l-10 -38q-10 -37 -40 -93.5t-85 -113t-146 -94t-225 -37.5q-119 0 -202.5 29.5t-136 70.5t-78 73.5t-27.5 39.5h-10l-19 -32q-20 -32 -66 -75t-125 -74.5t-198 -31.5q-176 0 -286.5 87t-110.5 244z M418 326q0 -53 43.5 -84t109.5 -31q90 0 145.5 55.5t55.5 143.5v36l-203 -8q-80 -2 -115.5 -33.5t-35.5 -78.5zM1116 653h410q-4 102 -60.5 150.5t-144.5 48.5q-80 0 -139.5 -50.5t-65.5 -148.5z" />
<glyph unicode="&#xe7;" horiz-adv-x="1294" d="M96 543q0 106 35 206.5t105.5 180.5t179 128t256.5 48q150 0 247 -43t154 -106.5t84 -127t34 -106.5l7 -43h-324l-6 22q-6 23 -25.5 53.5t-58.5 53t-104 22.5q-117 0 -176.5 -84.5t-59.5 -203.5t59.5 -204t176.5 -85q66 0 104.5 22.5t58 53t25.5 53.5l6 23h324l-6 -38 q-6 -38 -28.5 -96.5t-71 -120t-130 -107.5t-206.5 -60l-41 -56q18 2 39 2q100 0 159.5 -62.5t59.5 -152.5q0 -66 -36 -124t-111.5 -94t-190.5 -36q-41 0 -81 4.5t-68 8.5l-27 4v174l27 -3q26 -3 62 -6t68 -3q88 0 118 25.5t30 51.5q0 27 -21.5 43.5t-56.5 16.5 q-45 0 -79 -19l-34 -20l-118 123l90 129q-152 27 -252 110.5t-148.5 200.5t-48.5 242z" />
<glyph unicode="&#xe8;" horiz-adv-x="1271" d="M96 545q0 102 33 202.5t100.5 181.5t173 129t248.5 48q156 0 274.5 -66.5t184.5 -194.5t66 -310v-82h-727q6 -84 60 -146.5t155 -62.5q76 0 115.5 27.5t54.5 56.5l14 28h321l-10 -38q-10 -37 -38.5 -93.5t-85 -113t-146.5 -94t-225 -37.5q-145 0 -253 48t-177.5 129 t-103.5 181t-34 207zM301 1602h320l161 -367l-252 -2zM446 655h396q-4 96 -58.5 145.5t-138.5 49.5q-78 0 -134.5 -49.5t-64.5 -145.5z" />
<glyph unicode="&#xe9;" horiz-adv-x="1271" d="M96 545q0 102 33 202.5t100.5 181.5t173 129t248.5 48q156 0 274.5 -66.5t184.5 -194.5t66 -310v-82h-727q6 -84 60 -146.5t155 -62.5q76 0 115.5 27.5t54.5 56.5l14 28h321l-10 -38q-10 -37 -38.5 -93.5t-85 -113t-146.5 -94t-225 -37.5q-145 0 -253 48t-177.5 129 t-103.5 181t-34 207zM446 655h396q-4 96 -58.5 145.5t-138.5 49.5q-78 0 -134.5 -49.5t-64.5 -145.5zM528 1235l162 367h320l-230 -369z" />
<glyph unicode="&#xea;" horiz-adv-x="1271" d="M96 545q0 102 33 202.5t100.5 181.5t173 129t248.5 48q156 0 274.5 -66.5t184.5 -194.5t66 -310v-82h-727q6 -84 60 -146.5t155 -62.5q76 0 115.5 27.5t54.5 56.5l14 28h321l-10 -38q-10 -37 -38.5 -93.5t-85 -113t-146.5 -94t-225 -37.5q-145 0 -253 48t-177.5 129 t-103.5 181t-34 207zM246 1214l270 379h275l270 -379h-266l-142 211l-141 -211h-266zM446 655h396q-4 96 -58.5 145.5t-138.5 49.5q-78 0 -134.5 -49.5t-64.5 -145.5z" />
<glyph unicode="&#xeb;" horiz-adv-x="1271" d="M96 545q0 102 33 202.5t100.5 181.5t173 129t248.5 48q156 0 274.5 -66.5t184.5 -194.5t66 -310v-82h-727q6 -84 60 -146.5t155 -62.5q76 0 115.5 27.5t54.5 56.5l14 28h321l-10 -38q-10 -37 -38.5 -93.5t-85 -113t-146.5 -94t-225 -37.5q-145 0 -253 48t-177.5 129 t-103.5 181t-34 207zM213 1382q0 78 54.5 132.5t140.5 54.5q82 0 137 -54.5t55 -132.5q0 -76 -55 -130t-137 -54q-86 0 -140.5 54.5t-54.5 129.5zM446 655h396q-4 96 -58.5 145.5t-138.5 49.5q-78 0 -134.5 -49.5t-64.5 -145.5zM702 1382q0 78 54.5 132.5t138.5 54.5 t139.5 -54.5t55.5 -132.5q0 -76 -55.5 -130t-139.5 -54t-138.5 54.5t-54.5 129.5z" />
<glyph unicode="&#xec;" horiz-adv-x="636" d="M-31 1599h318l162 -366l-252 -2zM143 0v1085h351v-1085h-351z" />
<glyph unicode="&#xed;" horiz-adv-x="636" d="M143 0v1085h351v-1085h-351zM195 1233l161 366h320l-230 -368z" />
<glyph unicode="&#xee;" horiz-adv-x="636" d="M-88 1212l270 379h275l270 -379h-266l-142 211l-141 -211h-266zM143 0v1085h351v-1085h-351z" />
<glyph unicode="&#xef;" horiz-adv-x="636" d="M-119 1382q0 76 53.5 130.5t139.5 54.5q82 0 137 -54.5t55 -130.5t-55 -131t-137 -55q-86 0 -139.5 55.5t-53.5 130.5zM143 0v1085h351v-1085h-351zM369 1382q0 76 54 130.5t140 54.5q82 0 137.5 -54.5t55.5 -130.5t-55.5 -131t-137.5 -55q-86 0 -140 55.5t-54 130.5z " />
<glyph unicode="&#xf0;" horiz-adv-x="1363" d="M98 543q0 100 32 195.5t93.5 171t153.5 120.5t211 45q74 0 129 -17.5t96 -41.5q-51 74 -117.5 137.5t-136.5 118.5l-227 -135l-109 190l133 78q-78 47 -129 71l-51 23l113 234l47 -17q47 -18 125 -54t172 -93l254 149l112 -188l-165 -98q111 -88 210 -206t160.5 -266.5 t61.5 -330.5q0 -186 -64.5 -332.5t-194.5 -231.5t-327 -85q-150 0 -259.5 48t-181 129t-106.5 181t-35 205zM453 543q0 -70 24.5 -134.5t75.5 -106.5t129 -42t128 42t74.5 106.5t24.5 134.5t-24.5 134t-75.5 106t-127 42q-78 0 -129 -42t-75.5 -106.5t-24.5 -133.5z" />
<glyph unicode="&#xf1;" horiz-adv-x="1261" d="M125 0v1085h350v-153h10q20 33 56.5 74t96.5 70.5t150 29.5q131 0 210 -59.5t114 -150.5t35 -187v-709h-350v643q0 70 -37 124t-121 54q-92 0 -128 -60.5t-36 -131.5v-629h-350zM279 1268q0 70 16 142.5t62 121.5t135 49q55 0 97 -18.5t72.5 -43t57 -43t53.5 -18.5 q53 0 53 111h179q0 -70 -16.5 -142.5t-61.5 -122t-135 -49.5q-55 0 -96.5 18.5t-72 43t-56 43t-54.5 18.5q-31 0 -43 -28.5t-12 -81.5h-178z" />
<glyph unicode="&#xf2;" horiz-adv-x="1351" d="M96 543q0 150 67.5 278.5t198 206.5t314.5 78t314 -78t197.5 -207t67.5 -278q0 -150 -67.5 -279t-197.5 -206.5t-314 -77.5t-314.5 77.5t-198 206.5t-67.5 279zM326 1602h317l162 -369l-250 -2zM446 543q0 -115 60.5 -198t169.5 -83t169 83t60 198t-60.5 197.5 t-168.5 82.5q-109 0 -169.5 -83t-60.5 -197z" />
<glyph unicode="&#xf3;" horiz-adv-x="1351" d="M96 543q0 150 67.5 278.5t198 206.5t314.5 78t314 -78t197.5 -207t67.5 -278q0 -150 -67.5 -279t-197.5 -206.5t-314 -77.5t-314.5 77.5t-198 206.5t-67.5 279zM446 543q0 -115 60.5 -198t169.5 -83t169 83t60 198t-60.5 197.5t-168.5 82.5q-109 0 -169.5 -83t-60.5 -197 zM553 1233l160 369h319l-229 -371z" />
<glyph unicode="&#xf4;" horiz-adv-x="1351" d="M96 543q0 150 67.5 278.5t198 206.5t314.5 78t314 -78t197.5 -207t67.5 -278q0 -150 -67.5 -279t-197.5 -206.5t-314 -77.5t-314.5 77.5t-198 206.5t-67.5 279zM268 1214l271 377h274l270 -377h-266l-139 211l-143 -211h-267zM446 543q0 -115 60.5 -198t169.5 -83t169 83 t60 198t-60.5 197.5t-168.5 82.5q-109 0 -169.5 -83t-60.5 -197z" />
<glyph unicode="&#xf5;" horiz-adv-x="1351" d="M96 543q0 150 67.5 278.5t198 206.5t314.5 78t314 -78t197.5 -207t67.5 -278q0 -150 -67.5 -279t-197.5 -206.5t-314 -77.5t-314.5 77.5t-198 206.5t-67.5 279zM317 1268q0 70 16.5 142.5t62.5 121.5t136 49q55 0 96.5 -18.5t73 -43t58 -43t53.5 -18.5q53 0 53 111h178 q0 -68 -16 -140.5t-62.5 -123t-134.5 -50.5q-55 0 -96 18.5t-71.5 43t-57 44t-53.5 19.5q-33 0 -45 -29.5t-12 -82.5h-179zM446 543q0 -115 60.5 -198t169.5 -83t169 83t60 198t-60.5 197.5t-168.5 82.5q-109 0 -169.5 -83t-60.5 -197z" />
<glyph unicode="&#xf6;" horiz-adv-x="1351" d="M96 543q0 150 67.5 278.5t198 206.5t314.5 78t314 -78t197.5 -207t67.5 -278q0 -150 -67.5 -279t-197.5 -206.5t-314 -77.5t-314.5 77.5t-198 206.5t-67.5 279zM238 1382q0 78 54 131.5t138 53.5t138.5 -53.5t54.5 -131.5q0 -76 -54.5 -131t-138.5 -55t-138 55.5 t-54 130.5zM446 543q0 -115 60.5 -198t169.5 -83t169 83t60 198t-60.5 197.5t-168.5 82.5q-109 0 -169.5 -83t-60.5 -197zM727 1382q0 78 53.5 131.5t139.5 53.5q82 0 137 -53.5t55 -131.5q0 -76 -55 -131t-137 -55q-86 0 -139.5 55.5t-53.5 130.5z" />
<glyph unicode="&#xf7;" horiz-adv-x="1497" d="M238 571v246h1024v-246h-1024zM563 262q0 80 53.5 135.5t137.5 55.5q80 0 134 -55.5t54 -135.5q0 -76 -54 -132t-134 -56q-84 0 -137.5 56t-53.5 132zM563 1124q0 78 53.5 133.5t137.5 55.5q80 0 134 -55.5t54 -133.5t-54 -133t-134 -55q-84 0 -137.5 55.5t-53.5 132.5z " />
<glyph unicode="&#xf8;" horiz-adv-x="1357" d="M98 543q0 150 69 278.5t198 206.5t313 78q96 0 182 -23l47 82h238l-98 -174q102 -78 157.5 -195.5t55.5 -252.5q0 -150 -69 -279t-198 -206.5t-315 -77.5q-104 0 -197 28l-51 -88h-237l106 184q-98 78 -149.5 194t-51.5 245zM449 543q0 -72 24 -133l236 411q-14 2 -31 2 q-106 0 -167.5 -82.5t-61.5 -197.5zM631 268q22 -6 47 -6q109 0 169 83t60 198q0 86 -33 151z" />
<glyph unicode="&#xf9;" horiz-adv-x="1239" d="M125 346v739h346v-661q0 -70 37 -115t110 -45q84 0 120 56.5t36 128.5v636h350v-1085h-350v154h-12q-41 -72 -114.5 -123t-188.5 -51q-119 0 -191.5 50t-107.5 133t-35 183zM272 1599h320l160 -366l-250 -2z" />
<glyph unicode="&#xfa;" horiz-adv-x="1239" d="M125 346v739h346v-661q0 -70 37 -115t110 -45q84 0 120 56.5t36 128.5v636h350v-1085h-350v154h-12q-41 -72 -114.5 -123t-188.5 -51q-119 0 -191.5 50t-107.5 133t-35 183zM500 1233l162 366h317l-229 -368z" />
<glyph unicode="&#xfb;" horiz-adv-x="1239" d="M125 346v739h346v-661q0 -70 37 -115t110 -45q84 0 120 56.5t36 128.5v636h350v-1085h-350v154h-12q-41 -72 -114.5 -123t-188.5 -51q-119 0 -191.5 50t-107.5 133t-35 183zM215 1212l272 379h273l272 -379h-266l-141 211l-144 -211h-266z" />
<glyph unicode="&#xfc;" horiz-adv-x="1239" d="M125 346v739h346v-661q0 -70 37 -115t110 -45q84 0 120 56.5t36 128.5v636h350v-1085h-350v154h-12q-41 -72 -114.5 -123t-188.5 -51q-119 0 -191.5 50t-107.5 133t-35 183zM184 1382q0 76 54.5 130.5t138.5 54.5t138 -54.5t54 -130.5t-54 -131t-138 -55t-138.5 55.5 t-54.5 130.5zM674 1382q0 76 54 130.5t138 54.5t138.5 -54.5t54.5 -130.5t-54.5 -131t-138.5 -55t-138 55.5t-54 130.5z" />
<glyph unicode="&#xfd;" horiz-adv-x="1230" d="M41 1085h350l230 -696l223 696h348l-377 -1028q-55 -154 -130 -255t-187.5 -151t-282.5 -50q-57 0 -91 4l-34 4v278l26 -2q27 -2 68 -2q90 0 149.5 21.5t102.5 87.5zM498 1233l161 366h320l-229 -368z" />
<glyph unicode="&#xfe;" horiz-adv-x="1378" d="M131 -399v1955h350v-600h17q4 8 36.5 45t100 71t172.5 34q121 0 209 -48t146.5 -129t88 -181.5t29.5 -204.5t-29.5 -204.5t-88 -181.5t-146.5 -129t-209 -48q-104 0 -172 34.5t-100.5 70.5t-36.5 44h-17v-528h-350zM471 543q0 -70 24.5 -134.5t76 -106.5t126.5 -42 q76 0 127.5 42t76 106.5t24.5 134.5t-24.5 134t-76 106t-127.5 42t-127 -42t-75.5 -106t-24.5 -134z" />
<glyph unicode="&#xff;" horiz-adv-x="1230" d="M41 1085h350l230 -696l223 696h348l-377 -1028q-55 -154 -130 -255t-187.5 -151t-282.5 -50q-57 0 -91 4l-34 4v278l26 -2q27 -2 68 -2q90 0 149.5 21.5t102.5 87.5zM182 1382q0 76 54.5 130.5t140.5 54.5q82 0 137 -54.5t55 -130.5t-55 -131t-137 -55q-86 0 -140.5 55.5 t-54.5 130.5zM672 1382q0 76 54 130.5t138 54.5t139.5 -54.5t55.5 -130.5t-55.5 -131t-139.5 -55t-138 55.5t-54 130.5z" />
<glyph unicode="&#x152;" horiz-adv-x="2162" d="M72 758q0 141 48 276t146.5 243.5t251 173.5t361.5 65h1157v-308h-713v-293h621v-292h-621v-316h723v-307h-1167q-209 0 -361.5 64.5t-251 173t-146.5 243.5t-48 277zM428 754q0 -109 46 -211.5t145.5 -167t261.5 -64.5h88v889h-88q-162 0 -261.5 -65.5t-145.5 -166.5 t-46 -214z" />
<glyph unicode="&#x153;" horiz-adv-x="2070" d="M98 543q0 150 66.5 278.5t194.5 206.5t309 78q254 0 393 -176q63 86 158.5 131t224.5 45q158 0 276.5 -67.5t185 -194.5t66.5 -309v-82h-729q6 -88 61.5 -148.5t155.5 -60.5q74 0 114 27.5t54 56.5l14 28h322l-10 -38q-10 -37 -39 -93.5t-84 -113t-146.5 -94 t-226.5 -37.5q-133 0 -231.5 45t-163.5 133q-68 -88 -166 -133t-229 -45q-180 0 -308.5 77.5t-195 206.5t-66.5 279zM438 543q0 -115 60.5 -198t169.5 -83q106 0 167.5 83t61.5 198t-61.5 197.5t-167.5 82.5q-109 0 -169.5 -83t-60.5 -197zM1243 664h393q-4 92 -57 137 t-131 45q-80 0 -137.5 -46t-67.5 -136z" />
<glyph unicode="&#x178;" horiz-adv-x="1507" d="M43 1516h387l324 -642l321 642h389l-532 -1004v-512h-354v512zM317 1810q0 78 54.5 132.5t138.5 54.5t138 -54.5t54 -132.5q0 -76 -54 -130t-138 -54t-138.5 54.5t-54.5 129.5zM807 1810q0 78 53 132.5t139 54.5q82 0 137.5 -54.5t55.5 -132.5q0 -76 -55.5 -130 t-137.5 -54q-86 0 -139 54.5t-53 129.5z" />
<glyph unicode="&#x2c6;" horiz-adv-x="1288" d="M238 1137l270 379h274l271 -379h-267l-141 211l-141 -211h-266z" />
<glyph unicode="&#x2dc;" horiz-adv-x="827" d="M57 1268q0 70 16.5 142.5t62.5 121.5t134 49q57 0 98.5 -18.5t73 -43t57 -43t52.5 -18.5q55 0 55 111h178q0 -70 -16 -142.5t-62.5 -122t-134.5 -49.5q-57 0 -97 18.5t-70.5 43t-57.5 43t-55 18.5q-31 0 -43 -28.5t-12 -81.5h-179z" />
<glyph unicode="&#x2000;" horiz-adv-x="1094" />
<glyph unicode="&#x2001;" horiz-adv-x="2189" />
<glyph unicode="&#x2002;" horiz-adv-x="1094" />
<glyph unicode="&#x2003;" horiz-adv-x="2189" />
<glyph unicode="&#x2004;" horiz-adv-x="729" />
<glyph unicode="&#x2005;" horiz-adv-x="547" />
<glyph unicode="&#x2006;" horiz-adv-x="364" />
<glyph unicode="&#x2007;" horiz-adv-x="364" />
<glyph unicode="&#x2008;" horiz-adv-x="273" />
<glyph unicode="&#x2009;" horiz-adv-x="437" />
<glyph unicode="&#x200a;" horiz-adv-x="121" />
<glyph unicode="&#x2010;" horiz-adv-x="1241" d="M238 502v274h768v-274h-768z" />
<glyph unicode="&#x2011;" horiz-adv-x="1241" d="M238 502v274h768v-274h-768z" />
<glyph unicode="&#x2012;" horiz-adv-x="1241" d="M238 502v274h768v-274h-768z" />
<glyph unicode="&#x2013;" horiz-adv-x="1456" d="M236 502v274h983v-274h-983z" />
<glyph unicode="&#x2014;" horiz-adv-x="1779" d="M236 502v274h1306v-274h-1306z" />
<glyph unicode="&#x2018;" horiz-adv-x="518" d="M57 1047q0 49 23.5 107t77 139t139.5 200l14 23h135l-176 -293q78 -4 128.5 -58.5t50.5 -128.5q0 -80 -54.5 -134t-138.5 -54t-141.5 53t-57.5 146z" />
<glyph unicode="&#x2019;" horiz-adv-x="489" d="M59 868l177 291q-78 6 -127.5 59.5t-49.5 129.5q0 80 54.5 134t138.5 54t140.5 -53t56.5 -146q0 -49 -24 -107.5t-76 -140t-138 -198.5l-16 -23h-136z" />
<glyph unicode="&#x201a;" horiz-adv-x="628" d="M176 170q0 78 54.5 132t138.5 54t141 -53t57 -145q0 -47 -23.5 -105.5t-76.5 -140.5t-139 -201l-15 -22h-135l176 293q-78 4 -128 58t-50 130z" />
<glyph unicode="&#x201c;" horiz-adv-x="960" d="M31 1047q0 49 23.5 107t76.5 139t137 200l17 23h135l-176 -293q78 -4 127 -58.5t49 -128.5q0 -80 -53.5 -134t-137.5 -54t-141 53t-57 146zM504 1047q0 49 23.5 107t75.5 139t138 200l17 23h135l-176 -293q78 -4 127 -58.5t49 -128.5q0 -80 -53.5 -134t-139.5 -54 q-84 0 -140 53t-56 146z" />
<glyph unicode="&#x201d;" horiz-adv-x="968" d="M68 868l176 291q-78 6 -127 59.5t-49 129.5q0 80 54 134t138 54t140.5 -53t56.5 -146q0 -49 -23.5 -107.5t-76 -140t-138.5 -198.5l-16 -23h-135zM541 868l176 291q-78 6 -127 59.5t-49 129.5q0 80 54 134t138 54t140.5 -53t56.5 -146q0 -49 -23.5 -107.5t-76 -140 t-138.5 -198.5l-16 -23h-135z" />
<glyph unicode="&#x201e;" horiz-adv-x="1210" d="M178 170q0 78 53.5 132t137.5 54t141 -53t57 -145q0 -47 -23.5 -105.5t-76.5 -140.5t-137 -201l-17 -22h-135l176 293q-78 4 -127 58t-49 130zM649 170q0 78 54.5 132t138.5 54t141 -53t57 -145q0 -47 -23.5 -105.5t-76.5 -140.5t-139 -201l-15 -22h-135l176 293 q-78 4 -128 58t-50 130z" />
<glyph unicode="&#x2022;" horiz-adv-x="1177" d="M238 735q0 98 44 178t123.5 127t182.5 47q102 0 181 -47t125 -126.5t46 -178.5q0 -96 -46 -176t-125 -128t-181 -48t-182 48t-124 128t-44 176z" />
<glyph unicode="&#x2026;" horiz-adv-x="1859" d="M193 168q0 80 53 134t137 54q80 0 134 -54t54 -134q0 -78 -54 -133t-134 -55q-84 0 -137 56t-53 132zM750 168q0 80 53 134t137 54q80 0 134 -54t54 -134q0 -78 -54 -133t-134 -55q-84 0 -137 56t-53 132zM1300 168q0 80 52.5 134t136.5 54q82 0 135 -54t53 -134 q0 -78 -53 -133t-135 -55q-84 0 -136.5 56t-52.5 132z" />
<glyph unicode="&#x202f;" horiz-adv-x="437" />
<glyph unicode="&#x2039;" horiz-adv-x="944" d="M66 629l442 454h362l-434 -452l434 -457h-362z" />
<glyph unicode="&#x203a;" horiz-adv-x="944" d="M74 174l434 453l-434 456h360l445 -454l-445 -455h-360z" />
<glyph unicode="&#x205f;" horiz-adv-x="547" />
<glyph unicode="&#x20ac;" horiz-adv-x="1382" d="M49 549v162h156q-2 23 -2 47q0 23 2 45h-156v162h178q39 154 136.5 283.5t257 208.5t385.5 79q72 0 142.5 -8t116.5 -16l46 -9v-307l-45 8t-109.5 17.5t-128.5 9.5q-168 0 -272.5 -77t-153.5 -189h504v-162h-541q-2 -23 -2 -45q0 -25 2 -47h541v-162h-502 q47 -111 151.5 -187.5t272.5 -76.5q63 0 128 9t110 17l45 8v-307l-46 -8q-46 -8 -117 -16t-142 -8q-225 0 -385 77.5t-257.5 207.5t-136.5 284h-178z" />
<glyph unicode="&#x2122;" horiz-adv-x="1773" d="M76 1327v189h649v-189h-213v-528h-221v528h-215zM827 799v717h297l111 -291l123 291h284v-717h-219v397l-98 -248h-182l-99 252v-401h-217z" />
<glyph unicode="&#x25fc;" horiz-adv-x="1085" d="M0 0v1085h1085v-1085h-1085z" />
</font>
</defs>
</svg>
