<?xml version="1.0" standalone="no"?>
<!DOCTYPE svg PUBLIC "-//W3C//DTD SVG 1.1//EN" "http://www.w3.org/Graphics/SVG/1.1/DTD/svg11.dtd" >
<svg xmlns="http://www.w3.org/2000/svg" xmlns:xlink="http://www.w3.org/1999/xlink" version="1.1">
<metadata></metadata>
<defs>
<font id="be_vietnam_pro_extralightitalic" horiz-adv-x="1605" >
<font-face units-per-em="2048" ascent="1638" descent="-410" />
<missing-glyph horiz-adv-x="471" />
<glyph horiz-adv-x="0" />
<glyph horiz-adv-x="682" />
<glyph unicode="&#xd;" horiz-adv-x="1228" />
<glyph unicode=" "  horiz-adv-x="471" />
<glyph unicode="&#x09;" horiz-adv-x="471" />
<glyph unicode="&#xa0;" horiz-adv-x="471" />
<glyph unicode="!" horiz-adv-x="499" d="M78 72q0 37 25.5 63.5t64.5 26.5q37 0 63.5 -26.5t26.5 -63.5q0 -39 -26.5 -65.5t-63.5 -26.5q-39 0 -64.5 26.5t-25.5 65.5zM168 319l246 1197h110l-258 -1197h-98z" />
<glyph unicode="&#x22;" horiz-adv-x="563" d="M254 1171l80 345h112l-112 -345h-80zM483 1171l80 345h115l-113 -345h-82z" />
<glyph unicode="#" horiz-adv-x="1503" d="M45 446l45 107h301l168 408h-295l45 106h295l184 449h115l-184 -449h401l185 449h114l-186 -449h305l-45 -106h-303l-170 -408h299l-45 -107h-297l-184 -446h-115l184 446h-401l-185 -446h-114l184 446h-301zM506 553h401l168 408h-401z" />
<glyph unicode="$" horiz-adv-x="1300" d="M88 444h115l2 -30q2 -31 16.5 -79t48 -98.5t97 -90.5t163.5 -54l138 649l-60 29q-76 35 -141.5 83t-105 117.5t-39.5 170.5q0 111 61 201t170 143t250 53q18 0 33 -2l38 182h99l-41 -192q104 -20 170.5 -68.5t102.5 -108t50.5 -114.5t16.5 -91l2 -36h-111l-5 40 q-5 40 -27.5 96t-74.5 106.5t-147 72.5l-129 -608l33 -16q82 -37 153.5 -86t117.5 -123t46 -187q0 -123 -69.5 -218t-184 -149t-253.5 -54h-19l-39 -185h-98l41 191q-131 18 -211 69.5t-124 117t-61.5 126.5t-20.5 102zM438 1145q0 -104 63.5 -167t157.5 -108l33 -14 l123 578h-12q-160 0 -262.5 -79t-102.5 -210zM627 86q100 2 188 40t143.5 108.5t55.5 168.5q0 113 -71 177.5t-171 111.5l-16 8z" />
<glyph unicode="%" horiz-adv-x="1589" d="M221 0l1135 1516h110l-1134 -1516h-111zM268 1221q0 76 35 148.5t102.5 119.5t167.5 47q82 0 136.5 -35t80 -91t25.5 -122q0 -76 -35 -148.5t-103.5 -120.5t-168.5 -48q-123 0 -181.5 75.5t-58.5 174.5zM352 1221q0 -66 39 -119t121 -53q70 0 119 36.5t73.5 92 t24.5 110.5q0 68 -38 120t-122 52q-70 0 -118 -35.5t-73.5 -91t-25.5 -112.5zM872 229q0 76 35 149t102.5 120t168.5 47q82 0 136 -35t79.5 -91.5t25.5 -121.5q0 -76 -34.5 -148.5t-103.5 -120.5t-167 -48q-125 0 -183.5 75.5t-58.5 173.5zM956 229q0 -68 39 -120t121 -52 q70 0 119 36t74.5 91.5t25.5 112.5q0 66 -39 119t-120 53q-72 0 -120 -37t-74 -91t-26 -112z" />
<glyph unicode="&#x26;" horiz-adv-x="1335" d="M31 383q0 131 65.5 223t165.5 154.5t207 103.5q-53 88 -83 166t-30 160q0 117 49.5 193.5t127 115.5t161.5 39q82 0 157 -35t121 -101.5t46 -164.5q0 -86 -37 -151.5t-96.5 -114.5t-129 -84t-132.5 -60l-7 -2q12 -18 24.5 -36.5t27.5 -36.5l276 -404q61 96 106.5 229.5 t69.5 303.5h103q-29 -203 -85.5 -356.5t-131.5 -262.5l180 -262h-131l-121 176q-94 -102 -208 -149t-237 -47q-139 0 -241.5 53t-159.5 144t-57 206zM141 391q0 -135 97.5 -224t259.5 -89q109 0 205 45t176 135l-281 414q-23 31 -42 59.5t-38 56.5q-61 -23 -127.5 -55.5 t-123 -79.5t-91.5 -110.5t-35 -151.5zM459 1192q0 -70 28.5 -139.5t79.5 -151.5l25 10q39 14 94 39t108.5 64t88.5 93t35 128q0 102 -69 155.5t-153 53.5q-59 0 -113.5 -27.5t-89 -83t-34.5 -141.5z" />
<glyph unicode="'" horiz-adv-x="331" d="M254 1171l80 345h112l-112 -345h-80z" />
<glyph unicode="(" horiz-adv-x="774" d="M92 375q0 168 36 342t105.5 335.5t170 295t229.5 220.5t285 109l-23 -102q-127 -29 -234.5 -110t-191.5 -202.5t-142.5 -269t-89 -307.5t-30.5 -317q0 -147 33.5 -279.5t98 -233t159.5 -149.5l-23 -102q-129 53 -214 168.5t-127 271.5t-42 330z" />
<glyph unicode=")" horiz-adv-x="837" d="M-76 -403l23 102q127 29 234.5 109.5t191.5 202.5t142 269.5t89 307.5t31 317q0 147 -34 279.5t-98.5 233t-158.5 149.5l23 102q129 -53 214 -169t127 -271.5t42 -329.5q0 -168 -36 -342t-105.5 -336t-170 -295t-229.5 -220t-285 -109z" />
<glyph unicode="*" horiz-adv-x="1015" d="M233 1180l31 96l334 -113l-2 353h98v-353l334 113l29 -96l-332 -107l205 -282l-80 -58l-205 283l-205 -283l-80 58l209 282z" />
<glyph unicode="+" horiz-adv-x="1191" d="M221 590l21 102h329l72 330h100l-69 -330h330l-21 -102h-332l-69 -330h-101l70 330h-330z" />
<glyph unicode="," horiz-adv-x="512" d="M63 -184l107 172q-43 2 -66.5 30.5t-23.5 63.5q0 41 26.5 68.5t69.5 27.5q41 0 70.5 -24.5t29.5 -71.5q0 -39 -28.5 -86t-89.5 -141l-27 -39h-68z" />
<glyph unicode="-" horiz-adv-x="1204" d="M231 590l11 102h762l-11 -102h-762z" />
<glyph unicode="." horiz-adv-x="507" d="M80 82q0 39 27.5 67.5t68.5 28.5q39 0 67.5 -28.5t28.5 -67.5t-28.5 -67.5t-67.5 -28.5q-41 0 -68.5 28.5t-27.5 67.5z" />
<glyph unicode="/" horiz-adv-x="1032" d="M-35 -264l1120 1943h119l-1120 -1943h-119z" />
<glyph unicode="0" horiz-adv-x="1253" d="M121 553q0 131 29.5 270.5t86 266.5t136.5 227t180 159.5t219 59.5q143 0 235.5 -79t136.5 -209t44 -285q0 -133 -30 -271.5t-85 -265.5t-135 -228.5t-180 -159.5t-219 -58q-145 0 -237.5 77.5t-136.5 208.5t-44 287zM238 547q0 -125 31.5 -230.5t98.5 -168t173 -62.5 q96 0 178 53.5t147.5 144.5t111.5 205.5t70.5 237.5t24.5 240q0 125 -31.5 230.5t-98 167.5t-173.5 62q-96 0 -178 -53t-147.5 -144t-111.5 -206t-70.5 -237.5t-24.5 -239.5z" />
<glyph unicode="1" horiz-adv-x="677" d="M238 0l270 1268h-264l16 67l51 11q113 20 172.5 56t110.5 93l16 21h64l-322 -1516h-114z" />
<glyph unicode="2" horiz-adv-x="1243" d="M12 0l19 86l463 369q109 86 210 166.5t183 162.5t130 169t48 184q0 135 -90 214t-230 79q-111 0 -182 -39t-112 -95.5t-60.5 -113t-24.5 -94.5l-6 -37h-110l5 35q5 34 20.5 89.5t48 118t88 117.5t138.5 90t202 35q129 0 225 -51t150.5 -140.5t54.5 -201.5 q0 -145 -84 -268t-224.5 -243t-310.5 -251l-348 -272h829l-22 -109h-1010z" />
<glyph unicode="3" horiz-adv-x="1249" d="M80 440h110l4 -36q3 -35 21 -88.5t60 -106.5t119 -90t198 -37q137 0 230 51t141.5 133t48.5 176q0 84 -36 141.5t-91.5 91.5t-119 49t-120.5 15h-172l21 99h186q109 0 199 35.5t144 105.5t54 170q0 127 -87 206t-236 79q-109 0 -179.5 -33t-110.5 -81t-58.5 -95 t-23.5 -80l-5 -33h-109l8 43q7 43 31.5 106.5t76.5 126t142 105.5t232 43q135 0 232 -50t149.5 -135t52.5 -194q0 -84 -29.5 -146.5t-74 -104.5t-90.5 -66.5t-79.5 -36.5t-41.5 -15v-8q8 -2 47 -20.5t87 -58t82.5 -105.5t34.5 -162q0 -111 -61 -215t-181 -171.5t-294 -67.5 q-129 0 -218 33.5t-145.5 86t-87 110.5t-44 111.5t-15.5 86.5z" />
<glyph unicode="4" horiz-adv-x="1302" d="M47 381l23 104l950 1031h131l-219 -1035h264l-22 -102h-265l-80 -379h-114l80 379zM197 481h620l187 875z" />
<glyph unicode="5" horiz-adv-x="1316" d="M129 442h109l3 -36q3 -37 18 -90.5t53 -107.5t109 -90t185 -36q152 0 255.5 69.5t156.5 177t53 220.5q0 96 -40 179t-121 135t-203 52q-106 0 -184.5 -33.5t-126.5 -76.5t-72 -77l-23 -34h-104l245 822h807l-20 -105h-713l-166 -553h4l24 24q23 23 69.5 55t116 55.5 t159.5 23.5q156 0 258 -66.5t153.5 -173t51.5 -227.5q0 -102 -37 -203.5t-110.5 -184.5t-182.5 -132t-252 -49q-121 0 -204 33.5t-135 86t-80.5 111.5t-40 111.5t-13.5 85.5z" />
<glyph unicode="6" horiz-adv-x="1353" d="M160 530q0 137 40 279.5t115.5 272.5t186 232.5t251 162t308.5 59.5q127 0 195 -16l67 -17l-23 -106l-66 17q-65 16 -173 16q-147 0 -271 -54.5t-221.5 -148.5t-165 -216t-104.5 -255q31 53 85 110.5t138 97.5t203 40q158 0 260 -68t152.5 -176.5t50.5 -227.5 q0 -100 -34 -198t-100.5 -178t-166 -128t-228.5 -48q-174 0 -284.5 75.5t-162.5 200.5t-52 274zM289 459q0 -96 41 -182.5t122.5 -140.5t206.5 -54q135 0 227.5 66.5t139.5 170t47 211.5q0 96 -39 181.5t-116.5 139.5t-198.5 54q-141 0 -236.5 -66.5t-144.5 -169t-49 -210.5 z" />
<glyph unicode="7" horiz-adv-x="1142" d="M233 1409l23 107h987l-18 -93l-51 -49q-50 -49 -131.5 -140t-179 -218t-194 -286t-174 -343t-120.5 -387h-121q47 215 128 404.5t179 352.5t197.5 292t183.5 220t135 140h-844z" />
<glyph unicode="8" horiz-adv-x="1222" d="M92 393q0 92 39 180.5t118 156t195 99.5v9q-96 49 -146 131t-50 172q0 100 56 190t163.5 147.5t263.5 57.5q147 0 246.5 -51t152 -134t52.5 -180q0 -113 -74 -215t-225 -147v-10q121 -53 177 -150.5t56 -206.5q0 -113 -60.5 -219t-178 -174.5t-291.5 -68.5 q-168 0 -277.5 59t-163 153.5t-53.5 200.5zM207 406q0 -82 41 -157t124 -121t208 -46q139 0 232 53t140 137t47 172q0 84 -40.5 158t-122.5 120t-207 46q-141 0 -234.5 -54.5t-140.5 -137t-47 -170.5zM362 1141q0 -70 38 -133.5t113.5 -102.5t188.5 -39q123 0 205 43 t122 110.5t40 139.5q0 70 -37 133.5t-112.5 102.5t-188.5 39q-123 0 -205 -43t-123 -111t-41 -139z" />
<glyph unicode="9" horiz-adv-x="1353" d="M123 12l22 107l65 -17q64 -16 173 -16q150 0 273.5 54.5t221 148.5t165 216t104.5 255q-31 -53 -86 -110.5t-138 -97.5t-202 -40q-158 0 -261.5 67.5t-153.5 176t-50 227.5q0 100 35 198.5t101.5 178.5t165.5 128t228 48q174 0 284 -76t163 -200.5t53 -274.5 q0 -137 -40 -279.5t-116.5 -272.5t-186 -232.5t-251 -161.5t-309.5 -59q-125 0 -193 16zM373 985q0 -96 38 -182t116.5 -139.5t199.5 -53.5q139 0 235.5 66.5t144.5 170t48 210.5q0 96 -40 182t-122 140.5t-207 54.5q-135 0 -227 -67t-139 -170t-47 -212z" />
<glyph unicode=":" horiz-adv-x="512" d="M80 76q0 39 26.5 66.5t67.5 27.5t68.5 -27.5t27.5 -66.5t-27.5 -67.5t-68.5 -28.5t-67.5 28.5t-26.5 67.5zM279 1012q0 39 27.5 66.5t68.5 27.5q39 0 67.5 -27.5t28.5 -66.5q0 -41 -28.5 -69t-67.5 -28q-41 0 -68.5 28t-27.5 69z" />
<glyph unicode=";" horiz-adv-x="514" d="M61 -190l107 172q-43 2 -66.5 29.5t-23.5 64.5q0 39 26.5 66.5t71.5 27.5q39 0 68.5 -23.5t29.5 -70.5q0 -39 -27.5 -87t-90.5 -141l-25 -38h-70zM279 1012q0 39 27.5 66.5t68.5 27.5q39 0 67.5 -27.5t28.5 -66.5q0 -41 -28.5 -69t-67.5 -28q-41 0 -68.5 28t-27.5 69z " />
<glyph unicode="&#x3c;" horiz-adv-x="1120" d="M209 643l14 74l848 383l-22 -117l-703 -313l569 -314l-24 -96z" />
<glyph unicode="=" horiz-adv-x="1406" d="M174 375l21 102h976l-20 -102h-977zM270 827l21 103h977l-21 -103h-977z" />
<glyph unicode="&#x3e;" horiz-adv-x="1120" d="M172 260l25 117l700 313l-567 314l22 96l684 -383l-16 -74z" />
<glyph unicode="?" horiz-adv-x="1196" d="M246 1053l5 35q5 34 21.5 89.5t49 117t88 116.5t138.5 90t200 35q125 0 221 -50t150.5 -137t54.5 -202q0 -104 -40 -183t-102.5 -139.5t-135.5 -113t-139.5 -103.5t-112.5 -111.5t-56 -140.5l-6 -37h-109l4 39q12 94 59.5 164t113 125t136 105.5t133 105.5t101.5 123 t39 160q0 133 -91 212t-227 79q-109 0 -179 -39t-111 -95.5t-61.5 -113t-27.5 -94.5l-6 -37h-110zM403 72q0 37 26 63.5t65 26.5t65.5 -26.5t26.5 -63.5q0 -39 -26.5 -65.5t-65.5 -26.5t-65 27.5t-26 64.5z" />
<glyph unicode="@" horiz-adv-x="1914" d="M121 582q0 170 59.5 336.5t176 304t287.5 220.5t394 83q205 0 353.5 -64.5t243 -172t139.5 -241t45 -268.5q0 -111 -28 -213t-80 -183t-123.5 -127t-162.5 -46q-84 0 -130 31.5t-67.5 72.5t-26.5 73l-5 32h-8l-20 -32q-19 -32 -59 -73t-102.5 -72.5t-148.5 -31.5 q-104 0 -174 51t-103.5 136t-33.5 184q0 92 28.5 186t84 172t135 125t178.5 47q84 0 137 -30.5t84 -70.5t43 -70l12 -30h8l39 185h103l-88 -418q-14 -68 -20.5 -134.5t3 -120.5t41 -88t95.5 -34q82 0 146 67.5t102 177t38 234.5q0 119 -40 234.5t-121.5 209t-211 150 t-307.5 56.5q-199 0 -350 -74t-253.5 -197t-155 -272.5t-52.5 -300.5q0 -133 41 -256t125 -218.5t212 -151.5t300 -56q109 0 201 18.5t160.5 41t106.5 40.5l38 19l35 -89l-38 -19q-38 -19 -109.5 -44t-170 -44.5t-221.5 -19.5q-199 0 -347 63.5t-244.5 173.5t-144.5 249 t-48 289zM647 588q0 -76 24.5 -141.5t76 -106.5t131.5 -41q78 0 139 39t104 102.5t64.5 140t21.5 152.5t-23.5 141.5t-74.5 106.5t-131 41q-104 0 -178 -66.5t-114 -166t-40 -201.5z" />
<glyph unicode="A" horiz-adv-x="1378" d="M-12 0l864 1516h139l221 -1516h-114l-62 422h-680l-237 -422h-131zM416 524h606l-121 852z" />
<glyph unicode="B" horiz-adv-x="1327" d="M66 0l321 1516h526q127 0 210 -48.5t123 -124t40 -163.5q0 -82 -33.5 -162t-101.5 -143.5t-164 -94.5l-2 -8q109 -35 165 -118t56 -187q0 -80 -33.5 -162t-101 -151.5t-166 -111.5t-227.5 -42h-612zM203 104h481q131 0 222 54.5t138.5 137.5t47.5 167q0 102 -74 180 t-230 78h-454zM354 819h451q117 0 198.5 53.5t126 133t44.5 161.5q0 96 -66 170t-205 74h-422z" />
<glyph unicode="C" horiz-adv-x="1529" d="M133 643q0 158 51.5 315.5t152.5 288.5t250.5 210t346.5 79q137 0 229 -37t150.5 -94t89.5 -122.5t43 -123t14 -94.5l2 -37h-116l-2 40q-3 40 -20 100.5t-60 120t-124 100.5t-212 41q-166 0 -293 -70t-212 -183.5t-129 -252t-44 -275.5q0 -150 52 -277.5t159.5 -206.5 t273.5 -79q129 0 220.5 41t152.5 100.5t97 120t51 100.5l16 39h119l-13 -37q-12 -36 -40.5 -93.5t-78 -123t-123 -123t-174 -94t-233.5 -36.5q-154 0 -265.5 54t-185 146t-109.5 212t-36 251z" />
<glyph unicode="D" horiz-adv-x="1454" d="M66 0l321 1516h363q162 0 280.5 -51.5t196.5 -139.5t115.5 -201.5t37.5 -238.5q0 -156 -57 -312.5t-169 -285.5t-274.5 -208t-371.5 -79h-442zM203 104h307q182 0 321.5 70t235.5 183.5t146.5 249.5t50.5 272q0 141 -56.5 262t-172.5 195.5t-294 74.5h-262z" />
<glyph unicode="E" horiz-adv-x="1173" d="M66 0l321 1516h873l-23 -105h-758l-123 -584h660l-23 -104h-659l-131 -619h768l-21 -104h-884z" />
<glyph unicode="F" horiz-adv-x="1179" d="M66 0l321 1516h891l-23 -105h-776l-127 -604h676l-20 -105h-678l-150 -702h-114z" />
<glyph unicode="G" horiz-adv-x="1554" d="M133 641q0 160 51.5 317.5t152.5 288.5t250.5 210t346.5 79q137 0 229 -37t150.5 -94t89.5 -122.5t43 -123t14 -94.5l2 -37h-116l-2 40q-3 40 -20 100.5t-60 120t-124 100.5t-212 41q-166 0 -293 -70t-212 -183.5t-129 -252t-44 -277.5q0 -147 52 -275t161.5 -207 t279.5 -79q127 0 227.5 48t171 130t113.5 185.5t58 212.5h-469l20 100h578l-17 -109q-18 -131 -70 -251.5t-137 -216t-205 -150.5t-276 -55t-269.5 53t-187 146t-110.5 212t-37 250z" />
<glyph unicode="H" horiz-adv-x="1376" d="M66 0l321 1516h115l-144 -676h789l143 676h115l-322 -1516h-114l157 737h-788l-158 -737h-114z" />
<glyph unicode="I" horiz-adv-x="473" d="M66 0l321 1516h115l-322 -1516h-114z" />
<glyph unicode="J" horiz-adv-x="921" d="M-6 -4l20 104l52 -7q53 -7 110 -7q174 0 286.5 100.5t147.5 266.5l226 1063h114l-225 -1063q-47 -225 -191.5 -349t-369.5 -124q-68 0 -119 8z" />
<glyph unicode="K" horiz-adv-x="1218" d="M66 0l321 1516h115l-146 -691l840 688h164l-914 -741l639 -772h-141l-608 735l-156 -735h-114z" />
<glyph unicode="L" horiz-adv-x="1196" d="M66 0l321 1516h115l-299 -1412h792l-22 -104h-907z" />
<glyph unicode="M" horiz-adv-x="1746" d="M66 0l321 1516h154l325 -992l750 992h160l-322 -1516h-115l287 1348l-725 -957h-106l-324 971l-291 -1362h-114z" />
<glyph unicode="N" horiz-adv-x="1482" d="M66 0l321 1516h111l618 -1321l281 1321h114l-321 -1516h-109l-620 1321l-281 -1321h-114z" />
<glyph unicode="O" d="M133 633q0 160 53.5 319.5t155.5 291.5t250.5 212t339.5 80q154 0 266.5 -53t185 -145.5t108.5 -209t36 -245.5q0 -160 -53.5 -320t-154.5 -292t-250 -211.5t-339 -79.5q-154 0 -267.5 53t-186 144t-108.5 209t-36 247zM250 633q0 -143 52 -268t158.5 -202t272.5 -77 q162 0 288 70.5t213 187.5t132 258t45 281q0 143 -51 268t-157.5 202t-272.5 77q-162 0 -288 -72t-214 -188.5t-133 -257t-45 -279.5z" />
<glyph unicode="P" horiz-adv-x="1247" d="M66 0l321 1516h416q158 0 262 -60.5t155.5 -156t51.5 -203.5q0 -94 -38 -187.5t-111.5 -169t-181 -121t-247.5 -45.5h-391l-123 -573h-114zM326 678h374q147 0 249 62.5t154 156.5t52 193q0 82 -39 155.5t-118.5 119.5t-202.5 46h-316z" />
<glyph unicode="Q" horiz-adv-x="1622" d="M133 633q0 160 53.5 319.5t155.5 291.5t250.5 212t339.5 80q154 0 266.5 -53t185 -145.5t108.5 -209t36 -245.5q0 -176 -65.5 -354.5t-188.5 -311.5l182 -217h-139l-123 143q-92 -76 -208 -119.5t-255 -43.5q-154 0 -267.5 53t-186 144t-108.5 209t-36 247zM250 633 q0 -143 52 -268t158.5 -202t272.5 -77q117 0 214 39t175 102l-248 295l82 70l244 -289q102 119 156.5 272.5t54.5 307.5q0 143 -51 268t-157.5 202t-272.5 77q-162 0 -288 -72t-214 -188.5t-133 -257t-45 -279.5z" />
<glyph unicode="R" horiz-adv-x="1261" d="M66 0l321 1516h410q147 0 242.5 -54.5t142.5 -140.5t47 -184q0 -102 -51.5 -201.5t-149.5 -168.5t-240 -83l259 -684h-119l-256 680h-346l-146 -680h-114zM348 784h383q123 0 208 52.5t129 133.5t44 163q0 74 -34 136t-104 102t-179 40h-316z" />
<glyph unicode="S" horiz-adv-x="1302" d="M88 442h115l3 -36q3 -35 21.5 -88.5t62.5 -106.5t124 -89t209 -36q102 0 191 38t144.5 108.5t55.5 168.5q0 113 -71 177.5t-171 111.5l-164 78q-76 37 -141.5 84t-105 116.5t-39.5 172.5q0 111 61 200t170 142t250 53q145 0 235 -43t139.5 -107.5t70 -128t23.5 -106.5 l3 -43h-111l-4 33q-4 33 -20.5 81t-54 97t-106.5 82t-175 33q-160 0 -262.5 -80t-102.5 -209q0 -106 63.5 -169t157.5 -106l154 -71q82 -39 153.5 -88t117.5 -123t46 -185q0 -125 -69.5 -220t-184 -149t-253.5 -54q-137 0 -231.5 33.5t-153 86t-90 111.5t-44 112.5 t-14.5 86.5z" />
<glyph unicode="T" horiz-adv-x="1310" d="M260 1411l23 105h1173l-22 -105h-539l-299 -1411h-115l299 1411h-520z" />
<glyph unicode="U" horiz-adv-x="1445" d="M184 563l203 953h115l-203 -961q-15 -69 -15 -130q0 -124 63 -209q93 -126 302 -126q137 0 240.5 57.5t170 160t93.5 235.5l207 973h115l-207 -973q-33 -162 -114 -289t-209 -200.5t-306 -73.5q-182 0 -295 78q-114 79 -154 211q-22 72 -22 152q0 68 16 142z" />
<glyph unicode="V" horiz-adv-x="1345" d="M254 1516h115l194 -1377l785 1377h129l-865 -1516h-137z" />
<glyph unicode="W" horiz-adv-x="2007" d="M274 1516h111l84 -1344l664 1344h118l97 -1344l645 1344h125l-738 -1516h-129l-94 1333l-657 -1333h-131z" />
<glyph unicode="X" horiz-adv-x="1333" d="M-16 0l682 774l-338 742h123l301 -668l587 668h146l-676 -771l336 -745h-119l-303 674l-594 -674h-145z" />
<glyph unicode="Y" horiz-adv-x="1312" d="M256 1516h117l295 -838l649 838h137l-745 -957l-119 -559h-115l119 561z" />
<glyph unicode="Z" horiz-adv-x="1290" d="M18 0l21 94l1147 1317h-869l23 105h1018l-21 -95l-1144 -1312h868l-25 -109h-1018z" />
<glyph unicode="[" horiz-adv-x="886" d="M-16 -391l440 2079h547l-21 -101h-434l-399 -1876h436l-23 -102h-546z" />
<glyph unicode="\" horiz-adv-x="993" d="M272 1679h103l295 -1943h-103z" />
<glyph unicode="]" horiz-adv-x="837" d="M-86 -391l20 102h437l397 1876h-434l22 101h547l-442 -2079h-547z" />
<glyph unicode="^" horiz-adv-x="1005" d="M348 1194l301 322h107l166 -322h-103l-125 246l-225 -246h-121z" />
<glyph unicode="_" horiz-adv-x="1398" d="M84 -100l12 100h955l-11 -100h-956z" />
<glyph unicode="`" horiz-adv-x="413" d="M328 1591h112l119 -329l-92 -2z" />
<glyph unicode="a" horiz-adv-x="1245" d="M113 449q0 117 37.5 233.5t110.5 211.5t177.5 153.5t239.5 58.5q104 0 173 -35t109.5 -82t59 -88t22.5 -51h11l49 235h115l-234 -1085h-113l41 188h-8l-23 -32q-24 -31 -71 -72t-119 -72.5t-168 -31.5q-137 0 -228 66.5t-136 173t-45 229.5zM223 446q0 -96 33 -179 t102.5 -134t176.5 -51q109 0 192.5 50t143 132t91 181.5t31.5 195.5q0 98 -32.5 180t-102 132.5t-178.5 50.5t-193 -49.5t-143 -132.5t-90 -181t-31 -195z" />
<glyph unicode="b" horiz-adv-x="1275" d="M66 0l333 1556h113l-141 -659h8l23 32q24 32 71 72.5t119 72.5t168 32q137 0 228 -66.5t136 -173t45 -229.5q0 -117 -37.5 -233.5t-110.5 -212t-177.5 -153.5t-239.5 -58q-104 0 -173 34.5t-109.5 81.5t-59 88t-22.5 52h-11l-49 -236h-114zM289 444q0 -98 32.5 -180 t102 -132t178.5 -50t193 49t143 132t90 181.5t31 194.5t-33 179t-102.5 134.5t-175.5 51.5q-109 0 -193 -50.5t-143.5 -132.5t-91 -181t-31.5 -196z" />
<glyph unicode="c" horiz-adv-x="1179" d="M115 451q0 127 39 243.5t113.5 209.5t184 147.5t250.5 54.5q119 0 194 -37t115 -92t56 -110.5t19 -92.5l4 -37h-109l-2 27t-14.5 66.5t-42 79.5t-85 67t-143.5 27q-150 0 -253 -78t-158.5 -202t-55.5 -267q0 -100 35 -185.5t106.5 -137.5t182.5 -52q109 0 179.5 40 t111.5 93t57 93l16 40h115l-14 -37q-15 -37 -46.5 -92t-88 -110.5t-139 -92t-197.5 -36.5q-147 0 -242.5 65.5t-141.5 173t-46 232.5z" />
<glyph unicode="d" horiz-adv-x="1280" d="M113 449q0 117 37.5 233.5t110.5 211.5t177.5 153.5t239.5 58.5q104 0 173 -35t109.5 -82t59 -88t22.5 -51h11l151 706h113l-334 -1556h-113l41 188h-8l-23 -32q-24 -31 -71 -72t-119 -72.5t-168 -31.5q-137 0 -228 66.5t-136 173t-45 229.5zM223 446q0 -96 33 -179 t103 -134t176 -51q109 0 192.5 50t143 132t91 181.5t31.5 195.5q0 98 -32.5 180t-102.5 132.5t-178 50.5q-109 0 -193 -49.5t-143 -132.5t-90 -181t-31 -195z" />
<glyph unicode="e" horiz-adv-x="1183" d="M111 444q0 119 39.5 236t115.5 213t183.5 154.5t242.5 58.5q129 0 214 -48t129 -130q45 -82 53 -182q2 -27 2 -55q0 -74 -17 -150l-4 -25h-842q-3 -34 -3 -66q0 -79 20 -149q30 -98 105 -158.5t198 -60.5q102 0 171.5 35t112.5 81t61 82l19 35h109l-16 -33 q-15 -34 -47.5 -84.5t-89 -100.5t-136 -83.5t-190.5 -33.5q-147 0 -242.5 65.5t-141.5 171t-46 227.5zM246 610h729q7 45 7 87q0 55 -12 105q-20 90 -88.5 146t-195.5 56q-113 0 -202 -53.5t-149 -144t-89 -196.5z" />
<glyph unicode="f" horiz-adv-x="708" d="M135 0l211 991h-199l19 94h201l39 181q29 139 113.5 225t238.5 86q41 0 74 -6l34 -6l-18 -92l-32 5t-64 5q-104 0 -158.5 -61.5t-77.5 -159.5l-37 -177h256l-20 -94h-256l-209 -991h-115z" />
<glyph unicode="g" horiz-adv-x="1267" d="M25 -100h112l2 -22q2 -23 15.5 -58t45 -69t91 -56.5t153.5 -22.5q147 0 239.5 58.5t143 149.5t70.5 188l27 127h-9l-23 -31q-22 -31 -68 -70t-117.5 -68.5t-171.5 -29.5q-141 0 -234.5 64.5t-139.5 169t-46 227.5q0 115 37.5 229.5t111.5 209.5t180.5 152.5t241.5 57.5 q109 0 181.5 -38t113.5 -86t57 -86l17 -38h10l47 227h113l-217 -1024q-53 -246 -198 -368.5t-368 -122.5q-127 0 -207.5 34t-124.5 83t-61.5 97t-20.5 82zM227 467q0 -96 35 -181t107.5 -136.5t183.5 -51.5q109 0 193.5 48.5t144 128t90.5 175t31 189.5q0 98 -35 181 t-106.5 133.5t-184.5 50.5q-109 0 -193.5 -47.5t-144 -126t-90.5 -174t-31 -189.5z" />
<glyph unicode="h" horiz-adv-x="1159" d="M66 0l331 1556h115l-145 -673h8q14 23 41.5 59.5t73 74.5t107.5 63.5t142 25.5q119 0 196 -57.5t105 -152.5q15 -51 16 -106q0 -49 -12 -102l-145 -688h-113l148 696q9 40 9 78q1 39 -9 75q-18 71 -72.5 114t-150.5 43q-113 0 -196 -62.5t-136 -163t-80 -219.5l-119 -561 h-114z" />
<glyph unicode="i" horiz-adv-x="468" d="M55 0l232 1085h110l-231 -1085h-111zM313 1378q0 37 26 63.5t64 26.5q39 0 66 -26.5t27 -63.5t-27 -63.5t-66 -26.5t-64.5 26.5t-25.5 63.5z" />
<glyph unicode="j" horiz-adv-x="552" d="M-268 -412l20 99l31 -5q31 -4 67 -4q109 0 178.5 69t96.5 185l246 1153h110l-248 -1159q-20 -96 -68 -175t-127 -126t-192 -47q-45 0 -80 5zM397 1378q0 37 26 63.5t64 26.5q37 0 65 -26.5t28 -63.5t-28 -63.5t-65 -26.5q-39 0 -64.5 26.5t-25.5 63.5z" />
<glyph unicode="k" horiz-adv-x="1050" d="M66 0l331 1556h115l-201 -933l609 462h170l-660 -497l434 -588h-137l-424 578l-123 -578h-114z" />
<glyph unicode="l" horiz-adv-x="475" d="M66 0l333 1556h113l-332 -1556h-114z" />
<glyph unicode="m" horiz-adv-x="1830" d="M55 0l232 1085h112l-43 -202h9q23 37 71.5 89t124.5 93t176 41q123 0 200 -69.5t89 -190.5q33 55 89 115.5t137 102.5t184 42q106 0 179 -51t101 -143q15 -48 16 -104q0 -53 -14 -112l-147 -696h-113l146 694q13 55 13 102q1 76 -33 126q-54 82 -177 82 q-109 0 -194 -62.5t-143 -168t-87 -236.5l-115 -537h-112l147 694q12 53 12 98q1 76 -33 128q-52 84 -175 84q-109 0 -195 -65t-144.5 -171t-84.5 -233l-113 -535h-115z" />
<glyph unicode="n" horiz-adv-x="1148" d="M55 0l232 1085h114l-45 -202h9q14 23 41.5 59.5t72.5 74.5t107.5 63.5t142.5 25.5q119 0 195.5 -57.5t105.5 -152.5q16 -51 16 -107q0 -48 -12 -101l-145 -688h-113l148 696q9 40 9 78q1 39 -9 75q-18 71 -72.5 114t-151.5 43q-113 0 -195.5 -62.5t-136 -163 t-79.5 -219.5l-119 -561h-115z" />
<glyph unicode="o" horiz-adv-x="1226" d="M113 451q0 115 38.5 230.5t112.5 211.5t181.5 154.5t246.5 58.5q147 0 242.5 -66.5t141.5 -173t46 -231.5q0 -115 -39 -230.5t-113.5 -212t-182 -154.5t-244.5 -58q-147 0 -242.5 66.5t-141.5 174t-46 230.5zM223 453q0 -98 35 -182.5t106.5 -136.5t182.5 -52 q109 0 195.5 49t146 130t90.5 178.5t31 193.5q0 98 -35 182t-105.5 136.5t-181.5 52.5t-196.5 -49.5t-146 -130.5t-91.5 -178t-31 -193z" />
<glyph unicode="p" horiz-adv-x="1275" d="M-20 -399l319 1484h113l-41 -188h8l23 32q24 32 71 72.5t119 72.5t168 32q137 0 228 -66.5t136 -173t45 -229.5q0 -117 -37.5 -233.5t-110.5 -212t-177.5 -153.5t-239.5 -58q-104 0 -173 34.5t-109.5 81.5t-59 88t-22.5 52h-11l-135 -635h-114zM289 444q0 -98 32.5 -180 t102.5 -132t178 -50q109 0 193 49t143 132t90 181.5t31 194.5t-33 179t-102.5 134.5t-175.5 51.5q-109 0 -193 -50.5t-143.5 -132.5t-91 -181.5t-31.5 -195.5z" />
<glyph unicode="q" horiz-adv-x="1277" d="M113 449q0 117 37.5 233.5t110.5 211.5t177.5 153.5t239.5 58.5q104 0 173 -35t109.5 -82t59 -88t22.5 -51h11l49 235h115l-320 -1484h-113l127 587h-10l-23 -32q-22 -31 -69 -72t-119 -72.5t-168 -31.5q-137 0 -228 66.5t-136 173t-45 229.5zM223 446q0 -96 33 -179 t103 -134t176 -51q109 0 192.5 50t143 132t91 181.5t31.5 195.5q0 98 -32.5 180t-102.5 132.5t-178 50.5q-109 0 -193 -49.5t-143 -132.5t-90 -181t-31 -195z" />
<glyph unicode="r" horiz-adv-x="778" d="M55 0l232 1085h114l-32 -145h8q47 63 125 114.5t194 51.5q39 0 70 -4l31 -4l-23 -109l-30 4q-29 4 -64 4q-84 0 -161 -41t-136 -136t-94 -257l-119 -563h-115z" />
<glyph unicode="s" horiz-adv-x="983" d="M51 317h113l4 -35q4 -36 27.5 -82t80 -82t160.5 -36q121 0 200 57.5t79 147.5q0 76 -48.5 116.5t-113.5 71.5l-125 60q-92 41 -152.5 103t-60.5 165q0 84 43 152.5t124 109.5t191 41q106 0 173 -32t104 -78t53.5 -92t20.5 -78l4 -31h-111l-5 31q-5 32 -28.5 74t-74 74 t-140.5 32q-109 0 -176 -52.5t-67 -140.5q0 -68 43 -108.5t106 -69.5l125 -57q53 -25 105.5 -60t87 -88t34.5 -135q0 -90 -49 -162t-138 -112.5t-206 -40.5t-190.5 33.5t-113.5 85t-56.5 101.5t-19.5 84z" />
<glyph unicode="t" horiz-adv-x="778" d="M174 991l21 94h188l59 275h111l-57 -275h258l-21 -94h-258l-156 -731q-7 -33 -7 -60q0 -44 18 -74q30 -48 125 -48q47 0 93 8l46 8l-21 -96l-43 -9t-102 -9q-136 0 -192 78q-36 51 -36 128q0 42 11 93l151 712h-188z" />
<glyph unicode="u" horiz-adv-x="1132" d="M139 397l146 688h114l-147 -690q-12 -59 -12 -107q0 -76 30 -126q49 -82 179 -82q119 0 205.5 66.5t142 176t82.5 234.5l110 528h115l-230 -1085h-114l41 197h-8q-23 -33 -71 -85.5t-123.5 -92t-184.5 -39.5q-162 0 -239 112q-50 73 -50 180q0 58 14 125z" />
<glyph unicode="v" horiz-adv-x="1081" d="M164 1085h115l163 -946l572 946h129l-658 -1085h-129z" />
<glyph unicode="w" horiz-adv-x="1683" d="M164 1085h112l109 -923l504 923h119l110 -923l502 923h125l-594 -1085h-123l-110 918l-502 -918h-123z" />
<glyph unicode="x" horiz-adv-x="1118" d="M-31 0l502 559l-250 526h121l219 -460l414 460h145l-506 -559l252 -526h-121l-219 461l-413 -461h-144z" />
<glyph unicode="y" horiz-adv-x="1097" d="M-139 -393l20 102l28 -3t58 -3q109 0 210.5 69.5t187.5 209.5l8 16l-193 1087h113l168 -948l569 948h129l-690 -1134q-109 -180 -238.5 -266t-281.5 -86q-39 0 -63 4z" />
<glyph unicode="z" horiz-adv-x="1028" d="M-25 0l19 82l874 909h-641l23 94h792l-18 -81l-877 -910h682l-18 -94h-836z" />
<glyph unicode="{" horiz-adv-x="825" d="M121 606l20 96h54q141 0 174 150l127 594q25 119 99.5 183.5t186.5 64.5h224l-21 -103h-203q-145 0 -176 -145l-127 -596q-14 -70 -46 -118t-105 -75v-6q61 -27 72.5 -79t-5.5 -121l-127 -594q-14 -68 15.5 -105t95.5 -37h207l-23 -100h-194q-129 0 -180.5 73.5 t-28.5 178.5l127 598q12 66 -12.5 103.5t-98.5 37.5h-55z" />
<glyph unicode="|" horiz-adv-x="823" d="M129 -455l510 2401h106l-509 -2401h-107z" />
<glyph unicode="}" horiz-adv-x="825" d="M-117 -385l23 100h203q143 0 176 148l125 596q16 70 47.5 118t103.5 74l2 6q-61 27 -72.5 78t5.5 121l127 596q14 68 -15.5 103.5t-95.5 35.5h-207l21 103h196q127 0 179.5 -74t29.5 -178l-127 -598q-14 -66 11.5 -104t99.5 -38h55l-20 -96h-56q-141 0 -172 -151 l-127 -592q-25 -121 -100.5 -184.5t-185.5 -63.5h-226z" />
<glyph unicode="~" horiz-adv-x="905" d="M199 666q18 98 61 163.5t123 65.5q49 0 80 -23.5t53.5 -55.5t43 -56.5t50.5 -24.5q37 0 60.5 40t36.5 110h79q-18 -92 -60 -161t-120 -69q-47 0 -77.5 25t-53 56.5t-44 55t-54.5 23.5q-37 0 -61.5 -41t-36.5 -108h-80z" />
<glyph unicode="&#xa1;" horiz-adv-x="497" d="M8 -442l258 1196h101l-246 -1196h-113zM274 1001q0 39 27 66t66 27t64.5 -28t25.5 -65t-25.5 -63.5t-64.5 -26.5t-66 27t-27 63z" />
<glyph unicode="&#xa2;" horiz-adv-x="1179" d="M115 451q0 123 36.5 237.5t108.5 206.5t176.5 148.5t237.5 62.5l35 156h96l-33 -160q98 -12 158.5 -52t94.5 -93.5t47 -103.5t16 -83l2 -33h-109l-3 36t-22.5 84t-67.5 89t-138 53l-195 -917q106 0 177 41t111 93t56 92l16 40h115l-14 -37q-15 -37 -46.5 -92t-88 -110.5 t-139.5 -92t-197 -36.5h-13l-32 -156h-97l35 166q-111 25 -182.5 92.5t-106 163.5t-34.5 205zM227 457q0 -127 56.5 -229.5t177.5 -135.5l192 909q-135 -10 -230 -88.5t-145.5 -199.5t-50.5 -256z" />
<glyph unicode="&#xa3;" horiz-adv-x="1214" d="M27 0l22 109q106 18 193.5 75.5t139.5 143.5t52 190q0 39 -7 78t-17 76h-238l18 84h193q-20 68 -38.5 137.5t-18.5 146.5q0 137 68.5 250t196.5 179.5t306 66.5q92 0 167 -13.5t119 -26.5l44 -13l-23 -105l-42 14q-42 13 -111.5 26.5t-153.5 13.5q-150 0 -251 -52.5 t-154.5 -140.5t-53.5 -199q0 -76 20.5 -144.5t41.5 -139.5h467l-19 -84h-426q8 -33 13.5 -68t5.5 -74q0 -98 -31 -169.5t-76 -122t-90 -80t-74 -42.5l-30 -14h790l-22 -102h-981z" />
<glyph unicode="&#xa4;" horiz-adv-x="1161" d="M129 340l152 152q-41 49 -64.5 112.5t-23.5 134.5q0 135 81 238l-145 143l64 64l143 -144q49 43 114.5 69t137.5 26q70 0 134 -24t114 -64l137 137l59 -64l-135 -135q41 -51 63.5 -114.5t22.5 -131.5q0 -74 -23.5 -138t-68.5 -118l141 -143l-59 -59l-146 141 q-106 -78 -239 -78q-70 0 -132.5 22.5t-113.5 63.5l-149 -149zM285 737q0 -84 41 -151.5t109.5 -108.5t152.5 -41t152.5 41t109.5 108.5t41 151.5t-41 152.5t-109.5 109.5t-152.5 41t-152.5 -41t-109.5 -109.5t-41 -152.5z" />
<glyph unicode="&#xa5;" horiz-adv-x="1312" d="M221 442l21 90h348l4 29l-35 98h-293l21 93h239l-270 764h117l295 -838l649 838h137l-594 -764h264l-18 -93h-318l-79 -100l-7 -27h377l-20 -90h-375l-94 -442h-115l94 442h-348z" />
<glyph unicode="&#xa6;" horiz-adv-x="823" d="M129 -455l211 994h106l-210 -994h-107zM410 870l229 1078h106l-229 -1078h-106z" />
<glyph unicode="&#xa7;" horiz-adv-x="1339" d="M-10 -18h112l6 -36q5 -36 26.5 -90.5t65.5 -107.5t120.5 -90t195.5 -37q115 0 207 38t144.5 109.5t52.5 172.5q0 113 -67 184.5t-171 107.5l-244 89q-131 49 -207.5 125.5t-76.5 181.5q0 90 37.5 146t93 87t107.5 43.5t77 16.5l2 8q-59 45 -103 111.5t-44 168.5 q0 117 60 207t169 141.5t252 51.5q139 0 228 -44t139.5 -108.5t73 -129t28.5 -107.5l6 -43h-113l-3 32q-3 33 -20.5 82t-55 98.5t-107.5 83t-178 33.5q-104 0 -186 -35.5t-130.5 -100t-48.5 -152.5q0 -106 63.5 -174t166.5 -107l241 -88q135 -51 212 -127t77 -182 q0 -88 -39 -144.5t-94 -87t-107.5 -43t-76.5 -16.5l-4 -8q74 -47 116.5 -119t42.5 -174q0 -127 -64.5 -225.5t-181 -152.5t-276.5 -54q-129 0 -218 33.5t-146.5 87t-90 113t-47 111.5t-18.5 86zM266 647q0 -72 50.5 -129t172.5 -104l283 -105q2 0 34 2t78 10.5t92 31 t76.5 63.5t30.5 108q0 72 -50 129.5t-171 102.5l-284 106q-2 0 -34 -2t-78 -10t-92 -30.5t-77 -63.5t-31 -109z" />
<glyph unicode="&#xa8;" horiz-adv-x="542" d="M84 1368q0 37 25.5 64.5t64.5 27.5q37 0 63.5 -27.5t26.5 -64.5t-26.5 -63.5t-63.5 -26.5q-39 0 -64.5 26.5t-25.5 63.5zM403 1368q0 37 26 64.5t65 27.5q37 0 63.5 -27.5t26.5 -64.5t-26.5 -63.5t-63.5 -26.5q-39 0 -65 26.5t-26 63.5z" />
<glyph unicode="&#xa9;" horiz-adv-x="1638" d="M133 653q0 145 50 289.5t149.5 263.5t245 189.5t333.5 70.5q162 0 282 -54t198.5 -147.5t117.5 -212t39 -245.5q0 -147 -51 -291.5t-149.5 -263.5t-244 -189.5t-335.5 -70.5q-162 0 -280.5 54t-197.5 148.5t-118 212t-39 246.5zM229 653q0 -147 58.5 -278t178.5 -212 t304 -81q166 0 294 63.5t214 169t130 232.5t44 258q0 147 -58.5 277t-178 211t-304.5 81q-166 0 -294 -62.5t-214 -168t-130 -233.5t-44 -257zM446 651q0 92 32 186.5t93.5 171t149.5 124t201 47.5q96 0 155.5 -30t92 -75t46 -89t15.5 -74l2 -29h-96l-3 31q-4 30 -22 71 t-64.5 73t-132.5 32q-88 0 -156.5 -39t-115.5 -102.5t-71.5 -139.5t-24.5 -152q0 -78 26.5 -144.5t83 -106t144.5 -39.5q84 0 139 30.5t87 71.5t45 73l13 31h101l-12 -29q-11 -30 -37.5 -74t-70.5 -88t-110.5 -73.5t-160.5 -29.5q-119 0 -196 52t-115 137t-38 183z" />
<glyph unicode="&#xaa;" horiz-adv-x="800" d="M225 1034q0 80 60.5 138.5t185.5 64.5l227 10l9 37q8 37 1.5 76t-37 65.5t-96.5 26.5q-57 0 -91.5 -18.5t-52 -43t-23.5 -42.5l-7 -19h-98l11 31q10 31 38.5 72t82.5 72.5t143 31.5q131 0 191 -78t38 -186l-86 -404h-100l18 97h-8q-2 -2 -24.5 -29t-68.5 -53.5 t-114 -26.5q-90 0 -144.5 50t-54.5 128zM326 1042q0 -53 38.5 -80.5t90.5 -27.5q82 0 143 60.5t78 144.5l6 32l-201 -8q-74 -4 -114.5 -35t-40.5 -86z" />
<glyph unicode="&#xab;" horiz-adv-x="1218" d="M115 657l503 420h146l-520 -432l315 -409h-119zM608 657l504 420h145l-520 -432l316 -409h-119z" />
<glyph unicode="&#xac;" horiz-adv-x="1341" d="M254 985l20 100h1014l-20 -100l-88 -412h-111l88 412h-903z" />
<glyph unicode="&#xad;" horiz-adv-x="1228" d="M231 590l11 102h762l-11 -102h-762z" />
<glyph unicode="&#xae;" horiz-adv-x="860" d="M213 1147q0 96 44 189.5t130 153.5t213 60q109 0 179.5 -47t105.5 -122.5t35 -159.5q0 -96 -44.5 -189.5t-130.5 -153t-213 -59.5q-109 0 -179 46t-105 122t-35 160zM266 1147q0 -72 29 -135.5t88 -102.5t149 -39q109 0 184 52.5t112.5 133.5t37.5 163q0 74 -28.5 137 t-88 102t-151.5 39q-106 0 -181 -52t-113 -133t-38 -165zM401 987l84 395h125q63 0 94 -33.5t31 -72.5q0 -41 -27.5 -78t-82.5 -47l59 -164h-61l-58 162h-69l-35 -162h-60zM506 1200h88q39 0 59.5 22.5t20.5 51.5q0 23 -16.5 39t-47.5 16h-75z" />
<glyph unicode="&#xaf;" horiz-adv-x="696" d="M231 1303l21 90h590l-21 -90h-590z" />
<glyph unicode="&#xb0;" horiz-adv-x="931" d="M262 1190q0 96 46 174t125 125t173 47q96 0 174 -47t125 -125t47 -174q0 -94 -47 -173t-125 -125t-174 -46q-94 0 -173 46t-125 125t-46 173zM358 1190q0 -68 33 -124t89 -90t126 -34q68 0 124 34t90 90t34 124q0 70 -34 126t-90 90t-124 34t-124 -34t-90 -90t-34 -126z " />
<glyph unicode="&#xb1;" horiz-adv-x="1271" d="M94 0l19 88h841l-18 -88h-842zM268 639l23 100h330l69 330h103l-72 -330h332l-23 -100h-330l-69 -332h-103l72 332h-332z" />
<glyph unicode="&#xb2;" horiz-adv-x="815" d="M217 860l16 72l236 178q121 92 203 169t82 167q0 59 -42 97t-110 38q-63 0 -99 -26.5t-53.5 -61.5t-21.5 -61l-4 -25h-96l4 27q4 26 18.5 65t44 78t81.5 65.5t130 26.5q117 0 182.5 -63.5t65.5 -155.5q0 -76 -43 -140.5t-116.5 -127t-166.5 -127.5l-137 -105h404l-19 -90 h-559z" />
<glyph unicode="&#xb3;" horiz-adv-x="798" d="M221 1098h94l5 -24q4 -25 20 -57t55 -56.5t109 -24.5q96 0 145 50t49 112q0 72 -55 103.5t-113 31.5h-96l17 80h102q80 0 132 38t52 105q0 57 -41 94t-110 37q-63 0 -100 -23.5t-53.5 -53t-21.5 -52.5l-5 -22h-91l7 36q8 35 33.5 81t81 81t153.5 35q117 0 181.5 -59.5 t64.5 -141.5q0 -66 -32 -105.5t-72 -61t-60 -27.5l-2 -4q16 -6 48 -26.5t57.5 -57.5t25.5 -96q0 -57 -34 -112.5t-100.5 -91.5t-164.5 -36q-86 0 -140.5 24.5t-83 61.5t-41 74t-14.5 62z" />
<glyph unicode="&#xb4;" horiz-adv-x="413" d="M225 1262l162 329h117l-185 -331z" />
<glyph unicode="&#xb5;" horiz-adv-x="1314" d="M16 -408l318 1493h112l-147 -690q-31 -152 21.5 -233.5t177.5 -81.5q117 0 201.5 64.5t139 165t76.5 206.5l121 569h113l-176 -825q-20 -94 3 -138t107 -44q33 0 53 4l21 4l-20 -96l-23 -5q-22 -5 -63 -5q-104 0 -156.5 50t-36.5 173h-10q-12 -20 -40 -57t-71 -75 t-104.5 -64.5t-140.5 -26.5q-84 0 -136.5 22.5t-82 52t-41.5 51.5l-11 23l-8 -2q2 -31 -6 -122t-31 -193l-47 -220h-113z" />
<glyph unicode="&#xb6;" horiz-adv-x="1032" d="M195 1049q0 94 48 182t141 145.5t228 57.5h447l-305 -1434h-84l284 1335h-153l-283 -1335h-84l154 725h-23q-127 0 -209 46t-121.5 121t-39.5 157z" />
<glyph unicode="&#xb7;" horiz-adv-x="522" d="M109 774q0 39 27.5 67.5t68.5 28.5q39 0 67.5 -28.5t28.5 -67.5t-28.5 -67.5t-67.5 -28.5q-41 0 -68.5 28.5t-27.5 67.5z" />
<glyph unicode="&#xb8;" horiz-adv-x="479" d="M-41 -485l16 77l47 -10q46 -10 93 -10q84 0 119.5 37t35.5 80t-30.5 74.5t-92.5 31.5q-49 0 -80.5 -17.5t-29.5 -17.5l-39 52l162 202h98l-117 -145q14 2 33 2q94 0 144.5 -54.5t50.5 -121.5q0 -76 -61.5 -140.5t-192.5 -64.5q-63 0 -109 12z" />
<glyph unicode="&#xb9;" horiz-adv-x="526" d="M293 1493l14 57l29 9q63 14 100 34.5t72 55.5l8 10h57l-170 -799h-98l133 633h-145z" />
<glyph unicode="&#xba;" horiz-adv-x="849" d="M252 1143q0 92 42 183t122 150.5t194 59.5q92 0 152.5 -41t90.5 -105.5t30 -140.5q0 -92 -43 -182t-123 -150.5t-193 -60.5q-94 0 -153.5 41t-89 105.5t-29.5 140.5zM352 1145q0 -80 43 -140.5t133 -60.5q80 0 136.5 47t86 117t29.5 139q0 80 -43 140.5t-131 60.5 q-80 0 -136 -46t-87 -115.5t-31 -141.5z" />
<glyph unicode="&#xbb;" horiz-adv-x="1218" d="M25 236l520 432l-316 409h119l328 -422l-506 -419h-145zM518 236l520 432l-315 409h119l327 -422l-505 -419h-146z" />
<glyph unicode="&#xbc;" horiz-adv-x="1681" d="M236 1288l12 64l26 6q55 14 93.5 32.5t74.5 55.5l9 8h59l-154 -727h-104l119 563zM375 0l772 1434h113l-775 -1434h-110zM1044 162l21 92l428 471h133l-100 -473h119l-17 -90h-121l-37 -164h-104l35 164h-357zM1182 252h239l74 342z" />
<glyph unicode="&#xbd;" horiz-adv-x="1699" d="M236 1288l12 64l26 6q55 14 93.5 32.5t74.5 55.5l9 8h59l-154 -727h-104l119 563zM375 0l772 1434h113l-775 -1434h-110zM1094 -2l16 72l211 159q109 80 182.5 147.5t73.5 145.5q0 55 -37 87t-96 32q-55 0 -86 -22.5t-46.5 -52t-18.5 -52.5l-3 -22h-100l6 36 q6 37 30.5 85.5t78 85t145.5 36.5q109 0 170 -60.5t61 -146.5q0 -68 -41 -127t-108.5 -114.5t-147.5 -114.5l-112 -84h358l-20 -90h-516z" />
<glyph unicode="&#xbe;" horiz-adv-x="1884" d="M170 946h100l3 -22q3 -21 17.5 -48.5t47.5 -48t94 -20.5q82 0 125 43t43 96q0 59 -47 87t-96 28h-90l18 84h96q66 0 110 32.5t44 88.5q0 47 -35 78.5t-94 31.5q-55 0 -87 -19.5t-46.5 -45t-18.5 -45.5l-4 -19h-98l6 33q6 33 30.5 76t77 75.5t144.5 32.5q111 0 170 -55 t59 -129q0 -72 -45 -116t-102 -60l-2 -6q43 -16 81 -55t38 -105q0 -53 -32 -103.5t-93.5 -84t-153.5 -33.5q-100 0 -154.5 34.5t-76 80t-25.5 80.5zM631 0l774 1434h111l-775 -1434h-110zM1300 162l21 92l428 471h135l-102 -473h121l-19 -90h-121l-34 -164h-107l37 164h-359 zM1438 252h239l74 342z" />
<glyph unicode="&#xbf;" horiz-adv-x="1196" d="M14 -66q0 104 40 183.5t103.5 139.5t135.5 112.5t138.5 103.5t112.5 111.5t58 140.5l4 37h109l-4 -39q-12 -94 -58.5 -164t-113 -125t-137 -105t-132 -105.5t-100.5 -123t-39 -159.5q0 -133 91 -212t224 -79q109 0 179.5 39t112.5 95t61.5 112.5t25.5 94.5l6 38h111 l-5 -35t-21.5 -90.5t-49 -116.5t-88 -116.5t-138.5 -90.5t-200 -35q-125 0 -221 50.5t-150.5 137.5t-54.5 201zM602 1010q0 39 26.5 65.5t65.5 26.5t65.5 -26.5t26.5 -65.5q0 -37 -26.5 -63.5t-65.5 -26.5t-65.5 26.5t-26.5 63.5z" />
<glyph unicode="&#xc0;" horiz-adv-x="1378" d="M-12 0l864 1516h139l221 -1516h-114l-62 422h-678l-239 -422h-131zM416 524h606l-121 852zM760 2021h112l117 -329l-90 -2z" />
<glyph unicode="&#xc1;" horiz-adv-x="1378" d="M-12 0l864 1516h139l221 -1516h-114l-62 422h-678l-239 -422h-131zM416 524h606l-121 852zM911 1692l162 329h117l-184 -331z" />
<glyph unicode="&#xc2;" horiz-adv-x="1378" d="M-12 0l864 1516h139l221 -1516h-114l-62 422h-678l-239 -422h-131zM416 524h606l-121 852zM662 1673l294 289h107l174 -289h-104l-129 219l-220 -219h-122z" />
<glyph unicode="&#xc3;" horiz-adv-x="1378" d="M-12 0l864 1516h139l221 -1516h-114l-62 422h-678l-239 -422h-131zM416 524h606l-121 852zM688 1710q20 102 64.5 167t124.5 65q49 0 80.5 -24t53 -54.5t43 -55t52.5 -24.5q70 0 94 147h84q-18 -98 -61 -165.5t-121 -67.5q-49 0 -80 24.5t-53.5 56t-44 55.5t-54.5 24 q-37 0 -61.5 -41t-34.5 -107h-86z" />
<glyph unicode="&#xc4;" horiz-adv-x="1378" d="M-12 0l864 1516h139l221 -1516h-114l-62 422h-678l-239 -422h-131zM416 524h606l-121 852zM729 1798q0 37 25.5 63.5t64.5 26.5t65.5 -26.5t26.5 -63.5t-26.5 -63.5t-65.5 -26.5t-64.5 26.5t-25.5 63.5zM1049 1798q0 37 25.5 63.5t64.5 26.5t65.5 -26.5t26.5 -63.5 t-26.5 -63.5t-65.5 -26.5t-64.5 26.5t-25.5 63.5z" />
<glyph unicode="&#xc5;" horiz-adv-x="1378" d="M-12 0l864 1516h139l221 -1516h-114l-62 422h-678l-239 -422h-131zM416 524h606l-121 852zM758 1894q0 88 62.5 151.5t152.5 63.5t152.5 -63.5t62.5 -151.5q0 -90 -62.5 -152.5t-152.5 -62.5t-152.5 62.5t-62.5 152.5zM846 1894q0 -53 37 -90t90 -37t90 37t37 90 q0 51 -37 89t-90 38t-90 -37.5t-37 -89.5z" />
<glyph unicode="&#xc6;" horiz-adv-x="1953" d="M-12 0l1110 1516h942l-23 -105h-757l-123 -584h657l-20 -104h-660l-131 -619h768l-22 -104h-883l90 422h-504l-309 -422h-135zM508 524h448l185 862z" />
<glyph unicode="&#xc7;" horiz-adv-x="1529" d="M133 643q0 158 51.5 315.5t152.5 288.5t250.5 210t346.5 79q137 0 229 -37t150.5 -94t89.5 -122.5t43 -123t14 -94.5l2 -37h-116l-2 40q-3 40 -20 100.5t-60 120t-124 100.5t-212 41q-166 0 -293 -70t-212 -183.5t-129 -252t-44 -275.5q0 -150 52 -277.5t159.5 -206.5 t273.5 -79q129 0 220.5 41t152.5 100.5t97 120t51 100.5l16 39h119l-13 -37q-12 -36 -40.5 -93.5t-77 -123t-119 -123t-169 -94t-227.5 -36.5l-94 -117q14 2 31 2q96 0 145.5 -54.5t49.5 -123.5q0 -76 -61.5 -140.5t-192.5 -64.5q-63 0 -109 12l-45 12l16 80l47 -11 q46 -11 93 -11q82 0 118.5 38t36.5 81q0 41 -31.5 72.5t-91.5 31.5q-49 0 -80.5 -16.5t-29.5 -16.5l-41 49l145 181q-178 18 -291.5 113.5t-170 238.5t-56.5 307z" />
<glyph unicode="&#xc8;" horiz-adv-x="1173" d="M66 0l321 1516h873l-23 -105h-758l-123 -584h660l-23 -104h-659l-131 -619h768l-21 -104h-884zM633 2021h112l117 -329l-90 -2z" />
<glyph unicode="&#xc9;" horiz-adv-x="1173" d="M66 0l321 1516h873l-23 -105h-758l-123 -584h660l-23 -104h-659l-131 -619h768l-21 -104h-884zM784 1692l162 329h117l-184 -331z" />
<glyph unicode="&#xca;" horiz-adv-x="1173" d="M66 0l321 1516h873l-23 -105h-758l-123 -584h660l-23 -104h-659l-131 -619h768l-21 -104h-884zM535 1673l294 289h107l174 -289h-104l-129 219l-220 -219h-122z" />
<glyph unicode="&#xcb;" horiz-adv-x="1173" d="M66 0l321 1516h873l-23 -105h-758l-123 -584h660l-23 -104h-659l-131 -619h768l-21 -104h-884zM602 1798q0 37 25.5 63.5t64.5 26.5t65.5 -26.5t26.5 -63.5t-26.5 -63.5t-65.5 -26.5t-64.5 26.5t-25.5 63.5zM922 1798q0 37 25.5 63.5t64.5 26.5t65.5 -26.5t26.5 -63.5 t-26.5 -63.5t-65.5 -26.5t-64.5 26.5t-25.5 63.5z" />
<glyph unicode="&#xcc;" horiz-adv-x="473" d="M66 0l321 1516h115l-322 -1516h-114zM279 1995h112l119 -332h-92z" />
<glyph unicode="&#xcd;" horiz-adv-x="473" d="M66 0l321 1516h115l-322 -1516h-114zM430 1663l164 332h115l-185 -332h-94z" />
<glyph unicode="&#xce;" horiz-adv-x="473" d="M66 0l321 1516h115l-322 -1516h-114zM188 1647l301 321h107l166 -321h-103l-124 245l-226 -245h-121z" />
<glyph unicode="&#xcf;" horiz-adv-x="473" d="M66 0l321 1516h115l-322 -1516h-114zM250 1772q0 37 25.5 63.5t64.5 26.5q37 0 63.5 -27t26.5 -63q0 -39 -26.5 -66t-63.5 -27q-39 0 -64.5 28t-25.5 65zM569 1772q0 37 26 63.5t64 26.5q37 0 64 -27t27 -63q0 -39 -27 -66t-64 -27q-39 0 -64.5 28t-25.5 65z" />
<glyph unicode="&#xd0;" horiz-adv-x="1550" d="M96 707l23 102h215l149 707h361q162 0 281.5 -51.5t196.5 -139.5t115 -201.5t38 -238.5q0 -156 -57.5 -312.5t-169 -285.5t-273.5 -208t-371 -79h-442l149 707h-215zM299 104h307q180 0 320.5 70t237 183.5t145.5 249.5t49 272q0 141 -55.5 262t-171 195.5t-295.5 74.5 h-261l-126 -602h325l-22 -102h-326z" />
<glyph unicode="&#xd1;" horiz-adv-x="1482" d="M66 0l321 1516h111l618 -1321l281 1321h114l-321 -1516h-109l-620 1321l-281 -1321h-114zM731 1710q20 102 64.5 167t124.5 65q49 0 80.5 -24t53 -54.5t43 -55t52.5 -24.5q70 0 94 147h84q-18 -98 -61 -165.5t-121 -67.5q-49 0 -80 24.5t-53.5 56t-44 55.5t-54.5 24 q-37 0 -61.5 -41t-34.5 -107h-86z" />
<glyph unicode="&#xd2;" d="M133 633q0 160 53.5 319.5t155.5 291.5t250.5 212t339.5 80q154 0 266.5 -53t185 -145.5t108.5 -209t36 -245.5q0 -160 -53.5 -320t-154.5 -292t-250 -211.5t-339 -79.5q-154 0 -267.5 53t-186 144t-108.5 209t-36 247zM250 633q0 -143 52 -268t158.5 -202t272.5 -77 q162 0 288 70.5t213 187.5t132 258t45 281q0 143 -51 268t-157.5 202t-272.5 77q-162 0 -288 -72t-214 -188.5t-133 -257t-45 -279.5zM801 2021h112l117 -329l-90 -2z" />
<glyph unicode="&#xd3;" d="M133 633q0 160 53.5 319.5t155.5 291.5t250.5 212t339.5 80q154 0 266.5 -53t185 -145.5t108.5 -209t36 -245.5q0 -160 -53.5 -320t-154.5 -292t-250 -211.5t-339 -79.5q-154 0 -267.5 53t-186 144t-108.5 209t-36 247zM250 633q0 -143 52 -268t158.5 -202t272.5 -77 q162 0 288 70.5t213 187.5t132 258t45 281q0 143 -51 268t-157.5 202t-272.5 77q-162 0 -288 -72t-214 -188.5t-133 -257t-45 -279.5zM952 1692l162 329h117l-184 -331z" />
<glyph unicode="&#xd4;" d="M133 633q0 160 53.5 319.5t155.5 291.5t250.5 212t339.5 80q154 0 266.5 -53t185 -145.5t108.5 -209t36 -245.5q0 -160 -53.5 -320t-154.5 -292t-250 -211.5t-339 -79.5q-154 0 -267.5 53t-186 144t-108.5 209t-36 247zM250 633q0 -143 52 -268t158.5 -202t272.5 -77 q162 0 288 70.5t213 187.5t132 258t45 281q0 143 -51 268t-157.5 202t-272.5 77q-162 0 -288 -72t-214 -188.5t-133 -257t-45 -279.5zM702 1673l295 289h107l174 -289h-104l-130 219l-219 -219h-123z" />
<glyph unicode="&#xd5;" d="M133 633q0 160 53.5 319.5t155.5 291.5t250.5 212t339.5 80q154 0 266.5 -53t185 -145.5t108.5 -209t36 -245.5q0 -160 -53.5 -320t-154.5 -292t-250 -211.5t-339 -79.5q-154 0 -267.5 53t-186 144t-108.5 209t-36 247zM250 633q0 -143 52 -268t158.5 -202t272.5 -77 q162 0 288 70.5t213 187.5t132 258t45 281q0 143 -51 268t-157.5 202t-272.5 77q-162 0 -288 -72t-214 -188.5t-133 -257t-45 -279.5zM729 1710q20 102 64.5 167t124.5 65q49 0 80.5 -24t53 -54.5t43 -55t52.5 -24.5q70 0 94 147h84q-18 -98 -61 -165.5t-121 -67.5 q-49 0 -80 24.5t-53.5 56t-44 55.5t-54.5 24q-37 0 -61.5 -41t-34.5 -107h-86z" />
<glyph unicode="&#xd6;" d="M133 633q0 160 53.5 319.5t155.5 291.5t250.5 212t339.5 80q154 0 266.5 -53t185 -145.5t108.5 -209t36 -245.5q0 -160 -53.5 -320t-154.5 -292t-250 -211.5t-339 -79.5q-154 0 -267.5 53t-186 144t-108.5 209t-36 247zM250 633q0 -143 52 -268t158.5 -202t272.5 -77 q162 0 288 70.5t213 187.5t132 258t45 281q0 143 -51 268t-157.5 202t-272.5 77q-162 0 -288 -72t-214 -188.5t-133 -257t-45 -279.5zM770 1798q0 37 25.5 63.5t64.5 26.5t65.5 -26.5t26.5 -63.5t-26.5 -63.5t-65.5 -26.5t-64.5 26.5t-25.5 63.5zM1090 1798q0 37 25.5 63.5 t64.5 26.5t65.5 -26.5t26.5 -63.5t-26.5 -63.5t-65.5 -26.5t-64.5 26.5t-25.5 63.5z" />
<glyph unicode="&#xd7;" horiz-adv-x="1058" d="M180 403l295 244l-182 234l76 71l186 -237l289 237l65 -75l-293 -242l185 -232l-76 -71l-188 237l-293 -241z" />
<glyph unicode="&#xd8;" d="M76 -47l196 229q-72 90 -105.5 207t-33.5 244q0 160 53.5 319.5t155.5 291.5t250.5 212t339.5 80q121 0 217 -35t168 -94l133 158h135l-199 -232q72 -90 107 -206.5t35 -243.5q0 -160 -53.5 -320t-154.5 -292t-249.5 -211.5t-339.5 -79.5q-123 0 -219 34.5t-168 94.5 l-133 -156h-135zM250 633q0 -100 24.5 -192.5t75.5 -166.5l891 1045q-57 51 -135 81t-176 30q-162 0 -288 -72t-214 -188.5t-133 -257t-45 -279.5zM418 197q59 -51 137 -81t178 -30q162 0 288 70.5t213 187.5t132 258t45 281q0 100 -24.5 193t-75.5 167z" />
<glyph unicode="&#xd9;" horiz-adv-x="1445" d="M184 563l203 953h115l-203 -961q-45 -213 48 -339t302 -126q137 0 240.5 57.5t170 160t93.5 235.5l207 973h115l-207 -973q-33 -162 -114 -289t-209 -200.5t-306 -73.5q-182 0 -295 78.5t-153.5 210.5t-6.5 294zM768 2021h113l116 -329l-92 -2z" />
<glyph unicode="&#xda;" horiz-adv-x="1445" d="M184 563l203 953h115l-203 -961q-45 -213 48 -339t302 -126q137 0 240.5 57.5t170 160t93.5 235.5l207 973h115l-207 -973q-33 -162 -114 -289t-209 -200.5t-306 -73.5q-182 0 -295 78.5t-153.5 210.5t-6.5 294zM918 1692l163 329h115l-184 -331z" />
<glyph unicode="&#xdb;" horiz-adv-x="1445" d="M184 563l203 953h115l-203 -961q-45 -213 48 -339t302 -126q137 0 240.5 57.5t170 160t93.5 235.5l207 973h115l-207 -973q-33 -162 -114 -289t-209 -200.5t-306 -73.5q-182 0 -295 78.5t-153.5 210.5t-6.5 294zM676 1673l303 322h104l168 -322h-104l-123 246l-225 -246 h-123z" />
<glyph unicode="&#xdc;" horiz-adv-x="1445" d="M184 563l203 953h115l-203 -961q-45 -213 48 -339t302 -126q137 0 240.5 57.5t170 160t93.5 235.5l207 973h115l-207 -973q-33 -162 -114 -289t-209 -200.5t-306 -73.5q-182 0 -295 78.5t-153.5 210.5t-6.5 294zM737 1798q0 37 25.5 63.5t64.5 26.5t66 -26.5t27 -63.5 t-27 -63.5t-66 -26.5t-64.5 26.5t-25.5 63.5zM1057 1798q0 37 25.5 63.5t64.5 26.5t65.5 -26.5t26.5 -63.5t-26.5 -63.5t-65.5 -26.5t-64.5 26.5t-25.5 63.5z" />
<glyph unicode="&#xdd;" horiz-adv-x="1261" d="M231 1516h117l295 -838l649 838h138l-746 -957l-119 -559h-114l118 561zM807 1692l164 329h114l-184 -331z" />
<glyph unicode="&#xde;" horiz-adv-x="1261" d="M66 0l321 1516h115l-60 -287h314q160 0 264 -59.5t154.5 -155.5t50.5 -205q0 -94 -37 -187.5t-110.5 -169t-181.5 -120.5t-249 -45h-405l-62 -287h-114zM264 391h391q147 0 249 62.5t154 157t52 192.5q0 82 -39 155.5t-118.5 119.5t-202.5 46h-330z" />
<glyph unicode="&#xdf;" horiz-adv-x="1241" d="M63 -6l230 1073q49 236 188 355.5t342 119.5q176 0 286 -96t110 -252q0 -133 -88.5 -244.5t-251.5 -156.5v-7q61 -16 116.5 -66t91 -122t35.5 -152q0 -129 -72.5 -234.5t-201.5 -168.5t-299 -63q-49 0 -98.5 3t-84.5 6l-34 3l18 102l33 -3t78 -6t84 -3q141 0 244.5 49 t159 133t55.5 187q0 125 -84 207.5t-226 82.5h-186l22 99h187q111 0 197.5 47t136 126t49.5 173q0 125 -83 188.5t-198 63.5q-90 0 -174 -34t-148.5 -117t-95.5 -228l-225 -1065h-113z" />
<glyph unicode="&#xe0;" horiz-adv-x="1243" d="M119 449q0 117 38 233.5t110.5 211.5t178 153.5t238.5 58.5q104 0 173 -35t110 -82t59 -88t23 -51h10l51 235h113l-232 -1085h-114l41 188h-9l-23 -32q-24 -31 -71 -72t-118.5 -72.5t-168.5 -31.5q-137 0 -228 66.5t-136 173t-45 229.5zM231 446q0 -96 33 -179 t101.5 -134t177.5 -51q106 0 191 50t144.5 132t90 181.5t30.5 195.5q0 98 -32.5 180t-101 132.5t-177.5 50.5t-193.5 -49.5t-143 -132.5t-89.5 -181t-31 -195zM575 1591h113l117 -329l-90 -2z" />
<glyph unicode="&#xe1;" horiz-adv-x="1243" d="M119 449q0 117 38 233.5t110.5 211.5t178 153.5t238.5 58.5q104 0 173 -35t110 -82t59 -88t23 -51h10l51 235h113l-232 -1085h-114l41 188h-9l-23 -32q-24 -31 -71 -72t-118.5 -72.5t-168.5 -31.5q-137 0 -228 66.5t-136 173t-45 229.5zM231 446q0 -96 33 -179 t101.5 -134t177.5 -51q106 0 191 50t144.5 132t90 181.5t30.5 195.5q0 98 -32.5 180t-101 132.5t-177.5 50.5t-193.5 -49.5t-143 -132.5t-89.5 -181t-31 -195zM727 1262l162 329h117l-185 -331z" />
<glyph unicode="&#xe2;" horiz-adv-x="1243" d="M119 449q0 117 38 233.5t110.5 211.5t178 153.5t238.5 58.5q104 0 173 -35t110 -82t59 -88t23 -51h10l51 235h113l-232 -1085h-114l41 188h-9l-23 -32q-24 -31 -71 -72t-118.5 -72.5t-168.5 -31.5q-137 0 -228 66.5t-136 173t-45 229.5zM231 446q0 -96 33 -179 t101.5 -134t177.5 -51q106 0 191 50t144.5 132t90 181.5t30.5 195.5q0 98 -32.5 180t-101 132.5t-177.5 50.5t-193.5 -49.5t-143 -132.5t-89.5 -181t-31 -195zM485 1243l301 322h107l166 -322h-105l-123 246l-225 -246h-121z" />
<glyph unicode="&#xe3;" horiz-adv-x="1243" d="M119 449q0 117 38 233.5t110.5 211.5t178 153.5t238.5 58.5q104 0 173 -35t110 -82t59 -88t23 -51h10l51 235h113l-232 -1085h-114l41 188h-9l-23 -32q-24 -31 -71 -72t-118.5 -72.5t-168.5 -31.5q-137 0 -228 66.5t-136 173t-45 229.5zM231 446q0 -96 33 -179 t101.5 -134t177.5 -51q106 0 191 50t144.5 132t90 181.5t30.5 195.5q0 98 -32.5 180t-101 132.5t-177.5 50.5t-193.5 -49.5t-143 -132.5t-89.5 -181t-31 -195zM504 1280q20 102 64 166.5t124 64.5q49 0 81 -23.5t53.5 -54t43 -55t52.5 -24.5q70 0 94 147h84 q-18 -98 -61 -165.5t-121 -67.5q-49 0 -80 24.5t-53.5 56t-44 55t-54.5 23.5q-37 0 -61.5 -40.5t-34.5 -106.5h-86z" />
<glyph unicode="&#xe4;" horiz-adv-x="1243" d="M119 449q0 117 38 233.5t110.5 211.5t178 153.5t238.5 58.5q104 0 173 -35t110 -82t59 -88t23 -51h10l51 235h113l-232 -1085h-114l41 188h-9l-23 -32q-24 -31 -71 -72t-118.5 -72.5t-168.5 -31.5q-137 0 -228 66.5t-136 173t-45 229.5zM231 446q0 -96 33 -179 t101.5 -134t177.5 -51q106 0 191 50t144.5 132t90 181.5t30.5 195.5q0 98 -32.5 180t-101 132.5t-177.5 50.5t-193.5 -49.5t-143 -132.5t-89.5 -181t-31 -195zM547 1368q0 37 25.5 64.5t64.5 27.5q37 0 63.5 -27.5t26.5 -64.5t-26.5 -63.5t-63.5 -26.5q-39 0 -64.5 26.5 t-25.5 63.5zM866 1368q0 37 26 64.5t64 27.5q37 0 64 -27.5t27 -64.5t-27 -63.5t-64 -26.5q-39 0 -64.5 26.5t-25.5 63.5z" />
<glyph unicode="&#xe5;" horiz-adv-x="1243" d="M119 449q0 117 38 233.5t110.5 211.5t178 153.5t238.5 58.5q104 0 173 -35t110 -82t59 -88t23 -51h10l51 235h113l-232 -1085h-114l41 188h-9l-23 -32q-24 -31 -71 -72t-118.5 -72.5t-168.5 -31.5q-137 0 -228 66.5t-136 173t-45 229.5zM231 446q0 -96 33 -179 t101.5 -134t177.5 -51q106 0 191 50t144.5 132t90 181.5t30.5 195.5q0 98 -32.5 180t-101 132.5t-177.5 50.5t-193.5 -49.5t-143 -132.5t-89.5 -181t-31 -195zM573 1464q0 88 62.5 151.5t152.5 63.5t153 -63.5t63 -151.5q0 -90 -63 -152.5t-153 -62.5t-152.5 62.5 t-62.5 152.5zM662 1464q0 -53 36.5 -90t89.5 -37t90 37t37 90q0 51 -36.5 89t-90.5 38q-53 0 -89.5 -37.5t-36.5 -89.5z" />
<glyph unicode="&#xe6;" horiz-adv-x="1906" d="M63 274q0 129 98.5 221.5t291.5 100.5l403 16l16 80q10 49 7.5 103.5t-27.5 102.5t-79 78t-146 30q-106 0 -170 -36t-97.5 -83t-45.5 -83l-11 -36h-113l10 35q11 35 37.5 85t75.5 100t127 84t189 34q137 0 227 -62.5t115 -183.5h6q74 111 186.5 178.5t251.5 67.5 q129 0 214 -48t129 -130t53.5 -182.5t-13.5 -204.5l-6 -25h-842q-12 -115 17.5 -214t105.5 -159.5t199 -60.5q102 0 171.5 35t111.5 81t61 82l18 35h109l-15 -33q-14 -34 -47.5 -84.5t-89 -100.5t-136.5 -83.5t-191 -33.5q-174 0 -274.5 92t-133.5 225h-6l-16 -32 q-15 -32 -47.5 -79t-86 -95t-128.5 -79.5t-177 -31.5q-152 0 -242 82.5t-90 211.5zM174 281q0 -100 71 -153.5t169 -53.5q104 0 188 54t141.5 140t77.5 187l13 63l-375 -14q-131 -6 -208 -63.5t-77 -159.5zM969 610h731q16 102 -5.5 191.5t-90 146t-195.5 56.5 q-113 0 -201 -53.5t-149 -144t-90 -196.5z" />
<glyph unicode="&#xe7;" horiz-adv-x="1144" d="M90 451q0 127 39 243.5t113.5 209.5t184.5 147.5t251 54.5q119 0 193.5 -37t114.5 -92t56.5 -110.5t19.5 -92.5l3 -37h-109l-2 27q-2 27 -14 66.5t-42 79.5t-85 67t-143 27q-150 0 -253.5 -78t-158.5 -202t-55 -267q0 -100 34.5 -185.5t106.5 -137.5t182 -52 q109 0 179.5 40t111.5 93t57 93l17 40h115l-14 -37q-15 -37 -47 -92t-87 -110.5t-138 -92t-196 -36.5l-102 -125q14 2 33 2q96 0 145 -54.5t49 -124.5q0 -76 -61.5 -140t-192.5 -64q-63 0 -109 12l-46 12l16 80l47 -11t92 -11q84 0 121 37.5t37 80.5q0 41 -32 73t-93 32 q-47 0 -79 -17l-32 -16l-38 49l153 193q-117 18 -192.5 85.5t-112.5 166t-37 211.5z" />
<glyph unicode="&#xe8;" horiz-adv-x="1148" d="M86 444q0 119 40 236t115.5 213t183 154.5t243.5 58.5q129 0 214 -48t129 -130t52 -182.5t-14 -204.5l-5 -25h-841q-12 -117 17.5 -215t104 -158.5t197.5 -60.5q102 0 172 35t113 81t61 82l19 35h108l-15 -33q-15 -34 -48 -84.5t-89.5 -100.5t-136 -83.5t-190.5 -33.5 q-147 0 -242.5 65.5t-141.5 171t-46 227.5zM221 610h729q16 102 -4 191.5t-89 146t-195 56.5q-113 0 -202 -53.5t-149.5 -144t-89.5 -196.5zM541 1589h112l117 -332h-92z" />
<glyph unicode="&#xe9;" horiz-adv-x="1148" d="M86 444q0 119 40 236t115.5 213t183 154.5t243.5 58.5q129 0 214 -48t129 -130t52 -182.5t-14 -204.5l-5 -25h-841q-12 -117 17.5 -215t104 -158.5t197.5 -60.5q102 0 172 35t113 81t61 82l19 35h108l-15 -33q-15 -34 -48 -84.5t-89.5 -100.5t-136 -83.5t-190.5 -33.5 q-147 0 -242.5 65.5t-141.5 171t-46 227.5zM221 610h729q16 102 -4 191.5t-89 146t-195 56.5q-113 0 -202 -53.5t-149.5 -144t-89.5 -196.5zM690 1257l164 332h115l-185 -332h-94z" />
<glyph unicode="&#xea;" horiz-adv-x="1148" d="M86 444q0 119 40 236t115.5 213t183 154.5t243.5 58.5q129 0 214 -48t129 -130t52 -182.5t-14 -204.5l-5 -25h-841q-12 -117 17.5 -215t104 -158.5t197.5 -60.5q102 0 172 35t113 81t61 82l19 35h108l-15 -33q-15 -34 -48 -84.5t-89.5 -100.5t-136 -83.5t-190.5 -33.5 q-147 0 -242.5 65.5t-141.5 171t-46 227.5zM221 610h729q16 102 -4 191.5t-89 146t-195 56.5q-113 0 -202 -53.5t-149.5 -144t-89.5 -196.5zM449 1241l303 322h104l168 -322h-104l-123 246l-226 -246h-122z" />
<glyph unicode="&#xeb;" horiz-adv-x="1148" d="M86 444q0 119 40 236t115.5 213t183 154.5t243.5 58.5q129 0 214 -48t129 -130t52 -182.5t-14 -204.5l-5 -25h-841q-12 -117 17.5 -215t104 -158.5t197.5 -60.5q102 0 172 35t113 81t61 82l19 35h108l-15 -33q-15 -34 -48 -84.5t-89.5 -100.5t-136 -83.5t-190.5 -33.5 q-147 0 -242.5 65.5t-141.5 171t-46 227.5zM221 610h729q16 102 -4 191.5t-89 146t-195 56.5q-113 0 -202 -53.5t-149.5 -144t-89.5 -196.5zM510 1366q0 37 25.5 63.5t64.5 26.5t65.5 -26.5t26.5 -63.5q0 -39 -26.5 -65.5t-65.5 -26.5t-64.5 27.5t-25.5 64.5zM829 1366 q0 37 26 63.5t65 26.5t65.5 -26.5t26.5 -63.5q0 -39 -26.5 -65.5t-65.5 -26.5t-65 27.5t-26 64.5z" />
<glyph unicode="&#xec;" horiz-adv-x="468" d="M55 0l232 1085h110l-231 -1085h-111zM180 1591h113l117 -329l-91 -2z" />
<glyph unicode="&#xed;" horiz-adv-x="468" d="M55 0l232 1085h110l-231 -1085h-111zM332 1262l162 329h116l-184 -331z" />
<glyph unicode="&#xee;" horiz-adv-x="468" d="M55 0l232 1085h110l-231 -1085h-111zM90 1243l301 322h107l166 -322h-105l-123 246l-225 -246h-121z" />
<glyph unicode="&#xef;" horiz-adv-x="468" d="M55 0l232 1085h110l-231 -1085h-111zM150 1368q0 37 25.5 63.5t64.5 26.5t65.5 -26.5t26.5 -63.5t-26.5 -63.5t-65.5 -26.5t-64.5 26.5t-25.5 63.5zM469 1368q0 37 25.5 63.5t64.5 26.5t65.5 -26.5t26.5 -63.5t-26.5 -63.5t-65.5 -26.5t-64.5 26.5t-25.5 63.5z" />
<glyph unicode="&#xf0;" horiz-adv-x="1259" d="M113 451q0 117 38.5 231.5t111.5 209.5t179.5 152.5t241.5 57.5q119 0 194.5 -42t119.5 -103.5t67 -118.5q-25 135 -83 242.5t-134 189.5t-156 139l-258 -131l-26 80l206 106q-98 61 -168 88l-69 27l41 86l42 -15q42 -16 108.5 -48.5t146.5 -85.5l284 147l25 -82 l-231 -121q94 -72 181 -175t142 -239.5t55 -308.5q0 -152 -45 -288t-128 -241.5t-195.5 -166.5t-249.5 -61q-152 0 -249 66.5t-144 174t-47 230.5zM227 455q0 -100 35 -185.5t107.5 -136.5t185.5 -51q111 0 197 49t146 130t91 177.5t31 192.5q0 98 -35 183t-107.5 137.5 t-187.5 52.5q-109 0 -195.5 -49.5t-146 -130.5t-90.5 -178t-31 -191z" />
<glyph unicode="&#xf1;" horiz-adv-x="1148" d="M55 0l232 1085h114l-45 -202h9q14 23 41.5 59.5t72.5 74.5t107.5 63.5t142.5 25.5q119 0 195.5 -57.5t105.5 -152.5t4 -208l-145 -688h-113l148 696q18 82 -0.5 153t-72.5 114t-151 43q-113 0 -195.5 -62.5t-136 -163t-79.5 -219.5l-119 -561h-115zM473 1280 q20 102 64.5 166.5t124.5 64.5q49 0 80.5 -23.5t53 -54t43 -55t52.5 -24.5q70 0 94 147h84q-18 -98 -61 -165.5t-121 -67.5q-49 0 -80 24.5t-53.5 56t-44 55t-54.5 23.5q-37 0 -61.5 -40.5t-34.5 -106.5h-86z" />
<glyph unicode="&#xf2;" horiz-adv-x="1191" d="M88 451q0 115 39 230.5t112.5 211.5t181 154.5t247.5 58.5q147 0 242.5 -66.5t141.5 -173t46 -231.5q0 -115 -39 -230.5t-114 -212t-182.5 -154.5t-244.5 -58q-147 0 -242.5 66.5t-141.5 174t-46 230.5zM199 453q0 -98 34.5 -182.5t106 -136.5t182.5 -52q109 0 196 49 t146.5 130t90 178.5t30.5 193.5q0 98 -35 182t-105.5 136.5t-180.5 52.5q-111 0 -197 -49.5t-146.5 -130.5t-91 -178t-30.5 -193zM524 1591h113l117 -329l-92 -2z" />
<glyph unicode="&#xf3;" horiz-adv-x="1191" d="M88 451q0 115 39 230.5t112.5 211.5t181 154.5t247.5 58.5q147 0 242.5 -66.5t141.5 -173t46 -231.5q0 -115 -39 -230.5t-114 -212t-182.5 -154.5t-244.5 -58q-147 0 -242.5 66.5t-141.5 174t-46 230.5zM199 453q0 -98 34.5 -182.5t106 -136.5t182.5 -52q109 0 196 49 t146.5 130t90 178.5t30.5 193.5q0 98 -35 182t-105.5 136.5t-180.5 52.5q-111 0 -197 -49.5t-146.5 -130.5t-91 -178t-30.5 -193zM674 1262l164 329h114l-184 -331z" />
<glyph unicode="&#xf4;" horiz-adv-x="1191" d="M88 451q0 115 39 230.5t112.5 211.5t181 154.5t247.5 58.5q147 0 242.5 -66.5t141.5 -173t46 -231.5q0 -115 -39 -230.5t-114 -212t-182.5 -154.5t-244.5 -58q-147 0 -242.5 66.5t-141.5 174t-46 230.5zM199 453q0 -98 34.5 -182.5t106 -136.5t182.5 -52q109 0 196 49 t146.5 130t90 178.5t30.5 193.5q0 98 -35 182t-105.5 136.5t-180.5 52.5q-111 0 -197 -49.5t-146.5 -130.5t-91 -178t-30.5 -193zM432 1243l303 322h105l168 -322h-105l-123 246l-225 -246h-123z" />
<glyph unicode="&#xf5;" horiz-adv-x="1191" d="M88 451q0 115 39 230.5t112.5 211.5t181 154.5t247.5 58.5q147 0 242.5 -66.5t141.5 -173t46 -231.5q0 -115 -39 -230.5t-114 -212t-182.5 -154.5t-244.5 -58q-147 0 -242.5 66.5t-141.5 174t-46 230.5zM199 453q0 -98 34.5 -182.5t106 -136.5t182.5 -52q109 0 196 49 t146.5 130t90 178.5t30.5 193.5q0 98 -35 182t-105.5 136.5t-180.5 52.5q-111 0 -197 -49.5t-146.5 -130.5t-91 -178t-30.5 -193zM453 1280q18 102 62 166.5t124 64.5q51 0 83 -23.5t53.5 -54t43 -55t51.5 -24.5q70 0 95 147h84q-18 -98 -61.5 -165.5t-123.5 -67.5 q-47 0 -77.5 24.5t-53 56t-45 55t-53.5 23.5q-37 0 -61.5 -40.5t-36.5 -106.5h-84z" />
<glyph unicode="&#xf6;" horiz-adv-x="1191" d="M88 451q0 115 39 230.5t112.5 211.5t181 154.5t247.5 58.5q147 0 242.5 -66.5t141.5 -173t46 -231.5q0 -115 -39 -230.5t-114 -212t-182.5 -154.5t-244.5 -58q-147 0 -242.5 66.5t-141.5 174t-46 230.5zM199 453q0 -98 34.5 -182.5t106 -136.5t182.5 -52q109 0 196 49 t146.5 130t90 178.5t30.5 193.5q0 98 -35 182t-105.5 136.5t-180.5 52.5q-111 0 -197 -49.5t-146.5 -130.5t-91 -178t-30.5 -193zM494 1368q0 37 25.5 63.5t64.5 26.5t65.5 -26.5t26.5 -63.5t-26.5 -63.5t-65.5 -26.5t-64.5 26.5t-25.5 63.5zM813 1368q0 37 25.5 63.5 t64.5 26.5t65.5 -26.5t26.5 -63.5t-26.5 -63.5t-65.5 -26.5t-64.5 26.5t-25.5 63.5z" />
<glyph unicode="&#xf7;" horiz-adv-x="1224" d="M219 584l21 98h794l-20 -98h-795zM461 299q0 39 26.5 66.5t67.5 27.5t68.5 -27.5t27.5 -66.5t-27.5 -67.5t-68.5 -28.5t-67.5 28.5t-26.5 67.5zM600 967q0 39 26.5 66.5t67.5 27.5t69 -27.5t28 -66.5q0 -41 -28 -69t-69 -28t-67.5 28t-26.5 69z" />
<glyph unicode="&#xf8;" horiz-adv-x="1226" d="M113 451q0 115 38.5 230.5t112.5 211.5t181.5 154.5t246.5 58.5q90 0 166 -29l62 113h100l-84 -152q94 -63 140 -171.5t46 -231.5q0 -115 -39 -230.5t-113.5 -212t-182 -154.5t-244.5 -58q-94 0 -170 28l-62 -110h-100l84 151q-94 63 -138 171t-44 231zM223 453 q0 -92 31 -174t94 -132l459 836q-55 20 -119 21q-111 0 -196.5 -49.5t-146 -130.5t-91.5 -178t-31 -193zM424 102q55 -20 123 -20q109 0 195.5 49t146 130t90.5 178.5t31 193.5q0 94 -31 176t-96 131z" />
<glyph unicode="&#xf9;" horiz-adv-x="1132" d="M139 397l146 688h114l-147 -690q-31 -152 18 -233.5t179 -81.5q119 0 205.5 66.5t142 176t82.5 234.5l110 528h115l-230 -1085h-114l41 197h-8q-23 -33 -71 -85.5t-123.5 -92t-184.5 -39.5q-162 0 -239 111.5t-36 305.5zM532 1591h113l117 -329l-90 -2z" />
<glyph unicode="&#xfa;" horiz-adv-x="1132" d="M139 397l146 688h114l-147 -690q-31 -152 18 -233.5t179 -81.5q119 0 205.5 66.5t142 176t82.5 234.5l110 528h115l-230 -1085h-114l41 197h-8q-23 -33 -71 -85.5t-123.5 -92t-184.5 -39.5q-162 0 -239 111.5t-36 305.5zM684 1262l162 329h117l-185 -331z" />
<glyph unicode="&#xfb;" horiz-adv-x="1132" d="M139 397l146 688h114l-147 -690q-31 -152 18 -233.5t179 -81.5q119 0 205.5 66.5t142 176t82.5 234.5l110 528h115l-230 -1085h-114l41 197h-8q-23 -33 -71 -85.5t-123.5 -92t-184.5 -39.5q-162 0 -239 111.5t-36 305.5zM442 1243l301 322h107l166 -322h-105l-123 246 l-225 -246h-121z" />
<glyph unicode="&#xfc;" horiz-adv-x="1132" d="M139 397l146 688h114l-147 -690q-31 -152 18 -233.5t179 -81.5q119 0 205.5 66.5t142 176t82.5 234.5l110 528h115l-230 -1085h-114l41 197h-8q-23 -33 -71 -85.5t-123.5 -92t-184.5 -39.5q-162 0 -239 111.5t-36 305.5zM502 1368q0 37 25.5 63.5t64.5 26.5t65.5 -26.5 t26.5 -63.5t-26.5 -63.5t-65.5 -26.5t-64.5 26.5t-25.5 63.5zM821 1368q0 37 25.5 63.5t64.5 26.5t66 -26.5t27 -63.5t-27 -63.5t-66 -26.5t-64.5 26.5t-25.5 63.5z" />
<glyph unicode="&#xfd;" horiz-adv-x="1097" d="M-139 -393l20 102l28 -3t58 -3q109 0 210.5 69.5t187.5 209.5l8 16l-193 1087h113l168 -948l569 948h129l-690 -1134q-109 -180 -238.5 -266t-281.5 -86q-39 0 -63 4zM631 1262l162 329h116l-184 -331z" />
<glyph unicode="&#xfe;" horiz-adv-x="1275" d="M-20 -399l319 1484l100 471h113l-100 -471l-41 -188h8l23 32q24 32 71 72.5t119 72.5t168 32q137 0 228 -66.5t136 -173t45 -229.5q0 -117 -37.5 -233.5t-110.5 -212t-177.5 -153.5t-239.5 -58q-104 0 -173 34.5t-109.5 81.5t-59 88t-22.5 52h-11l-49 -236l-86 -399h-114 zM289 444q0 -98 32.5 -180t102.5 -132t178 -50q109 0 193 49t143 132t90 181.5t31 194.5t-33 179t-102.5 134.5t-175.5 51.5q-109 0 -193 -50.5t-143.5 -132.5t-91 -181.5t-31.5 -195.5z" />
<glyph unicode="&#xff;" horiz-adv-x="1097" d="M-139 -393l20 102l28 -3t58 -3q109 0 210.5 69.5t187.5 209.5l8 16l-193 1087h113l168 -948l569 948h129l-690 -1134q-109 -180 -238.5 -266t-281.5 -86q-39 0 -63 4zM449 1368q0 37 25.5 63.5t64.5 26.5t65.5 -26.5t26.5 -63.5t-26.5 -63.5t-65.5 -26.5t-64.5 26.5 t-25.5 63.5zM768 1368q0 37 25.5 63.5t64.5 26.5t65.5 -26.5t26.5 -63.5t-26.5 -63.5t-65.5 -26.5t-64.5 26.5t-25.5 63.5z" />
<glyph unicode="&#x152;" horiz-adv-x="1908" d="M129 631q0 156 57.5 312.5t169 285.5t273.5 208t370 79h996l-23 -105h-764l-125 -584h666l-20 -104h-668l-129 -619h774l-23 -104h-925q-162 0 -281 51t-195.5 140.5t-114.5 202t-38 237.5zM246 637q0 -141 55 -262t171 -196t296 -75h49l277 1307h-97q-180 0 -320 -69.5 t-236.5 -183.5t-145.5 -250t-49 -271z" />
<glyph unicode="&#x153;" horiz-adv-x="2068" d="M113 451q0 115 38.5 230.5t112.5 211.5t181.5 154.5t246.5 58.5q168 0 267.5 -89t134.5 -222q72 135 195.5 223t287.5 88q129 0 214 -48t129 -130t53 -182.5t-13 -204.5l-6 -25h-842q-10 -119 20.5 -218t105.5 -157.5t196 -58.5q102 0 171.5 35t111.5 81t61 82l18 35h109 l-15 -33q-14 -34 -48 -84.5t-89 -100.5t-136 -83.5t-192 -33.5q-168 0 -266 87t-135 220q-70 -133 -192.5 -220t-288.5 -87q-147 0 -242.5 66.5t-141.5 174t-46 230.5zM223 453q0 -98 35 -182.5t106.5 -136.5t182.5 -52t196.5 50t145 133t90.5 179.5t31 190.5q0 98 -35 181 t-105.5 135.5t-181.5 52.5t-196.5 -49.5t-146 -130.5t-91.5 -178t-31 -193zM1130 610h732q16 102 -5.5 191.5t-90 146t-195.5 56.5q-113 0 -201 -53.5t-149.5 -144t-90.5 -196.5z" />
<glyph unicode="&#x178;" horiz-adv-x="1261" d="M231 1516h117l295 -838l649 838h138l-746 -957l-119 -559h-114l118 561zM627 1798q0 37 25.5 63.5t64.5 26.5t65.5 -26.5t26.5 -63.5t-26.5 -63.5t-65.5 -26.5t-64.5 26.5t-25.5 63.5zM946 1798q0 37 25.5 63.5t64.5 26.5t65.5 -26.5t26.5 -63.5t-26.5 -63.5t-65.5 -26.5 t-64.5 26.5t-25.5 63.5z" />
<glyph unicode="&#x2c6;" horiz-adv-x="1005" d="M348 1194l301 322h107l166 -322h-103l-125 246l-225 -246h-121z" />
<glyph unicode="&#x2dc;" horiz-adv-x="757" d="M346 1280q18 102 62.5 166.5t123.5 64.5q51 0 83 -23.5t53.5 -54t43 -55t52.5 -24.5q70 0 94 147h84q-18 -98 -61 -165.5t-123 -67.5q-47 0 -78 24.5t-53.5 56t-45 55t-53.5 23.5q-37 0 -61.5 -40.5t-36.5 -106.5h-84z" />
<glyph unicode="&#x2000;" horiz-adv-x="1054" />
<glyph unicode="&#x2001;" horiz-adv-x="2109" />
<glyph unicode="&#x2002;" horiz-adv-x="1054" />
<glyph unicode="&#x2003;" horiz-adv-x="2109" />
<glyph unicode="&#x2004;" horiz-adv-x="703" />
<glyph unicode="&#x2005;" horiz-adv-x="527" />
<glyph unicode="&#x2006;" horiz-adv-x="351" />
<glyph unicode="&#x2007;" horiz-adv-x="351" />
<glyph unicode="&#x2008;" horiz-adv-x="263" />
<glyph unicode="&#x2009;" horiz-adv-x="421" />
<glyph unicode="&#x200a;" horiz-adv-x="117" />
<glyph unicode="&#x2010;" horiz-adv-x="1204" d="M231 590l11 102h762l-11 -102h-762z" />
<glyph unicode="&#x2011;" horiz-adv-x="1204" d="M231 590l11 102h762l-11 -102h-762z" />
<glyph unicode="&#x2012;" horiz-adv-x="1204" d="M231 590l11 102h762l-11 -102h-762z" />
<glyph unicode="&#x2013;" horiz-adv-x="1306" d="M231 590l13 102h862l-10 -102h-865z" />
<glyph unicode="&#x2014;" horiz-adv-x="1640" d="M231 590l15 102h1194l-15 -102h-1194z" />
<glyph unicode="&#x2018;" horiz-adv-x="407" d="M209 1249q0 41 27.5 88t91.5 140l24 39h68l-105 -173q41 -2 66 -29.5t25 -64.5q0 -39 -28 -66.5t-71 -27.5q-39 0 -68.5 23.5t-29.5 70.5z" />
<glyph unicode="&#x2019;" horiz-adv-x="393" d="M219 1176l105 172q-41 2 -66 29.5t-25 64.5q0 39 28 66.5t71 27.5q39 0 68.5 -24.5t29.5 -69.5q0 -41 -27.5 -88t-91.5 -142l-24 -36h-68z" />
<glyph unicode="&#x201a;" horiz-adv-x="602" d="M61 -184l107 172q-43 2 -66.5 30.5t-23.5 63.5q0 41 26.5 68.5t69.5 27.5q41 0 70.5 -24.5t29.5 -71.5q0 -39 -28.5 -86t-89.5 -141l-27 -39h-68z" />
<glyph unicode="&#x201c;" horiz-adv-x="700" d="M209 1249q0 41 27.5 88t91.5 140l24 39h68l-105 -173q41 -2 66 -29.5t25 -64.5q0 -39 -28 -66.5t-71 -27.5q-39 0 -68.5 23.5t-29.5 70.5zM502 1249q0 41 27.5 88t91.5 140l24 39h70l-107 -173q43 -2 66.5 -29.5t23.5 -64.5q0 -39 -26.5 -66.5t-71.5 -27.5 q-39 0 -68.5 23.5t-29.5 70.5z" />
<glyph unicode="&#x201d;" horiz-adv-x="686" d="M219 1176l105 172q-41 2 -66 29.5t-25 64.5q0 39 28 66.5t71 27.5q39 0 68.5 -24.5t29.5 -69.5q0 -41 -27.5 -88t-91.5 -142l-24 -36h-68zM512 1176l106 172q-43 2 -66.5 29.5t-23.5 64.5q0 39 27 66.5t70 27.5q41 0 70.5 -24.5t29.5 -69.5q0 -41 -28.5 -88t-90.5 -142 l-26 -36h-68z" />
<glyph unicode="&#x201e;" horiz-adv-x="806" d="M63 -184l107 172q-43 2 -66.5 30.5t-23.5 63.5q0 41 26.5 68.5t69.5 27.5q41 0 70.5 -24.5t29.5 -71.5q0 -39 -28.5 -86t-89.5 -141l-27 -39h-68zM356 -184l107 172q-43 2 -66.5 30.5t-23.5 63.5q0 41 26.5 68.5t71.5 27.5q39 0 68.5 -24.5t29.5 -71.5q0 -39 -27.5 -86 t-90.5 -141l-25 -39h-70z" />
<glyph unicode="&#x2022;" horiz-adv-x="933" d="M266 788q0 68 32 123.5t88 89t126 33.5t126 -33.5t89 -89t33 -123.5t-33 -125t-89 -89.5t-126 -32.5t-126 33.5t-88 90t-32 123.5z" />
<glyph unicode="&#x2026;" horiz-adv-x="1486" d="M59 82q0 39 28 67.5t69 28.5q39 0 67.5 -28.5t28.5 -67.5t-28.5 -67.5t-67.5 -28.5q-41 0 -69 28.5t-28 67.5zM551 82q0 39 27.5 67.5t68.5 28.5q39 0 67.5 -28.5t28.5 -67.5t-28.5 -67.5t-67.5 -28.5q-41 0 -68.5 28.5t-27.5 67.5zM1053 82q0 39 27.5 67.5t68.5 28.5 q39 0 67.5 -28.5t28.5 -67.5t-28.5 -67.5t-67.5 -28.5q-41 0 -68.5 28.5t-27.5 67.5z" />
<glyph unicode="&#x202f;" horiz-adv-x="421" />
<glyph unicode="&#x2039;" horiz-adv-x="724" d="M104 657l504 420h146l-521 -432l316 -409h-119z" />
<glyph unicode="&#x203a;" horiz-adv-x="724" d="M25 236l520 432l-316 409h119l328 -422l-506 -419h-145z" />
<glyph unicode="&#x205f;" horiz-adv-x="527" />
<glyph unicode="&#x20ac;" d="M84 594l18 90h246q0 88 19 176h-226l19 90h229q49 158 152.5 291t262.5 214t372 81q100 0 184 -14.5t134 -27.5l50 -13l-22 -109l-50 14q-51 15 -130.5 29.5t-167.5 14.5q-176 0 -309.5 -66t-223.5 -175.5t-133 -238.5h606l-18 -90h-613q-20 -88 -20 -174v-2h596l-19 -90 h-571q16 -137 81.5 -253t181.5 -186.5t284 -70.5q98 0 185 20.5t141 41.5l55 20l-23 -113l-47 -19q-47 -18 -130 -36t-189 -18q-207 0 -347.5 85t-217 225t-93.5 304h-266z" />
<glyph unicode="&#x2122;" horiz-adv-x="1648" d="M264 1436l19 80h557l-17 -80h-235l-135 -637h-88l135 637h-236zM821 799l154 717h117l139 -437l325 437h121l-151 -717h-88l125 587l-310 -407h-82l-135 414l-127 -594h-88z" />
<glyph unicode="&#x25fc;" horiz-adv-x="1085" d="M0 0v1085h1085v-1085h-1085z" />
</font>
</defs>
</svg>
