<?xml version="1.0" standalone="no"?>
<!DOCTYPE svg PUBLIC "-//W3C//DTD SVG 1.1//EN" "http://www.w3.org/Graphics/SVG/1.1/DTD/svg11.dtd" >
<svg xmlns="http://www.w3.org/2000/svg" xmlns:xlink="http://www.w3.org/1999/xlink" version="1.1">
<metadata></metadata>
<defs>
<font id="be_vietnam_prothin" horiz-adv-x="1290" >
<font-face units-per-em="2048" ascent="1638" descent="-410" />
<missing-glyph horiz-adv-x="471" />
<glyph horiz-adv-x="0" />
<glyph horiz-adv-x="682" />
<glyph unicode="&#xd;" horiz-adv-x="1228" />
<glyph unicode=" "  horiz-adv-x="471" />
<glyph unicode="&#x09;" horiz-adv-x="471" />
<glyph unicode="&#xa0;" horiz-adv-x="471" />
<glyph unicode="!" horiz-adv-x="473" d="M164 53q0 31 20.5 52.5t51.5 21.5t52 -21.5t21 -52.5t-21 -52t-52 -21t-51.5 21.5t-20.5 51.5zM203 1516h69v-1233h-61z" />
<glyph unicode="&#x22;" horiz-adv-x="518" d="M164 1210v306h69l-20 -306h-49zM367 1210v306h69l-20 -306h-49z" />
<glyph unicode="#" horiz-adv-x="1509" d="M98 463l15 69h301l92 453h-297l14 70h297l92 461h70l-92 -461h452l93 461h69l-92 -461h299l-14 -70h-299l-92 -453h294l-14 -69h-293l-94 -463h-70l95 463h-453l-94 -463h-70l94 463h-303zM483 532h453l92 453h-453z" />
<glyph unicode="$" horiz-adv-x="1259" d="M109 453h71l3 -38t21.5 -94.5t61.5 -115t122 -101.5t204 -51v690l-43 9q-213 43 -309.5 139t-96.5 246q0 125 63.5 213t166 135t219.5 51v182h70v-184q129 -8 211.5 -54t130 -108.5t69 -123t26.5 -100.5l5 -40h-68l-5 33q-5 33 -24.5 83t-59.5 101t-109.5 90t-175.5 47 v-657l36 -8q121 -27 219.5 -69t157 -119t58.5 -212q0 -119 -62.5 -212t-169 -147t-239.5 -58v-183h-70v185q-147 8 -239.5 58t-142.5 119.5t-71.5 136t-25.5 112.5zM213 1137q0 -141 94 -208t256 -102l29 -6v643q-115 -4 -201 -48t-132 -117.5t-46 -161.5zM662 51 q104 4 195 47t147.5 119t56.5 180t-47 167t-130 99.5t-194 59.5l-28 6v-678z" />
<glyph unicode="%" horiz-adv-x="1570" d="M133 1264q0 70 30 131t88 101t146 40t146.5 -40t88.5 -101.5t30 -130.5q0 -68 -30 -130.5t-88.5 -102.5t-146.5 -40t-146 40t-88 102.5t-30 130.5zM197 1266q0 -82 50 -149.5t150 -67.5q102 0 151.5 67.5t49.5 149.5q0 53 -21.5 102t-66.5 81t-113 32q-66 0 -110.5 -32 t-67 -81t-22.5 -102zM338 0l821 1516h74l-821 -1516h-74zM909 252q0 70 30 131t88 101t147 40q88 0 146 -40t88 -101t30 -131q0 -68 -30 -130.5t-88 -102t-146 -39.5t-146.5 39.5t-88.5 102t-30 130.5zM973 254q0 -82 50.5 -149.5t150.5 -67.5q102 0 151 67.5t49 149.5 q0 53 -21.5 102.5t-66.5 81t-112 31.5q-66 0 -111 -31.5t-67.5 -81t-22.5 -102.5z" />
<glyph unicode="&#x26;" horiz-adv-x="1419" d="M113 410q0 113 49 196.5t127 145t166 104.5q-27 29 -69 80t-74.5 120.5t-32.5 153.5q0 106 47 178t123.5 110t164.5 38q76 0 145.5 -34t115 -100.5t45.5 -162.5q0 -125 -78 -215t-248 -174l-29 -14l479 -539q70 102 109 248.5t39 339.5h70q0 -213 -46.5 -372t-123.5 -269 l217 -244h-97l-165 186q-92 -106 -211 -156t-242 -50q-135 0 -243.5 54t-173 151.5t-64.5 224.5zM184 412q0 -113 57.5 -194t151.5 -124t205 -43q115 0 219.5 46t183.5 141l-501 567q-47 -25 -101.5 -56.5t-103.5 -77.5t-80 -109.5t-31 -149.5zM346 1208q0 -78 34 -140 t75 -108.5t65 -72.5l41 18q147 68 218 143.5t71 184.5q0 80 -35 132t-89 78.5t-114 26.5q-106 0 -186 -66.5t-80 -195.5z" />
<glyph unicode="'" horiz-adv-x="315" d="M164 1210v306h69l-20 -306h-49z" />
<glyph unicode="(" horiz-adv-x="796" d="M123 647q0 193 44 368t121 315t180 231.5t222 113.5v-65q-102 -23 -192 -108t-160 -216t-109 -295t-39 -344t39 -344t109 -295t160 -216t192 -107v-66q-119 23 -222 114t-180 231t-121 315.5t-44 367.5z" />
<glyph unicode=")" horiz-adv-x="796" d="M106 -315q102 23 192.5 107.5t160 215.5t108.5 295t39 344t-39 344t-108.5 295t-159.5 216t-193 108v65q119 -23 222.5 -114t180.5 -231t121 -315t44 -368t-44 -368t-121 -315t-180.5 -231t-222.5 -114v66z" />
<glyph unicode="*" horiz-adv-x="1013" d="M102 1196l23 68l348 -115v367h70v-367l348 115l20 -68l-346 -113l213 -295l-55 -40l-215 294l-215 -294l-57 40l215 295z" />
<glyph unicode="+" horiz-adv-x="1245" d="M242 606v70h346v346h69v-346h347v-70h-347v-346h-69v346h-346z" />
<glyph unicode="," horiz-adv-x="495" d="M164 -150l84 140q-37 2 -56.5 25.5t-19.5 50.5q0 29 20.5 53t59.5 24q31 0 55.5 -18.5t24.5 -56.5q0 -31 -19.5 -65t-66.5 -105l-31 -48h-51z" />
<glyph unicode="-" horiz-adv-x="1245" d="M242 606v70h762v-70h-762z" />
<glyph unicode="." horiz-adv-x="481" d="M164 68q0 31 21.5 53t54.5 22t55 -22.5t22 -52.5q0 -33 -22 -55.5t-55 -22.5t-54.5 22.5t-21.5 55.5z" />
<glyph unicode="/" horiz-adv-x="1011" d="M164 -242l706 1917h70l-707 -1917h-69z" />
<glyph unicode="0" horiz-adv-x="1261" d="M123 758q0 156 31.5 296t95 248.5t159 171t222.5 62.5t222 -62.5t158.5 -171t95.5 -249t32 -295.5q0 -156 -32 -296t-95.5 -249t-158.5 -171t-222 -62t-222.5 62t-159 171t-95 249t-31.5 296zM197 758q0 -227 56 -386t154.5 -241t223.5 -82q127 0 224 82t153.5 240.5 t56.5 386.5q0 227 -56.5 384.5t-153.5 239.5t-224 82q-125 0 -223.5 -82t-154.5 -239.5t-56 -384.5z" />
<glyph unicode="1" horiz-adv-x="661" d="M113 1315v45l49 6q90 10 135 45t72 86l10 19h37v-1516h-72v1315h-231z" />
<glyph unicode="2" horiz-adv-x="1198" d="M127 57l389 383q115 113 216.5 215.5t166 209t64.5 229.5t-55.5 205.5t-141.5 124.5t-180 42t-181.5 -44t-141.5 -133t-54 -226h-74q0 160 66.5 264.5t170 156.5t214.5 52q115 0 217 -49t166.5 -147.5t64.5 -245.5q0 -137 -68.5 -253t-176 -224.5t-228.5 -227.5 l-323 -317h835v-72h-944z" />
<glyph unicode="3" horiz-adv-x="1269" d="M160 436h73q0 -129 58.5 -215t152 -129t197.5 -43q106 0 199.5 43t151 126t57.5 206q0 156 -99.5 245t-269.5 89h-201v67h201q92 0 169 35t122 101.5t45 166.5q0 111 -54.5 186t-139.5 113.5t-181 38.5q-94 0 -181 -42t-142.5 -128t-55.5 -219h-74q0 156 67 257.5 t171 151.5t217 50t215.5 -47t167 -136t64.5 -220q0 -106 -54.5 -196.5t-173.5 -137.5v-6q125 -45 192.5 -143.5t67.5 -231.5q0 -137 -66.5 -235.5t-175 -150.5t-239.5 -52q-125 0 -234.5 50t-178 152.5t-68.5 253.5z" />
<glyph unicode="4" horiz-adv-x="1247" d="M78 393v68l749 1055h72v-1057h264v-68h-264v-391h-70v391zM160 459h669v942z" />
<glyph unicode="5" horiz-adv-x="1331" d="M184 436h74l4 -39t23.5 -96t63.5 -115.5t123 -97.5t204 -39q137 0 230 67.5t141.5 172t48.5 215.5t-46 212t-139.5 164.5t-234.5 63.5q-113 0 -187.5 -36t-118.5 -83t-62 -83l-17 -35h-72l127 809h733v-68h-676l-94 -606h4l21 26q20 25 64 60t113 60.5t165 25.5 q164 0 273.5 -74t164.5 -191.5t55 -246.5q0 -98 -31.5 -191.5t-94 -168t-154.5 -118.5t-213 -44t-206 32.5t-138 85t-84 110.5t-44.5 110.5t-16.5 85.5z" />
<glyph unicode="6" horiz-adv-x="1323" d="M162 639q0 111 22.5 233.5t71.5 240.5t129 213t195.5 152.5t271.5 57.5q96 0 167 -16l71 -17v-69l-34 8t-87.5 16t-114.5 8q-168 0 -283.5 -71.5t-188.5 -188t-107.5 -257t-38.5 -277.5q12 35 41.5 89t81 109.5t131 92t194.5 36.5q158 0 264.5 -73.5t159.5 -190.5 t53 -246q0 -127 -53 -243.5t-159.5 -191t-268.5 -74.5q-176 0 -291 89t-171 239.5t-56 330.5zM268 489q0 -111 46 -211t138.5 -164.5t227.5 -64.5q137 0 227 64.5t136.5 166t46.5 209.5q0 111 -46.5 212.5t-136.5 165t-227 63.5q-135 0 -227.5 -64.5t-138.5 -165t-46 -211.5 z" />
<glyph unicode="7" horiz-adv-x="1167" d="M94 1444v72h961v-64l-41 -53t-105.5 -150.5t-138.5 -231.5t-141.5 -296t-113.5 -344t-54 -377h-72q10 199 58.5 387t119 356t147.5 306.5t143.5 240t105.5 154.5h-869z" />
<glyph unicode="8" horiz-adv-x="1277" d="M154 418q0 133 74.5 241.5t213.5 157.5v8q-123 49 -180 142.5t-57 191.5q0 94 48 180t145.5 141.5t240.5 55.5q145 0 241.5 -55.5t144.5 -141.5t48 -180q0 -98 -57.5 -191.5t-179.5 -142.5v-8q139 -49 213.5 -157.5t74.5 -241.5q0 -109 -54 -209t-161.5 -164.5 t-269.5 -64.5q-160 0 -268.5 64.5t-162.5 164.5t-54 209zM227 420q0 -94 46 -179t137.5 -138.5t228.5 -53.5t228 53.5t137.5 138.5t46.5 179q0 90 -46.5 173t-137.5 136t-228 53t-228.5 -53t-137.5 -136t-46 -173zM279 1159q0 -74 40.5 -144.5t120.5 -115.5t199 -45t199 45 t120.5 115.5t40.5 144.5q0 78 -40.5 148.5t-120.5 114.5t-199 44t-199 -44t-120.5 -114.5t-40.5 -148.5z" />
<glyph unicode="9" horiz-adv-x="1323" d="M162 1026q0 127 53 243.5t160.5 191.5t267.5 75q176 0 291 -89t171 -238.5t56 -331.5q0 -111 -22.5 -234t-71.5 -240.5t-129 -213t-195.5 -152.5t-271.5 -57q-96 0 -167 16l-71 16v70l34 -8t87.5 -16.5t114.5 -8.5q168 0 283.5 72t188.5 188.5t107.5 257t38.5 277.5 q-12 -35 -41.5 -89.5t-81 -109.5t-131 -92t-194.5 -37q-158 0 -264.5 74t-159.5 191.5t-53 244.5zM233 1026q0 -111 46.5 -211t137.5 -164.5t226 -64.5q137 0 228.5 64.5t137.5 166t46 209.5q0 111 -46 212t-137.5 164.5t-228.5 63.5q-135 0 -226 -64.5t-137.5 -164.5 t-46.5 -211z" />
<glyph unicode=":" horiz-adv-x="481" d="M164 57q0 31 21.5 53.5t54.5 22.5t55 -22.5t22 -53.5q0 -33 -22 -55t-55 -22t-54.5 22.5t-21.5 54.5zM164 1030q0 31 21.5 53.5t54.5 22.5t55 -22.5t22 -53.5q0 -33 -22 -55.5t-55 -22.5t-54.5 22.5t-21.5 55.5z" />
<glyph unicode=";" horiz-adv-x="495" d="M164 -145l84 139q-37 2 -56.5 25.5t-19.5 50.5q0 29 20.5 53t59.5 24q31 0 55.5 -18t24.5 -57q0 -31 -19.5 -65t-66.5 -105l-31 -47h-51zM172 1030q0 31 21.5 53.5t54.5 22.5t55.5 -22.5t22.5 -53.5q0 -33 -22.5 -55.5t-55.5 -22.5t-54.5 22.5t-21.5 55.5z" />
<glyph unicode="&#x3c;" horiz-adv-x="1112" d="M184 651v51l744 383v-75l-654 -334l654 -332v-76z" />
<glyph unicode="=" horiz-adv-x="1445" d="M242 399v70h962v-70h-962zM242 852v70h962v-70h-962z" />
<glyph unicode="&#x3e;" horiz-adv-x="1112" d="M184 268v76l654 332l-654 334v75l744 -383v-51z" />
<glyph unicode="?" horiz-adv-x="1187" d="M164 1087q0 152 63.5 251.5t162.5 148.5t206 49q109 0 207 -46t159.5 -136t61.5 -224q0 -94 -29.5 -164.5t-78 -129t-100.5 -111.5t-100 -110.5t-78 -128t-30 -162.5v-37h-65v37q0 102 29.5 179t75.5 137t99.5 112.5t99.5 106.5t75.5 119.5t29.5 151.5q0 109 -52 184 t-134 114.5t-170 39.5q-92 0 -174 -42t-134 -125.5t-52 -213.5h-72zM502 53q0 31 20.5 52.5t50.5 21.5q31 0 52.5 -21.5t21.5 -52.5t-21.5 -52t-52.5 -21t-51 21.5t-20 51.5z" />
<glyph unicode="@" horiz-adv-x="1910" d="M123 674q0 166 52 316.5t157.5 269t261.5 187.5t360 69q170 0 320.5 -56.5t265.5 -163t181.5 -259t66.5 -345.5q0 -211 -74 -339t-215 -128q-84 0 -137 40t-81 94.5t-34 97.5h-6q-16 -43 -58 -97.5t-112 -94.5t-172 -40q-131 0 -218 65.5t-130 169t-43 216.5t43 216 t130 168.5t218 65.5q102 0 168 -36.5t102.5 -82.5t51.5 -77h6v180h63v-440q0 -33 4 -96.5t22.5 -129t60.5 -111.5t120 -46q111 0 168 108.5t57 294.5q0 184 -61.5 326.5t-169 240t-245.5 147.5t-292 50q-190 0 -333.5 -63.5t-239.5 -173t-144.5 -249t-48.5 -292.5 q0 -154 49.5 -293t147.5 -247.5t248.5 -171t353.5 -62.5q154 0 263.5 30.5t167.5 60.5l59 30l28 -56l-61 -31q-60 -32 -175.5 -64t-279.5 -32q-219 0 -382 67.5t-270.5 184.5t-160.5 267.5t-53 314.5zM573 676q0 -96 36 -186.5t108.5 -147.5t181.5 -57q111 0 183.5 56 t108.5 146.5t36 188.5t-36 187t-108.5 146.5t-183.5 57.5q-109 0 -181.5 -56.5t-108.5 -146.5t-36 -188z" />
<glyph unicode="A" horiz-adv-x="1359" d="M92 0l547 1516h82l547 -1516h-76l-162 451h-700l-162 -451h-76zM352 516h656l-328 911z" />
<glyph unicode="B" horiz-adv-x="1302" d="M184 0v1516h549q137 0 226.5 -56.5t133.5 -145.5t44 -186q0 -117 -62.5 -218t-183.5 -138v-8q145 -37 222 -137.5t77 -227.5q0 -98 -50 -189t-150.5 -150.5t-256.5 -59.5h-549zM256 70h477q129 0 215 48t128 124.5t42 158.5t-42 158t-128 125t-215 49h-477v-663zM256 799 h477q113 0 186.5 48t111.5 121.5t38 155.5q0 80 -38 154t-111.5 121t-186.5 47h-477v-647z" />
<glyph unicode="C" horiz-adv-x="1542" d="M123 760q0 145 43 283.5t129 250t214 177t300 65.5q137 0 236.5 -36t167 -93t108.5 -120.5t62.5 -121t28.5 -93.5l7 -36h-76l-10 43t-39.5 107.5t-88 129t-155 107.5t-241.5 43q-154 0 -268.5 -60t-191.5 -161.5t-115.5 -227.5t-38.5 -257q0 -133 38.5 -260t115.5 -228.5 t191.5 -162t268.5 -60.5q145 0 241.5 43t155 107.5t88 129t39.5 107.5l10 43h76l-7 -35q-7 -36 -28.5 -93.5t-62.5 -121t-108.5 -121t-167 -93t-236.5 -35.5q-172 0 -300 65.5t-214 177t-129 250.5t-43 287z" />
<glyph unicode="D" horiz-adv-x="1449" d="M184 0v1516h437q178 0 310 -65t220 -173.5t132 -243.5t44 -276t-44 -276.5t-132 -244t-220 -173t-310 -64.5h-437zM256 70h365q158 0 276.5 58t197.5 156.5t118.5 221.5t39.5 252t-39.5 252t-118.5 221t-197.5 156.5t-276.5 58.5h-365v-1376z" />
<glyph unicode="E" horiz-adv-x="1204" d="M184 0v1516h854v-70h-782v-635h682v-70h-682v-671h795v-70h-867z" />
<glyph unicode="F" horiz-adv-x="1210" d="M184 0v1516h873v-70h-801v-655h700v-70h-700v-721h-72z" />
<glyph unicode="G" horiz-adv-x="1581" d="M123 758q0 145 43 284.5t130 251t216 177t301 65.5q139 0 239.5 -35t169 -89t109.5 -114.5t63.5 -115t29.5 -88.5l8 -35h-76l-10 41q-11 41 -40.5 102.5t-89 121.5t-157.5 101t-246 41q-156 0 -272.5 -60t-193.5 -161.5t-114.5 -227.5t-37.5 -259t37.5 -259t114.5 -227.5 t192.5 -162t271.5 -60.5q180 0 304 77t189.5 212t65.5 313v31h-532v68h602v-101q0 -180 -70 -332.5t-209 -244.5t-350 -92q-172 0 -301 66.5t-215 178t-129 249.5t-43 284z" />
<glyph unicode="H" horiz-adv-x="1343" d="M184 0v1516h72v-685h831v685h72v-1516h-72v766h-831v-766h-72z" />
<glyph unicode="I" horiz-adv-x="440" d="M184 0v1516h72v-1516h-72z" />
<glyph unicode="J" horiz-adv-x="843" d="M61 -8v67l53 -6q52 -6 109 -6q365 0 365 377v1092h71v-1092q0 -221 -113.5 -332.5t-322.5 -111.5q-59 0 -111 6z" />
<glyph unicode="K" horiz-adv-x="1234" d="M184 0v1516h72v-701l752 698h102l-791 -731l824 -782h-103l-784 745v-745h-72z" />
<glyph unicode="L" horiz-adv-x="1224" d="M184 0v1516h72v-1446h815v-70h-887z" />
<glyph unicode="M" horiz-adv-x="1740" d="M184 0v1516h101l585 -1039l586 1039h100v-1516h-69v1430l-586 -1039h-61l-586 1039v-1430h-70z" />
<glyph unicode="N" horiz-adv-x="1468" d="M184 0v1516h74l954 -1395v1395h72v-1516h-74l-954 1397v-1397h-72z" />
<glyph unicode="O" horiz-adv-x="1662" d="M123 758q0 145 45 284.5t135 251t222 177t306 65.5t306.5 -65.5t222.5 -177t135 -251t45 -284.5t-45 -283.5t-135 -250t-222.5 -178t-306.5 -66.5t-306 66.5t-222 178t-135 249.5t-45 284zM197 758q0 -176 53 -309.5t144 -222.5t204.5 -133t232.5 -44t233 44t205 133 t144 222.5t53 309.5q0 178 -53 310t-144 221t-205 133t-233 44t-232.5 -44t-204.5 -133t-144 -221t-53 -310z" />
<glyph unicode="P" horiz-adv-x="1241" d="M184 0v1516h502q158 0 262.5 -67t157.5 -172.5t53 -219.5q0 -115 -53 -220.5t-157.5 -172t-262.5 -66.5h-430v-598h-72zM256 668h430q135 0 224 56t133 146.5t44 186.5q0 98 -44 187t-133 145.5t-224 56.5h-430v-778z" />
<glyph unicode="Q" horiz-adv-x="1611" d="M123 758q0 145 45 284.5t135 251t222 177t306 65.5t306.5 -65.5t222.5 -177t135 -251t45 -284.5q0 -162 -55 -315.5t-166 -264.5l178 -178h-82l-139 137q-86 -74 -197 -115.5t-248 -41.5q-174 0 -306 66.5t-222 178t-135 249.5t-45 284zM197 758q0 -176 53 -309.5 t144 -222.5t204.5 -133t232.5 -44q104 0 206 35t186 102l-318 310l51 43l312 -312q90 88 144 221.5t54 309.5q0 178 -53 310t-144 221t-205 133t-233 44t-232.5 -44t-204.5 -133t-144 -221t-53 -310z" />
<glyph unicode="R" horiz-adv-x="1308" d="M184 0v1516h461q147 0 245.5 -59.5t146.5 -152t48 -194.5q0 -94 -40.5 -180t-123.5 -146.5t-208 -74.5l420 -709h-84l-416 705h-377v-705h-72zM256 772h389q123 0 205 49t122 127t40 162t-40 161t-122 126t-205 49h-389v-674z" />
<glyph unicode="S" horiz-adv-x="1241" d="M109 436h71l3 -39t23.5 -96t70 -115.5t139.5 -97.5t233 -39q111 0 200 44t141 120t52 174q0 104 -45 170t-119.5 105.5t-162.5 60.5l-183 43q-176 43 -272 132t-96 243q0 119 58.5 208t159.5 138t228 49q137 0 225.5 -43t137.5 -106.5t72.5 -128t28.5 -107.5l5 -43h-71 l-4 36q-5 36 -24 90t-61 107.5t-117 89t-192 35.5q-123 0 -207 -44t-127 -117.5t-43 -161.5q0 -129 82 -200t232 -105l182 -43q176 -43 280.5 -141.5t104.5 -266.5q0 -111 -59.5 -204t-164 -148t-241.5 -55t-231 32.5t-153.5 85t-91.5 110.5t-46 110.5t-16 85.5z" />
<glyph unicode="T" d="M82 1446v70h1126v-70h-526v-1446h-72v1446h-528z" />
<glyph unicode="U" horiz-adv-x="1421" d="M184 553v963h72v-963q0 -233 113.5 -368.5t341.5 -135.5q227 0 340.5 135t113.5 369v963h72v-963q0 -156 -53.5 -286t-169 -208.5t-303.5 -78.5t-304 78.5t-169.5 208.5t-53.5 286z" />
<glyph unicode="V" horiz-adv-x="1380" d="M102 1516h76l512 -1428l512 1428h76l-547 -1516h-82z" />
<glyph unicode="W" horiz-adv-x="2070" d="M123 1516h76l389 -1410l409 1410h76l410 -1410l389 1410h76l-424 -1516h-82l-406 1409l-407 -1409h-82z" />
<glyph unicode="X" horiz-adv-x="1327" d="M102 0l514 758l-514 758h84l478 -703l477 703h84l-514 -758l514 -758h-84l-477 700l-478 -700h-84z" />
<glyph unicode="Y" horiz-adv-x="1353" d="M72 1516h82l524 -875l522 875h82l-569 -947v-569h-72v569z" />
<glyph unicode="Z" horiz-adv-x="1269" d="M141 0v66l910 1380h-910v70h996v-66l-910 -1380h910v-70h-996z" />
<glyph unicode="[" horiz-adv-x="862" d="M184 -381v2056h514v-65h-444v-1925h444v-66h-514z" />
<glyph unicode="\" horiz-adv-x="993" d="M53 1675h70l706 -1917h-69z" />
<glyph unicode="]" horiz-adv-x="862" d="M164 -315h444v1925h-444v65h514v-2056h-514v66z" />
<glyph unicode="^" horiz-adv-x="1013" d="M242 1204l227 312h76l227 -312h-76l-188 254l-191 -254h-75z" />
<glyph unicode="_" horiz-adv-x="1437" d="M242 0h954v-70h-954v70z" />
<glyph unicode="`" horiz-adv-x="413" d="M104 1577h84l174 -311h-69z" />
<glyph unicode="a" horiz-adv-x="1280" d="M133 543q0 104 31 204.5t91 181.5t151.5 129t214.5 48q98 0 168.5 -29.5t118.5 -72.5t78 -86.5t42 -71.5h8v239h70v-1085h-70v240h-8q-12 -27 -42 -71t-78 -87t-118.5 -72.5t-168.5 -29.5q-123 0 -214.5 47t-151.5 128t-91 181t-31 207zM203 543q0 -123 46 -235.5 t139 -185.5t235 -73q139 0 232 73t139 185.5t46 235.5t-46 235.5t-139 185t-232 72.5q-141 0 -234.5 -72.5t-139.5 -185t-46 -235.5z" />
<glyph unicode="b" d="M184 0v1556h70v-710h8q12 29 42 72t78 86t118.5 72.5t169.5 29.5q123 0 214 -47t151.5 -128t91 -181.5t30.5 -206.5q0 -104 -30.5 -204.5t-91 -181.5t-151.5 -129t-214 -48q-98 0 -169 29.5t-119 72.5t-78 87t-42 71h-8v-240h-70zM250 543q0 -121 46 -234.5t139.5 -186.5 t232.5 -73q143 0 235 73t138 186.5t46 234.5q0 123 -46 235.5t-138 185t-235 72.5q-139 0 -232.5 -72.5t-139.5 -185t-46 -235.5z" />
<glyph unicode="c" horiz-adv-x="1228" d="M133 543q0 106 32 206.5t96.5 181.5t159.5 128t224 47q121 0 201 -36t130 -89t75.5 -107.5t34.5 -89.5l10 -36h-72l-7 28q-7 29 -28.5 73t-63.5 87t-109.5 71.5t-168.5 28.5q-147 0 -245.5 -71.5t-147.5 -184t-49 -237.5q0 -123 49 -236.5t147.5 -185.5t245.5 -72 q100 0 168 28.5t110 73t63.5 87.5t28.5 72l7 28h72l-10 -36q-9 -36 -34.5 -89t-75.5 -107.5t-130 -90t-201 -35.5q-129 0 -224 47t-159.5 128t-96.5 181t-32 207z" />
<glyph unicode="d" d="M133 543q0 104 31 204.5t91 181.5t151.5 129t214.5 48q98 0 168.5 -29.5t118.5 -72.5t78 -86.5t42 -71.5h8v710h70v-1556h-70v240h-8q-12 -27 -42 -71t-78 -87t-118.5 -72.5t-168.5 -29.5q-123 0 -214.5 47t-151.5 128t-91 181t-31 207zM203 543q0 -123 46 -235.5 t139.5 -185.5t234.5 -73q139 0 232 73t139 185.5t46 235.5t-46 235.5t-139 185t-232 72.5q-141 0 -234.5 -72.5t-139.5 -185t-46 -235.5z" />
<glyph unicode="e" horiz-adv-x="1198" d="M133 543q0 102 28.5 202.5t89 182.5t151 130t212.5 48q131 0 232.5 -62.5t160 -185.5t58.5 -305v-21h-856q0 -129 49 -239.5t142.5 -177t222.5 -66.5q109 0 178 39t107 90t54 90l15 39h72l-11 -33q-10 -32 -36.5 -81.5t-74.5 -98.5t-121.5 -81.5t-182.5 -32.5 q-127 0 -220.5 49t-153 131t-88 182t-28.5 201zM211 598h778q-6 166 -60.5 261t-136 135t-178.5 40q-178 0 -283.5 -120.5t-119.5 -315.5z" />
<glyph unicode="f" horiz-adv-x="770" d="M72 1024v61h225v197q0 80 26.5 147.5t85 107.5t152.5 40q41 0 77 -5l36 -5v-64l-36 5t-77 5q-113 0 -153.5 -66.5t-40.5 -164.5v-197h286v-61h-286v-1024h-70v1024h-225z" />
<glyph unicode="g" horiz-adv-x="1269" d="M133 551q0 104 31 202.5t91 178.5t151.5 127t211.5 47q98 0 170 -28.5t120 -71.5t78 -85t42 -71h8v235h70v-1036q0 -231 -125 -355t-332 -124q-125 0 -208 35t-132 86t-72.5 101t-30.5 85l-7 35h71l6 -28q5 -27 24 -68t60 -82t112 -68.5t177 -27.5q121 0 197 38.5 t118 102t57 135.5t15 135v201h-8q-12 -27 -42 -70t-78 -86t-119.5 -71.5t-170.5 -28.5q-121 0 -212 47t-151 127t-91 179t-31 204zM203 551q0 -121 46 -233.5t139.5 -183.5t232.5 -71t232 71t140 183.5t47 233.5q0 123 -46 233.5t-139 181t-232 70.5q-141 0 -234.5 -70.5 t-139.5 -182t-46 -232.5z" />
<glyph unicode="h" horiz-adv-x="1167" d="M184 0v1556h70v-696h6q16 45 58 102.5t115 100.5t179 43q121 0 206 -57.5t130 -156.5t45 -226v-666h-69v666q0 162 -80 267t-232 105q-94 0 -161.5 -40t-111.5 -105.5t-64.5 -142t-20.5 -152.5v-598h-70z" />
<glyph unicode="i" horiz-adv-x="442" d="M147 1374q0 31 20.5 52.5t51.5 21.5t52.5 -21.5t21.5 -52.5t-21.5 -52.5t-52.5 -21.5t-51.5 21.5t-20.5 52.5zM186 0v1085h70v-1085h-70z" />
<glyph unicode="j" horiz-adv-x="471" d="M-102 -371l32 -4q33 -4 70 -4q86 0 131 30t61.5 81t16.5 112v1241h70v-1241q0 -76 -25 -141t-85.5 -104t-164.5 -39q-39 0 -72 4l-34 4v61zM176 1364q0 29 20.5 51.5t51.5 22.5t52.5 -22.5t21.5 -51.5q0 -31 -21.5 -52.5t-52.5 -21.5t-51.5 21.5t-20.5 52.5z" />
<glyph unicode="k" horiz-adv-x="1009" d="M184 0v1556h70v-938l549 467h104l-567 -481l588 -604h-97l-577 592v-592h-70z" />
<glyph unicode="l" horiz-adv-x="440" d="M184 0l2 1556h70v-1556h-72z" />
<glyph unicode="m" horiz-adv-x="1843" d="M174 0v1085h70v-213h8q20 41 60 96.5t110 96.5t174 41q125 0 214 -69.5t126 -200.5h4q27 68 73 129t118.5 101t177.5 40q162 0 261 -113.5t99 -326.5v-666h-70v666q0 184 -79.5 277t-214.5 93q-117 0 -195 -65.5t-116 -172t-38 -229.5v-569h-69v666q0 184 -80 277 t-215 93q-119 0 -196 -66.5t-114.5 -173t-37.5 -227.5v-569h-70z" />
<glyph unicode="n" horiz-adv-x="1157" d="M174 0v1085h70v-225h6q16 45 58 102.5t115 100.5t179 43q121 0 206 -57.5t130 -156.5t45 -226v-666h-70v666q0 162 -79.5 267t-231.5 105q-94 0 -161.5 -40t-111.5 -105.5t-64.5 -142t-20.5 -152.5v-598h-70z" />
<glyph unicode="o" horiz-adv-x="1269" d="M133 543q0 106 31 206.5t94.5 181.5t157.5 128t219 47q127 0 220 -47t156.5 -128t94.5 -181.5t31 -206.5t-31 -206.5t-94.5 -181.5t-156.5 -128t-220 -47q-125 0 -219 47t-157.5 128t-94.5 181t-31 207zM205 543q0 -123 48 -236.5t143.5 -185.5t238.5 -72t238.5 72 t143.5 185.5t48 236.5q0 125 -48 237.5t-143.5 184t-238.5 71.5t-238.5 -71.5t-143.5 -184t-48 -237.5z" />
<glyph unicode="p" d="M184 -399v1484h70v-239h8q12 29 42 72t78 86t118.5 72.5t169.5 29.5q123 0 214 -47t151.5 -128t91 -181.5t30.5 -206.5q0 -104 -30.5 -204.5t-91 -181.5t-151.5 -129t-214 -48q-98 0 -169 29.5t-119 72.5t-78 87t-42 71h-8v-639h-70zM250 543q0 -121 46 -234.5 t139 -186.5t233 -73q143 0 235 73t138 186.5t46 234.5q0 123 -46 235.5t-138 185t-235 72.5q-139 0 -232.5 -72.5t-139.5 -185t-46 -235.5z" />
<glyph unicode="q" d="M133 543q0 104 31 204.5t91 181.5t151.5 129t214.5 48q98 0 168.5 -29.5t118.5 -72.5t78 -86.5t42 -71.5h8v239h70v-1484h-70v639h-8q-12 -27 -42 -71t-78 -87t-118.5 -72.5t-168.5 -29.5q-123 0 -214.5 47t-151.5 128t-91 181t-31 207zM203 543q0 -123 46 -235.5 t139.5 -185.5t234.5 -73q139 0 232 73t139 185.5t46 235.5t-46 235.5t-139 185t-232 72.5q-141 0 -234.5 -72.5t-139.5 -185t-46 -235.5z" />
<glyph unicode="r" horiz-adv-x="755" d="M174 0v1085h70v-151h8q35 70 101.5 121t181.5 51q43 0 75 -5l33 -5v-70l-34 5t-72 5q-51 0 -102.5 -16t-94.5 -61.5t-69.5 -127t-26.5 -213.5v-618h-70z" />
<glyph unicode="s" horiz-adv-x="952" d="M92 313h76l3 -27q3 -26 17.5 -65t48 -79t95 -66.5t160.5 -26.5q119 0 196.5 65.5t77.5 166.5q0 102 -65.5 154t-161.5 73l-136 31q-121 29 -196.5 93t-75.5 183q0 131 94 211t238 80q100 0 165.5 -32t102.5 -77t54.5 -91t21.5 -78l4 -31h-72l-6 35q-6 36 -30.5 84.5 t-81 84t-158.5 35.5q-127 0 -193.5 -64.5t-66.5 -154.5q0 -86 57 -133t158 -72l135 -32q139 -33 213 -108t74 -191q0 -82 -44 -151t-122 -109.5t-182 -40.5q-119 0 -195 33.5t-119 83.5t-60.5 99.5t-21.5 83.5z" />
<glyph unicode="t" horiz-adv-x="784" d="M82 1024v61h205v277h69v-277h279v-61h-279v-807q0 -76 38 -126t138 -50q47 0 92 10l44 10v-61l-44 -10q-43 -10 -94 -10q-244 0 -243 237v807h-205z" />
<glyph unicode="u" horiz-adv-x="1132" d="M174 408v677h70v-677q0 -174 74.5 -267.5t211.5 -93.5q98 0 167 42t111 111.5t61.5 154.5t19.5 173v557h69v-1085h-69v225h-8q-16 -41 -55.5 -99t-111 -102t-184.5 -44q-166 0 -261 113.5t-95 314.5z" />
<glyph unicode="v" horiz-adv-x="1083" d="M72 1085h75l394 -997l395 997h76l-432 -1085h-78z" />
<glyph unicode="w" horiz-adv-x="1695" d="M72 1085h73l332 -987l334 987h74l332 -987l333 987h74l-369 -1085h-77l-330 979l-332 -979h-78z" />
<glyph unicode="x" horiz-adv-x="1091" d="M111 1085h86l350 -495l348 495h86l-385 -544l381 -541h-86l-344 492l-346 -492h-86l381 541z" />
<glyph unicode="y" horiz-adv-x="1101" d="M72 -328l26 -3q27 -3 58 -3q121 0 205.5 72t138.5 205l20 53l-430 1089h76l393 -997l395 997h76l-463 -1159q-130 -327 -415 -327q-35 0 -58 3l-22 3v67z" />
<glyph unicode="z" horiz-adv-x="1028" d="M106 0v53l738 971h-690v61h778v-53l-737 -971h737v-61h-826z" />
<glyph unicode="{" horiz-adv-x="800" d="M82 616v62h41q143 0 143 143v641q0 102 55.5 157.5t157.5 55.5h209v-65h-209q-143 0 -143 -144v-637q0 -63 -19.5 -108t-78.5 -72v-4q59 -27 78.5 -72t19.5 -108v-637q0 -143 143 -143h209v-66h-209q-102 0 -157.5 55.5t-55.5 157.5v641q0 143 -143 143h-41z" />
<glyph unicode="|" horiz-adv-x="765" d="M348 -455v2401h70v-2401h-70z" />
<glyph unicode="}" horiz-adv-x="800" d="M113 -315h209q143 0 143 143v637q0 63 19.5 108t78.5 72v4q-59 27 -78.5 72t-19.5 108v637q0 143 -143 144h-209v65h209q102 0 157.5 -55t55.5 -158v-641q0 -143 143 -143h41v-62h-41q-143 0 -143 -143v-641q0 -102 -55.5 -157.5t-157.5 -55.5h-209v66z" />
<glyph unicode="~" horiz-adv-x="878" d="M154 668q0 90 35.5 152.5t115.5 62.5q55 0 91 -24.5t63.5 -58.5t54.5 -58.5t64 -24.5q43 0 61 42t18 113h68q0 -88 -36 -151.5t-114 -63.5q-51 0 -85.5 25t-62.5 58.5t-55.5 58t-66.5 24.5q-45 0 -64.5 -41t-19.5 -114h-67z" />
<glyph unicode="&#xa1;" horiz-adv-x="473" d="M164 1020q0 31 20.5 52.5t51.5 21.5t52 -21.5t21 -52.5t-21.5 -51.5t-51.5 -20.5q-31 0 -51.5 20.5t-20.5 51.5zM203 -442l8 1233h61v-1233h-69z" />
<glyph unicode="&#xa2;" horiz-adv-x="1228" d="M133 543q0 135 52.5 259t155.5 207t259 95v160h70v-158q113 -4 189.5 -42t123.5 -90t71.5 -104.5t33.5 -87.5l8 -34h-72l-7 28q-7 27 -27.5 69t-59.5 84t-102.5 72.5t-157.5 34.5v-987q94 4 157.5 35t102.5 73t59.5 84t27.5 69l7 28h72l-8 -35q-9 -35 -33.5 -87 t-71.5 -104.5t-124 -90t-189 -41.5v-156h-70v158q-156 12 -259 95t-155.5 207t-52.5 259zM205 543q0 -117 44 -225.5t132 -181.5t219 -85v983q-131 -12 -219 -84.5t-132 -181t-44 -225.5z" />
<glyph unicode="&#xa3;" horiz-adv-x="1179" d="M117 0v76q82 16 150.5 70.5t109.5 134t41 176.5q0 61 -16.5 115.5t-41.5 105.5h-231v61h199q-47 86 -91 176.5t-44 202.5q0 129 65.5 223.5t179 144.5t256.5 50q84 0 158 -13.5t121 -27.5l47 -14v-68l-47 13q-47 14 -121 27t-156 13q-197 0 -315.5 -94t-118.5 -256 q0 -109 48 -197t98 -180h471v-61h-441q20 -49 34.5 -101.5t14.5 -113.5q0 -100 -37.5 -183t-91 -137.5t-104.5 -72.5h827v-70h-964z" />
<glyph unicode="&#xa4;" horiz-adv-x="1134" d="M143 346l144 143q-41 49 -64.5 112t-23.5 132q0 66 21.5 126.5t60.5 107.5l-138 135l47 47l136 -135q49 45 113.5 70.5t135.5 25.5q70 0 132.5 -23.5t111.5 -64.5l127 127l45 -47l-127 -127q41 -49 64.5 -110.5t23.5 -131.5q0 -72 -24.5 -136.5t-69.5 -115.5l133 -135 l-45 -45l-137 135q-47 -37 -107.5 -58.5t-126.5 -21.5q-70 0 -131 23.5t-110 64.5l-144 -143zM264 731q0 -84 42 -154.5t112.5 -112.5t156.5 -42t157 42t113 112.5t42 154.5q0 86 -42 156.5t-112.5 112.5t-157.5 42q-86 0 -156.5 -42t-112.5 -112.5t-42 -156.5z" />
<glyph unicode="&#xa5;" horiz-adv-x="1353" d="M72 1516h82l524 -875l522 875h82l-471 -785h248v-63h-287l-59 -99v-26h346v-64h-346v-479h-72v479h-344v64h344v26l-59 99h-285v63h246z" />
<glyph unicode="&#xa6;" horiz-adv-x="765" d="M348 -455v1002h70v-1002h-70zM348 877v1071h70v-1071h-70z" />
<glyph unicode="&#xa7;" horiz-adv-x="1339" d="M109 680q0 123 91 209t240 100v8q-121 55 -181 134t-60 198t58 208t159.5 138t228.5 49q137 0 225 -43t137.5 -106.5t73 -128t28.5 -107.5l5 -43h-72l-4 36q-4 36 -23.5 90.5t-61.5 107.5t-116.5 89t-191.5 36q-123 0 -207 -44t-127 -118t-43 -162q0 -129 83 -197.5 t231 -107.5l243 -63q104 -27 192.5 -71t141.5 -112.5t53 -171.5q0 -123 -91 -208t-240 -101v-8q135 -47 207.5 -144.5t72.5 -226.5q0 -111 -59.5 -204t-164 -148t-241.5 -55t-231 32.5t-153.5 85t-91.5 110.5t-46 110.5t-16 84.5l-2 33h71l3 -39t23.5 -96t70 -115.5 t139.5 -97.5t233 -39q111 0 200 44t141.5 120t52.5 174q0 104 -46.5 170t-120 104.5t-161.5 61.5l-266 70q-102 27 -191.5 70.5t-142.5 112.5t-53 171zM178 682q0 -86 48 -141.5t124 -88t160 -55.5l235 -61q205 0 301.5 79t96.5 191q0 86 -48 140.5t-124 88t-160 56.5 l-236 61q-205 0 -301 -77.5t-96 -192.5z" />
<glyph unicode="&#xa8;" horiz-adv-x="542" d="M61 1364q0 29 20.5 51.5t51.5 22.5t52.5 -22.5t21.5 -51.5q0 -31 -21.5 -52.5t-52.5 -21.5t-51.5 21.5t-20.5 52.5zM346 1364q0 29 20.5 51.5t51.5 22.5t52.5 -22.5t21.5 -51.5q0 -31 -21.5 -52.5t-52.5 -21.5t-51.5 21.5t-20.5 52.5z" />
<glyph unicode="&#xa9;" horiz-adv-x="1691" d="M123 717q0 139 45 270t136 236.5t226.5 168t315.5 62.5q182 0 317 -62.5t225.5 -168t135.5 -236.5t45 -270q0 -137 -45 -269.5t-135.5 -238t-225.5 -167.5t-317 -62q-180 0 -315.5 62t-226.5 167.5t-136 238t-45 269.5zM197 719q0 -125 41 -244t121.5 -215t202.5 -152.5 t284 -56.5t283.5 56.5t202.5 152.5t122 215t41 244t-40 242.5t-122 213t-202.5 151.5t-284.5 56q-162 0 -284 -56t-204 -151.5t-121.5 -213t-39.5 -242.5zM459 717q0 111 46 214t138 169.5t229 66.5q96 0 161 -29.5t105 -72.5t61.5 -86t28.5 -73l7 -29h-74l-10 33 q-10 34 -39 78t-86 78t-154 34q-113 0 -188.5 -55.5t-114.5 -143.5t-39 -184t39 -184.5t115 -143.5t188 -55q96 0 153.5 33.5t86.5 77.5t39 78l10 34h74l-7 -29q-7 -30 -28.5 -73t-61.5 -86t-105 -73t-161 -30q-137 0 -229 66.5t-138 170t-46 214.5z" />
<glyph unicode="&#xaa;" horiz-adv-x="772" d="M133 1061q0 61 31 98t79 56.5t99 25.5l213 27v32q0 33 -12.5 74t-48 72t-107.5 31q-59 0 -94 -20.5t-52.5 -48.5t-22.5 -48l-5 -21h-66l7 30q8 30 31.5 69t70.5 68.5t127 29.5q111 0 175.5 -63.5t64.5 -172.5v-403h-68v109h-8l-21 -30q-22 -30 -67 -60.5t-121 -30.5 q-82 0 -143.5 46t-61.5 130zM201 1063q0 -63 45 -92t100 -29q96 0 152.5 69.5t56.5 170.5v30l-207 -26q-147 -19 -147 -123z" />
<glyph unicode="&#xab;" horiz-adv-x="1167" d="M84 659l412 416h96l-412 -416l412 -413h-96zM578 659l411 416h96l-411 -416l411 -413h-96z" />
<glyph unicode="&#xac;" horiz-adv-x="1341" d="M164 1016v69h1014v-501h-66v432h-948z" />
<glyph unicode="&#xad;" horiz-adv-x="1228" d="M242 606v70h762v-70h-762z" />
<glyph unicode="&#xae;" horiz-adv-x="888" d="M82 1176q0 90 40 173t121 135t201 52q121 0 202 -52t121 -135t40 -173t-40 -173t-121 -135.5t-202 -52.5t-201.5 52.5t-120.5 135t-40 173.5zM147 1176q0 -74 33 -141.5t99.5 -111.5t164.5 -44q100 0 166 44t98.5 111.5t32.5 141.5q0 76 -32.5 143t-98 110.5t-166.5 43.5 q-98 0 -164.5 -43.5t-99.5 -111t-33 -142.5zM315 977v395h146q66 0 101.5 -34.5t35.5 -86.5q0 -39 -22.5 -71.5t-63.5 -44.5l96 -158h-63l-94 151h-78v-151h-58zM373 1178h86q39 0 59.5 22.5t20.5 48.5q0 29 -20.5 50.5t-59.5 21.5h-86v-143z" />
<glyph unicode="&#xaf;" horiz-adv-x="696" d="M61 1296v62h574v-62h-574z" />
<glyph unicode="&#xb0;" horiz-adv-x="937" d="M133 1200q0 92 46 169t122 122t168 45q94 0 170 -45t121 -122t45 -169t-45 -169t-121 -122t-170 -45q-92 0 -168 45t-122 122t-46 169zM205 1200q0 -72 34.5 -132t95 -96t134.5 -36t133.5 36t95 96t35.5 132q0 74 -35.5 134.5t-96 95t-132.5 34.5t-132.5 -35.5t-96 -95 t-35.5 -133.5z" />
<glyph unicode="&#xb1;" horiz-adv-x="1325" d="M242 0v68h841v-68h-841zM281 647v70h346v346h69v-346h346v-70h-346v-346h-69v346h-346z" />
<glyph unicode="&#xb2;" horiz-adv-x="737" d="M127 901v51l180 172q59 57 110.5 104.5t82 96.5t30.5 109q0 78 -50 117.5t-111 39.5q-63 0 -118.5 -44t-55.5 -136h-62q0 82 34 135t87 80t111 27q57 0 108 -24.5t85 -74t34 -120.5q0 -68 -31 -121t-83 -104.5t-116 -112.5l-141 -135h391v-60h-485z" />
<glyph unicode="&#xb3;" horiz-adv-x="792" d="M160 1120h63q0 -88 57.5 -129t122.5 -41q68 0 123.5 43t55.5 121q0 70 -45 108t-117 38h-96v55h96q59 0 103 35.5t44 99.5q0 70 -51 108.5t-113 38.5q-59 0 -112 -40.5t-53 -131.5h-66q0 80 35 130.5t89 74t110 23.5q86 0 154.5 -53.5t68.5 -147.5q0 -47 -24.5 -91 t-84.5 -69v-6q53 -20 89 -62t36 -108q0 -106 -74 -163.5t-168 -57.5q-59 0 -115.5 22.5t-92 71.5t-35.5 131z" />
<glyph unicode="&#xb4;" horiz-adv-x="413" d="M29 1266l174 311h84l-189 -311h-69z" />
<glyph unicode="&#xb5;" horiz-adv-x="1294" d="M145 -408l2 1493h70v-677q0 -174 76 -267.5t215 -93.5q96 0 163.5 41t109.5 110.5t61.5 155.5t19.5 174v557h70v-860q0 -88 29.5 -136t113.5 -48q33 0 51 4l17 4v-61l-19 -4q-18 -4 -53 -4q-96 0 -152.5 53t-56.5 192h-8q-16 -41 -55 -99t-110 -102t-181 -44 q-86 0 -143.5 25.5t-93 60t-51.5 60.5l-15 26l-8 -2l5 -48q5 -47 10 -117.5t5 -146.5v-246h-72z" />
<glyph unicode="&#xb6;" horiz-adv-x="1032" d="M72 1083q0 94 41 173t121.5 128.5t199.5 49.5h410v-1434h-62v1372h-155v-1372h-62v743h-131q-121 0 -201.5 47.5t-120.5 124t-40 168.5z" />
<glyph unicode="&#xb7;" horiz-adv-x="522" d="M193 760q0 31 21.5 53.5t53.5 22.5q33 0 55.5 -22.5t22.5 -53.5q0 -33 -22.5 -55.5t-55.5 -22.5t-54 22.5t-21 55.5z" />
<glyph unicode="&#xb8;" horiz-adv-x="479" d="M66 -211l110 211h66l-84 -160q16 6 36.5 10.5t45.5 4.5q96 0 143 -53.5t47 -118.5q0 -43 -22.5 -88.5t-70.5 -75t-128 -29.5q-51 0 -89 8l-38 8v66l41 -9t86 -9q84 0 118.5 40.5t34.5 83.5t-32.5 78t-100.5 35q-57 0 -91 -21l-34 -20z" />
<glyph unicode="&#xb9;" horiz-adv-x="528" d="M113 1509v37l24 6q51 12 78 28.5t47 49.5l6 10h35v-739h-63v608h-127z" />
<glyph unicode="&#xba;" horiz-adv-x="876" d="M133 1202q0 86 35 162t103.5 124t166.5 48q100 0 168 -48t102.5 -124t34.5 -162q0 -84 -34.5 -160.5t-102.5 -125t-168 -48.5q-98 0 -166.5 48.5t-103.5 125t-35 160.5zM203 1202q0 -68 26.5 -129t78.5 -101t130 -40t130.5 40t79 101.5t26.5 128.5q0 68 -26.5 130.5 t-79 101.5t-130.5 39t-130 -39t-78.5 -101.5t-26.5 -130.5z" />
<glyph unicode="&#xbb;" horiz-adv-x="1167" d="M84 246l412 413l-412 416h96l412 -416l-412 -413h-96zM578 246l411 413l-411 416h96l411 -416l-411 -413h-96z" />
<glyph unicode="&#xbc;" horiz-adv-x="1406" d="M27 1313v45l24 6q49 12 76 30.5t53 51.5l8 10h41v-733h-73v592zM283 0l727 1434h73l-729 -1434h-71zM909 162v55l340 490h86v-480h121v-65h-121v-172h-71v172h-355zM993 227h271v385z" />
<glyph unicode="&#xbd;" horiz-adv-x="1482" d="M27 1313v45l24 6q49 12 76 30.5t53 51.5l8 10h41v-733h-73v592zM283 0l727 1434h73l-729 -1434h-71zM1053 -10v53l172 162q96 90 156.5 152.5t60.5 140.5q0 74 -49.5 112.5t-108.5 38.5t-108.5 -41t-49.5 -125h-73q0 78 34.5 130.5t88 78t110.5 25.5q90 0 160 -55.5 t70 -161.5q0 -63 -32 -116.5t-84 -104t-114 -107.5l-123 -115h369v-67h-479z" />
<glyph unicode="&#xbe;" horiz-adv-x="1572" d="M102 928h70q0 -82 53.5 -120t116.5 -38q66 0 117 39t51 113q0 66 -42 101.5t-112 35.5h-94v59h94q57 0 99.5 33t42.5 92q0 63 -47.5 100t-108.5 37q-57 0 -106.5 -38.5t-49.5 -120.5h-69q0 76 33.5 125t86 73.5t107.5 24.5q86 0 155.5 -52.5t69.5 -144.5q0 -53 -29.5 -94 t-78.5 -61v-5q55 -20 89 -63t34 -104q0 -68 -35 -116t-90.5 -72.5t-116.5 -24.5q-59 0 -114.5 23.5t-90.5 72.5t-35 125zM543 0l727 1434h73l-729 -1434h-71zM1169 162v55l340 490h86v-480h121v-65h-121v-172h-71v172h-355zM1253 227h271v385z" />
<glyph unicode="&#xbf;" horiz-adv-x="1187" d="M164 -49q0 94 29.5 164.5t77.5 129t100.5 112t100.5 110.5t78 128t30 163v37h65v-37q0 -102 -29.5 -179t-75.5 -137.5t-99.5 -113t-99.5 -106.5t-75.5 -119.5t-29.5 -151.5q0 -106 52 -182t134 -116t170 -40q92 0 174 42t134 126t52 213h72q0 -150 -63.5 -250 t-163 -149.5t-205.5 -49.5q-109 0 -207 46.5t-159.5 137.5t-61.5 222zM541 1028q0 31 21 52.5t52 21.5t51.5 -21.5t20.5 -52.5q0 -29 -20.5 -50.5t-51.5 -21.5t-52 21.5t-21 50.5z" />
<glyph unicode="&#xc0;" horiz-adv-x="1339" d="M82 0l547 1516h82l546 -1516h-75l-162 451h-701l-161 -451h-76zM342 516h655l-327 911zM440 2007h84l174 -311h-69z" />
<glyph unicode="&#xc1;" horiz-adv-x="1339" d="M82 0l547 1516h82l546 -1516h-75l-162 451h-701l-161 -451h-76zM342 516h655l-327 911zM645 1696l174 311h84l-188 -311h-70z" />
<glyph unicode="&#xc2;" horiz-adv-x="1339" d="M82 0l547 1516h82l546 -1516h-75l-162 451h-701l-161 -451h-76zM342 516h655l-327 911zM406 1675l227 283h76l227 -283h-76l-188 234l-191 -234h-75z" />
<glyph unicode="&#xc3;" horiz-adv-x="1339" d="M82 0l547 1516h82l546 -1516h-75l-162 451h-701l-161 -451h-76zM342 516h655l-327 911zM416 1712q0 90 31.5 152.5t103.5 62.5q49 0 82 -24.5t57.5 -58.5t48 -58.5t54.5 -24.5q39 0 55 42t16 114h62q0 -88 -31.5 -151.5t-101.5 -63.5q-45 0 -77 24.5t-56.5 58.5t-50 58.5 t-58.5 24.5q-39 0 -56.5 -41t-17.5 -115h-61z" />
<glyph unicode="&#xc4;" horiz-adv-x="1339" d="M82 0l547 1516h82l546 -1516h-75l-162 451h-701l-161 -451h-76zM342 516h655l-327 911zM455 1794q0 31 20.5 52.5t50.5 21.5q31 0 52.5 -21.5t21.5 -52.5t-21.5 -52.5t-52.5 -21.5t-51 21.5t-20 52.5zM739 1794q0 31 20.5 52.5t51.5 21.5t52.5 -21.5t21.5 -52.5 t-21.5 -52.5t-52.5 -21.5t-51.5 21.5t-20.5 52.5z" />
<glyph unicode="&#xc5;" horiz-adv-x="1339" d="M82 0l547 1516h82l546 -1516h-75l-162 451h-701l-161 -451h-76zM342 516h655l-327 911zM479 1878q0 80 55.5 136.5t135.5 56.5t135 -56.5t55 -136.5q0 -78 -55 -134t-135 -56t-135.5 56t-55.5 134zM541 1878q0 -53 38 -91t91 -38t91 38t38 91t-38 92t-91 39t-91 -39 t-38 -92z" />
<glyph unicode="&#xc6;" horiz-adv-x="1931" d="M92 0l793 1516h880v-70h-782v-635h682v-70h-682v-671h795v-70h-867v451h-508l-235 -451h-76zM438 516h473v907z" />
<glyph unicode="&#xc7;" horiz-adv-x="1542" d="M123 760q0 145 43 283.5t129 250t214 177t300 65.5q137 0 236.5 -36t167 -93t108.5 -120.5t62.5 -121t28.5 -93.5l7 -36h-76l-10 43q-10 43 -39.5 107.5t-88 129t-155 107.5t-241.5 43q-154 0 -268.5 -60t-191.5 -161.5t-115.5 -227.5t-38.5 -257q0 -133 38.5 -260 t115.5 -228.5t191.5 -162t268.5 -60.5q145 0 241.5 43t155 107.5t88 129t39.5 107.5l10 43h76l-10 -47q-10 -47 -41 -117.5t-92.5 -143.5t-161.5 -126t-250 -63l-73 -142q16 6 36.5 10.5t44.5 4.5q96 0 143.5 -53.5t47.5 -118.5q0 -43 -22.5 -88.5t-70.5 -75t-128 -29.5 q-51 0 -89 8l-38 8v66l41 -9t86 -9q84 0 118.5 40.5t34.5 83.5t-32.5 78t-100.5 35q-57 0 -91 -21l-34 -20l-39 39l101 191q-170 2 -296 68.5t-211 178t-127 249.5t-42 284z" />
<glyph unicode="&#xc8;" horiz-adv-x="1204" d="M184 0v1516h854v-70h-782v-635h682v-70h-682v-671h795v-70h-867zM373 2007h84l174 -311h-70z" />
<glyph unicode="&#xc9;" horiz-adv-x="1204" d="M184 0v1516h854v-70h-782v-635h682v-70h-682v-671h795v-70h-867zM578 1696l174 311h84l-189 -311h-69z" />
<glyph unicode="&#xca;" horiz-adv-x="1204" d="M184 0v1516h854v-70h-782v-635h682v-70h-682v-671h795v-70h-867zM338 1675l227 283h76l227 -283h-75l-189 234l-190 -234h-76z" />
<glyph unicode="&#xcb;" horiz-adv-x="1204" d="M184 0v1516h854v-70h-782v-635h682v-70h-682v-671h795v-70h-867zM387 1794q0 31 20.5 52.5t51.5 21.5t52 -21.5t21 -52.5t-21 -52.5t-52 -21.5t-51.5 21.5t-20.5 52.5zM672 1794q0 31 20.5 52.5t50.5 21.5q31 0 52.5 -21.5t21.5 -52.5t-21.5 -52.5t-52.5 -21.5t-51 21.5 t-20 52.5z" />
<glyph unicode="&#xcc;" horiz-adv-x="440" d="M-8 2007h84l174 -311h-70zM184 0v1516h72v-1516h-72z" />
<glyph unicode="&#xcd;" horiz-adv-x="440" d="M184 0v1516h72v-1516h-72zM197 1696l174 311h84l-189 -311h-69z" />
<glyph unicode="&#xce;" horiz-adv-x="440" d="M-43 1675l227 312h76l227 -312h-75l-189 254l-190 -254h-76zM184 0v1516h72v-1516h-72z" />
<glyph unicode="&#xcf;" horiz-adv-x="440" d="M6 1794q0 31 20.5 52.5t51.5 21.5t52.5 -21.5t21.5 -52.5t-21.5 -52.5t-52.5 -21.5t-51.5 21.5t-20.5 52.5zM184 0v1516h72v-1516h-72zM291 1794q0 31 20.5 52.5t50.5 21.5q31 0 52.5 -21.5t21.5 -52.5t-21.5 -52.5t-52.5 -21.5t-51 21.5t-20 52.5z" />
<glyph unicode="&#xd0;" horiz-adv-x="1542" d="M61 725v66h215v725h437q178 0 310 -65t220 -173.5t132 -243.5t44 -276t-44 -276.5t-132 -244t-220 -173t-310 -64.5h-437v725h-215zM348 70h365q158 0 276.5 58t197.5 156.5t119 221.5t40 252t-40 252t-119 221t-198 156.5t-276 58.5h-365v-655h354v-66h-354v-655z" />
<glyph unicode="&#xd1;" horiz-adv-x="1468" d="M184 0v1516h74l954 -1395v1395h72v-1516h-74l-954 1397v-1397h-72zM504 1712q0 90 31.5 152.5t103.5 62.5q49 0 82 -24.5t57.5 -58.5t48 -58.5t54.5 -24.5q39 0 55 42t16 114h62q0 -88 -31.5 -151.5t-101.5 -63.5q-45 0 -77 24.5t-56.5 58.5t-50 58.5t-58.5 24.5 q-39 0 -56.5 -41t-17.5 -115h-61z" />
<glyph unicode="&#xd2;" horiz-adv-x="1662" d="M123 758q0 145 45 284.5t135 251t222 177t306 65.5t306.5 -65.5t222.5 -177t135 -251t45 -284.5t-45 -283.5t-135 -250t-222.5 -178t-306.5 -66.5t-306 66.5t-222 178t-135 249.5t-45 284zM197 758q0 -176 53 -309.5t144 -222.5t204.5 -133t232.5 -44t233 44t205 133 t144 222.5t53 309.5q0 178 -53 310t-144 221t-205 133t-233 44t-232.5 -44t-204.5 -133t-144 -221t-53 -310zM602 2028h84l174 -312h-69z" />
<glyph unicode="&#xd3;" horiz-adv-x="1662" d="M123 758q0 145 45 284.5t135 251t222 177t306 65.5t306.5 -65.5t222.5 -177t135 -251t45 -284.5t-45 -283.5t-135 -250t-222.5 -178t-306.5 -66.5t-306 66.5t-222 178t-135 249.5t-45 284zM197 758q0 -176 53 -309.5t144 -222.5t204.5 -133t232.5 -44t233 44t205 133 t144 222.5t53 309.5q0 178 -53 310t-144 221t-205 133t-233 44t-232.5 -44t-204.5 -133t-144 -221t-53 -310zM807 1716l174 312h84l-188 -312h-70z" />
<glyph unicode="&#xd4;" horiz-adv-x="1662" d="M123 758q0 145 45 284.5t135 251t222 177t306 65.5t306.5 -65.5t222.5 -177t135 -251t45 -284.5t-45 -283.5t-135 -250t-222.5 -178t-306.5 -66.5t-306 66.5t-222 178t-135 249.5t-45 284zM197 758q0 -176 53 -309.5t144 -222.5t204.5 -133t232.5 -44t233 44t205 133 t144 222.5t53 309.5q0 178 -53 310t-144 221t-205 133t-233 44t-232.5 -44t-204.5 -133t-144 -221t-53 -310zM567 1696l228 282h75l228 -282h-76l-188 233l-191 -233h-76z" />
<glyph unicode="&#xd5;" horiz-adv-x="1662" d="M123 758q0 145 45 284.5t135 251t222 177t306 65.5t306.5 -65.5t222.5 -177t135 -251t45 -284.5t-45 -283.5t-135 -250t-222.5 -178t-306.5 -66.5t-306 66.5t-222 178t-135 249.5t-45 284zM197 758q0 -176 53 -309.5t144 -222.5t204.5 -133t232.5 -44t233 44t205 133 t144 222.5t53 309.5q0 178 -53 310t-144 221t-205 133t-233 44t-232.5 -44t-204.5 -133t-144 -221t-53 -310zM578 1733q0 90 31.5 152.5t103.5 62.5q49 0 81.5 -25t57.5 -58.5t48.5 -58t53.5 -24.5q39 0 55.5 42t16.5 113h61q0 -88 -31.5 -151.5t-101.5 -63.5 q-45 0 -76.5 25t-56 58.5t-50.5 58t-58 24.5q-39 0 -56.5 -41t-17.5 -114h-61z" />
<glyph unicode="&#xd6;" horiz-adv-x="1662" d="M123 758q0 145 45 284.5t135 251t222 177t306 65.5t306.5 -65.5t222.5 -177t135 -251t45 -284.5t-45 -283.5t-135 -250t-222.5 -178t-306.5 -66.5t-306 66.5t-222 178t-135 249.5t-45 284zM197 758q0 -176 53 -309.5t144 -222.5t204.5 -133t232.5 -44t233 44t205 133 t144 222.5t53 309.5q0 178 -53 310t-144 221t-205 133t-233 44t-232.5 -44t-204.5 -133t-144 -221t-53 -310zM616 1815q0 31 20.5 52t51.5 21t52.5 -21.5t21.5 -51.5q0 -31 -21.5 -52.5t-52.5 -21.5t-51.5 21.5t-20.5 52.5zM901 1815q0 31 20.5 52t51.5 21t52.5 -21.5 t21.5 -51.5q0 -31 -21.5 -52.5t-52.5 -21.5t-51.5 21.5t-20.5 52.5z" />
<glyph unicode="&#xd7;" horiz-adv-x="1067" d="M242 397l243 244l-241 242l49 49l242 -242l239 240l49 -49l-239 -240l241 -242l-49 -49l-241 242l-244 -244z" />
<glyph unicode="&#xd8;" horiz-adv-x="1662" d="M123 758q0 145 45 284.5t135 251t222 177t306 65.5q115 0 210.5 -29.5t172.5 -81.5l91 140h75l-114 -179q137 -111 205.5 -279.5t68.5 -348.5q0 -145 -45 -283.5t-135 -250t-222 -178t-307 -66.5q-117 0 -215 30.5t-176 85.5l-92 -143h-76l117 182q-131 113 -198.5 280 t-67.5 343zM197 758q0 -193 64.5 -333t166.5 -228l748 1167q-78 51 -166 76.5t-179 25.5q-119 0 -232.5 -44t-204.5 -133t-144 -221t-53 -310zM479 158q78 -55 169 -82t183 -27q119 0 233 44t205 133t144 222.5t53 309.5q0 197 -66.5 339t-172.5 228z" />
<glyph unicode="&#xd9;" horiz-adv-x="1421" d="M184 553v963h72v-963q0 -233 113.5 -368.5t341.5 -135.5q227 0 340.5 135t113.5 369v963h72v-963q0 -156 -53.5 -286t-169 -208.5t-303.5 -78.5t-304 78.5t-169.5 208.5t-53.5 286zM481 2007h84l174 -311h-69z" />
<glyph unicode="&#xda;" horiz-adv-x="1421" d="M184 553v963h72v-963q0 -233 113.5 -368.5t341.5 -135.5q227 0 340.5 135t113.5 369v963h72v-963q0 -156 -53.5 -286t-169 -208.5t-303.5 -78.5t-304 78.5t-169.5 208.5t-53.5 286zM686 1696l174 311h84l-188 -311h-70z" />
<glyph unicode="&#xdb;" horiz-adv-x="1421" d="M184 553v963h72v-963q0 -233 113.5 -368.5t341.5 -135.5q227 0 340.5 135t113.5 369v963h72v-963q0 -156 -53.5 -286t-169 -208.5t-303.5 -78.5t-304 78.5t-169.5 208.5t-53.5 286zM446 1675l228 312h76l227 -312h-76l-188 254l-191 -254h-76z" />
<glyph unicode="&#xdc;" horiz-adv-x="1421" d="M184 553v963h72v-963q0 -233 113.5 -368.5t341.5 -135.5q227 0 340.5 135t113.5 369v963h72v-963q0 -156 -53.5 -286t-169 -208.5t-303.5 -78.5t-304 78.5t-169.5 208.5t-53.5 286zM496 1794q0 31 20.5 52.5t50.5 21.5q31 0 52.5 -21.5t21.5 -52.5t-21.5 -52.5 t-52.5 -21.5t-51 21.5t-20 52.5zM780 1794q0 31 20.5 52.5t51.5 21.5t52.5 -21.5t21.5 -52.5t-21.5 -52.5t-52.5 -21.5t-51.5 21.5t-20.5 52.5z" />
<glyph unicode="&#xdd;" horiz-adv-x="1353" d="M72 1516h82l524 -875l522 875h82l-569 -947v-569h-72v569zM664 1614l174 311h84l-189 -311h-69z" />
<glyph unicode="&#xde;" horiz-adv-x="1241" d="M184 0v1516h72v-299h430q158 0 262.5 -67t157.5 -172.5t53 -219.5q0 -115 -53 -220.5t-157.5 -172t-262.5 -66.5h-430v-299h-72zM256 369h430q135 0 224 56t133 146.5t44 186.5q0 98 -44 187t-133 145.5t-224 56.5h-430v-778z" />
<glyph unicode="&#xdf;" horiz-adv-x="1239" d="M184 -8v1087q0 139 56.5 241.5t153.5 159t216 56.5q111 0 209.5 -48t158.5 -138t60 -215q0 -109 -54 -199t-173 -137v-6q139 -45 210 -144.5t71 -234.5t-67 -232.5t-182.5 -149.5t-267.5 -52q-63 0 -113 6l-50 6v69l52 -6t111 -6q205 0 324 101.5t119 265.5 q0 111 -51.5 186.5t-139.5 115.5t-198 40h-201v67h201q92 0 168.5 35t122 102.5t45.5 167.5q0 109 -51.5 184t-133.5 113.5t-172 38.5q-92 0 -173 -43t-131 -128t-50 -216v-1087h-70z" />
<glyph unicode="&#xe0;" horiz-adv-x="1263" d="M143 543q0 104 31 204.5t91.5 181.5t151.5 129t214 48q98 0 168.5 -29.5t119 -72.5t78 -86.5t41.5 -71.5h9v239h69v-1085h-69v240h-9q-12 -27 -41.5 -71t-78 -87t-119 -72.5t-168.5 -29.5q-123 0 -214 47t-151.5 128t-91.5 181t-31 207zM213 543q0 -123 46 -235.5 t139.5 -185.5t234.5 -73q139 0 232 73t139.5 185.5t46.5 235.5t-46.5 235.5t-139.5 185t-232 72.5q-141 0 -234.5 -72.5t-139.5 -185t-46 -235.5zM403 1577h84l175 -311h-70z" />
<glyph unicode="&#xe1;" horiz-adv-x="1263" d="M143 543q0 104 31 204.5t91.5 181.5t151.5 129t214 48q98 0 168.5 -29.5t119 -72.5t78 -86.5t41.5 -71.5h9v239h69v-1085h-69v240h-9q-12 -27 -41.5 -71t-78 -87t-119 -72.5t-168.5 -29.5q-123 0 -214 47t-151.5 128t-91.5 181t-31 207zM213 543q0 -123 46 -235.5 t139.5 -185.5t234.5 -73q139 0 232 73t139.5 185.5t46.5 235.5t-46.5 235.5t-139.5 185t-232 72.5q-141 0 -234.5 -72.5t-139.5 -185t-46 -235.5zM608 1266l174 311h84l-188 -311h-70z" />
<glyph unicode="&#xe2;" horiz-adv-x="1263" d="M143 543q0 104 31 204.5t91.5 181.5t151.5 129t214 48q98 0 168.5 -29.5t119 -72.5t78 -86.5t41.5 -71.5h9v239h69v-1085h-69v240h-9q-12 -27 -41.5 -71t-78 -87t-119 -72.5t-168.5 -29.5q-123 0 -214 47t-151.5 128t-91.5 181t-31 207zM213 543q0 -123 46 -235.5 t139.5 -185.5t234.5 -73q139 0 232 73t139.5 185.5t46.5 235.5t-46.5 235.5t-139.5 185t-232 72.5q-141 0 -234.5 -72.5t-139.5 -185t-46 -235.5zM369 1245l227 311h76l227 -311h-76l-188 254l-191 -254h-75z" />
<glyph unicode="&#xe3;" horiz-adv-x="1263" d="M143 543q0 104 31 204.5t91.5 181.5t151.5 129t214 48q98 0 168.5 -29.5t119 -72.5t78 -86.5t41.5 -71.5h9v239h69v-1085h-69v240h-9q-12 -27 -41.5 -71t-78 -87t-119 -72.5t-168.5 -29.5q-123 0 -214 47t-151.5 128t-91.5 181t-31 207zM213 543q0 -123 46 -235.5 t139.5 -185.5t234.5 -73q139 0 232 73t139.5 185.5t46.5 235.5t-46.5 235.5t-139.5 185t-232 72.5q-141 0 -234.5 -72.5t-139.5 -185t-46 -235.5zM379 1282q0 90 31.5 152.5t103.5 62.5q49 0 82 -24.5t57.5 -58.5t48 -58.5t54.5 -24.5q39 0 55 42t16 114h62 q0 -88 -31.5 -151.5t-101.5 -63.5q-45 0 -77 24.5t-56.5 58.5t-50 58.5t-58.5 24.5q-39 0 -56.5 -41t-17.5 -115h-61z" />
<glyph unicode="&#xe4;" horiz-adv-x="1263" d="M143 543q0 104 31 204.5t91.5 181.5t151.5 129t214 48q98 0 168.5 -29.5t119 -72.5t78 -86.5t41.5 -71.5h9v239h69v-1085h-69v240h-9q-12 -27 -41.5 -71t-78 -87t-119 -72.5t-168.5 -29.5q-123 0 -214 47t-151.5 128t-91.5 181t-31 207zM213 543q0 -123 46 -235.5 t139.5 -185.5t234.5 -73q139 0 232 73t139.5 185.5t46.5 235.5t-46.5 235.5t-139.5 185t-232 72.5q-141 0 -234.5 -72.5t-139.5 -185t-46 -235.5zM418 1364q0 29 20.5 51.5t50.5 22.5q31 0 52.5 -22.5t21.5 -51.5q0 -31 -21.5 -52.5t-52.5 -21.5t-51 21.5t-20 52.5z M702 1364q0 29 20.5 51.5t51.5 22.5t52.5 -22.5t21.5 -51.5q0 -31 -21.5 -52.5t-52.5 -21.5t-51.5 21.5t-20.5 52.5z" />
<glyph unicode="&#xe5;" horiz-adv-x="1263" d="M143 543q0 104 31 204.5t91.5 181.5t151.5 129t214 48q98 0 168.5 -29.5t119 -72.5t78 -86.5t41.5 -71.5h9v239h69v-1085h-69v240h-9q-12 -27 -41.5 -71t-78 -87t-119 -72.5t-168.5 -29.5q-123 0 -214 47t-151.5 128t-91.5 181t-31 207zM213 543q0 -123 46 -235.5 t139.5 -185.5t234.5 -73q139 0 232 73t139.5 185.5t46.5 235.5t-46.5 235.5t-139.5 185t-232 72.5q-141 0 -234.5 -72.5t-139.5 -185t-46 -235.5zM442 1448q0 80 55.5 136t135.5 56t135 -56t55 -136q0 -78 -55 -134.5t-135 -56.5t-135.5 56.5t-55.5 134.5zM504 1448 q0 -53 38 -91t91 -38t91 38t38 91t-38 92t-91 39t-91 -39t-38 -92z" />
<glyph unicode="&#xe6;" horiz-adv-x="1961" d="M123 283q0 104 53 171.5t142.5 100.5t191.5 33h367v108q0 43 -11.5 101.5t-45.5 114t-98.5 91t-170.5 35.5q-92 0 -152.5 -26.5t-97.5 -65.5t-55.5 -78t-23.5 -66l-5 -26h-72l7 34q8 34 30.5 82t66.5 97t116.5 83t181.5 34q150 0 251 -71.5t134 -211.5h6 q55 123 161.5 203t268.5 80q135 0 238.5 -63.5t163 -189.5t59.5 -314v-21h-877q4 -127 55.5 -233.5t145.5 -171t223 -64.5q109 0 178.5 39t110.5 90t57 90l17 39h73l-11 -33q-11 -32 -38.5 -81.5t-78 -98.5t-127 -81.5t-185.5 -32.5q-180 0 -291.5 94t-162.5 229h-9l-13 -33 q-13 -32 -42 -80.5t-79 -96.5t-123 -80.5t-173 -32.5q-96 0 -177 33.5t-130 101t-49 168.5zM195 285q0 -82 40.5 -135.5t106 -78t141.5 -24.5q125 0 212 62.5t134.5 165t47.5 221.5v24h-367q-160 0 -237.5 -63.5t-77.5 -171.5zM954 586h799q-8 172 -62.5 269t-137.5 138 t-181 41q-188 0 -298 -123.5t-120 -324.5z" />
<glyph unicode="&#xe7;" horiz-adv-x="1249" d="M143 543q0 106 32 206.5t96.5 181.5t159.5 128t224 47q121 0 201 -36t130 -89t75.5 -107.5t34.5 -89.5l10 -36h-72l-7 28q-7 29 -28.5 73t-63.5 87t-109.5 71.5t-168.5 28.5q-147 0 -245.5 -71.5t-147.5 -184t-49 -237.5q0 -123 49 -236.5t147.5 -185.5t245.5 -72 q100 0 168 28.5t110 73t63.5 87.5t28.5 72l7 28h72l-8 -35q-8 -35 -33 -86t-71 -103.5t-120.5 -90t-185.5 -43.5l-80 -152q16 6 37 10t45 4q96 0 143.5 -53t47.5 -119q0 -43 -22.5 -88t-71 -74.5t-128.5 -29.5q-51 0 -89 8l-38 8v66l41 -10q41 -9 86 -9q84 0 119 41t35 84 t-32.5 78t-100.5 35q-57 0 -91 -21l-34 -20l-39 39l107 203q-160 10 -266.5 93t-160 208t-53.5 262z" />
<glyph unicode="&#xe8;" horiz-adv-x="1218" d="M143 543q0 102 29 202.5t89.5 182.5t150.5 130t213 48q131 0 232 -62.5t159.5 -185.5t58.5 -305v-21h-856q0 -129 49 -239.5t142.5 -177t222.5 -66.5q109 0 178.5 39t107 90t53.5 90l15 39h72l-11 -33q-10 -32 -36.5 -81.5t-74.5 -98.5t-121.5 -81.5t-182.5 -32.5 q-127 0 -220.5 49t-152.5 131t-88 182t-29 201zM221 598h778q-6 166 -60 261t-136 135t-178 40q-178 0 -284 -120.5t-120 -315.5zM395 1577h84l174 -311h-69z" />
<glyph unicode="&#xe9;" horiz-adv-x="1218" d="M143 543q0 102 29 202.5t89.5 182.5t150.5 130t213 48q131 0 232 -62.5t159.5 -185.5t58.5 -305v-21h-856q0 -129 49 -239.5t142.5 -177t222.5 -66.5q109 0 178.5 39t107 90t53.5 90l15 39h72l-11 -33q-10 -32 -36.5 -81.5t-74.5 -98.5t-121.5 -81.5t-182.5 -32.5 q-127 0 -220.5 49t-152.5 131t-88 182t-29 201zM221 598h778q-6 166 -60 261t-136 135t-178 40q-178 0 -284 -120.5t-120 -315.5zM600 1266l174 311h84l-188 -311h-70z" />
<glyph unicode="&#xea;" horiz-adv-x="1218" d="M143 543q0 102 29 202.5t89.5 182.5t150.5 130t213 48q131 0 232 -62.5t159.5 -185.5t58.5 -305v-21h-856q0 -129 49 -239.5t142.5 -177t222.5 -66.5q109 0 178.5 39t107 90t53.5 90l15 39h72l-11 -33q-10 -32 -36.5 -81.5t-74.5 -98.5t-121.5 -81.5t-182.5 -32.5 q-127 0 -220.5 49t-152.5 131t-88 182t-29 201zM221 598h778q-6 166 -60 261t-136 135t-178 40q-178 0 -284 -120.5t-120 -315.5zM360 1245l228 311h76l227 -311h-76l-188 254l-191 -254h-76z" />
<glyph unicode="&#xeb;" horiz-adv-x="1218" d="M143 543q0 102 29 202.5t89.5 182.5t150.5 130t213 48q131 0 232 -62.5t159.5 -185.5t58.5 -305v-21h-856q0 -129 49 -239.5t142.5 -177t222.5 -66.5q109 0 178.5 39t107 90t53.5 90l15 39h72l-11 -33q-10 -32 -36.5 -81.5t-74.5 -98.5t-121.5 -81.5t-182.5 -32.5 q-127 0 -220.5 49t-152.5 131t-88 182t-29 201zM221 598h778q-6 166 -60 261t-136 135t-178 40q-178 0 -284 -120.5t-120 -315.5zM410 1364q0 31 20.5 52.5t50.5 21.5q31 0 52.5 -21.5t21.5 -52.5t-21.5 -52.5t-52.5 -21.5t-51 21.5t-20 52.5zM694 1364q0 31 20.5 52.5 t51.5 21.5t52.5 -21.5t21.5 -52.5t-21.5 -52.5t-52.5 -21.5t-51.5 21.5t-20.5 52.5z" />
<glyph unicode="&#xec;" horiz-adv-x="442" d="M-8 1577h84l174 -311h-70zM186 0v1085h70v-1085h-70z" />
<glyph unicode="&#xed;" horiz-adv-x="442" d="M186 0v1085h70v-1085h-70zM197 1266l174 311h84l-189 -311h-69z" />
<glyph unicode="&#xee;" horiz-adv-x="442" d="M-43 1245l227 311h76l227 -311h-75l-189 254l-190 -254h-76zM186 0v1085h70v-1085h-70z" />
<glyph unicode="&#xef;" horiz-adv-x="442" d="M6 1364q0 31 20.5 52.5t51.5 21.5t52.5 -21.5t21.5 -52.5t-21.5 -52.5t-52.5 -21.5t-51.5 21.5t-20.5 52.5zM186 0v1085h70v-1085h-70zM291 1364q0 31 20.5 52.5t50.5 21.5q31 0 52.5 -21.5t21.5 -52.5t-21.5 -52.5t-52.5 -21.5t-51 21.5t-20 52.5z" />
<glyph unicode="&#xf0;" horiz-adv-x="1247" d="M133 543q0 106 31 206.5t91 181.5t151.5 128t214.5 47q106 0 184 -42t129 -93q-78 145 -193.5 256.5t-226.5 189.5l-233 -133l-33 55l205 119q-104 66 -176 100l-72 35l28 60l84 -39t201 -119l232 133l32 -57l-204 -117q94 -68 188 -158t173 -203.5t127 -250.5t48 -299 q0 -104 -30.5 -204.5t-92 -181.5t-153.5 -129t-215 -48t-215.5 48t-152.5 129t-91 181t-31 205zM203 543q0 -121 46 -234.5t139.5 -186.5t234.5 -73q143 0 235 73t138 186.5t46 234.5q0 123 -47 235.5t-140 185t-232 72.5q-141 0 -234.5 -72.5t-139.5 -185t-46 -235.5z" />
<glyph unicode="&#xf1;" horiz-adv-x="1167" d="M174 0v1085h70v-225h6q16 45 58 102.5t115 100.5t179 43q121 0 206 -57.5t130 -156.5t45 -226v-666h-70v666q0 162 -79.5 267t-231.5 105q-94 0 -161.5 -40t-111.5 -105.5t-64.5 -142t-20.5 -152.5v-598h-70zM334 1282q0 90 31.5 152.5t103.5 62.5q49 0 82 -24.5 t57.5 -58.5t48 -58.5t54.5 -24.5q39 0 55 42t16 114h62q0 -88 -31.5 -151.5t-101.5 -63.5q-45 0 -77 24.5t-56.5 58.5t-50 58.5t-58.5 24.5q-39 0 -56.5 -41t-17.5 -115h-61z" />
<glyph unicode="&#xf2;" d="M143 543q0 106 31 206.5t94.5 181.5t157.5 128t219 47q127 0 220 -47t156.5 -128t94.5 -181.5t31 -206.5t-31 -206.5t-94.5 -181.5t-156.5 -128t-220 -47q-125 0 -219 47t-157.5 128t-94.5 181t-31 207zM215 543q0 -123 48 -236.5t143.5 -185.5t238.5 -72t238.5 72 t143.5 185.5t48 236.5q0 125 -48 237.5t-143.5 184t-238.5 71.5t-238.5 -71.5t-143.5 -184t-48 -237.5zM416 1577h84l174 -311h-70z" />
<glyph unicode="&#xf3;" d="M143 543q0 106 31 206.5t94.5 181.5t157.5 128t219 47q127 0 220 -47t156.5 -128t94.5 -181.5t31 -206.5t-31 -206.5t-94.5 -181.5t-156.5 -128t-220 -47q-125 0 -219 47t-157.5 128t-94.5 181t-31 207zM215 543q0 -123 48 -236.5t143.5 -185.5t238.5 -72t238.5 72 t143.5 185.5t48 236.5q0 125 -48 237.5t-143.5 184t-238.5 71.5t-238.5 -71.5t-143.5 -184t-48 -237.5zM621 1266l174 311h84l-189 -311h-69z" />
<glyph unicode="&#xf4;" d="M143 543q0 106 31 206.5t94.5 181.5t157.5 128t219 47q127 0 220 -47t156.5 -128t94.5 -181.5t31 -206.5t-31 -206.5t-94.5 -181.5t-156.5 -128t-220 -47q-125 0 -219 47t-157.5 128t-94.5 181t-31 207zM215 543q0 -123 48 -236.5t143.5 -185.5t238.5 -72t238.5 72 t143.5 185.5t48 236.5q0 125 -48 237.5t-143.5 184t-238.5 71.5t-238.5 -71.5t-143.5 -184t-48 -237.5zM381 1245l227 311h76l227 -311h-75l-189 254l-190 -254h-76z" />
<glyph unicode="&#xf5;" d="M143 543q0 106 31 206.5t94.5 181.5t157.5 128t219 47q127 0 220 -47t156.5 -128t94.5 -181.5t31 -206.5t-31 -206.5t-94.5 -181.5t-156.5 -128t-220 -47q-125 0 -219 47t-157.5 128t-94.5 181t-31 207zM215 543q0 -123 48 -236.5t143.5 -185.5t238.5 -72t238.5 72 t143.5 185.5t48 236.5q0 125 -48 237.5t-143.5 184t-238.5 71.5t-238.5 -71.5t-143.5 -184t-48 -237.5zM391 1282q0 90 32 152.5t103 62.5q49 0 82 -24.5t57.5 -58.5t48 -58.5t54.5 -24.5q39 0 55.5 42t16.5 114h61q0 -88 -31.5 -151.5t-101.5 -63.5q-45 0 -77 24.5 t-56.5 58.5t-50 58.5t-58.5 24.5q-39 0 -56 -41t-17 -115h-62z" />
<glyph unicode="&#xf6;" d="M143 543q0 106 31 206.5t94.5 181.5t157.5 128t219 47q127 0 220 -47t156.5 -128t94.5 -181.5t31 -206.5t-31 -206.5t-94.5 -181.5t-156.5 -128t-220 -47q-125 0 -219 47t-157.5 128t-94.5 181t-31 207zM215 543q0 -123 48 -236.5t143.5 -185.5t238.5 -72t238.5 72 t143.5 185.5t48 236.5q0 125 -48 237.5t-143.5 184t-238.5 71.5t-238.5 -71.5t-143.5 -184t-48 -237.5zM430 1364q0 31 20.5 52.5t51.5 21.5t52 -21.5t21 -52.5t-21 -52.5t-52 -21.5t-51.5 21.5t-20.5 52.5zM715 1364q0 31 20.5 52.5t50.5 21.5q31 0 52.5 -21.5t21.5 -52.5 t-21.5 -52.5t-52.5 -21.5t-51 21.5t-20 52.5z" />
<glyph unicode="&#xf7;" horiz-adv-x="1236" d="M242 618v70h753v-70h-753zM543 332q0 31 21.5 53.5t53.5 22.5q33 0 55.5 -23t22.5 -53q0 -33 -22.5 -55.5t-55.5 -22.5t-54 22.5t-21 55.5zM543 977q0 31 21.5 53.5t53.5 22.5q33 0 55.5 -22.5t22.5 -53.5q0 -33 -22.5 -55.5t-55.5 -22.5t-54 22.5t-21 55.5z" />
<glyph unicode="&#xf8;" horiz-adv-x="1269" d="M133 543q0 106 31 206.5t94.5 181.5t157.5 128t219 47q68 0 127 -14.5t108 -42.5l80 147h76l-98 -182q104 -80 156.5 -207t52.5 -264q0 -106 -31 -206.5t-94.5 -181.5t-156.5 -128t-220 -47q-70 0 -129.5 15t-108.5 42l-78 -143h-75l98 180q-104 80 -156.5 206t-52.5 263 zM205 543q0 -117 43 -226.5t129 -179.5l461 850q-43 23 -93.5 36t-109.5 13q-143 0 -238.5 -71.5t-143.5 -184t-48 -237.5zM432 100q41 -25 92.5 -38t110.5 -13q143 0 238.5 72t143.5 184.5t48 237.5q0 119 -43 227.5t-129 179.5z" />
<glyph unicode="&#xf9;" horiz-adv-x="1142" d="M174 408v677h70v-677q0 -174 74.5 -267.5t211.5 -93.5q98 0 167 42t111 111.5t61.5 154.5t19.5 173v557h69v-1085h-69v225h-8q-16 -41 -55.5 -99t-111 -102t-184.5 -44q-166 0 -261 113.5t-95 314.5zM338 1577h84l174 -311h-70z" />
<glyph unicode="&#xfa;" horiz-adv-x="1142" d="M174 408v677h70v-677q0 -174 74.5 -267.5t211.5 -93.5q98 0 167 42t111 111.5t61.5 154.5t19.5 173v557h69v-1085h-69v225h-8q-16 -41 -55.5 -99t-111 -102t-184.5 -44q-166 0 -261 113.5t-95 314.5zM543 1266l174 311h84l-189 -311h-69z" />
<glyph unicode="&#xfb;" horiz-adv-x="1142" d="M174 408v677h70v-677q0 -174 74.5 -267.5t211.5 -93.5q98 0 167 42t111 111.5t61.5 154.5t19.5 173v557h69v-1085h-69v225h-8q-16 -41 -55.5 -99t-111 -102t-184.5 -44q-166 0 -261 113.5t-95 314.5zM303 1245l227 311h76l228 -311h-76l-189 254l-190 -254h-76z" />
<glyph unicode="&#xfc;" horiz-adv-x="1142" d="M174 408v677h70v-677q0 -174 74.5 -267.5t211.5 -93.5q98 0 167 42t111 111.5t61.5 154.5t19.5 173v557h69v-1085h-69v225h-8q-16 -41 -55.5 -99t-111 -102t-184.5 -44q-166 0 -261 113.5t-95 314.5zM352 1364q0 31 20.5 52.5t51.5 21.5t52.5 -21.5t21.5 -52.5 t-21.5 -52.5t-52.5 -21.5t-51.5 21.5t-20.5 52.5zM637 1364q0 31 20.5 52.5t51.5 21.5t52 -21.5t21 -52.5t-21 -52.5t-52 -21.5t-51.5 21.5t-20.5 52.5z" />
<glyph unicode="&#xfd;" horiz-adv-x="1142" d="M92 -328l26 -3q27 -3 58 -3q121 0 206 72t138 205l21 53l-430 1089h75l394 -997l395 997h76l-463 -1159q-131 -327 -416 -327q-35 0 -58 3l-22 3v67zM535 1266l174 311h84l-189 -311h-69z" />
<glyph unicode="&#xfe;" d="M184 -399v1955h70v-710h8q12 29 42 72t78 86t118.5 72.5t169.5 29.5q123 0 214 -47t151.5 -128t91 -181.5t30.5 -206.5q0 -104 -30.5 -204.5t-91 -181.5t-151.5 -129t-214 -48q-98 0 -169 29.5t-119 72.5t-78 87t-42 71h-8v-639h-70zM250 543q0 -121 46 -234.5 t139 -186.5t233 -73q143 0 235 73t138 186.5t46 234.5q0 123 -46 235.5t-138 185t-235 72.5q-139 0 -232.5 -72.5t-139.5 -185t-46 -235.5z" />
<glyph unicode="&#xff;" horiz-adv-x="1142" d="M92 -328l26 -3q27 -3 58 -3q121 0 206 72t138 205l21 53l-430 1089h75l394 -997l395 997h76l-463 -1159q-131 -327 -416 -327q-35 0 -58 3l-22 3v67zM344 1364q0 31 20.5 52.5t51.5 21.5t52 -21.5t21 -52.5t-21 -52.5t-52 -21.5t-51.5 21.5t-20.5 52.5zM629 1364 q0 31 20.5 52.5t50.5 21.5q31 0 52.5 -21.5t21.5 -52.5t-21.5 -52.5t-52.5 -21.5t-51 21.5t-20 52.5z" />
<glyph unicode="&#x152;" horiz-adv-x="1968" d="M123 758q0 141 45 276t138 243.5t238.5 173.5t346.5 65h911v-70h-782v-635h682v-70h-682v-671h795v-70h-924q-201 0 -346.5 64.5t-238.5 173t-138 243.5t-45 277zM197 758q0 -129 41 -252t124.5 -221.5t216 -156.5t312.5 -58h57v1376h-57q-180 0 -312.5 -58.5 t-216 -156.5t-124.5 -221t-41 -252z" />
<glyph unicode="&#x153;" horiz-adv-x="2129" d="M133 543q0 106 31 206.5t94.5 181.5t157.5 128t219 47q184 0 300 -99.5t165 -248.5q47 147 157.5 247.5t288.5 100.5q131 0 232.5 -62.5t160 -185.5t58.5 -305v-21h-856q0 -129 49 -239.5t142 -177t222 -66.5q109 0 178.5 39t107.5 90t54 90l15 39h71l-10 -33 q-10 -32 -36.5 -81.5t-75 -98.5t-122 -81.5t-182.5 -32.5q-123 0 -213 46t-149 125.5t-92 176.5q-49 -150 -165 -249t-300 -99q-125 0 -219 47t-157.5 128t-94.5 181t-31 207zM205 543q0 -123 48 -236.5t143.5 -185.5t238.5 -72t238.5 72t143.5 185.5t48 236.5 q0 125 -48 237.5t-143.5 184t-238.5 71.5t-238.5 -71.5t-143.5 -184t-48 -237.5zM1143 598h778q-6 166 -60.5 261t-136.5 135t-178 40q-178 0 -283.5 -120.5t-119.5 -315.5z" />
<glyph unicode="&#x178;" horiz-adv-x="1353" d="M72 1516h82l524 -875l522 875h82l-569 -947v-569h-72v569zM473 1712q0 31 20.5 52.5t51.5 21.5t52 -21.5t21 -52.5t-21 -52.5t-52 -21.5t-51.5 21.5t-20.5 52.5zM758 1712q0 31 20.5 52.5t50.5 21.5q31 0 52.5 -21.5t21.5 -52.5t-21.5 -52.5t-52.5 -21.5t-51 21.5 t-20 52.5z" />
<glyph unicode="&#x2c6;" horiz-adv-x="1013" d="M242 1204l227 312h76l227 -312h-76l-188 254l-191 -254h-75z" />
<glyph unicode="&#x2dc;" horiz-adv-x="757" d="M121 1282q0 90 31.5 152.5t103.5 62.5q49 0 82 -24.5t57.5 -58.5t48 -58.5t54.5 -24.5q39 0 55 42t16 114h62q0 -88 -31.5 -151.5t-101.5 -63.5q-45 0 -77 24.5t-56.5 58.5t-50 58.5t-58.5 24.5q-39 0 -56.5 -41t-17.5 -115h-61z" />
<glyph unicode="&#x2000;" horiz-adv-x="1035" />
<glyph unicode="&#x2001;" horiz-adv-x="2071" />
<glyph unicode="&#x2002;" horiz-adv-x="1035" />
<glyph unicode="&#x2003;" horiz-adv-x="2071" />
<glyph unicode="&#x2004;" horiz-adv-x="690" />
<glyph unicode="&#x2005;" horiz-adv-x="517" />
<glyph unicode="&#x2006;" horiz-adv-x="345" />
<glyph unicode="&#x2007;" horiz-adv-x="345" />
<glyph unicode="&#x2008;" horiz-adv-x="258" />
<glyph unicode="&#x2009;" horiz-adv-x="414" />
<glyph unicode="&#x200a;" horiz-adv-x="115" />
<glyph unicode="&#x2010;" horiz-adv-x="1245" d="M242 606v70h762v-70h-762z" />
<glyph unicode="&#x2011;" horiz-adv-x="1245" d="M242 606v70h762v-70h-762z" />
<glyph unicode="&#x2012;" horiz-adv-x="1245" d="M242 606v70h762v-70h-762z" />
<glyph unicode="&#x2013;" horiz-adv-x="1320" d="M242 606v70h837v-70h-837z" />
<glyph unicode="&#x2014;" horiz-adv-x="1626" d="M242 606v70h1142v-70h-1142z" />
<glyph unicode="&#x2018;" horiz-adv-x="372" d="M82 1298q0 31 20.5 66t65.5 104l31 48h51l-84 -140q37 -2 56.5 -25.5t19.5 -50.5q0 -29 -19.5 -53t-60.5 -24q-31 0 -55.5 18.5t-24.5 56.5z" />
<glyph unicode="&#x2019;" horiz-adv-x="352" d="M102 1243l84 139q-37 2 -56 26t-19 50q0 29 20.5 53.5t58.5 24.5q31 0 55.5 -18.5t24.5 -57.5q0 -31 -19.5 -64.5t-66.5 -105.5l-30 -47h-52z" />
<glyph unicode="&#x201a;" horiz-adv-x="602" d="M162 -150l84 140q-37 2 -56.5 25.5t-19.5 50.5q0 29 20.5 53t59.5 24q31 0 55.5 -18.5t24.5 -56.5q0 -31 -19.5 -65t-66.5 -105l-31 -48h-51z" />
<glyph unicode="&#x201c;" horiz-adv-x="630" d="M82 1298q0 31 20.5 66t65.5 104l31 48h51l-84 -140q37 -2 56.5 -25.5t19.5 -50.5q0 -29 -19.5 -53t-60.5 -24q-31 0 -55.5 18.5t-24.5 56.5zM340 1298q0 31 20.5 66t65.5 104l31 48h51l-84 -140q37 -2 56.5 -25.5t19.5 -50.5q0 -29 -19.5 -53t-60.5 -24q-31 0 -55.5 18.5 t-24.5 56.5z" />
<glyph unicode="&#x201d;" horiz-adv-x="630" d="M123 1243l84 139q-37 2 -56.5 26t-19.5 50q0 29 20.5 53.5t59.5 24.5q31 0 55.5 -18.5t24.5 -57.5q0 -31 -19.5 -64.5t-66.5 -105.5l-31 -47h-51zM381 1243l84 139q-37 2 -56.5 26t-19.5 50q0 29 20.5 53.5t59.5 24.5q31 0 55.5 -18.5t24.5 -57.5q0 -31 -19.5 -64.5 t-66.5 -105.5l-31 -47h-51z" />
<glyph unicode="&#x201e;" horiz-adv-x="753" d="M164 -150l84 140q-37 2 -56.5 25.5t-19.5 50.5q0 29 20.5 53t59.5 24q31 0 55.5 -18.5t24.5 -56.5q0 -31 -19.5 -65t-66.5 -105l-31 -48h-51zM422 -150l84 140q-37 2 -56.5 25.5t-19.5 50.5q0 29 20.5 53t59.5 24q31 0 55.5 -18.5t24.5 -56.5q0 -31 -19.5 -65t-66.5 -105 l-31 -48h-51z" />
<glyph unicode="&#x2022;" horiz-adv-x="899" d="M242 774q0 84 58 144.5t146 60.5t149.5 -60.5t61.5 -144.5q0 -88 -61.5 -149.5t-149.5 -61.5t-146 61.5t-58 149.5z" />
<glyph unicode="&#x2026;" horiz-adv-x="1486" d="M143 68q0 31 21.5 53t54.5 22t55.5 -22.5t22.5 -52.5q0 -33 -22.5 -55.5t-55.5 -22.5t-54.5 22.5t-21.5 55.5zM635 68q0 31 21.5 53t54.5 22t55 -22.5t22 -52.5q0 -33 -22 -55.5t-55 -22.5t-54.5 22.5t-21.5 55.5zM1137 68q0 31 21.5 53t53.5 22q33 0 55.5 -22.5 t22.5 -52.5q0 -33 -22.5 -55.5t-55.5 -22.5t-54 22.5t-21 55.5z" />
<glyph unicode="&#x202f;" horiz-adv-x="414" />
<glyph unicode="&#x2039;" horiz-adv-x="673" d="M82 662l412 413h96l-412 -413l412 -416h-96z" />
<glyph unicode="&#x203a;" horiz-adv-x="673" d="M84 246l412 413l-412 416h96l412 -416l-412 -413h-96z" />
<glyph unicode="&#x205f;" horiz-adv-x="517" />
<glyph unicode="&#x20ac;" horiz-adv-x="1533" d="M82 602v62h190q-4 47 -4 94t4 94h-190v61h199q29 166 118.5 308.5t244.5 228.5t374 86q102 0 192 -14.5t146 -29.5l55 -15v-72l-57 15q-56 16 -145 30t-187 14q-199 0 -337 -75.5t-220 -201.5t-109 -274h740v-61h-750q-4 -47 -4 -94t4 -94h750v-62h-740 q27 -150 109 -275.5t220 -201.5t337 -76q98 0 187 15.5t145 29.5l57 15v-72l-55 -15q-56 -14 -146 -28t-192 -14q-219 0 -374 86t-245 228t-118 308h-199z" />
<glyph unicode="&#x2122;" horiz-adv-x="1634" d="M82 1460v56h543v-56h-242v-661h-59v661h-242zM766 799v717h82l260 -465l260 465h82v-717h-59v633l-254 -447h-58l-254 451v-637h-59z" />
<glyph unicode="&#x25fc;" horiz-adv-x="1085" d="M0 0v1085h1085v-1085h-1085z" />
</font>
</defs>
</svg>
