<?xml version="1.0" standalone="no"?>
<!DOCTYPE svg PUBLIC "-//W3C//DTD SVG 1.1//EN" "http://www.w3.org/Graphics/SVG/1.1/DTD/svg11.dtd" >
<svg xmlns="http://www.w3.org/2000/svg" xmlns:xlink="http://www.w3.org/1999/xlink" version="1.1">
<metadata></metadata>
<defs>
<font id="be_vietnam_pro_light" horiz-adv-x="1320" >
<font-face units-per-em="2048" ascent="1638" descent="-410" />
<missing-glyph horiz-adv-x="471" />
<glyph horiz-adv-x="0" />
<glyph horiz-adv-x="682" />
<glyph unicode="&#xd;" horiz-adv-x="1228" />
<glyph unicode=" "  horiz-adv-x="471" />
<glyph unicode="&#x09;" horiz-adv-x="471" />
<glyph unicode="&#xa0;" horiz-adv-x="471" />
<glyph unicode="!" horiz-adv-x="540" d="M162 90q0 43 30.5 76t77.5 33q45 0 77 -33t32 -76q0 -45 -32 -77.5t-77 -32.5q-47 0 -77.5 32.5t-30.5 77.5zM193 1516h153l-8 -1160h-137z" />
<glyph unicode="&#x22;" horiz-adv-x="606" d="M137 1135l13 381h145l-57 -381h-101zM393 1135l15 381h145l-57 -381h-103z" />
<glyph unicode="#" horiz-adv-x="1605" d="M98 432l31 143h311l74 367h-307l31 143h305l88 431h143l-88 -431h367l86 431h143l-86 -431h311l-30 -143h-310l-73 -367h305l-31 -143h-303l-88 -432h-143l88 432h-367l-86 -432h-143l86 432h-314zM584 575h366l74 367h-367z" />
<glyph unicode="$" horiz-adv-x="1300" d="M111 463h157l3 -31t18.5 -78t49.5 -96t96.5 -87t162.5 -48v586l-20 4q-203 43 -315.5 136t-112.5 269q0 125 63 215t165.5 141.5t219.5 59.5v182h131v-184q127 -14 210 -62.5t130 -111t68.5 -122.5t27.5 -99l6 -39h-157l-8 39q-7 39 -33.5 92t-85 100t-158.5 64v-557 l21 -5q84 -18 163.5 -45.5t142 -72.5t99.5 -117t37 -180q0 -121 -60.5 -215.5t-166 -151.5t-236.5 -69v-185h-131v187q-150 12 -243 64t-143 122t-71.5 137.5t-25.5 112.5zM305 1120q0 -106 74 -163.5t219 -90.5v531q-133 -12 -213 -91.5t-80 -185.5zM729 121 q84 10 153.5 49t111.5 101.5t42 144.5q0 123 -85 179t-222 87v-561z" />
<glyph unicode="%" horiz-adv-x="1683" d="M127 1237q0 131 84 215t215 84t215 -84t84 -215q0 -86 -39 -154.5t-106.5 -107.5t-153.5 -39t-153.5 39t-106.5 107.5t-39 154.5zM252 1237q0 -80 49 -132t125 -52q78 0 126 52t48 132t-48 132t-126 52q-76 0 -125 -52t-49 -132zM365 0l804 1516h150l-805 -1516h-149z M956 279q0 133 85 217t216 84q129 0 214 -84t85 -217q0 -129 -84 -214t-215 -85t-216 83.5t-85 215.5zM1081 281q0 -82 49 -134.5t127 -52.5q76 0 125.5 52.5t49.5 134.5q0 80 -49.5 131t-125.5 51q-78 0 -127 -51.5t-49 -130.5z" />
<glyph unicode="&#x26;" horiz-adv-x="1482" d="M123 412q0 154 92 259t229 181l-6 6q-31 37 -67.5 85t-63 111.5t-26.5 141.5q0 113 50 187.5t131 113.5t173 39q86 0 162.5 -36t126 -106.5t49.5 -170.5q0 -125 -81 -223.5t-237 -174.5l408 -458q51 92 79.5 218t28.5 289h134q0 -201 -40 -353t-110 -259l229 -260h-194 l-129 145q-90 -86 -200.5 -126.5t-229.5 -40.5q-139 0 -255 52t-184.5 148t-68.5 232zM268 422q0 -98 51.5 -167t135.5 -105.5t184 -36.5q94 0 180 32.5t154 102.5l-449 514q-102 -55 -179 -136t-77 -204zM418 1200q0 -82 47 -147.5t98 -122.5l12 -15l23 13 q115 53 176.5 123.5t61.5 162.5q0 96 -61.5 146.5t-139.5 50.5q-86 0 -151.5 -55.5t-65.5 -155.5z" />
<glyph unicode="'" horiz-adv-x="350" d="M137 1135l13 381h145l-57 -381h-101z" />
<glyph unicode="(" horiz-adv-x="864" d="M117 649q0 188 43 365.5t127 323t204.5 241.5t276.5 121v-141q-117 -27 -209 -111t-156.5 -209t-98.5 -276.5t-34 -313.5q0 -160 34 -311.5t98.5 -276t156.5 -209.5t209 -112v-139q-156 25 -276.5 121t-204.5 241.5t-127 322.5t-43 363z" />
<glyph unicode=")" horiz-adv-x="864" d="M96 -260q117 27 209 112t156.5 209.5t98.5 276t34 311.5q0 162 -34 313.5t-98.5 276.5t-156.5 209t-209 111v141q156 -25 278 -121t205 -241.5t127 -322.5t44 -366q0 -188 -44 -364t-127 -321.5t-205 -242t-278 -120.5v139z" />
<glyph unicode="*" horiz-adv-x="1015" d="M88 1165l39 121l319 -106l-2 336h127l-2 -336l320 106l39 -121l-320 -102l199 -270l-102 -74l-197 272l-195 -272l-104 74l201 270z" />
<glyph unicode="+" horiz-adv-x="1245" d="M242 575v132h315v315h131v-315h316v-132h-316v-315h-131v315h-315z" />
<glyph unicode="," horiz-adv-x="579" d="M162 -217l127 205q-47 2 -76 34.5t-29 77.5q0 49 34 80t81 31q49 0 84 -29.5t35 -83.5q0 -49 -36 -109.5t-116 -176.5l-20 -29h-84z" />
<glyph unicode="-" horiz-adv-x="1245" d="M242 575v132h762v-132h-762z" />
<glyph unicode="." horiz-adv-x="550" d="M162 98q0 47 31.5 80t80.5 33t82 -33t33 -80q0 -49 -33 -81.5t-82 -32.5t-80.5 33.5t-31.5 80.5z" />
<glyph unicode="/" horiz-adv-x="1024" d="M109 -287l710 1970h148l-711 -1970h-147z" />
<glyph unicode="0" horiz-adv-x="1343" d="M117 760q0 156 34.5 296t105.5 248.5t174.5 171t240.5 62.5t240.5 -62.5t174 -171t105.5 -249t35 -295.5q0 -158 -35 -298t-105.5 -249t-174 -170t-240.5 -61t-240.5 61t-174.5 170t-105.5 249t-34.5 298zM279 760q0 -309 110.5 -471t282.5 -162q170 0 281.5 161 t111.5 472q0 307 -111.5 468t-281.5 161t-281.5 -161t-111.5 -468z" />
<glyph unicode="1" horiz-adv-x="745" d="M92 1221v92l51 12q100 27 159.5 66t109.5 104l14 21h88v-1516h-156v1223z" />
<glyph unicode="2" horiz-adv-x="1288" d="M150 1040q0 33 11 92.5t41.5 128t85 132t141.5 103.5t212 40q127 0 236.5 -53t177 -154.5t67.5 -249.5q0 -137 -67.5 -250.5t-179 -220t-240.5 -229.5l-248 -234h770v-145h-1003v113l350 333q131 123 235.5 222.5t165 196t60.5 210.5q0 102 -47.5 173t-122 107t-154.5 36 q-104 0 -171 -41t-102.5 -100.5t-50 -117t-14.5 -92.5h-153z" />
<glyph unicode="3" horiz-adv-x="1325" d="M150 449h151q0 -113 51 -187t133 -109.5t172 -35.5q94 0 174 36.5t129.5 107.5t49.5 173q0 133 -86 210t-232 77h-203v127h203q121 0 206 69.5t85 194.5q0 90 -46 154.5t-120 99.5t-160 35q-82 0 -157.5 -36t-124.5 -110.5t-49 -187.5h-148q0 158 70.5 262.5t181.5 155.5 t232 51t229 -49t177 -141.5t69 -221.5q0 -119 -59.5 -204.5t-162.5 -126.5v-9q113 -39 182.5 -131t69.5 -225q0 -139 -70.5 -240.5t-187.5 -154.5t-252 -53q-131 0 -247.5 51t-188 155.5t-71.5 262.5z" />
<glyph unicode="4" horiz-adv-x="1384" d="M100 367v145l715 1004h189v-1012h264v-139l-264 2v-367h-158v367h-746zM266 504h580v817z" />
<glyph unicode="5" horiz-adv-x="1345" d="M150 442h149l4 -32q4 -33 22.5 -81t57.5 -97.5t108.5 -82t178.5 -32.5q125 0 208 56t124.5 145.5t41.5 183.5q0 98 -41.5 186t-123.5 144.5t-205 56.5q-96 0 -160.5 -31t-101.5 -70.5t-52 -71.5l-16 -32h-156l123 832h787v-142h-668l-74 -491h6q16 16 54.5 51t106 63.5 t171.5 28.5q166 0 277.5 -76t169 -195.5t57.5 -250.5q0 -98 -32.5 -191.5t-98.5 -168t-165 -119.5t-232 -45q-127 0 -216 33.5t-146.5 86t-89.5 111.5t-47 112.5t-18 86.5z" />
<glyph unicode="6" horiz-adv-x="1370" d="M156 662q0 111 23.5 232.5t75.5 236t136 205.5t206 145.5t284 54.5q96 0 167 -16l72 -15v-147l-36 8q-35 8 -90.5 16.5t-114.5 8.5q-129 0 -223.5 -42t-158 -112t-102.5 -153t-56 -166.5t-20 -155.5q10 23 38 61.5t74 78.5t118 66.5t170 26.5q164 0 274.5 -73.5 t164.5 -189.5t54 -240q0 -129 -55 -246t-167.5 -191.5t-282.5 -74.5q-141 0 -245 54t-171.5 148t-101 218t-33.5 262zM348 487q0 -113 47 -195.5t128.5 -128.5t181.5 -46t180 46t127 130t47 194q0 111 -47 195t-127 130t-180 46t-181.5 -46t-128.5 -130t-47 -195z" />
<glyph unicode="7" horiz-adv-x="1200" d="M106 1372v144h1016v-121l-41 -49q-41 -48 -105.5 -138t-138 -216t-140 -281.5t-112.5 -334.5t-53 -376h-155q8 197 54 378t114.5 338.5t143.5 287t141.5 223.5t107.5 145h-832z" />
<glyph unicode="8" horiz-adv-x="1292" d="M133 420q0 94 33 163.5t79 115.5t90 73t68 35v8q-20 8 -57 31.5t-76 62.5t-65.5 96.5t-26.5 133.5q0 109 55.5 198.5t161 144t250.5 54.5q147 0 251.5 -54.5t161 -144.5t56.5 -198q0 -76 -26.5 -133.5t-65.5 -96.5t-76 -62.5t-57 -31.5v-8q23 -8 66.5 -35t91 -73 t80 -115.5t32.5 -163.5q0 -121 -62.5 -220.5t-177 -159.5t-274.5 -60t-274.5 60t-176 159.5t-61.5 220.5zM285 432q0 -80 41 -153.5t120.5 -120.5t198.5 -47q121 0 201 47t121 120.5t41 153.5q0 78 -40 148.5t-121 116.5t-202 46t-200.5 -46t-119.5 -116.5t-40 -148.5z M330 1137q0 -63 35.5 -125t105.5 -102t174 -40t175 40t107 101.5t36 125.5q0 70 -36 131t-106.5 100t-175.5 39q-104 0 -174 -39t-105.5 -100.5t-35.5 -130.5z" />
<glyph unicode="9" horiz-adv-x="1370" d="M156 1024q0 129 56 245.5t169 191.5t281 75q141 0 245.5 -54.5t172 -148.5t100 -218t32.5 -261q0 -111 -23.5 -232.5t-74.5 -236.5t-135 -206t-206 -145t-284 -54q-98 0 -169 15l-70 15v148l36 -8q36 -9 91 -17t115 -8q129 0 222 42t157.5 111.5t102.5 152.5t56.5 167 t20.5 156q-12 -23 -39 -62t-74 -79t-117.5 -66.5t-171.5 -26.5q-164 0 -273.5 74t-164.5 189.5t-55 240.5zM309 1028q0 -111 47 -194.5t128 -130t182 -46.5q100 0 180 46.5t127 130.5t47 194q0 113 -47 196t-127 129t-180 46t-181.5 -46t-128.5 -129t-47 -196z" />
<glyph unicode=":" horiz-adv-x="550" d="M162 94q0 47 31.5 81t80.5 34t82 -34t33 -81t-33 -80.5t-82 -33.5t-80.5 33.5t-31.5 80.5zM162 991q0 47 31.5 81t80.5 34t82 -34t33 -81t-33 -80.5t-82 -33.5t-80.5 34.5t-31.5 79.5z" />
<glyph unicode=";" horiz-adv-x="579" d="M162 -213l127 205q-47 2 -76 34.5t-29 77.5q0 49 34 80t81 31q49 0 84 -29.5t35 -83.5q0 -49 -36 -109.5t-116 -176.5l-20 -29h-84zM174 991q0 47 33 81t82 34t81.5 -34t32.5 -81t-32.5 -80.5t-81.5 -33.5t-82 34.5t-33 79.5z" />
<glyph unicode="&#x3c;" horiz-adv-x="1130" d="M170 635v96l788 385v-145l-604 -289l604 -287v-145z" />
<glyph unicode="=" horiz-adv-x="1472" d="M242 352v135h989v-135h-989zM242 805v135h989v-135h-989z" />
<glyph unicode="&#x3e;" horiz-adv-x="1130" d="M170 250v145l604 287l-604 289v145l788 -385v-96z" />
<glyph unicode="?" horiz-adv-x="1177" d="M123 1065q0 160 68.5 264.5t176 155.5t226.5 51q121 0 226.5 -49t170 -143.5t64.5 -229.5q0 -109 -41 -186.5t-102.5 -138t-123 -114.5t-103.5 -116.5t-42 -144.5v-60h-151v60q0 106 40.5 182t102 133t122 111.5t101.5 118t41 153.5t-44 153.5t-115.5 96.5t-149.5 33 q-80 0 -151.5 -36t-118 -108.5t-46.5 -185.5h-151zM461 88q0 45 30.5 78t77.5 33t78 -33t31 -78t-31 -76.5t-78 -31.5t-77.5 32.5t-30.5 75.5z" />
<glyph unicode="@" horiz-adv-x="2009" d="M117 639q0 168 56 327.5t168 286.5t278.5 202t388.5 75q176 0 334.5 -57.5t282.5 -167t195.5 -268t71.5 -363.5q0 -139 -38.5 -250t-114.5 -174.5t-185 -63.5q-117 0 -188.5 61.5t-95.5 143.5h-10q-14 -35 -52.5 -83t-105 -85t-168.5 -37q-129 0 -215 65.5t-129 169 t-43 216.5t43 216t128 168.5t214 65.5q119 0 190.5 -54t102.5 -105h8v143h145v-407q0 -33 4 -90.5t19.5 -118t52.5 -102.5t105 -42q96 0 144 95.5t48 267.5q0 176 -60.5 311t-164 227.5t-237.5 139.5t-281 47q-184 0 -324.5 -63.5t-235 -171t-141.5 -243t-47 -280.5 q0 -143 47 -277.5t143.5 -241t241 -169t338.5 -62.5q147 0 256 29t170 58l60 28l53 -121l-63 -31q-64 -32 -184 -64t-290 -32q-231 0 -403 74t-286 199t-170 282.5t-56 325.5zM696 637q0 -82 30 -156.5t88.5 -123t146.5 -48.5q90 0 148 48.5t87 123t29 156.5q0 80 -29 154.5 t-87 123t-148 48.5q-88 0 -146.5 -48.5t-88.5 -123t-30 -154.5z" />
<glyph unicode="A" horiz-adv-x="1458" d="M92 0l539 1516h194l541 -1516h-168l-137 391h-664l-137 -391h-168zM446 535h566l-283 798z" />
<glyph unicode="B" horiz-adv-x="1353" d="M170 0v1516h573q141 0 239.5 -54.5t151 -141.5t52.5 -187t-37 -171t-89 -114t-99 -57v-13q66 -18 130 -62t107 -118t43 -180q0 -104 -50 -199.5t-157.5 -157t-281.5 -61.5h-582zM328 139h420q119 0 192.5 42t108 107.5t34.5 135.5q0 72 -34.5 136.5t-108 106.5t-192.5 42 h-420v-570zM328 838h409q102 0 168 40t96.5 101t30.5 129t-30.5 129t-96.5 100t-168 39h-409v-538z" />
<glyph unicode="C" horiz-adv-x="1572" d="M117 758q0 145 44 284.5t132 251t221 177t309 65.5q143 0 247 -37t173.5 -96.5t112.5 -125t64.5 -124.5t28.5 -96l7 -37h-160l-8 37t-34.5 92t-79 110.5t-137.5 92.5t-214 37q-135 0 -237.5 -53.5t-171 -144.5t-103.5 -202.5t-35 -230.5q0 -117 35 -229.5t103.5 -204 t171 -144.5t237.5 -53q129 0 214 37t137.5 92t79 110.5t34.5 93.5l8 38h160l-7 -38q-7 -38 -28.5 -96.5t-64.5 -125t-112.5 -126t-173.5 -96t-247 -36.5q-176 0 -309 66.5t-221 178t-132 249.5t-44 284z" />
<glyph unicode="D" horiz-adv-x="1476" d="M170 0v1516h473q180 0 315.5 -65t224.5 -173.5t134 -243.5t45 -276t-45 -276.5t-134 -244t-224.5 -173t-315.5 -64.5h-473zM328 141h311q141 0 246.5 52.5t176.5 140.5t105.5 198.5t34.5 225.5t-34.5 225.5t-105.5 198.5t-176.5 140t-246.5 52h-311v-1233z" />
<glyph unicode="E" horiz-adv-x="1247" d="M170 0v1516h928v-142h-770v-530h673v-142h-673v-561h780v-141h-938z" />
<glyph unicode="F" horiz-adv-x="1267" d="M170 0v1516h958v-142h-800v-551h704v-141h-704v-682h-158z" />
<glyph unicode="G" horiz-adv-x="1595" d="M117 756q0 145 44 284.5t133 251t224 178t318 66.5q141 0 243.5 -36t172 -92t111.5 -119.5t64.5 -120t29.5 -92.5l7 -36h-159l-9 35q-10 35 -36.5 88.5t-78 105.5t-136 87t-209.5 35q-141 0 -247 -53.5t-175.5 -144.5t-104.5 -203.5t-35 -229.5q0 -121 35 -234.5 t104.5 -204t174 -143.5t241.5 -53q158 0 269.5 64.5t171 181t59.5 270.5h-477v133h629v-102q0 -215 -82 -371t-229.5 -238.5t-340.5 -82.5q-180 0 -314 65.5t-222 177t-132 249.5t-44 284z" />
<glyph unicode="H" horiz-adv-x="1415" d="M170 0v1516h158v-666h759v666h158v-1516h-158v707h-759v-707h-158z" />
<glyph unicode="I" horiz-adv-x="499" d="M170 0v1516h158v-1516h-158z" />
<glyph unicode="J" horiz-adv-x="915" d="M76 -6v141l53 -6t109 -6q164 0 257 84t93 272v1037h157v-1037q0 -236 -125.5 -367.5t-365.5 -131.5q-68 0 -123 7z" />
<glyph unicode="K" horiz-adv-x="1339" d="M170 0v1516h158v-691l688 688h209l-736 -729l766 -784h-213l-714 731v-731h-158z" />
<glyph unicode="L" horiz-adv-x="1259" d="M170 0v1516h158v-1375h792v-141h-950z" />
<glyph unicode="M" horiz-adv-x="1744" d="M170 0v1516h211l491 -947l492 947h211v-1516h-156v1290l-473 -901h-147l-473 905v-1294h-156z" />
<glyph unicode="N" horiz-adv-x="1488" d="M170 0v1516h145l846 -1233v1233h158v-1516h-145l-846 1233v-1233h-158z" />
<glyph unicode="O" horiz-adv-x="1681" d="M117 760q0 143 46 282.5t137 251t227.5 177t314.5 65.5t313 -65.5t226.5 -177t138.5 -251t47 -282.5q0 -145 -47 -284.5t-138.5 -251t-226.5 -178t-313 -66.5t-314.5 66.5t-227.5 178t-137 250.5t-46 285zM276 760q0 -180 72 -323.5t199 -226.5t295 -83q166 0 293 83 t198.5 226.5t71.5 323.5q0 178 -71.5 320.5t-198.5 225.5t-293 83q-168 0 -295 -83t-199 -225.5t-72 -320.5z" />
<glyph unicode="P" horiz-adv-x="1292" d="M170 0v1516h528q168 0 281 -71t169 -181.5t56 -229.5q0 -123 -56 -233.5t-169 -181t-281 -70.5h-370v-549h-158zM328 690h370q117 0 195 49t117 128t39 165t-39 165t-117 128t-195 49h-370v-684z" />
<glyph unicode="Q" horiz-adv-x="1658" d="M117 760q0 143 46 282.5t137 251t227.5 177t314.5 65.5t313 -65.5t226.5 -177t138.5 -251t47 -282.5q0 -152 -50.5 -296.5t-146.5 -254.5l211 -209h-197l-116 115q-84 -63 -190.5 -99t-235.5 -36q-178 0 -314.5 66.5t-227.5 178t-137 250.5t-46 285zM276 760 q0 -180 72 -323.5t199 -226.5t295 -83q90 0 169 25.5t144 72.5l-266 262l104 97l267 -265q70 84 107.5 197t37.5 244q0 178 -71.5 320.5t-198.5 225.5t-293 83q-168 0 -295 -83t-199 -225.5t-72 -320.5z" />
<glyph unicode="R" horiz-adv-x="1347" d="M170 0v1516h512q156 0 260.5 -62.5t155.5 -160t51 -206.5q0 -92 -38 -178t-113.5 -149.5t-190.5 -87.5l393 -672h-178l-383 659h-311v-659h-158zM328 797h352q104 0 172 42t102.5 108.5t34.5 137.5q0 72 -34.5 138.5t-102.5 108.5t-172 42h-352v-577z" />
<glyph unicode="S" horiz-adv-x="1280" d="M111 446h159l6 -32q5 -33 24 -81t62.5 -96.5t117 -80t188.5 -31.5q156 0 252 80t96 207q0 119 -77 180t-202 92l-194 47q-111 29 -199 77t-139 125t-51 189q0 129 63.5 221.5t172 142.5t247.5 50t229 -43t143.5 -105.5t79 -126t32.5 -106.5l7 -43h-155l-4 28 q-4 29 -21.5 71t-54.5 84t-100.5 71t-159.5 29q-160 0 -242 -79t-82 -183q0 -96 66.5 -153.5t185.5 -86.5l207 -51q117 -29 208 -82t144.5 -137t53.5 -203t-60.5 -219.5t-174 -160.5t-275.5 -60q-133 0 -226.5 33.5t-154 87t-96 112.5t-52 112.5t-20.5 86.5z" />
<glyph unicode="T" horiz-adv-x="1316" d="M88 1374v142h1141v-142h-492v-1374h-157v1374h-492z" />
<glyph unicode="U" horiz-adv-x="1464" d="M170 545v971h158v-971q0 -184 100 -300t303 -116q205 0 304.5 115.5t99.5 300.5v971h157v-971q0 -168 -64.5 -295t-189.5 -198.5t-307 -71.5t-307 71.5t-189.5 198.5t-64.5 295z" />
<glyph unicode="V" horiz-adv-x="1423" d="M76 1516h166l471 -1334l469 1334h168l-541 -1516h-195z" />
<glyph unicode="W" horiz-adv-x="2062" d="M96 1516h162l340 -1285l356 1285h156l356 -1280l338 1280h162l-410 -1516h-180l-344 1245l-346 -1245h-180z" />
<glyph unicode="X" horiz-adv-x="1425" d="M109 0l497 758l-497 758h188l416 -639l415 639h189l-500 -758l500 -758h-189l-415 639l-416 -639h-188z" />
<glyph unicode="Y" horiz-adv-x="1359" d="M57 1516h174l449 -807l448 807h172l-542 -967v-549h-156v549z" />
<glyph unicode="Z" horiz-adv-x="1325" d="M135 0v125l860 1249h-860v142h1055v-125l-862 -1250h862v-141h-1055z" />
<glyph unicode="[" horiz-adv-x="913" d="M170 -399v2099h580v-137h-424v-1827h424v-135h-580z" />
<glyph unicode="\" horiz-adv-x="993" d="M27 1683h147l711 -1970h-148z" />
<glyph unicode="]" horiz-adv-x="913" d="M164 -264h426v1827h-426v137h579v-2099h-579v135z" />
<glyph unicode="^" horiz-adv-x="1101" d="M242 1184l241 332h135l242 -332h-143l-166 231l-166 -231h-143z" />
<glyph unicode="_" horiz-adv-x="1437" d="M242 0h954v-133h-954v133z" />
<glyph unicode="`" horiz-adv-x="413" d="M57 1606h162l174 -351h-133z" />
<glyph unicode="a" horiz-adv-x="1302" d="M127 543q0 104 29.5 204.5t91 181.5t153.5 129t215 48q113 0 187 -38t118 -89t64 -88h12v194h152v-1085h-152v195h-12q-20 -39 -64 -89.5t-118 -88t-187 -37.5q-123 0 -215 48t-153.5 129t-91 181t-29.5 205zM281 543q0 -106 38.5 -204.5t118.5 -162t201 -63.5 q119 0 197.5 63.5t118.5 161.5t40 205q0 106 -40 204.5t-118.5 162t-197.5 63.5q-121 0 -201 -63.5t-118.5 -162t-38.5 -204.5z" />
<glyph unicode="b" d="M170 0v1556h154v-665h10q23 39 66.5 89t117.5 88t187 38q123 0 215 -48t152.5 -129t91 -181.5t30.5 -204.5t-30.5 -204.5t-91 -181.5t-152.5 -129t-215 -48q-113 0 -187 37.5t-118 89t-66 88.5h-10v-195h-154zM326 543q0 -106 38.5 -204.5t118.5 -162t199 -63.5 q121 0 200 63.5t118.5 161.5t39.5 205q0 106 -39.5 204.5t-118.5 162t-200 63.5q-119 0 -199 -63.5t-118.5 -162t-38.5 -204.5z" />
<glyph unicode="c" horiz-adv-x="1247" d="M127 543q0 104 33 204.5t98.5 181.5t163.5 129t231 48q127 0 211 -38t135.5 -94t78 -113.5t34.5 -95.5l8 -38h-149l-11 37q-12 37 -43.5 85t-95 85t-168.5 37q-125 0 -208 -61.5t-124.5 -159t-41.5 -207.5q0 -109 41.5 -207t124.5 -159.5t208 -61.5q104 0 168 36.5 t95.5 85t43.5 85.5l11 36h149l-8 -38q-8 -37 -34.5 -93.5t-78 -114t-135.5 -95t-211 -37.5q-131 0 -230 48t-164.5 129t-98.5 181t-33 205z" />
<glyph unicode="d" d="M127 543q0 104 29.5 204.5t91 181.5t154 129t214.5 48q113 0 187 -38t118 -89t64 -88h12v665h152v-1556h-152v195h-12q-20 -39 -64 -89.5t-118 -88t-187 -37.5q-123 0 -215 48t-153.5 129t-91 181t-29.5 205zM281 543q0 -106 38.5 -204.5t118.5 -162t201 -63.5 q119 0 197.5 63.5t118.5 161.5t40 205q0 106 -40 204.5t-118.5 162t-197.5 63.5q-121 0 -201 -63.5t-118.5 -162t-38.5 -204.5z" />
<glyph unicode="e" horiz-adv-x="1216" d="M127 543q0 102 29.5 202.5t91 182.5t155 130t222.5 48q135 0 240.5 -63.5t166 -187.5t60.5 -310v-45h-809q4 -104 46 -192.5t118.5 -141.5t185.5 -53q90 0 149.5 31.5t91 73.5t44.5 73l14 31h145l-10 -34t-36.5 -85t-77 -102.5t-128 -86t-192.5 -34.5q-131 0 -227.5 48 t-158 130t-91 182t-29.5 203zM285 623h653q-6 125 -50 201.5t-113.5 111.5t-149.5 35q-145 0 -235.5 -95t-104.5 -253z" />
<glyph unicode="f" horiz-adv-x="784" d="M86 958v127h193v154q0 84 29.5 162t96 127t181.5 49q53 0 89 -8l36 -8v-123l-34 6t-73 6q-102 0 -137 -60.5t-35 -150.5v-154h264v-127h-264v-958h-153v958h-193z" />
<glyph unicode="g" horiz-adv-x="1300" d="M127 553q0 102 29.5 200.5t91 178.5t153 127t213.5 47q113 0 189 -37t121 -87t65 -85h8v188h154v-1026q0 -229 -130.5 -359t-361.5 -130q-131 0 -219 36t-140 88t-77.5 105.5t-34.5 88.5l-8 34h154l10 -32q10 -33 42 -76t97.5 -76t175.5 -33q133 0 207 53.5t102.5 134 t28.5 164.5v150h-8q-20 -35 -65 -85t-121 -87t-189 -37q-123 0 -214 47t-152.5 127t-91 178.5t-29.5 202.5zM283 553q0 -106 38.5 -202.5t118.5 -158t199 -61.5t199 61.5t119.5 157.5t39.5 203q0 106 -39.5 201.5t-118.5 157t-198 61.5q-121 0 -201 -61.5t-118.5 -158 t-38.5 -200.5z" />
<glyph unicode="h" horiz-adv-x="1185" d="M170 0v1556h154v-651h10q14 31 51 79t103.5 85t166.5 37q119 0 203 -55.5t129 -149.5t45 -213v-688h-153v680q0 125 -67 208t-194 83q-104 0 -168.5 -53.5t-95 -137.5t-30.5 -172v-608h-154z" />
<glyph unicode="i" horiz-adv-x="507" d="M145 1403q0 45 31 76.5t78 31.5q45 0 76.5 -31.5t31.5 -76.5t-31.5 -77t-76.5 -32q-47 0 -78 33t-31 76zM178 0v1085h154v-1085h-154z" />
<glyph unicode="j" horiz-adv-x="530" d="M-96 -260l30 -4q29 -4 66 -4q115 0 157 53t42 154v1146h153v-1146q0 -84 -27.5 -163t-98 -130.5t-197.5 -51.5q-51 0 -88 6l-37 5v135zM168 1399q0 45 30.5 77.5t77.5 32.5t78 -32.5t31 -77.5t-31 -76t-78 -31t-77.5 32t-30.5 75z" />
<glyph unicode="k" horiz-adv-x="1093" d="M170 0v1556h154v-917l471 446h204l-522 -489l535 -596h-197l-491 547v-547h-154z" />
<glyph unicode="l" horiz-adv-x="495" d="M170 0l2 1556h152v-1556h-154z" />
<glyph unicode="m" horiz-adv-x="1832" d="M154 0v1085h153v-176h8q16 35 53.5 81t100.5 81t160 35q123 0 208 -62.5t124 -171.5h2q43 92 127 163t225 71q172 0 268 -119t96 -313v-674h-151v668q0 141 -65.5 222t-182.5 81q-102 0 -165.5 -56.5t-92.5 -142.5t-29 -176v-596h-153v668q0 141 -63.5 222t-182.5 81 q-102 0 -165.5 -56.5t-92.5 -143.5t-29 -175v-596h-153z" />
<glyph unicode="n" horiz-adv-x="1167" d="M154 0v1085h153v-180h10q14 31 51.5 79t103 85t165.5 37q121 0 205 -55.5t128 -149.5t44 -213v-688h-152v680q0 125 -66.5 208t-195.5 83q-102 0 -166.5 -53.5t-95.5 -137.5t-31 -172v-608h-153z" />
<glyph unicode="o" horiz-adv-x="1300" d="M127 543q0 109 33 209t99.5 180t163.5 127t226 47t227.5 -47t164 -127t99.5 -180.5t34 -208.5q0 -106 -34 -208t-99.5 -181.5t-164 -126.5t-227.5 -47t-226 47t-163.5 126.5t-99.5 181t-33 208.5zM283 543q0 -109 41 -206t122.5 -158.5t202.5 -61.5t203 61.5t124 158.5 t42 206t-42 206t-124 158.5t-203 61.5t-202.5 -61.5t-122.5 -159t-41 -205.5z" />
<glyph unicode="p" d="M170 -401v1486h154v-194h10q23 39 66.5 89t117.5 88t187 38q123 0 215 -48t152.5 -129t91 -181.5t30.5 -204.5t-30.5 -204.5t-91 -181.5t-153 -129t-214.5 -48q-113 0 -187 37.5t-118 89t-66 88.5h-10v-596h-154zM326 543q0 -106 38.5 -204.5t118.5 -162t199 -63.5 q121 0 200 63.5t118.5 161.5t39.5 205q0 106 -39.5 204.5t-118.5 162t-200 63.5q-119 0 -199 -63.5t-118.5 -162t-38.5 -204.5z" />
<glyph unicode="q" d="M127 543q0 104 29.5 204.5t91 181.5t154 129t214.5 48q113 0 187 -38t118 -89t64 -88h12v194h152v-1484h-152v594h-12q-20 -39 -64 -89.5t-118 -88t-187 -37.5q-123 0 -215 48t-153.5 129t-91 181t-29.5 205zM281 543q0 -106 38.5 -204.5t118.5 -162t201 -63.5 q119 0 197.5 63.5t118.5 161.5t40 205q0 106 -40 204.5t-118.5 162t-197.5 63.5q-121 0 -201 -63.5t-118.5 -162t-38.5 -204.5z" />
<glyph unicode="r" horiz-adv-x="786" d="M154 0v1085h153v-141h8q33 66 100.5 114t188.5 48q39 0 68 -4l30 -4v-148l-32 4q-33 4 -70 4q-84 0 -150.5 -33.5t-104.5 -114.5t-38 -220v-590h-153z" />
<glyph unicode="s" horiz-adv-x="1011" d="M98 324h158l6 -32t31.5 -74t81 -73.5t151.5 -31.5q104 0 166 53t62 131q0 74 -50.5 115t-134.5 59l-143 33q-82 20 -149.5 55t-108.5 93.5t-41 144.5q0 137 100.5 223t261.5 86q109 0 179.5 -32t112.5 -79t61.5 -93t25.5 -78l6 -31h-149l-7 27q-7 28 -28.5 64t-70 63.5 t-130.5 27.5q-106 0 -158 -51.5t-52 -116.5q0 -63 46 -100t126 -56l145 -35q137 -33 223 -107.5t86 -205.5q0 -88 -46 -161.5t-131 -117.5t-204 -44q-123 0 -201.5 34.5t-124.5 86t-66.5 102.5t-27.5 86z" />
<glyph unicode="t" horiz-adv-x="845" d="M76 958v127h196v275h154v-275h268v-127h-268v-682q0 -163 174 -163h2q45 0 87 8l42 8v-131l-46 -9t-105 -9q-152 0 -230 77.5t-78 218.5v682h-196z" />
<glyph unicode="u" horiz-adv-x="1150" d="M154 375v710h153v-704q0 -127 63.5 -196.5t174.5 -69.5q109 0 174 58t95 147.5t30 185.5v579h153v-1085h-153v178h-10q-14 -29 -51.5 -77t-103 -84.5t-171.5 -36.5q-162 0 -258 104t-96 291z" />
<glyph unicode="v" horiz-adv-x="1146" d="M72 1085h159l344 -899l338 899h162l-420 -1085h-163z" />
<glyph unicode="w" horiz-adv-x="1753" d="M72 1085h157l283 -878l291 878h147l289 -878l285 878h157l-358 -1085h-164l-282 860l-283 -860h-166z" />
<glyph unicode="x" horiz-adv-x="1126" d="M92 1085h168l303 -452l303 452h170l-370 -544l366 -541h-168l-301 449l-299 -449h-170l363 541z" />
<glyph unicode="y" horiz-adv-x="1163" d="M72 -260l32 -3q31 -3 66 -3q125 0 207 61.5t135 192.5l-424 1097h160l340 -899l342 899h162l-435 -1112q-76 -190 -193.5 -281t-289.5 -91q-45 0 -74 3l-28 3v133z" />
<glyph unicode="z" horiz-adv-x="1028" d="M94 0v109l670 849h-633v127h821v-108l-669 -850h669v-127h-858z" />
<glyph unicode="{" horiz-adv-x="847" d="M55 584v133h68q137 0 137 137v565q0 135 74 208t209 73h213v-137h-203q-137 0 -137 -138v-565q0 -80 -24.5 -129t-98.5 -78v-6q74 -29 98.5 -80t24.5 -127v-565q0 -139 137 -139h203v-135h-213q-135 0 -209 72.5t-74 207.5v565q0 137 -137 138h-68z" />
<glyph unicode="|" horiz-adv-x="813" d="M334 -455v2401h143v-2401h-143z" />
<glyph unicode="}" horiz-adv-x="847" d="M92 -264h203q139 0 139 139v565q0 78 23.5 128t97.5 79v6q-74 29 -97.5 79t-23.5 128v565q0 137 -139 138h-203v137h213q137 0 210 -73t73 -208v-565q0 -137 137 -137h70v-133h-70q-137 0 -137 -138v-565q0 -135 -73 -207.5t-210 -72.5h-213v135z" />
<glyph unicode="~" horiz-adv-x="931" d="M147 664q0 61 16.5 116.5t55.5 91t107 35.5q57 0 96 -21.5t67.5 -51t55 -51t59.5 -21.5q37 0 54.5 36t17.5 99h108q0 -61 -16 -116.5t-55 -91.5t-107 -36q-55 0 -92 21.5t-65.5 51.5t-56 51.5t-60.5 21.5q-41 0 -58.5 -36t-17.5 -99h-109z" />
<glyph unicode="&#xa1;" horiz-adv-x="540" d="M162 983q0 45 30.5 78t77.5 33q45 0 77 -33t32 -78q0 -43 -32 -74.5t-77 -31.5q-47 0 -77.5 31.5t-30.5 74.5zM193 -442l8 1159h137l8 -1159h-153z" />
<glyph unicode="&#xa2;" horiz-adv-x="1247" d="M127 543q0 129 49 248.5t148.5 204.5t248.5 104v164h144v-160q109 -12 181.5 -53t117.5 -95.5t67.5 -106.5t29.5 -87l7 -35h-149l-9 32q-10 32 -35.5 76t-76.5 81.5t-133 50.5v-848q82 12 133 50t76.5 82t35.5 75l9 32h149l-7 -34q-7 -35 -29.5 -87.5t-67.5 -106.5 t-118 -95t-181 -53v-158h-144v162q-150 18 -249 102t-148 205t-49 250zM279 543q0 -96 32.5 -185.5t98 -152t163.5 -82.5v840q-98 -20 -163.5 -83t-98 -152t-32.5 -185z" />
<glyph unicode="&#xa3;" horiz-adv-x="1220" d="M119 0v141q86 14 153.5 61.5t106.5 118t39 156.5q0 49 -13.5 93t-33.5 85h-252v107h192q-45 72 -83 152.5t-38 185.5q0 133 70 231.5t192.5 151.5t280.5 53q84 0 158 -11.5t119 -22.5l45 -11v-143l-44 11t-115 23.5t-151 12.5q-180 0 -290.5 -81t-110.5 -224 q0 -94 45 -171t90 -157h443v-107h-390q12 -37 20.5 -75.5t8.5 -81.5q0 -102 -39 -178t-90 -122t-88 -61h772v-137h-997z" />
<glyph unicode="&#xa4;" horiz-adv-x="1189" d="M117 336l155 156q-84 109 -84 251q0 139 80 246l-151 150l78 78l149 -152q53 45 118.5 68.5t139.5 23.5q141 0 252 -84l143 144l76 -78l-143 -146q86 -106 86 -250q0 -74 -24.5 -139t-65.5 -117l147 -151l-76 -78l-151 152q-109 -80 -244 -80q-72 0 -135.5 22.5 t-116.5 63.5l-155 -158zM305 741q0 -80 40 -146.5t107.5 -106t149.5 -39.5q80 0 147.5 39.5t107.5 106.5t40 146q0 82 -40 148.5t-107.5 106.5t-147.5 40q-82 0 -149.5 -40t-107.5 -106.5t-40 -148.5z" />
<glyph unicode="&#xa5;" horiz-adv-x="1359" d="M57 1516h174l449 -807l448 807h172l-417 -744h254v-119h-322l-57 -104v-25h379v-121h-379v-403h-156v403h-381v121h381v25l-59 104h-322v119h254z" />
<glyph unicode="&#xa6;" horiz-adv-x="813" d="M334 -455v987h143v-987h-143zM334 866v1082h143v-1082h-143z" />
<glyph unicode="&#xa7;" horiz-adv-x="1390" d="M111 657q0 123 84 207t227 103v12q-115 57 -171 136t-56 194q0 123 62 217t173 146t254 52q145 0 240.5 -44t149.5 -109.5t79 -131t32 -109.5l7 -44h-156l-5 31q-5 31 -22.5 76t-55.5 90t-103.5 75.5t-169.5 30.5q-111 0 -184.5 -39t-110.5 -101.5t-37 -135.5 q0 -109 76 -168.5t205 -89.5l235 -56q111 -27 206 -71.5t154.5 -117.5t59.5 -183q0 -123 -85 -208t-226 -104v-10q123 -41 193.5 -134t70.5 -222q0 -119 -63.5 -216.5t-178 -154.5t-268.5 -57q-141 0 -240.5 33.5t-162 87t-97 114t-50 113.5t-19.5 88l-4 35h157l4 -34 t23.5 -84t63.5 -100t124 -84t205 -34q102 0 181 38t123 102.5t44 146.5q0 86 -39 141t-103.5 87t-139.5 50l-267 62q-111 27 -207 71.5t-154 118.5t-58 184zM264 676q0 -74 42 -122t109.5 -76.5t143.5 -47.5l242 -57q152 0 239.5 63.5t87.5 169.5q0 74 -40.5 122t-108.5 78 t-145 48l-244 57q-147 0 -236.5 -63.5t-89.5 -171.5z" />
<glyph unicode="&#xa8;" horiz-adv-x="542" d="M68 1372q0 45 30.5 77t77.5 32q45 0 77 -32t32 -77t-32 -76.5t-77 -31.5q-47 0 -77.5 32.5t-30.5 75.5zM422 1372q0 45 30.5 77t77.5 32q45 0 77 -32t32 -77t-32 -76.5t-77 -31.5q-47 0 -77.5 32.5t-30.5 75.5z" />
<glyph unicode="&#xa9;" horiz-adv-x="1691" d="M117 717q0 139 46 270t137 236.5t227.5 168t318.5 62.5t318 -62.5t228.5 -168t137.5 -236.5t45 -270q0 -137 -45 -269.5t-137.5 -238t-228.5 -167.5t-318 -62t-318.5 62t-227.5 167.5t-137 238t-46 269.5zM236 719q0 -117 38.5 -227.5t114.5 -199.5t190.5 -142.5 t266.5 -53.5t266.5 53.5t190 142.5t114.5 199.5t39 227.5q0 115 -38 225.5t-114.5 199.5t-191.5 141t-266 52q-152 0 -266.5 -52t-191.5 -141t-114.5 -199.5t-37.5 -225.5zM449 717q0 111 46 214t140 169.5t235 66.5q102 0 170 -30.5t109 -75.5t61.5 -91t27.5 -77l7 -31 h-125l-8 30t-33.5 67.5t-76 66.5t-132.5 29q-98 0 -163.5 -48.5t-99.5 -126t-34 -163.5t34 -164t99.5 -126t163.5 -48q82 0 132.5 28.5t76 66.5t33.5 68l8 29h125l-7 -31q-7 -30 -27.5 -76t-61.5 -91t-109 -76t-170 -31q-141 0 -234 66.5t-140 170t-47 214.5z" />
<glyph unicode="&#xaa;" horiz-adv-x="833" d="M127 1040q0 90 66.5 138.5t173.5 62.5l186 25v22q0 31 -11.5 63.5t-41 55.5t-84.5 23q-66 0 -96.5 -28t-39.5 -56l-8 -27h-127l7 33q8 32 33.5 75t81 76t149.5 33q137 0 204.5 -72.5t67.5 -171.5v-426h-135v92h-8q-4 -6 -25.5 -31.5t-64.5 -49t-111 -23.5 q-94 0 -155.5 49t-61.5 137zM258 1049q0 -49 37 -73t84 -24q78 0 126 55.5t48 141.5v25l-170 -23q-59 -8 -92 -32.5t-33 -69.5z" />
<glyph unicode="&#xab;" horiz-adv-x="1267" d="M82 649l434 428h176l-430 -428l430 -426h-176zM575 649l435 428h176l-430 -428l430 -426h-176z" />
<glyph unicode="&#xac;" horiz-adv-x="1341" d="M164 954v131h1014v-522h-129v391h-885z" />
<glyph unicode="&#xad;" horiz-adv-x="1228" d="M242 575v132h762v-132h-762z" />
<glyph unicode="&#xae;" horiz-adv-x="888" d="M76 1169q0 90 41 175.5t123 138.5t204 53q123 0 205 -53t123 -138t41 -176q0 -92 -41 -176t-123 -138t-205 -54t-204.5 53t-122.5 138t-41 177zM152 1169q0 -74 32.5 -141t97 -109t162.5 -42t163 42t97.5 109.5t32.5 140.5q0 74 -32.5 140.5t-97 109.5t-163.5 43 q-98 0 -162.5 -43t-97 -109.5t-32.5 -140.5zM305 971v395h156q68 0 106.5 -35t38.5 -90q0 -88 -82 -119l92 -151h-86l-84 141h-65v-141h-76zM381 1178h78q33 0 50 17t17 42q0 27 -17 44t-50 17h-78v-120z" />
<glyph unicode="&#xaf;" horiz-adv-x="696" d="M45 1307v118h606v-118h-606z" />
<glyph unicode="&#xb0;" horiz-adv-x="960" d="M127 1182q0 96 47 177t128 129t177 48q98 0 179 -48t129.5 -129t48.5 -177q0 -98 -48.5 -179t-129.5 -128.5t-179 -47.5q-96 0 -177 47.5t-128 128t-47 179.5zM248 1182q0 -63 31.5 -116.5t84 -84.5t115.5 -31q66 0 118 31t84 83t32 118q0 63 -32 116.5t-85 84t-117 30.5 q-63 0 -115.5 -30.5t-84 -84t-31.5 -116.5z" />
<glyph unicode="&#xb1;" horiz-adv-x="1325" d="M242 0v106h841v-106h-841zM281 629v133h315v315h131v-315h315v-133h-315v-314h-131v314h-315z" />
<glyph unicode="&#xb2;" horiz-adv-x="839" d="M150 862v96l149 132q78 68 136.5 116.5t90 94t31.5 98.5q0 61 -41 94t-92 33q-53 0 -97 -37t-44 -111h-133q0 92 39.5 151.5t103 88.5t133.5 29q72 0 133.5 -29t99 -83t37.5 -128q0 -72 -33.5 -129t-95 -111.5t-141.5 -119.5l-72 -64h355v-121h-559z" />
<glyph unicode="&#xb3;" horiz-adv-x="870" d="M150 1098h131q0 -66 46 -99.5t103 -33.5q61 0 102 35.5t41 89.5q0 51 -34.5 82.5t-96.5 31.5h-102v109h102q51 0 86 30.5t35 75.5q0 51 -39 83t-94 32q-51 0 -94 -33t-43 -102h-129q0 82 38 137t99 83t131 28t131.5 -26t99 -74t37.5 -115q0 -61 -34.5 -105.5t-85.5 -62.5 v-7q59 -18 96 -63t37 -111q0 -74 -39 -126t-103.5 -78.5t-140.5 -26.5q-113 0 -196.5 62.5t-83.5 183.5z" />
<glyph unicode="&#xb4;" horiz-adv-x="413" d="M-2 1255l174 351h162l-203 -351h-133z" />
<glyph unicode="&#xb5;" horiz-adv-x="1253" d="M113 -408v1493h153v-704q0 -127 63.5 -196.5t176.5 -69.5q106 0 171.5 57t95.5 147.5t30 186.5v579h153v-804q0 -168 156 -168q37 0 56 5l20 5v-131l-24 -6q-23 -6 -72 -6q-111 0 -180.5 48t-92.5 150h-8q-4 -10 -20.5 -42t-51 -67.5t-92 -62t-145.5 -26.5 q-92 0 -149.5 28.5t-84.5 57.5l-26 28l-9 -4q14 -55 23.5 -133t9.5 -172v-193h-153z" />
<glyph unicode="&#xb6;" horiz-adv-x="1032" d="M27 1065q0 98 43 182t128 135.5t210 51.5h493v-1434h-106v1298h-150v-1298h-106v707h-131q-127 0 -212 49t-127 130t-42 179z" />
<glyph unicode="&#xb7;" horiz-adv-x="522" d="M190 791q0 47 32 79.5t81 32.5t82 -32.5t33 -79.5q0 -49 -33 -82t-82 -33t-81 33.5t-32 81.5z" />
<glyph unicode="&#xb8;" horiz-adv-x="479" d="M27 -178l118 205h113l-86 -144q31 10 68 11q96 0 146 -57.5t50 -131.5q0 -51 -25.5 -100t-83 -82t-149.5 -33q-51 0 -95 7l-44 7v101l45 -7q45 -8 88 -8q86 0 119 37t33 74q0 39 -29 67.5t-88 28.5q-51 0 -84 -19l-33 -20z" />
<glyph unicode="&#xb9;" horiz-adv-x="604" d="M92 1434v82l27 6q66 20 104.5 41.5t69.5 62.5l10 12h76v-776h-133v572h-154z" />
<glyph unicode="&#xba;" horiz-adv-x="915" d="M127 1192q0 88 38 167t111.5 128t180.5 49q109 0 182.5 -49t111 -128t37.5 -167q0 -90 -37.5 -169t-111 -128t-182.5 -49q-104 0 -179 49t-113 128t-38 169zM262 1192q0 -88 50.5 -158.5t144.5 -70.5q96 0 146 70.5t50 158.5t-50 158.5t-146 70.5q-94 0 -144.5 -70.5 t-50.5 -158.5z" />
<glyph unicode="&#xbb;" horiz-adv-x="1267" d="M82 223l432 426l-432 428h178l432 -428l-432 -426h-178zM575 223l433 426l-433 428h179l432 -428l-432 -426h-179z" />
<glyph unicode="&#xbc;" horiz-adv-x="1536" d="M23 1268v80l22 6q59 16 94 37.5t68 56.5l8 10h76v-725h-133v535h-135zM279 0l819 1434h149l-821 -1434h-147zM1032 152v100l314 459h165v-447h111v-112h-111v-158h-135v158h-344zM1174 264h202v301z" />
<glyph unicode="&#xbd;" horiz-adv-x="1587" d="M23 1268v80l22 6q59 16 94 37.5t68 56.5l8 10h76v-725h-133v535h-135zM279 0l819 1434h149l-821 -1434h-147zM1149 471q0 84 37 139.5t97 83t126 27.5q102 0 179 -59.5t77 -165.5q0 -96 -71.5 -171t-182.5 -163l-59 -49h321v-119h-522v94l133 117q115 96 179.5 154.5 t64.5 127.5q0 57 -39 86t-84 29q-49 0 -87 -31.5t-38 -99.5h-131z" />
<glyph unicode="&#xbe;" horiz-adv-x="1611" d="M88 948h127q0 -57 41 -88t94 -31q57 0 94 30t37 81q0 45 -31.5 74.5t-91.5 29.5h-92v103h94q49 0 81 26.5t32 69.5q0 45 -35 74t-86 29q-49 0 -87 -31t-38 -90h-125q0 106 74 167.5t178 61.5q63 0 119.5 -23.5t92.5 -67.5t36 -108q0 -61 -35 -101t-75 -54v-6 q55 -20 89.5 -61.5t34.5 -102.5q0 -68 -36.5 -115t-97 -72.5t-130.5 -25.5q-115 0 -189.5 62.5t-74.5 168.5zM479 0l819 1434h150l-819 -1434h-150zM1233 152v100l315 459h164v-447h113v-112h-113v-158h-133v158h-346zM1374 264h205v301z" />
<glyph unicode="&#xbf;" horiz-adv-x="1177" d="M123 -33q0 109 42 186.5t103.5 138t122 115t102.5 117t42 144.5v59h151v-59q0 -106 -41 -182t-101.5 -133.5t-122 -112t-102 -118t-40.5 -153.5t45 -153.5t115.5 -96t150.5 -32.5t151.5 35.5t116.5 108.5t45 185h152q0 -160 -68.5 -264t-176 -155.5t-224.5 -51.5 q-121 0 -226.5 49.5t-171 144.5t-65.5 228zM500 993q0 45 31.5 77t76.5 32q47 0 78 -33t31 -76q0 -45 -31 -76.5t-78 -31.5q-45 0 -76.5 31.5t-31.5 76.5z" />
<glyph unicode="&#xc0;" horiz-adv-x="1452" d="M88 0l539 1516h196l539 -1516h-166l-139 391h-662l-139 -391h-168zM442 535h566l-283 798zM459 2036h162l176 -350h-133z" />
<glyph unicode="&#xc1;" horiz-adv-x="1452" d="M88 0l539 1516h196l539 -1516h-166l-139 391h-662l-139 -391h-168zM442 535h566l-283 798zM662 1686l176 350h161l-204 -350h-133z" />
<glyph unicode="&#xc2;" horiz-adv-x="1452" d="M88 0l539 1516h196l539 -1516h-166l-139 391h-662l-139 -391h-168zM418 1673l241 295h136l241 -295h-143l-166 203l-166 -203h-143zM442 535h566l-283 798z" />
<glyph unicode="&#xc3;" horiz-adv-x="1452" d="M88 0l539 1516h196l539 -1516h-166l-139 391h-662l-139 -391h-168zM426 1708q0 61 15.5 118.5t52 93.5t100.5 36q55 0 91 -21.5t62.5 -50.5t51 -50.5t53.5 -21.5q33 0 49.5 36t16.5 98h108q0 -61 -15.5 -119t-51.5 -94.5t-99 -36.5q-53 0 -89 22.5t-62.5 51t-51 50 t-55.5 21.5q-37 0 -52 -36t-15 -97h-109zM442 535h566l-283 798z" />
<glyph unicode="&#xc4;" horiz-adv-x="1452" d="M88 0l539 1516h196l539 -1516h-166l-139 391h-662l-139 -391h-168zM440 1802q0 45 31 77t78 32q45 0 76.5 -32t31.5 -77t-31.5 -76.5t-76.5 -31.5q-47 0 -78 32.5t-31 75.5zM442 535h566l-283 798zM795 1802q0 45 30.5 77t77.5 32q45 0 77 -32t32 -77t-32 -76.5 t-77 -31.5q-47 0 -77.5 32.5t-30.5 75.5z" />
<glyph unicode="&#xc5;" horiz-adv-x="1452" d="M88 0l539 1516h196l539 -1516h-166l-139 391h-662l-139 -391h-168zM442 535h566l-283 798zM485 1909q0 68 33 122t87 85.5t120 31.5t120 -31.5t87 -86t33 -121.5q0 -66 -33 -120t-87 -86t-120 -32t-120 32t-87 86t-33 120zM600 1909q0 -51 37 -88t88 -37q53 0 89 37 t36 88q0 53 -36 90t-89 37q-51 0 -88 -37t-37 -90z" />
<glyph unicode="&#xc6;" horiz-adv-x="2035" d="M92 0l785 1516h1009v-142h-770v-530h674v-142h-674v-561h780v-141h-938v391h-495l-203 -391h-168zM537 535h421v815z" />
<glyph unicode="&#xc7;" horiz-adv-x="1572" d="M117 758q0 145 44 284.5t132 251t221 177t309 65.5q143 0 247 -37t173.5 -96.5t112.5 -125t64.5 -124.5t28.5 -96l7 -37h-160l-8 37q-8 37 -34.5 92t-79 110.5t-137.5 92.5t-214 37q-135 0 -237.5 -53.5t-171 -144.5t-103.5 -202.5t-35 -230.5q0 -117 35 -229.5 t103.5 -204t171 -144.5t237.5 -53q129 0 214 37t137.5 92t79 110.5t34.5 93.5l8 38h160l-10 -50q-10 -49 -42 -122.5t-95.5 -149.5t-169 -131t-262.5 -63l-78 -134q35 12 80 13q94 0 145 -48.5t51 -121.5q0 -51 -26.5 -100.5t-84 -82t-149.5 -32.5q-49 0 -93 7l-44 7v100 l45 -7t88 -7q86 0 119 37t33 76q0 37 -29 66.5t-88 29.5q-53 0 -86 -21l-33 -20l-63 63l100 175q-162 12 -283 81.5t-202.5 179t-121.5 242.5t-40 273z" />
<glyph unicode="&#xc8;" horiz-adv-x="1261" d="M184 0v1516h926v-142h-768v-530h672v-142h-672v-561h780v-141h-938zM391 2036h162l176 -350h-133z" />
<glyph unicode="&#xc9;" horiz-adv-x="1261" d="M184 0v1516h926v-142h-768v-530h672v-142h-672v-561h780v-141h-938zM594 1686l176 350h162l-205 -350h-133z" />
<glyph unicode="&#xca;" horiz-adv-x="1261" d="M184 0v1516h926v-142h-768v-530h672v-142h-672v-561h780v-141h-938zM350 1673l242 295h135l242 -295h-144l-166 203l-165 -203h-144z" />
<glyph unicode="&#xcb;" horiz-adv-x="1261" d="M184 0v1516h926v-142h-768v-530h672v-142h-672v-561h780v-141h-938zM373 1802q0 45 30.5 77t77.5 32q45 0 77 -32t32 -77t-32 -76.5t-77 -31.5q-47 0 -77.5 32.5t-30.5 75.5zM727 1802q0 45 30.5 77t78.5 32q45 0 76.5 -32t31.5 -77t-31.5 -76.5t-76.5 -31.5 q-47 0 -78 32.5t-31 75.5z" />
<glyph unicode="&#xcc;" horiz-adv-x="526" d="M-2 2036h162l174 -350h-133zM184 0v1516h158v-1516h-158z" />
<glyph unicode="&#xcd;" horiz-adv-x="526" d="M184 0v1516h158v-1516h-158zM199 1686l176 350h162l-203 -350h-135z" />
<glyph unicode="&#xce;" horiz-adv-x="526" d="M-45 1673l242 332h135l241 -332h-143l-166 230l-166 -230h-143zM184 0v1516h158v-1516h-158z" />
<glyph unicode="&#xcf;" horiz-adv-x="526" d="M-23 1802q0 45 31 77t78 32t78 -32t31 -77t-31 -76.5t-78 -31.5t-78 32.5t-31 75.5zM184 0v1516h158v-1516h-158zM332 1802q0 45 30.5 77t77.5 32t78 -32t31 -77t-31 -76.5t-78 -31.5t-77.5 32.5t-30.5 75.5z" />
<glyph unicode="&#xd0;" horiz-adv-x="1589" d="M76 686v143h207v687h473q180 0 315 -65t224 -173.5t134.5 -243.5t45.5 -276t-45.5 -276.5t-134.5 -244t-224 -173t-315 -64.5h-473v686h-207zM440 141h312q141 0 246.5 52.5t176 140.5t105.5 198.5t35 225.5t-35 225.5t-105.5 198.5t-176 140t-246.5 52h-312v-545h332 v-143h-332v-545z" />
<glyph unicode="&#xd1;" horiz-adv-x="1515" d="M184 0v1516h146l844 -1233v1233h157v-1516h-143l-846 1233v-1233h-158zM465 1708q0 61 14.5 118.5t51 93.5t102.5 36q53 0 90 -21.5t63.5 -50.5t50 -50.5t52.5 -21.5q35 0 50 36t15 98h109q0 -61 -15.5 -119t-51.5 -94.5t-99 -36.5q-51 0 -87 22.5t-63.5 51t-52 50 t-53.5 21.5q-37 0 -53.5 -36t-16.5 -97h-106z" />
<glyph unicode="&#xd2;" horiz-adv-x="1681" d="M117 760q0 143 46 282.5t137 251t227.5 177t314.5 65.5t313 -65.5t226.5 -177t138.5 -251t47 -282.5q0 -145 -47 -284.5t-138.5 -251t-226.5 -178t-313 -66.5t-314.5 66.5t-227.5 178t-137 250.5t-46 285zM276 760q0 -180 72 -323.5t199 -226.5t295 -83q166 0 293 83 t198.5 226.5t71.5 323.5q0 178 -71.5 320.5t-198.5 225.5t-293 83q-168 0 -295 -83t-199 -225.5t-72 -320.5zM575 2056h162l174 -350h-133z" />
<glyph unicode="&#xd3;" horiz-adv-x="1681" d="M117 760q0 143 46 282.5t137 251t227.5 177t314.5 65.5t313 -65.5t226.5 -177t138.5 -251t47 -282.5q0 -145 -47 -284.5t-138.5 -251t-226.5 -178t-313 -66.5t-314.5 66.5t-227.5 178t-137 250.5t-46 285zM276 760q0 -180 72 -323.5t199 -226.5t295 -83q166 0 293 83 t198.5 226.5t71.5 323.5q0 178 -71.5 320.5t-198.5 225.5t-293 83q-168 0 -295 -83t-199 -225.5t-72 -320.5zM776 1706l176 350h162l-203 -350h-135z" />
<glyph unicode="&#xd4;" horiz-adv-x="1681" d="M117 760q0 143 46 282.5t137 251t227.5 177t314.5 65.5t313 -65.5t226.5 -177t138.5 -251t47 -282.5q0 -145 -47 -284.5t-138.5 -251t-226.5 -178t-313 -66.5t-314.5 66.5t-227.5 178t-137 250.5t-46 285zM276 760q0 -180 72 -323.5t199 -226.5t295 -83q166 0 293 83 t198.5 226.5t71.5 323.5q0 178 -71.5 320.5t-198.5 225.5t-293 83q-168 0 -295 -83t-199 -225.5t-72 -320.5zM532 1694l242 295h135l242 -295h-143l-166 202l-166 -202h-144z" />
<glyph unicode="&#xd5;" horiz-adv-x="1681" d="M117 760q0 143 46 282.5t137 251t227.5 177t314.5 65.5t313 -65.5t226.5 -177t138.5 -251t47 -282.5q0 -145 -47 -284.5t-138.5 -251t-226.5 -178t-313 -66.5t-314.5 66.5t-227.5 178t-137 250.5t-46 285zM276 760q0 -180 72 -323.5t199 -226.5t295 -83q166 0 293 83 t198.5 226.5t71.5 323.5q0 178 -71.5 320.5t-198.5 225.5t-293 83q-168 0 -295 -83t-199 -225.5t-72 -320.5zM543 1729q0 61 14 118.5t51 93t103 35.5q53 0 90 -21.5t63.5 -50t50 -50t52.5 -21.5q35 0 50 36t15 97h109q0 -61 -15.5 -118.5t-51.5 -94.5t-99 -37 q-51 0 -87 22.5t-63.5 51.5t-52 50.5t-53.5 21.5q-37 0 -53.5 -36t-16.5 -97h-106z" />
<glyph unicode="&#xd6;" horiz-adv-x="1681" d="M117 760q0 143 46 282.5t137 251t227.5 177t314.5 65.5t313 -65.5t226.5 -177t138.5 -251t47 -282.5q0 -145 -47 -284.5t-138.5 -251t-226.5 -178t-313 -66.5t-314.5 66.5t-227.5 178t-137 250.5t-46 285zM276 760q0 -180 72 -323.5t199 -226.5t295 -83q166 0 293 83 t198.5 226.5t71.5 323.5q0 178 -71.5 320.5t-198.5 225.5t-293 83q-168 0 -295 -83t-199 -225.5t-72 -320.5zM555 1823q0 45 30.5 76.5t78.5 31.5q47 0 77.5 -31.5t30.5 -76.5t-30.5 -77t-77.5 -32t-78 33t-31 76zM909 1823q0 45 31 76.5t78 31.5t77.5 -31.5t30.5 -76.5 t-30.5 -77t-77.5 -32t-78 33t-31 76z" />
<glyph unicode="&#xd7;" horiz-adv-x="1146" d="M242 406l233 233l-233 233l98 99l233 -234l232 232l98 -97l-231 -231l233 -233l-98 -99l-234 234l-233 -234z" />
<glyph unicode="&#xd8;" horiz-adv-x="1681" d="M117 760q0 143 46 282.5t137 251t227.5 177t314.5 65.5q102 0 190 -23.5t164 -64.5l74 115h170l-127 -199q125 -113 189.5 -273.5t64.5 -330.5q0 -145 -47 -284.5t-138.5 -251t-226.5 -178t-313 -66.5q-104 0 -193.5 23.5t-165.5 66.5l-75 -119h-170l129 203 q-125 113 -187.5 274.5t-62.5 331.5zM276 760q0 -143 46.5 -265t130.5 -206l659 1030q-123 70 -270 70q-168 0 -295 -83t-199 -225.5t-72 -320.5zM567 199q123 -72 275 -72q166 0 293 83t198.5 226.5t71.5 323.5q0 143 -47 264t-131 207z" />
<glyph unicode="&#xd9;" horiz-adv-x="1490" d="M184 545v971h158v-971q0 -184 100.5 -300t302.5 -116q203 0 303.5 115.5t100.5 300.5v971h158v-971q0 -168 -64.5 -295t-190 -198.5t-307.5 -71.5t-307 71.5t-189.5 198.5t-64.5 295zM473 2036h162l176 -350h-135z" />
<glyph unicode="&#xda;" horiz-adv-x="1490" d="M184 545v971h158v-971q0 -184 100.5 -300t302.5 -116q203 0 303.5 115.5t100.5 300.5v971h158v-971q0 -168 -64.5 -295t-190 -198.5t-307.5 -71.5t-307 71.5t-189.5 198.5t-64.5 295zM676 1686l174 350h162l-203 -350h-133z" />
<glyph unicode="&#xdb;" horiz-adv-x="1490" d="M184 545v971h158v-971q0 -184 100.5 -300t302.5 -116q203 0 303.5 115.5t100.5 300.5v971h158v-971q0 -168 -64.5 -295t-190 -198.5t-307.5 -71.5t-307 71.5t-189.5 198.5t-64.5 295zM432 1673l240 332h137l240 -332h-142l-168 230l-166 -230h-141z" />
<glyph unicode="&#xdc;" horiz-adv-x="1490" d="M184 545v971h158v-971q0 -184 100.5 -300t302.5 -116q203 0 303.5 115.5t100.5 300.5v971h158v-971q0 -168 -64.5 -295t-190 -198.5t-307.5 -71.5t-307 71.5t-189.5 198.5t-64.5 295zM453 1802q0 45 30.5 77t77.5 32t78 -32t31 -77t-31 -76.5t-78 -31.5t-77.5 32.5 t-30.5 75.5zM807 1802q0 45 30.5 77t77.5 32t78 -32t31 -77t-31 -76.5t-78 -31.5t-77.5 32.5t-30.5 75.5z" />
<glyph unicode="&#xdd;" horiz-adv-x="1359" d="M57 1516h174l449 -807l448 807h172l-542 -967v-549h-156v549zM625 1655l174 350h162l-203 -352z" />
<glyph unicode="&#xde;" horiz-adv-x="1292" d="M170 0v1516h158v-275h370q168 0 281 -70.5t169 -181t56 -229.5q0 -123 -56 -233.5t-169 -181.5t-281 -71h-370v-274h-158zM328 416h370q117 0 195 49t117 128t39 165t-39 164.5t-117 128t-195 49.5h-370v-684z" />
<glyph unicode="&#xdf;" horiz-adv-x="1335" d="M170 -6v1042q0 141 57.5 254t164.5 179.5t259 66.5q123 0 231.5 -49t175 -140.5t66.5 -218.5q0 -121 -63.5 -209t-167.5 -126v-9q23 -8 70 -30.5t97 -64.5t85 -109.5t35 -165.5q0 -135 -70 -232.5t-191.5 -149.5t-277.5 -52q-68 0 -121 7l-53 7v135l53 -6t111 -6 q184 0 286.5 87t102.5 226q0 137 -96.5 213t-243.5 76h-186v131h178q127 0 211 68.5t84 193.5q0 92 -44 155.5t-116 97.5t-154 34q-90 0 -164.5 -39t-118.5 -119t-44 -205v-1042h-156z" />
<glyph unicode="&#xe0;" horiz-adv-x="1312" d="M137 543q0 104 30 204.5t91 181.5t153.5 129t215.5 48q113 0 186.5 -38t117.5 -89t64 -88h13v194h151v-1085h-151v195h-13q-20 -39 -64 -89.5t-118 -88t-186 -37.5q-123 0 -215.5 48t-153.5 129t-91 181t-30 205zM291 543q0 -106 39 -204.5t118.5 -162t200.5 -63.5 q119 0 198 63.5t119 161.5t40 205q0 106 -40 204.5t-119 162t-198 63.5q-121 0 -200.5 -63.5t-118.5 -162t-39 -204.5zM391 1606h162l176 -351h-135z" />
<glyph unicode="&#xe1;" horiz-adv-x="1312" d="M137 543q0 104 30 204.5t91 181.5t153.5 129t215.5 48q113 0 186.5 -38t117.5 -89t64 -88h13v194h151v-1085h-151v195h-13q-20 -39 -64 -89.5t-118 -88t-186 -37.5q-123 0 -215.5 48t-153.5 129t-91 181t-30 205zM291 543q0 -106 39 -204.5t118.5 -162t200.5 -63.5 q119 0 198 63.5t119 161.5t40 205q0 106 -40 204.5t-119 162t-198 63.5q-121 0 -200.5 -63.5t-118.5 -162t-39 -204.5zM594 1255l174 351h162l-203 -351h-133z" />
<glyph unicode="&#xe2;" horiz-adv-x="1312" d="M137 543q0 104 30 204.5t91 181.5t153.5 129t215.5 48q113 0 186.5 -38t117.5 -89t64 -88h13v194h151v-1085h-151v195h-13q-20 -39 -64 -89.5t-118 -88t-186 -37.5q-123 0 -215.5 48t-153.5 129t-91 181t-30 205zM291 543q0 -106 39 -204.5t118.5 -162t200.5 -63.5 q119 0 198 63.5t119 161.5t40 205q0 106 -40 204.5t-119 162t-198 63.5q-121 0 -200.5 -63.5t-118.5 -162t-39 -204.5zM350 1243l240 332h137l240 -332h-142l-168 230l-165 -230h-142z" />
<glyph unicode="&#xe3;" horiz-adv-x="1312" d="M137 543q0 104 30 204.5t91 181.5t153.5 129t215.5 48q113 0 186.5 -38t117.5 -89t64 -88h13v194h151v-1085h-151v195h-13q-20 -39 -64 -89.5t-118 -88t-186 -37.5q-123 0 -215.5 48t-153.5 129t-91 181t-30 205zM291 543q0 -106 39 -204.5t118.5 -162t200.5 -63.5 q119 0 198 63.5t119 161.5t40 205q0 106 -40 204.5t-119 162t-198 63.5q-121 0 -200.5 -63.5t-118.5 -162t-39 -204.5zM358 1278q0 61 15.5 118.5t52.5 93.5t100 36q53 0 90 -21.5t64 -50.5t50.5 -50.5t51.5 -21.5q35 0 51.5 36t16.5 98h106q0 -61 -14 -119t-51 -94.5 t-100 -36.5q-51 0 -87 22.5t-63 51t-51.5 50t-54.5 21.5q-37 0 -52.5 -36t-15.5 -97h-109z" />
<glyph unicode="&#xe4;" horiz-adv-x="1312" d="M137 543q0 104 30 204.5t91 181.5t153.5 129t215.5 48q113 0 186.5 -38t117.5 -89t64 -88h13v194h151v-1085h-151v195h-13q-20 -39 -64 -89.5t-118 -88t-186 -37.5q-123 0 -215.5 48t-153.5 129t-91 181t-30 205zM291 543q0 -106 39 -204.5t118.5 -162t200.5 -63.5 q119 0 198 63.5t119 161.5t40 205q0 106 -40 204.5t-119 162t-198 63.5q-121 0 -200.5 -63.5t-118.5 -162t-39 -204.5zM371 1372q0 45 30.5 77t77.5 32t79 -32t32 -77t-32 -76.5t-79 -31.5t-77.5 32.5t-30.5 75.5zM725 1372q0 45 30.5 77t78.5 32q47 0 78.5 -32t31.5 -77 t-31.5 -76.5t-78.5 -31.5t-78 32.5t-31 75.5z" />
<glyph unicode="&#xe5;" horiz-adv-x="1312" d="M137 543q0 104 30 204.5t91 181.5t153.5 129t215.5 48q113 0 186.5 -38t117.5 -89t64 -88h13v194h151v-1085h-151v195h-13q-20 -39 -64 -89.5t-118 -88t-186 -37.5q-123 0 -215.5 48t-153.5 129t-91 181t-30 205zM291 543q0 -106 39 -204.5t118.5 -162t200.5 -63.5 q119 0 198 63.5t119 161.5t40 205q0 106 -40 204.5t-119 162t-198 63.5q-121 0 -200.5 -63.5t-118.5 -162t-39 -204.5zM418 1479q0 68 32.5 122t87 85.5t119.5 31.5q66 0 120 -31.5t86 -86t32 -121.5q0 -66 -32 -120t-86 -86t-120 -32t-120 32t-86.5 86t-32.5 120zM530 1479 q0 -51 37 -88t90 -37q51 0 88 36.5t37 88.5q0 53 -36.5 90t-88.5 37q-53 0 -90 -37t-37 -90z" />
<glyph unicode="&#xe6;" horiz-adv-x="1972" d="M123 299q0 152 113.5 235.5t289.5 83.5h328v76q0 41 -10 90.5t-40 93.5t-84 72.5t-142 28.5q-96 0 -153.5 -33t-85.5 -76t-36 -76l-8 -32h-150l9 34q8 35 31.5 86.5t69.5 102.5t124 86t192 35q158 0 254.5 -69.5t124.5 -174.5h6q45 96 146.5 170t267.5 74 q137 0 244.5 -63.5t170 -190.5t62.5 -315v-45h-835q4 -102 48 -189.5t125 -140.5t191 -53q92 0 152.5 31.5t94.5 74.5t49 75l14 32h147l-11 -34q-12 -34 -39.5 -85t-79.5 -102.5t-133 -86t-198 -34.5q-131 0 -221 45t-145.5 109.5t-79.5 123.5h-11l-11 -28 q-11 -27 -38.5 -69t-75 -84t-121 -69.5t-175.5 -27.5q-100 0 -185.5 35.5t-135.5 107.5t-50 176zM272 299q0 -100 75 -148.5t171 -48.5q106 0 181 51.5t115 134.5t40 181v27h-328q-129 0 -191.5 -55.5t-62.5 -141.5zM1012 614h682q-6 137 -52.5 216t-118 114t-155.5 35 q-154 0 -250 -98.5t-106 -266.5z" />
<glyph unicode="&#xe7;" horiz-adv-x="1267" d="M137 543q0 104 33 204.5t98.5 181.5t163.5 129t232 48q127 0 210.5 -38t135 -94t78 -113.5t34.5 -95.5l8 -38h-149l-11 37q-12 37 -43.5 85t-95 85t-167.5 37q-125 0 -208 -61.5t-125 -159t-42 -207.5q0 -109 42 -207t125 -159.5t208 -61.5q104 0 167.5 36.5t95 85 t43.5 85.5l11 36h149l-8 -36q-8 -35 -30.5 -88.5t-68.5 -107.5t-122 -95t-188 -49l-72 -123q31 10 68 10q94 0 145 -56.5t51 -131.5q0 -49 -26.5 -99.5t-84 -82t-149.5 -31.5q-49 0 -93 6l-44 6v102l45 -7t88 -7q86 0 119 37t33 73q0 37 -29 67t-88 30q-53 0 -86 -19 l-33 -20l-63 63l106 185q-154 14 -257 98t-154.5 207t-51.5 254z" />
<glyph unicode="&#xe8;" horiz-adv-x="1236" d="M137 543q0 102 30 202.5t91 182.5t154.5 130t222.5 48q135 0 240.5 -63.5t166 -187.5t60.5 -310v-45h-809q4 -104 46 -192.5t119 -141.5t185 -53q90 0 149.5 31.5t91 73.5t44.5 73l14 31h145l-10 -34t-36.5 -85t-77 -102.5t-128 -86t-192.5 -34.5q-131 0 -227.5 48 t-157.5 130t-91 182t-30 203zM295 623h653q-6 125 -50 201.5t-113.5 111.5t-149.5 35q-145 0 -235.5 -95t-104.5 -253zM369 1604h161l175 -349l-134 -2z" />
<glyph unicode="&#xe9;" horiz-adv-x="1236" d="M137 543q0 102 30 202.5t91 182.5t154.5 130t222.5 48q135 0 240.5 -63.5t166 -187.5t60.5 -310v-45h-809q4 -104 46 -192.5t119 -141.5t185 -53q90 0 149.5 31.5t91 73.5t44.5 73l14 31h145l-10 -34t-36.5 -85t-77 -102.5t-128 -86t-192.5 -34.5q-131 0 -227.5 48 t-157.5 130t-91 182t-30 203zM295 623h653q-6 125 -50 201.5t-113.5 111.5t-149.5 35q-145 0 -235.5 -95t-104.5 -253zM569 1255l176 349h162l-202 -351z" />
<glyph unicode="&#xea;" horiz-adv-x="1236" d="M137 543q0 102 30 202.5t91 182.5t154.5 130t222.5 48q135 0 240.5 -63.5t166 -187.5t60.5 -310v-45h-809q4 -104 46 -192.5t119 -141.5t185 -53q90 0 149.5 31.5t91 73.5t44.5 73l14 31h145l-10 -34t-36.5 -85t-77 -102.5t-128 -86t-192.5 -34.5q-131 0 -227.5 48 t-157.5 130t-91 182t-30 203zM295 623h653q-6 125 -50 201.5t-113.5 111.5t-149.5 35q-145 0 -235.5 -95t-104.5 -253zM326 1241l241 332h135l242 -332h-143l-166 232l-166 -232h-143z" />
<glyph unicode="&#xeb;" horiz-adv-x="1236" d="M137 543q0 102 30 202.5t91 182.5t154.5 130t222.5 48q135 0 240.5 -63.5t166 -187.5t60.5 -310v-45h-809q4 -104 46 -192.5t119 -141.5t185 -53q90 0 149.5 31.5t91 73.5t44.5 73l14 31h145l-10 -34t-36.5 -85t-77 -102.5t-128 -86t-192.5 -34.5q-131 0 -227.5 48 t-157.5 130t-91 182t-30 203zM295 623h653q-6 125 -50 201.5t-113.5 111.5t-149.5 35q-145 0 -235.5 -95t-104.5 -253zM348 1372q0 43 31 76t78 33t77.5 -33t30.5 -76q0 -45 -30.5 -77.5t-77.5 -32.5t-78 32.5t-31 77.5zM702 1372q0 43 31 76t78 33t78 -33t31 -76 q0 -45 -31 -77.5t-78 -32.5t-78 32.5t-31 77.5z" />
<glyph unicode="&#xec;" horiz-adv-x="524" d="M-4 1606h162l176 -351h-135zM186 0v1085h154v-1085h-154z" />
<glyph unicode="&#xed;" horiz-adv-x="524" d="M186 0v1085h154v-1085h-154zM199 1255l174 351h162l-203 -351h-133z" />
<glyph unicode="&#xee;" horiz-adv-x="524" d="M-45 1243l240 332h137l239 -332h-141l-168 230l-166 -230h-141zM186 0v1085h154v-1085h-154z" />
<glyph unicode="&#xef;" horiz-adv-x="524" d="M-25 1372q0 45 31 77t78 32t78 -32t31 -77t-31 -76.5t-78 -31.5t-78 32.5t-31 75.5zM186 0v1085h154v-1085h-154zM330 1372q0 45 30.5 77t77.5 32t78 -32t31 -77t-31 -76.5t-78 -31.5t-77.5 32.5t-30.5 75.5z" />
<glyph unicode="&#xf0;" horiz-adv-x="1290" d="M127 543q0 104 30.5 202.5t91 178.5t153 126t212.5 46q94 0 166 -33t119 -76q-70 123 -171 220.5t-202 168.5l-231 -133l-62 109l175 100q-90 53 -150 81l-59 28l55 120l85 -37q85 -36 208 -112l237 137l64 -108l-186 -109q90 -66 179 -154t161.5 -198.5t116.5 -242.5 t44 -288q0 -154 -57 -289t-173 -217.5t-290 -82.5q-131 0 -228.5 48t-161 129t-95 181t-31.5 205zM283 543q0 -106 38.5 -204.5t119.5 -162t204 -63.5t203 63.5t119 162.5t39 204q0 106 -40 204.5t-121 162t-200 63.5q-123 0 -204 -63.5t-119.5 -162t-38.5 -204.5z" />
<glyph unicode="&#xf1;" horiz-adv-x="1206" d="M174 0v1085h154v-180h10q14 31 51 79t102.5 85t165.5 37q121 0 205 -55.5t128 -149.5t44 -213v-688h-151v680q0 125 -66.5 208t-195.5 83q-102 0 -167 -53.5t-95.5 -137.5t-30.5 -172v-608h-154zM311 1278q0 61 14.5 118.5t51.5 93.5t102 36q53 0 90 -21.5t63.5 -50.5 t50.5 -50.5t52 -21.5q35 0 50.5 36t15.5 98h108q0 -61 -15 -119t-51.5 -94.5t-99.5 -36.5q-51 0 -86.5 22.5t-63.5 51t-52.5 50t-53.5 21.5q-37 0 -53 -36t-16 -97h-107z" />
<glyph unicode="&#xf2;" d="M137 543q0 109 33 209t99.5 180t163.5 127t226 47t227.5 -47t164 -127t99.5 -180.5t34 -208.5q0 -106 -34 -208t-99.5 -181.5t-164 -126.5t-227.5 -47t-226 47t-163.5 126.5t-99.5 181t-33 208.5zM293 543q0 -109 41 -206t122.5 -158.5t202.5 -61.5t203 61.5t124 158.5 t42 206t-42 206t-124 158.5t-203 61.5t-202.5 -61.5t-122.5 -159t-41 -205.5zM393 1608h162l174 -351l-133 -2z" />
<glyph unicode="&#xf3;" d="M137 543q0 109 33 209t99.5 180t163.5 127t226 47t227.5 -47t164 -127t99.5 -180.5t34 -208.5q0 -106 -34 -208t-99.5 -181.5t-164 -126.5t-227.5 -47t-226 47t-163.5 126.5t-99.5 181t-33 208.5zM293 543q0 -109 41 -206t122.5 -158.5t202.5 -61.5t203 61.5t124 158.5 t42 206t-42 206t-124 158.5t-203 61.5t-202.5 -61.5t-122.5 -159t-41 -205.5zM594 1257l176 351h162l-203 -353z" />
<glyph unicode="&#xf4;" d="M137 543q0 109 33 209t99.5 180t163.5 127t226 47t227.5 -47t164 -127t99.5 -180.5t34 -208.5q0 -106 -34 -208t-99.5 -181.5t-164 -126.5t-227.5 -47t-226 47t-163.5 126.5t-99.5 181t-33 208.5zM293 543q0 -109 41 -206t122.5 -158.5t202.5 -61.5t203 61.5t124 158.5 t42 206t-42 206t-124 158.5t-203 61.5t-202.5 -61.5t-122.5 -159t-41 -205.5zM350 1243l242 332h135l242 -332h-144l-166 232l-165 -232h-144z" />
<glyph unicode="&#xf5;" d="M137 543q0 109 33 209t99.5 180t163.5 127t226 47t227.5 -47t164 -127t99.5 -180.5t34 -208.5q0 -106 -34 -208t-99.5 -181.5t-164 -126.5t-227.5 -47t-226 47t-163.5 126.5t-99.5 181t-33 208.5zM293 543q0 -109 41 -206t122.5 -158.5t202.5 -61.5t203 61.5t124 158.5 t42 206t-42 206t-124 158.5t-203 61.5t-202.5 -61.5t-122.5 -159t-41 -205.5zM360 1280q0 61 14.5 117.5t51.5 93.5t102 37q53 0 90 -22.5t64 -50.5t50.5 -50.5t51.5 -22.5q35 0 50.5 36t15.5 100h108q0 -63 -15 -120t-51 -93.5t-99 -36.5q-51 0 -87 21.5t-64 51t-52.5 51 t-52.5 21.5q-37 0 -53.5 -36t-16.5 -97h-107z" />
<glyph unicode="&#xf6;" d="M137 543q0 109 33 209t99.5 180t163.5 127t226 47t227.5 -47t164 -127t99.5 -180.5t34 -208.5q0 -106 -34 -208t-99.5 -181.5t-164 -126.5t-227.5 -47t-226 47t-163.5 126.5t-99.5 181t-33 208.5zM293 543q0 -109 41 -206t122.5 -158.5t202.5 -61.5t203 61.5t124 158.5 t42 206t-42 206t-124 158.5t-203 61.5t-202.5 -61.5t-122.5 -159t-41 -205.5zM373 1374q0 45 30.5 77t77.5 32t78 -32t31 -77t-31 -76.5t-78 -31.5t-77.5 31.5t-30.5 76.5zM727 1374q0 45 30.5 77t78.5 32q47 0 77.5 -32t30.5 -77t-30.5 -76.5t-77.5 -31.5t-78 31.5 t-31 76.5z" />
<glyph unicode="&#xf7;" horiz-adv-x="1318" d="M242 547v127h835v-127h-835zM559 266q0 47 32 81t83 34q47 0 80.5 -34t33.5 -81t-33.5 -80.5t-80.5 -33.5q-51 0 -83 33.5t-32 80.5zM559 954q0 47 32 81t83 34q47 0 80.5 -34t33.5 -81t-33.5 -80.5t-80.5 -33.5q-51 0 -83 34.5t-32 79.5z" />
<glyph unicode="&#xf8;" horiz-adv-x="1300" d="M127 543q0 109 33 209t99.5 180t163.5 127t226 47q63 0 119.5 -12.5t103.5 -32.5l70 125h125l-100 -182q102 -80 154.5 -203t52.5 -258q0 -106 -34 -208t-99.5 -181.5t-164 -126.5t-227.5 -47q-63 0 -118.5 12t-104.5 33l-68 -125h-125l101 182q-102 80 -154.5 203 t-52.5 258zM283 543q0 -94 30.5 -181.5t92.5 -148.5l399 723q-70 33 -156 33q-121 0 -202.5 -61.5t-122.5 -158.5t-41 -206zM496 150q69 -33 153 -33q121 0 203 61.5t124 158.5t42 206q0 94 -32 181t-91 148z" />
<glyph unicode="&#xf9;" horiz-adv-x="1187" d="M174 375v710h154v-704q0 -127 63.5 -196.5t173.5 -69.5q109 0 174.5 58t95 147.5t29.5 185.5v579h154v-1085h-154v178h-10q-14 -29 -51 -77t-103 -84.5t-172 -36.5q-162 0 -258 104t-96 291zM328 1606h161l175 -351h-134z" />
<glyph unicode="&#xfa;" horiz-adv-x="1187" d="M174 375v710h154v-704q0 -127 63.5 -196.5t173.5 -69.5q109 0 174.5 58t95 147.5t29.5 185.5v579h154v-1085h-154v178h-10q-14 -29 -51 -77t-103 -84.5t-172 -36.5q-162 0 -258 104t-96 291zM528 1255l177 351h161l-202 -351h-136z" />
<glyph unicode="&#xfb;" horiz-adv-x="1187" d="M174 375v710h154v-704q0 -127 63.5 -196.5t173.5 -69.5q109 0 174.5 58t95 147.5t29.5 185.5v579h154v-1085h-154v178h-10q-14 -29 -51 -77t-103 -84.5t-172 -36.5q-162 0 -258 104t-96 291zM285 1243l241 332h136l241 -332h-143l-166 230l-166 -230h-143z" />
<glyph unicode="&#xfc;" horiz-adv-x="1187" d="M174 375v710h154v-704q0 -127 63.5 -196.5t173.5 -69.5q109 0 174.5 58t95 147.5t29.5 185.5v579h154v-1085h-154v178h-10q-14 -29 -51 -77t-103 -84.5t-172 -36.5q-162 0 -258 104t-96 291zM307 1372q0 45 31 77t78 32t77.5 -32t30.5 -77t-30.5 -76.5t-77.5 -31.5 t-78 32.5t-31 75.5zM662 1372q0 45 30.5 77t77.5 32t78 -32t31 -77t-31 -76.5t-78 -31.5t-77.5 32.5t-30.5 75.5z" />
<glyph unicode="&#xfd;" horiz-adv-x="1177" d="M78 -260l32 -3q31 -3 68 -3q125 0 206 61.5t134 192.5l-424 1097h160l340 -899l342 899h162l-434 -1112q-74 -190 -193 -281t-291 -91q-43 0 -72 3l-30 3v133zM512 1255l174 351h162l-203 -351h-133z" />
<glyph unicode="&#xfe;" d="M170 -401v1957h154v-665h10q23 39 66.5 89t117.5 88t187 38q123 0 215 -48t152.5 -129t91 -181.5t30.5 -204.5t-30.5 -204.5t-91 -181.5t-153 -129t-214.5 -48q-113 0 -187 37.5t-118 89t-66 88.5h-10v-596h-154zM326 543q0 -106 38.5 -204.5t118.5 -162t199 -63.5 q121 0 200 63.5t118.5 161.5t39.5 205q0 106 -39.5 204.5t-118.5 162t-200 63.5q-119 0 -199 -63.5t-118.5 -162t-38.5 -204.5z" />
<glyph unicode="&#xff;" horiz-adv-x="1177" d="M78 -260l32 -3q31 -3 68 -3q125 0 206 61.5t134 192.5l-424 1097h160l340 -899l342 899h162l-434 -1112q-74 -190 -193 -281t-291 -91q-43 0 -72 3l-30 3v133zM289 1372q0 45 30.5 77t77.5 32t78 -32t31 -77t-31 -76.5t-78 -31.5t-77.5 32.5t-30.5 75.5zM643 1372 q0 45 31 77t78 32t77.5 -32t30.5 -77t-30.5 -76.5t-77.5 -31.5t-78 32.5t-31 75.5z" />
<glyph unicode="&#x152;" horiz-adv-x="2021" d="M117 758q0 141 45 276t139 243.5t238.5 173.5t341.5 65h989v-142h-754v-530h658v-142h-658v-561h766v-141h-1001q-197 0 -341.5 64.5t-238.5 173t-139 243.5t-45 277zM274 758q0 -115 36 -225.5t111 -198.5t190.5 -140.5t275.5 -52.5h71v1233h-71q-160 0 -275.5 -52 t-190.5 -140t-111 -198.5t-36 -225.5z" />
<glyph unicode="&#x153;" horiz-adv-x="2109" d="M127 543q0 109 33 209t99.5 180t163.5 127t226 47q162 0 272.5 -75t172.5 -202q55 125 160.5 201t261.5 76q137 0 242.5 -63.5t164.5 -187.5t59 -310v-45h-806q2 -104 45 -192.5t119.5 -141.5t183.5 -53q92 0 150.5 31.5t91 73.5t46.5 73l13 31h145l-10 -34t-37 -85 t-77 -102.5t-129 -86t-193 -34.5q-160 0 -266.5 75.5t-163.5 200.5q-61 -127 -172 -201.5t-273 -74.5q-129 0 -226 47t-163.5 126.5t-99.5 181t-33 208.5zM283 543q0 -109 41 -206t122.5 -158.5t202.5 -61.5t203 61.5t124 158.5t42 206t-42 206t-124 158.5t-203 61.5 t-202.5 -61.5t-122.5 -159t-41 -205.5zM1178 623h653q-6 125 -51 201.5t-115 111.5t-149 35q-145 0 -235.5 -95t-102.5 -253z" />
<glyph unicode="&#x178;" horiz-adv-x="1359" d="M57 1516h174l449 -807l448 807h172l-542 -967v-549h-156v549zM401 1772q0 45 31 76.5t78 31.5t77.5 -31.5t30.5 -76.5t-30.5 -77t-77.5 -32t-78 31.5t-31 77.5zM756 1772q0 45 30.5 76.5t77.5 31.5t78 -31.5t31 -76.5t-31 -77t-78 -32t-77.5 31.5t-30.5 77.5z" />
<glyph unicode="&#x2c6;" horiz-adv-x="1101" d="M242 1184l241 332h135l242 -332h-143l-166 231l-166 -231h-143z" />
<glyph unicode="&#x2dc;" horiz-adv-x="757" d="M78 1278q0 61 15.5 118.5t52 93.5t100.5 36q55 0 91 -21.5t62.5 -50.5t51 -50.5t53.5 -21.5q33 0 49 36t16 98h109q0 -61 -15.5 -119t-51.5 -94.5t-99 -36.5q-53 0 -89 22.5t-62.5 51t-51 50t-55.5 21.5q-37 0 -52.5 -36t-15.5 -97h-108z" />
<glyph unicode="&#x2000;" horiz-adv-x="1074" />
<glyph unicode="&#x2001;" horiz-adv-x="2148" />
<glyph unicode="&#x2002;" horiz-adv-x="1074" />
<glyph unicode="&#x2003;" horiz-adv-x="2148" />
<glyph unicode="&#x2004;" horiz-adv-x="716" />
<glyph unicode="&#x2005;" horiz-adv-x="537" />
<glyph unicode="&#x2006;" horiz-adv-x="358" />
<glyph unicode="&#x2007;" horiz-adv-x="358" />
<glyph unicode="&#x2008;" horiz-adv-x="268" />
<glyph unicode="&#x2009;" horiz-adv-x="429" />
<glyph unicode="&#x200a;" horiz-adv-x="119" />
<glyph unicode="&#x2010;" horiz-adv-x="1245" d="M242 575v132h762v-132h-762z" />
<glyph unicode="&#x2011;" horiz-adv-x="1245" d="M242 575v132h762v-132h-762z" />
<glyph unicode="&#x2012;" horiz-adv-x="1245" d="M242 575v132h762v-132h-762z" />
<glyph unicode="&#x2013;" horiz-adv-x="1372" d="M242 575v132h888v-132h-888z" />
<glyph unicode="&#x2014;" horiz-adv-x="1726" d="M242 575v132h1243v-132h-1243z" />
<glyph unicode="&#x2018;" horiz-adv-x="516" d="M111 1200q0 49 35.5 109.5t115.5 177.5l21 29h84l-127 -205q47 -2 75.5 -35t28.5 -78q0 -49 -34 -81t-81 -32q-49 0 -83.5 30t-34.5 85z" />
<glyph unicode="&#x2019;" horiz-adv-x="413" d="M102 1106l127 207q-47 2 -75.5 33.5t-28.5 76.5q0 51 34 82t83 31q47 0 81.5 -29.5t34.5 -85.5q0 -49 -35.5 -109.5t-115.5 -174.5l-19 -31h-86z" />
<glyph unicode="&#x201a;" horiz-adv-x="602" d="M160 -217l127 205q-47 2 -76 34.5t-29 77.5q0 49 34 80t81 31q49 0 84 -29.5t35 -83.5q0 -49 -36 -109.5t-116 -176.5l-20 -29h-84z" />
<glyph unicode="&#x201c;" horiz-adv-x="714" d="M-6 1200q0 49 36 109.5t115 177.5l19 29h86l-127 -205q47 -2 75.5 -35t28.5 -78q0 -49 -33.5 -81t-82.5 -32q-47 0 -82 30t-35 85zM322 1200q0 49 35.5 109.5t115.5 177.5l21 29h86l-127 -205q45 -2 73.5 -35t28.5 -78q0 -49 -33 -81t-82 -32t-83.5 30t-34.5 85z" />
<glyph unicode="&#x201d;" horiz-adv-x="765" d="M137 1106l127 207q-47 2 -75.5 33.5t-28.5 76.5q0 51 33.5 82t80.5 31q49 0 84 -29.5t35 -85.5q0 -49 -35.5 -109.5t-115.5 -174.5l-21 -31h-84zM465 1106l127 207q-45 2 -74 33.5t-29 76.5q0 51 34 82t81 31t83 -29.5t36 -85.5q0 -49 -36 -109.5t-116 -174.5l-20 -31 h-86z" />
<glyph unicode="&#x201e;" horiz-adv-x="907" d="M162 -217l127 205q-47 2 -76 34.5t-29 77.5q0 49 34 80t81 31q49 0 84 -29.5t35 -83.5q0 -49 -36 -109.5t-116 -176.5l-20 -29h-84zM489 -217l127 205q-45 2 -73.5 34.5t-28.5 77.5q0 49 34 80t81 31t83 -29.5t36 -83.5q0 -49 -36 -109.5t-116 -176.5l-21 -29h-86z" />
<glyph unicode="&#x2022;" horiz-adv-x="1054" d="M242 805q0 78 36.5 142.5t101 102t146.5 37.5t146.5 -37.5t102.5 -102t38 -142.5q0 -80 -38 -145.5t-102.5 -104.5t-146.5 -39t-146.5 40t-101 105.5t-36.5 143.5z" />
<glyph unicode="&#x2026;" horiz-adv-x="1486" d="M141 98q0 47 32 80t81 33t82 -33t33 -80q0 -49 -33 -81.5t-82 -32.5t-81 33.5t-32 80.5zM633 98q0 47 31.5 80t80.5 33t82 -33t33 -80q0 -49 -33 -81.5t-82 -32.5t-80.5 33.5t-31.5 80.5zM1135 98q0 47 31.5 80t80.5 33t82 -33t33 -80q0 -49 -33 -81.5t-82 -32.5 t-80.5 33.5t-31.5 80.5z" />
<glyph unicode="&#x202f;" horiz-adv-x="429" />
<glyph unicode="&#x2039;" horiz-adv-x="774" d="M82 651l434 426h176l-430 -426l430 -428h-176z" />
<glyph unicode="&#x203a;" horiz-adv-x="774" d="M82 223l432 426l-432 428h178l432 -428l-432 -426h-178z" />
<glyph unicode="&#x205f;" horiz-adv-x="537" />
<glyph unicode="&#x20ac;" horiz-adv-x="1507" d="M82 557v119h184q-4 41 -4 82t4 80h-184v118h203q37 158 132 289t251.5 211t373.5 80q88 0 168 -11.5t130 -22.5l51 -11v-143l-51 11q-52 11 -131 22.5t-160 11.5q-170 0 -292 -58.5t-198 -158t-110 -220.5h663v-118h-686q-4 -39 -4 -80t4 -82h686v-119h-663 q35 -121 110.5 -220t197.5 -157.5t292 -58.5q82 0 160.5 11t130.5 22l51 12v-143l-51 -11q-50 -12 -130 -22t-168 -10q-219 0 -374.5 79.5t-250.5 210.5t-130 287h-205z" />
<glyph unicode="&#x2122;" horiz-adv-x="1683" d="M88 1413v103h576v-103h-230v-614h-117v614h-229zM788 799v717h160l203 -408l207 408h155v-717h-116v544l-193 -368h-106l-193 371v-547h-117z" />
<glyph unicode="&#x25fc;" horiz-adv-x="1085" d="M0 0v1085h1085v-1085h-1085z" />
</font>
</defs>
</svg>
