<?xml version="1.0" standalone="no"?>
<!DOCTYPE svg PUBLIC "-//W3C//DTD SVG 1.1//EN" "http://www.w3.org/Graphics/SVG/1.1/DTD/svg11.dtd" >
<svg xmlns="http://www.w3.org/2000/svg" xmlns:xlink="http://www.w3.org/1999/xlink" version="1.1">
<metadata></metadata>
<defs>
<font id="be_vietnam_prothin_italic" horiz-adv-x="1345" >
<font-face units-per-em="2048" ascent="1638" descent="-410" />
<missing-glyph horiz-adv-x="471" />
<glyph horiz-adv-x="0" />
<glyph horiz-adv-x="682" />
<glyph unicode="&#xd;" horiz-adv-x="1228" />
<glyph unicode=" "  horiz-adv-x="471" />
<glyph unicode="&#x09;" horiz-adv-x="471" />
<glyph unicode="&#xa0;" horiz-adv-x="471" />
<glyph unicode="!" horiz-adv-x="493" d="M98 53q0 29 20.5 51.5t51.5 22.5t52.5 -22.5t21.5 -51.5q0 -31 -21.5 -52t-52.5 -21t-51.5 21.5t-20.5 51.5zM182 283l254 1233h70l-262 -1233h-62z" />
<glyph unicode="&#x22;" horiz-adv-x="518" d="M276 1210l66 306h76l-86 -306h-56zM479 1210l66 306h76l-86 -306h-56z" />
<glyph unicode="#" horiz-adv-x="1445" d="M51 461l29 69h297l186 453h-291l29 70h293l190 463h74l-190 -463h448l191 463h73l-190 -463h299l-29 -70h-301l-186 -453h295l-29 -69h-295l-190 -461h-74l190 461h-448l-191 -461h-73l190 461h-297zM451 530h448l186 453h-448z" />
<glyph unicode="$" horiz-adv-x="1282" d="M90 440h70l3 -34q3 -35 19.5 -87.5t55 -107.5t108.5 -97t182 -57l150 705l-64 31q-76 37 -139 84t-102 115.5t-39 164.5q0 111 61.5 197t166 135t233.5 49q25 0 47 -2l39 182h65l-41 -190q104 -18 170 -65.5t102.5 -107t51 -114.5t17.5 -92l3 -37h-69l-3 30 q-3 29 -15.5 76.5t-43.5 96.5t-86 89t-141 56l-139 -655l45 -21q80 -39 149.5 -88t111.5 -119.5t42 -179.5q0 -123 -68.5 -217t-179.5 -146t-240 -52h-34l-39 -185h-66l41 191q-131 16 -212 66t-125 114.5t-62.5 127t-21.5 103.5zM408 1157q0 -117 70.5 -184.5t170.5 -116.5 l43 -20l135 632h-32q-109 0 -197 -37.5t-139 -107.5t-51 -166zM594 53h18q104 0 199.5 41t155 118t59.5 185q0 125 -74 196t-178 122l-37 18z" />
<glyph unicode="%" horiz-adv-x="1515" d="M201 0l1142 1516h76l-1143 -1516h-75zM276 1231q0 74 33 143.5t98.5 115.5t159.5 46q117 0 173.5 -72.5t56.5 -165.5q0 -74 -34 -144.5t-98.5 -116.5t-160.5 -46q-117 0 -172.5 73t-55.5 167zM338 1229q0 -70 41 -125t125 -55q74 0 125 37.5t77.5 96t26.5 117.5 q0 72 -40 126.5t-126 54.5q-74 0 -125 -38t-77.5 -96.5t-26.5 -117.5zM821 219q0 74 33 143.5t98.5 115.5t159.5 46q117 0 173 -72.5t56 -164.5q0 -74 -33.5 -144.5t-98 -116.5t-160.5 -46q-117 0 -172.5 72.5t-55.5 166.5zM883 217q0 -70 41 -125t125 -55q74 0 125 38 t77.5 96t26.5 118q0 72 -40 126t-126 54q-74 0 -125 -38t-77.5 -96.5t-26.5 -117.5z" />
<glyph unicode="&#x26;" horiz-adv-x="1316" d="M41 381q0 100 40 178t106.5 136.5t146.5 100.5t158 70q-55 92 -86 171t-31 159q0 117 47 193.5t120.5 113.5t151.5 37t148.5 -33.5t114.5 -99.5t44 -160q0 -86 -35.5 -150.5t-94 -112.5t-127 -83t-132.5 -57l-22 -8q16 -25 34.5 -51.5t37.5 -55.5l282 -422 q70 102 118 246.5t71 331.5h69q-27 -213 -83 -371t-134 -266l166 -248h-82l-129 190q-94 -109 -210 -159.5t-243 -50.5q-137 0 -237 54t-154.5 145t-54.5 202zM111 381q0 -96 46 -172t132 -120t200 -44q119 0 224.5 50t189.5 153l-297 442q-23 33 -42 63.5t-38 59.5l-10 -4 q-63 -23 -134 -57.5t-132.5 -85t-100 -120t-38.5 -165.5zM442 1196q0 -72 31 -145.5t84 -161.5l33 12q41 14 99.5 41t114.5 67t93 98t37 138q0 74 -34 124t-88 77t-116 27q-61 0 -119.5 -30t-96.5 -90.5t-38 -156.5z" />
<glyph unicode="'" horiz-adv-x="315" d="M276 1210l66 306h76l-86 -306h-56z" />
<glyph unicode="(" horiz-adv-x="743" d="M100 373q0 168 35 340t101.5 332.5t163 292.5t220 221.5t271.5 115.5l-14 -65q-131 -31 -241 -116t-196 -210t-145 -276.5t-91 -314.5t-32 -324q0 -150 30.5 -285t96.5 -238.5t168 -160.5l-14 -66q-121 57 -200 171t-116 264.5t-37 318.5z" />
<glyph unicode=")" horiz-adv-x="845" d="M-45 -393l14 65q131 31 240.5 116t196 210t145.5 276.5t91 314.5t32 324q0 152 -31 286t-96.5 238.5t-167.5 159.5l14 66q123 -57 201 -171t114.5 -263.5t36.5 -319.5q0 -168 -34.5 -340t-101 -332.5t-163 -292.5t-220.5 -221.5t-271 -115.5z" />
<glyph unicode="*" horiz-adv-x="1013" d="M244 1196l22 68l348 -115v367h70v-367l348 115l21 -68l-346 -113l213 -295l-56 -40l-215 294l-215 -294l-57 40l217 295z" />
<glyph unicode="+" horiz-adv-x="1183" d="M227 606l15 70h346l74 346h69l-74 -346h347l-15 -70h-346l-74 -346h-69l73 346h-346z" />
<glyph unicode="," horiz-adv-x="505" d="M92 -150l84 140q-37 2 -56.5 25.5t-19.5 50.5q0 29 20.5 53t59.5 24q31 0 55.5 -18.5t24.5 -56.5q0 -31 -19.5 -65t-66.5 -105l-31 -48h-51z" />
<glyph unicode="-" horiz-adv-x="1183" d="M227 606l15 70h762l-15 -70h-762z" />
<glyph unicode="." horiz-adv-x="501" d="M102 68q0 31 21.5 53t54.5 22t55.5 -22.5t22.5 -52.5q0 -33 -22.5 -55.5t-55.5 -22.5t-54.5 22.5t-21.5 55.5z" />
<glyph unicode="/" horiz-adv-x="1011" d="M-31 -242l1114 1917h78l-1114 -1917h-78z" />
<glyph unicode="0" horiz-adv-x="1222" d="M127 537q0 133 29.5 274t84 270t132.5 231.5t174 163t209 60.5q137 0 222 -77t126 -204t41 -278q0 -133 -29 -273.5t-83 -270.5t-131 -232.5t-174 -161.5t-210 -59q-137 0 -223 75.5t-127 202.5t-41 279zM199 535q0 -133 33.5 -244t104 -176.5t181.5 -65.5 q100 0 185 56.5t154 152.5t118 217t74.5 251t25.5 253q0 133 -33.5 243.5t-103.5 176t-182 65.5q-100 0 -185.5 -56t-154 -152.5t-117.5 -217t-74.5 -251t-25.5 -252.5z" />
<glyph unicode="1" horiz-adv-x="632" d="M242 0l278 1315h-252l11 45l51 6q113 14 164 47t90 84l14 19h37l-322 -1516h-71z" />
<glyph unicode="2" horiz-adv-x="1218" d="M-2 0l10 57l471 383q109 88 214.5 172t191.5 170t138 178.5t52 196.5q0 96 -45 165t-120.5 106.5t-170.5 37.5q-119 0 -195.5 -41t-120.5 -101t-64.5 -120.5t-25.5 -101.5l-5 -41h-70l4 35q4 34 19.5 87.5t47 115t85 114.5t133.5 88t194 35q117 0 209 -48t144.5 -132 t52.5 -197q0 -117 -54.5 -218t-145.5 -192.5t-201.5 -179.5t-223.5 -180l-393 -317h868l-14 -72h-985z" />
<glyph unicode="3" horiz-adv-x="1228" d="M72 436h69l5 -39q4 -39 23 -96t64.5 -115.5t127 -97.5t212.5 -39q147 0 247 54.5t150 143.5t50 189q0 94 -39 156.5t-99.5 98.5t-128 51.5t-126.5 15.5h-168l14 67h180q117 0 214.5 38t156.5 113t59 185q0 139 -94 222t-252 83q-117 0 -191.5 -34.5t-117.5 -85 t-62.5 -101.5t-24.5 -86l-5 -35h-70l8 42q7 42 30.5 103.5t74.5 122t138 102.5t220 42q129 0 222.5 -48t144.5 -133t51 -194q0 -90 -31.5 -154.5t-79 -106.5t-95.5 -66.5t-79 -33.5l-32 -9v-7l38 -16q39 -16 89.5 -56t89.5 -107.5t39 -172.5q0 -109 -60.5 -213 t-176.5 -171.5t-284 -67.5q-127 0 -214 32.5t-141 85t-85 110.5t-44 110.5t-15 85.5z" />
<glyph unicode="4" horiz-adv-x="1247" d="M39 393l14 68l973 1055h74l-223 -1057h262l-15 -68h-262l-84 -391h-71l84 391zM141 459h664l196 934z" />
<glyph unicode="5" horiz-adv-x="1290" d="M135 436h70l2 -39t18.5 -97t56.5 -116.5t115.5 -97.5t198.5 -39q121 0 214 44t155.5 118t94.5 163t32 179q0 102 -42 192.5t-128 145.5t-217 55q-113 0 -196 -36t-136.5 -83t-78.5 -83l-26 -35h-61l252 809h770l-15 -68h-710l-189 -606h4l26 26q26 25 75 60t120.5 60.5 t164.5 25.5q156 0 257 -66.5t151 -172t50 -226.5q0 -102 -36.5 -203.5t-108.5 -184.5t-177.5 -132t-244.5 -49q-119 0 -199 32.5t-131 85t-77.5 110.5t-38 110.5t-13.5 85.5z" />
<glyph unicode="6" horiz-adv-x="1343" d="M170 524q0 135 39 276.5t114.5 272.5t184 235.5t248 166t305.5 61.5q121 0 185 -16l65 -17l-15 -69l-64 16q-63 16 -171 16q-164 0 -300 -65.5t-238.5 -176t-170 -247.5t-98.5 -283q18 41 53 93.5t89.5 100.5t134 79.5t186.5 31.5q154 0 253 -67.5t148 -174t49 -227.5 q0 -100 -32.5 -198.5t-98 -178t-161 -126.5t-222.5 -47q-168 0 -274.5 74.5t-157.5 198.5t-51 271zM258 453q0 -102 43 -195.5t130 -151t222 -57.5q109 0 192 42t138 111.5t84 154.5t29 173q0 104 -41 195.5t-125 149t-213 57.5q-113 0 -198 -42t-143.5 -111.5t-88 -154.5 t-29.5 -171z" />
<glyph unicode="7" horiz-adv-x="1126" d="M238 1446l14 70h960l-12 -64l-51 -50t-135 -142.5t-183.5 -223.5t-197.5 -292.5t-179 -349t-126 -394.5h-76q49 219 134 414.5t187.5 362.5t205 299t189.5 226.5t138 143.5h-868z" />
<glyph unicode="8" horiz-adv-x="1202" d="M102 389q0 94 39 183.5t117 159t195 102.5v8q-94 47 -144.5 130t-50.5 173q0 96 52 185t155.5 147.5t259.5 58.5q145 0 240.5 -51t142.5 -133t47 -174q0 -113 -72.5 -216.5t-224.5 -148.5v-10q121 -53 176.5 -152.5t55.5 -208.5q0 -113 -58.5 -219t-172 -174.5 t-281.5 -68.5q-162 0 -267.5 58t-157 152.5t-51.5 198.5zM174 397q0 -88 43 -167.5t131 -130t221 -50.5q150 0 249.5 57.5t149.5 147.5t50 186q0 90 -43 169t-131 128t-221 49q-150 0 -249.5 -57t-149.5 -146t-50 -186zM330 1151q0 -76 40 -143.5t121.5 -109.5t202.5 -42 q131 0 218 47t130 120t43 148q0 76 -39.5 142.5t-119.5 109.5t-201 43q-131 0 -219 -47t-132 -118.5t-44 -149.5z" />
<glyph unicode="9" horiz-adv-x="1343" d="M125 12l14 70l65 -16q64 -17 171 -17q164 0 300 65.5t238.5 176t170 248t98.5 282.5q-18 -41 -53 -93t-89.5 -100t-134.5 -80t-186 -32q-152 0 -252 67.5t-149.5 175t-49.5 226.5q0 100 33 198.5t98.5 178.5t161.5 127t221 47q168 0 274.5 -75t158 -197.5t51.5 -272.5 q0 -135 -39 -276.5t-115 -272.5t-184.5 -235.5t-247.5 -165.5t-305 -61q-119 0 -185 16zM340 985q0 -102 41 -194.5t125 -149.5t213 -57q113 0 197.5 42t143 111.5t88.5 154.5t30 171q0 104 -43 196.5t-130.5 149.5t-222.5 57q-109 0 -191.5 -42t-138 -111.5t-84 -154.5 t-28.5 -173z" />
<glyph unicode=":" horiz-adv-x="501" d="M100 57q0 31 21.5 53.5t54.5 22.5t55.5 -22.5t22.5 -53.5q0 -33 -22.5 -55t-55.5 -22t-54.5 22.5t-21.5 54.5zM305 1030q0 31 21.5 53.5t54.5 22.5t55.5 -22.5t22.5 -53.5q0 -33 -22.5 -55.5t-55.5 -22.5t-54.5 22.5t-21.5 55.5z" />
<glyph unicode=";" horiz-adv-x="505" d="M90 -160l84 140q-37 2 -56.5 25.5t-19.5 49.5q0 29 20.5 53.5t59.5 24.5q31 0 55.5 -18.5t24.5 -57.5q0 -31 -19.5 -64.5t-66.5 -105.5l-31 -47h-51zM305 1030q0 31 21.5 53.5t54.5 22.5t55.5 -22.5t22.5 -53.5q0 -33 -22.5 -55.5t-55.5 -22.5t-54.5 22.5t-21.5 55.5z " />
<glyph unicode="&#x3c;" horiz-adv-x="1112" d="M219 651l10 51l826 383l-17 -84l-725 -331l584 -334l-16 -68z" />
<glyph unicode="=" horiz-adv-x="1384" d="M182 399l15 70h962l-14 -70h-963zM279 852l14 70h962l-14 -70h-962z" />
<glyph unicode="&#x3e;" horiz-adv-x="1112" d="M190 268l17 84l725 332l-584 334l17 67l661 -383l-10 -51z" />
<glyph unicode="?" horiz-adv-x="1187" d="M264 1061l8 48q9 48 34.5 118.5t77.5 141.5t141 119t223 48q117 0 209 -48t145 -132t51 -197q0 -109 -41 -187.5t-105.5 -140t-138 -115.5t-142.5 -110.5t-116 -124t-57 -157.5l-4 -37h-68l4 37q12 102 59.5 176.5t115 132t140 111t136 110.5t104.5 130t41 173 q0 96 -45 165t-120.5 106.5t-170.5 37.5q-115 0 -190.5 -41t-120.5 -101t-66.5 -120.5t-27.5 -101.5l-6 -41h-70zM408 53q0 31 20.5 52.5t50.5 21.5q31 0 52.5 -21.5t21.5 -52.5t-21.5 -52t-52.5 -21t-51 21.5t-20 51.5z" />
<glyph unicode="@" horiz-adv-x="1878" d="M129 584q0 166 58.5 331.5t172 301t278.5 217.5t378 82q199 0 342 -62.5t234 -167t134 -233.5t43 -262q0 -111 -26.5 -212.5t-75.5 -181.5t-116.5 -126t-149.5 -46t-126 34t-62.5 78t-21.5 78l-3 34h-6l-20 -34q-21 -34 -62 -78t-105.5 -78t-150.5 -34q-100 0 -167 51.5 t-100.5 134.5t-33.5 181q0 94 28.5 188t84 173t133 126t176.5 47q86 0 141 -33.5t85 -76.5t42 -77l12 -34h6l45 205h64l-90 -418q-14 -70 -21.5 -140.5t4 -131t46 -97t102.5 -36.5q86 0 154.5 71.5t107.5 186t39 246.5q0 125 -40 242.5t-124 211.5t-215 150.5t-311 56.5 q-195 0 -346.5 -76t-256 -200.5t-158.5 -278.5t-54 -309q0 -133 41 -256t124.5 -219.5t209.5 -152.5t294 -56q113 0 206 18.5t162 41t106 40.5l36 19l25 -56l-38 -19q-38 -20 -107.5 -44.5t-167 -44t-218.5 -19.5q-188 0 -327.5 61.5t-231.5 166t-137 238.5t-45 278z M606 598q0 -82 26.5 -153.5t81 -115.5t140.5 -44q84 0 149.5 42t111.5 110.5t69.5 151.5t23.5 165q0 84 -25.5 154.5t-80.5 114.5t-141 44q-84 0 -150 -42t-112 -110.5t-69.5 -151.5t-23.5 -165z" />
<glyph unicode="A" d="M8 0l869 1516h88l225 -1516h-74l-65 451h-701l-258 -451h-84zM387 516h653l-133 911z" />
<glyph unicode="B" horiz-adv-x="1306" d="M70 0l321 1516h518q127 0 208 -47.5t121 -123t40 -163.5q0 -84 -36 -167t-106.5 -147.5t-174.5 -95.5l-3 -8q113 -33 171.5 -117t58.5 -192q0 -78 -33 -158t-98.5 -147.5t-162.5 -108.5t-224 -41h-600zM156 70h518q143 0 241.5 58t149.5 147.5t51 179.5q0 74 -34.5 137 t-105 102t-181.5 39h-498zM311 799h498q125 0 213 58t135 146.5t47 176.5q0 72 -31.5 132t-97.5 97t-170 37h-456z" />
<glyph unicode="C" horiz-adv-x="1527" d="M141 641q0 158 50.5 316.5t150.5 289.5t247.5 210t342.5 79q133 0 223 -36t146.5 -93t86 -120.5t42 -121t13.5 -93.5l1 -36h-74l-2 43t-19.5 107.5t-63.5 129t-132 107.5t-225 43q-174 0 -308.5 -72.5t-223.5 -193.5t-135 -266.5t-46 -290.5q0 -156 54.5 -292t168 -219 t287.5 -83q137 0 234.5 43t163 107.5t103.5 129t54 107.5l16 43h76l-12 -35q-12 -36 -41 -93.5t-77 -121t-120.5 -121t-171 -93t-229.5 -35.5q-147 0 -257 53t-181.5 146t-106.5 212t-35 250z" />
<glyph unicode="D" horiz-adv-x="1464" d="M70 0l321 1516h357q162 0 279.5 -51.5t195 -139.5t115.5 -200.5t38 -237.5q0 -156 -58 -312.5t-170 -286.5t-275.5 -209t-376.5 -79h-426zM156 70h340q195 0 345 72.5t252.5 191.5t156 263t53.5 286q0 150 -59.5 277.5t-182.5 206.5t-313 79h-299z" />
<glyph unicode="E" horiz-adv-x="1134" d="M70 0l321 1516h846l-14 -70h-774l-136 -635h674l-14 -70h-674l-143 -671h786l-14 -70h-858z" />
<glyph unicode="F" horiz-adv-x="1140" d="M70 0l321 1516h864l-14 -70h-792l-140 -655h692l-14 -70h-692l-154 -721h-71z" />
<glyph unicode="G" horiz-adv-x="1558" d="M141 639q0 160 50.5 318.5t150.5 289.5t247.5 210t342.5 79q133 0 223 -36t146.5 -93t86 -120.5t42 -121t13.5 -93.5l1 -36h-74l-2 43t-19.5 107.5t-63.5 129t-132 107.5t-225 43q-174 0 -308.5 -72.5t-223.5 -193.5t-135 -267.5t-46 -291.5q0 -156 54.5 -291t169 -218 t292.5 -83q137 0 243.5 52.5t181.5 140.5t120 197.5t61 226.5l2 16h-487l14 68h555l-16 -107q-18 -121 -67.5 -238.5t-132.5 -214t-200.5 -153.5t-273.5 -57q-154 0 -264.5 53t-183 146t-107.5 212t-35 248z" />
<glyph unicode="H" horiz-adv-x="1341" d="M70 0l321 1516h72l-146 -685h832v-2l145 687h72l-322 -1516h-71l162 766h-832l-162 -766h-71z" />
<glyph unicode="I" horiz-adv-x="438" d="M70 0l321 1516h72l-322 -1516h-71z" />
<glyph unicode="J" horiz-adv-x="894" d="M-2 -8l14 67l52 -6q51 -6 108 -6q168 0 288 102.5t156 274.5l232 1092h72l-232 -1092q-45 -217 -187 -330.5t-343 -113.5q-59 0 -110 6z" />
<glyph unicode="K" horiz-adv-x="1169" d="M70 0l321 1516h72l-150 -707l887 704h107l-934 -737l671 -776h-92l-651 752l-160 -752h-71z" />
<glyph unicode="L" horiz-adv-x="1175" d="M70 0l321 1516h72l-307 -1446h827l-14 -70h-899z" />
<glyph unicode="M" horiz-adv-x="1738" d="M70 0l321 1516h96l365 -1039l803 1039h108l-321 -1516h-72l303 1427l-803 -1036h-61l-365 1034l-303 -1425h-71z" />
<glyph unicode="N" horiz-adv-x="1466" d="M70 0l321 1516h74l655 -1405l299 1405h72l-322 -1516h-73l-656 1407l-299 -1407h-71z" />
<glyph unicode="O" horiz-adv-x="1601" d="M139 627q0 160 53.5 320.5t155 293.5t247.5 214t335 81q150 0 259 -52t181 -143.5t106.5 -208t34.5 -243.5q0 -160 -52 -320.5t-153.5 -294t-248 -214t-334.5 -80.5q-150 0 -260.5 52t-182 143t-106.5 207t-35 245zM213 627q0 -154 54.5 -285t168 -212t287.5 -81 q170 0 303 75t225 197.5t139.5 271t47.5 296.5q0 154 -54.5 285t-166 211.5t-287.5 80.5q-170 0 -303 -74.5t-225.5 -198.5t-140.5 -271.5t-48 -294.5z" />
<glyph unicode="P" horiz-adv-x="1224" d="M70 0l321 1516h391q156 0 257.5 -58.5t151.5 -152t50 -199.5q0 -92 -37 -182t-108.5 -164t-177 -118t-244.5 -44h-406l-127 -598h-71zM283 668h393q162 0 271.5 65.5t165.5 165.5t56 205q0 88 -42 166t-128 127t-219 49h-331z" />
<glyph unicode="Q" horiz-adv-x="1611" d="M139 627q0 160 53.5 320.5t155 293.5t247.5 214t335 81q150 0 259 -52t181 -143.5t106.5 -208t34.5 -243.5q0 -180 -66.5 -362.5t-193.5 -315.5l185 -211h-86l-144 166q-96 -86 -217 -136t-266 -50q-150 0 -260.5 52t-182 143t-106.5 207t-35 245zM213 627 q0 -154 54.5 -285t168 -212t287.5 -81q131 0 240.5 46t193.5 124l-258 297l47 43l258 -295q113 125 173.5 292t60.5 333q0 154 -54.5 285t-166 211.5t-287.5 80.5q-170 0 -303 -74.5t-225.5 -198.5t-140.5 -271.5t-48 -294.5z" />
<glyph unicode="R" horiz-adv-x="1228" d="M70 0l321 1516h400q143 0 236 -52.5t138 -136.5t45 -180q0 -102 -52 -200.5t-152.5 -166t-241.5 -75.5l268 -705h-76l-266 702h-399l-150 -702h-71zM305 772h424q131 0 222 56.5t138.5 142.5t47.5 174q0 78 -37 146.5t-113.5 111.5t-195.5 43h-342z" />
<glyph unicode="S" horiz-adv-x="1284" d="M90 438h70l4 -39t23.5 -96t67.5 -115.5t134 -97.5t223 -39q104 0 199.5 41t155 118t59.5 185q0 125 -73.5 196t-178.5 122l-160 78q-76 37 -139 84t-102 115.5t-39 164.5q0 111 61.5 197t166 135t233.5 49q139 0 225 -43t134 -106.5t67.5 -127t23.5 -106.5l4 -43h-69 l-4 36q-5 36 -22 89t-57 106.5t-114 89t-188 35.5q-109 0 -197 -37.5t-139 -107.5t-51 -166q0 -117 70.5 -184.5t170.5 -116.5l148 -72q80 -39 149.5 -88t111.5 -119.5t42 -179.5q0 -123 -68.5 -217t-179.5 -146t-240 -52q-133 0 -224 32.5t-148.5 85t-89 111.5t-44 111.5 t-14.5 85.5z" />
<glyph unicode="T" horiz-adv-x="1269" d="M266 1446l15 70h1167l-14 -70h-560l-307 -1446h-71l307 1446h-537z" />
<glyph unicode="U" horiz-adv-x="1419" d="M177 342q-5 38 -5 77q0 66 14 134l205 963h72l-205 -963q-16 -74 -16 -139q0 -138 72 -230q104 -136 323 -135q147 0 253.5 62.5t175.5 172t97 248.5l209 984h72l-209 -984q-31 -150 -104.5 -275.5t-195.5 -201t-300 -75.5q-141 0 -238.5 48t-152 130t-67.5 184z" />
<glyph unicode="V" horiz-adv-x="1331" d="M268 1516h74l207 -1428l817 1428h84l-868 -1516h-88z" />
<glyph unicode="W" horiz-adv-x="2015" d="M289 1516h69l97 -1401l704 1401h80l109 -1401l686 1401h80l-746 -1516h-82l-106 1409l-707 -1409h-82z" />
<glyph unicode="X" horiz-adv-x="1306" d="M-14 0l686 766l-350 750h73l328 -705l629 705h90l-682 -766l346 -750h-72l-327 707l-631 -707h-90z" />
<glyph unicode="Y" horiz-adv-x="1329" d="M289 1516h73l320 -873l688 873h88l-749 -947l-121 -569h-72l121 569z" />
<glyph unicode="Z" horiz-adv-x="1290" d="M39 0l14 66l1194 1380h-901l14 70h996l-15 -66l-1191 -1376h901l-17 -74h-995z" />
<glyph unicode="[" horiz-adv-x="858" d="M-10 -381l436 2056h514l-12 -65h-445l-409 -1925h444l-14 -66h-514z" />
<glyph unicode="\" horiz-adv-x="993" d="M268 1675h66l299 -1917h-66z" />
<glyph unicode="]" horiz-adv-x="811" d="M-82 -381l12 66h445l409 1925h-444l14 65h514l-436 -2056h-514z" />
<glyph unicode="^" horiz-adv-x="952" d="M354 1204l293 312h76l162 -312h-74l-131 258l-238 -258h-88z" />
<glyph unicode="_" horiz-adv-x="1378" d="M82 -70l18 70h955l-17 -70h-956z" />
<glyph unicode="`" horiz-adv-x="413" d="M451 1577h73l109 -311h-60z" />
<glyph unicode="a" horiz-adv-x="1214" d="M119 444q0 117 38 234t109.5 214t176 155.5t235.5 58.5q92 0 157.5 -28.5t107.5 -69.5t65.5 -83t33.5 -71l9 -29h8l55 260h72l-232 -1085h-71l45 205h-8l-25 -34t-75 -79t-124.5 -78.5t-173.5 -33.5q-135 0 -225 65.5t-134 172t-44 226.5zM190 440q0 -102 35 -192 t109 -144.5t188 -54.5q115 0 205 54.5t153.5 142.5t97.5 193.5t34 209.5t-35 192.5t-108.5 141.5t-190.5 53t-207 -53t-152.5 -141t-95.5 -192.5t-33 -209.5z" />
<glyph unicode="b" horiz-adv-x="1245" d="M70 0l331 1556h72l-145 -675h8l24 33q25 34 75 79t125 79t173 34q137 0 226.5 -65.5t133.5 -171t44 -228.5q0 -117 -38 -233.5t-109.5 -214t-175 -155.5t-236.5 -58q-92 0 -158 28.5t-108 69.5t-65.5 83t-32.5 71l-9 28h-8l-56 -260h-71zM244 436q0 -102 34.5 -191 t109.5 -142.5t190 -53.5q117 0 206.5 53.5t152 141.5t95.5 192.5t33 208.5t-35 193.5t-108.5 143.5t-188.5 54t-205 -54t-153.5 -142t-97 -193.5t-33.5 -210.5z" />
<glyph unicode="c" horiz-adv-x="1169" d="M121 446q0 127 38 246t112.5 212t182 147.5t244.5 54.5q115 0 187.5 -36t111.5 -89t54.5 -107.5t18.5 -89.5l3 -36h-69l-2 28q-3 29 -16 73t-45 87t-91 71.5t-156 28.5q-119 0 -212 -48t-157.5 -131t-97 -188.5t-32.5 -219.5q0 -104 36.5 -195.5t113.5 -148t196 -56.5 q94 0 161.5 28.5t113.5 73t72.5 87.5t37.5 72l12 28h76l-14 -36q-15 -36 -47.5 -89t-87 -107.5t-134 -90t-190.5 -35.5q-143 0 -236.5 65.5t-138.5 172t-45 228.5z" />
<glyph unicode="d" horiz-adv-x="1253" d="M119 444q0 117 38 234t109.5 214t176 155.5t235.5 58.5q92 0 157.5 -28.5t107.5 -69.5t65.5 -83t33.5 -71l9 -29h8l155 731h72l-332 -1556h-71l45 205h-8l-25 -34t-75 -79t-125 -78.5t-173 -33.5q-135 0 -225 65.5t-134 172t-44 226.5zM190 440q0 -102 35 -192 t108.5 -144.5t188.5 -54.5t205 54.5t153.5 142.5t97.5 193.5t34 209.5t-35 192.5t-108.5 141.5t-190.5 53t-207 -53t-152.5 -141t-95.5 -192.5t-33 -209.5z" />
<glyph unicode="e" horiz-adv-x="1171" d="M117 438q0 119 40 238t114.5 216t181 155.5t237.5 58.5q168 0 258 -77t117 -203q13 -59 13 -122q0 -73 -17 -151l-4 -21h-862q-7 -47 -7 -92q0 -76 20 -146q30 -110 110.5 -177.5t216.5 -67.5q111 0 187.5 39t123.5 90t68 90l22 39h72l-16 -33q-15 -32 -50 -81.5 t-90 -98.5t-134.5 -81.5t-185.5 -32.5q-141 0 -233 63t-137 168.5t-45 226.5zM209 598h788q9 54 9 106q0 57 -11 109q-20 100 -93 161.5t-216 61.5q-123 0 -219 -59t-161.5 -158.5t-96.5 -220.5z" />
<glyph unicode="f" horiz-adv-x="667" d="M131 0l219 1024h-205l13 61h204l39 183q29 139 110 224t220 85q41 0 76 -5l35 -5l-13 -64l-33 5q-34 5 -71 5q-111 0 -170 -68.5t-84 -182.5l-37 -177h264l-12 -61h-266l-217 -1024h-72z" />
<glyph unicode="g" horiz-adv-x="1257" d="M33 -115h71l4 -25q3 -24 17 -61t49 -74.5t98.5 -62t165.5 -24.5q123 0 208 37.5t140.5 101t88 140.5t49.5 153l32 151h-8l-24 -35q-23 -34 -72 -78.5t-126 -79t-185 -34.5q-139 0 -233.5 64.5t-140.5 170t-46 228.5q0 115 38 229.5t111.5 209.5t179 152.5t240.5 57.5 q94 0 162 -27.5t112 -68.5t68.5 -82t34.5 -69l10 -28h8l54 254h71l-219 -1024q-51 -242 -190.5 -366.5t-364.5 -124.5q-123 0 -199.5 31.5t-118.5 79t-60.5 94.5t-21.5 79zM195 459q0 -104 37.5 -194.5t114.5 -146t196 -55.5q117 0 209 52.5t155.5 139.5t97 190.5 t33.5 203.5q0 104 -36.5 192.5t-113.5 141.5t-198 53q-117 0 -209 -51t-156.5 -136t-97 -186.5t-32.5 -203.5z" />
<glyph unicode="h" horiz-adv-x="1132" d="M70 0l331 1556h72l-149 -696h6q27 45 78 102.5t127.5 100.5t179.5 43q119 0 195.5 -55.5t106.5 -147.5q16 -50 17 -106q0 -47 -12 -97l-148 -700h-71l149 707q9 43 9 83q0 42 -10 80q-19 76 -79.5 122t-164.5 46q-123 0 -214.5 -70.5t-149.5 -185t-87 -245.5l-115 -537 h-71z" />
<glyph unicode="i" horiz-adv-x="442" d="M68 0l231 1085h70l-232 -1085h-69zM322 1364q0 31 20 52.5t51 21.5t52.5 -21.5t21.5 -52.5t-21.5 -52.5t-52.5 -21.5t-51 21.5t-20 52.5z" />
<glyph unicode="j" horiz-adv-x="516" d="M-285 -430l13 61l32 -4q33 -4 70 -4q115 0 188.5 75t98.5 187l256 1200h69l-256 -1200q-31 -145 -122.5 -234t-241.5 -89q-39 0 -73 4zM395 1364q0 31 20.5 52.5t51.5 21.5t52.5 -21.5t21.5 -52.5t-21.5 -52.5t-52.5 -21.5t-51.5 21.5t-20.5 52.5z" />
<glyph unicode="k" horiz-adv-x="983" d="M70 0l331 1556h72l-201 -938l650 467h112l-684 -489l457 -596h-88l-451 592l-127 -592h-71z" />
<glyph unicode="l" horiz-adv-x="440" d="M70 0l333 1556h70l-332 -1556h-71z" />
<glyph unicode="m" horiz-adv-x="1816" d="M59 0l232 1085h71l-47 -225h9q33 55 89 111.5t134 95.5t174 39q127 0 203.5 -76t81.5 -205q70 123 179 202t247 79q160 0 238 -108q52 -72 51 -177q0 -53 -13 -114l-149 -707h-72l149 707q13 59 13 107q1 82 -37 136q-60 86 -187 86q-117 0 -212 -67.5t-161.5 -186 t-99.5 -272.5l-108 -510h-72l150 707q13 59 13 107q1 82 -37 136q-60 86 -187 86q-117 0 -212.5 -69.5t-161 -189.5t-97.5 -269l-109 -508h-72z" />
<glyph unicode="n" horiz-adv-x="1122" d="M59 0l232 1085h71l-49 -225h6q27 45 78.5 102.5t128 100.5t179.5 43q119 0 195 -56q76 -55 106 -147q16 -51 17 -107q0 -46 -11 -96l-148 -700h-71l149 707q9 43 9 83q0 42 -10 80q-19 76 -79.5 122t-165.5 46q-123 0 -214 -70.5t-149.5 -185t-86.5 -245.5l-115 -537h-72 z" />
<glyph unicode="o" horiz-adv-x="1218" d="M119 451q0 115 38 230.5t111.5 211.5t179 154.5t240.5 58.5q145 0 238.5 -66.5t138.5 -173t45 -231.5q0 -115 -38 -230.5t-111.5 -212t-179 -154.5t-240.5 -58q-145 0 -238.5 66.5t-138.5 174t-45 230.5zM190 449q0 -104 38 -195.5t116 -148t197 -56.5t211 52.5 t156.5 138.5t97 190.5t32.5 206.5q0 106 -37.5 196.5t-114.5 146.5t-198 56q-119 0 -211 -52t-155.5 -138t-97.5 -190.5t-34 -206.5z" />
<glyph unicode="p" horiz-adv-x="1245" d="M-16 -399l317 1484h72l-45 -204h8l24 33q25 34 75 79t125 79t173 34q137 0 226.5 -65.5t133.5 -171t44 -228.5q0 -117 -38 -233.5t-109.5 -214t-175 -155.5t-236.5 -58q-92 0 -158 28.5t-108 69.5t-65.5 83t-32.5 71l-9 28h-8l-142 -659h-71zM244 436q0 -102 34.5 -191 t109.5 -142.5t190 -53.5q117 0 206.5 53.5t152 141.5t95.5 192.5t33 208.5t-35 193.5t-108.5 143.5t-188.5 54t-205 -54t-153.5 -142t-97 -194t-33.5 -210z" />
<glyph unicode="q" horiz-adv-x="1253" d="M119 444q0 117 38 234t109.5 214t176 155.5t235.5 58.5q92 0 157.5 -28.5t107.5 -69.5t65.5 -83t33.5 -71l9 -29h8l55 260h72l-318 -1484h-71l131 604h-8l-25 -34t-75 -79t-124.5 -78.5t-173.5 -33.5q-135 0 -225 65.5t-134 172t-44 226.5zM190 440q0 -102 35 -192 t108.5 -144.5t188.5 -54.5t205 54.5t153.5 142.5t97.5 193.5t34 209.5t-35 192.5t-108.5 141.5t-190.5 53t-207 -53t-152.5 -141t-95.5 -192.5t-33 -209.5z" />
<glyph unicode="r" horiz-adv-x="757" d="M59 0l232 1085h71l-32 -151h8q47 66 124 119t195 53q41 0 73 -5l32 -5l-14 -70l-33 5t-70 5q-78 0 -153.5 -40t-136 -135t-97.5 -263l-127 -598h-72z" />
<glyph unicode="s" horiz-adv-x="962" d="M53 313h72l2 -27q2 -26 14.5 -65t43 -79t88 -66.5t147.5 -26.5q129 0 217 64.5t88 169.5q0 82 -48 129t-116 80l-133 65q-82 41 -142.5 100.5t-60.5 161.5q0 125 96.5 206t247.5 81q102 0 166 -32t98.5 -77t50 -91t18.5 -78l3 -31h-71l-6 35q-5 36 -28.5 84.5t-77.5 84 t-153 35.5q-119 0 -195.5 -56t-76.5 -157q0 -78 48 -123t116 -77l127 -62q55 -27 103 -61.5t78 -84.5t30 -126q0 -92 -50.5 -162t-135 -108.5t-193.5 -38.5q-113 0 -183.5 33.5t-108.5 83.5t-54.5 99.5t-18.5 83.5z" />
<glyph unicode="t" horiz-adv-x="741" d="M184 1024l13 61h184l59 277h70l-59 -277h258l-13 -61h-258l-170 -797q-6 -32 -7 -59q1 -43 17 -75q26 -52 123 -52q51 0 99 10l47 10l-12 -61l-45 -10q-44 -10 -101 -10q-115 0 -165 66q-32 42 -32 112q0 40 11 90l166 776h-185z" />
<glyph unicode="u" horiz-adv-x="1105" d="M145 408l144 677h71l-143 -677q-15 -73 -16 -131q1 -83 31 -137q52 -94 196 -93q131 0 225.5 74t155.5 197.5t92 271.5l105 495h71l-229 -1085h-72l45 217h-8q-25 -37 -76 -93t-130.5 -100t-192.5 -44q-164 0 -238 114q-47 72 -47 178q0 62 16 136z" />
<glyph unicode="v" horiz-adv-x="1042" d="M164 1085h72l180 -997l608 997h82l-664 -1085h-80z" />
<glyph unicode="w" horiz-adv-x="1652" d="M164 1085h69l123 -987l543 987h74l123 -987l542 987h78l-600 -1085h-80l-121 975l-538 -975h-78z" />
<glyph unicode="x" horiz-adv-x="1095" d="M-18 0l505 553l-262 532h76l244 -495l454 495h93l-512 -555l262 -530h-76l-242 492l-450 -492h-92z" />
<glyph unicode="y" horiz-adv-x="1069" d="M-150 -395l15 69l27 -3q26 -3 55 -3q111 0 215 69.5t196 219.5l27 43l-197 1085h72l180 -997l611 997h82l-711 -1159q-201 -327 -494 -327q-33 0 -56 3z" />
<glyph unicode="z" horiz-adv-x="1028" d="M-16 0l12 53l922 971h-670l14 61h768l-12 -53l-924 -971h717l-12 -61h-815z" />
<glyph unicode="{" horiz-adv-x="800" d="M145 625l13 61h41q145 0 178 158l133 626q23 102 89.5 157.5t160.5 55.5h217l-14 -65h-203q-70 0 -117 -36t-63 -107l-136 -637q-14 -63 -42.5 -108.5t-94.5 -72.5v-4q53 -25 63.5 -70.5t-3.5 -109.5l-136 -637q-14 -68 14.5 -105.5t98.5 -37.5h209l-14 -66h-195 q-109 0 -154 62.5t-26 150.5l135 641q14 66 -10.5 105t-102.5 39h-41z" />
<glyph unicode="|" horiz-adv-x="806" d="M129 -455l510 2401h70l-510 -2401h-70z" />
<glyph unicode="}" horiz-adv-x="800" d="M-78 -373l15 66h202q72 0 119 35.5t61 107.5l136 637q14 63 42.5 108.5t94.5 71.5v4q-53 25 -63.5 71t3.5 110l136 637q14 68 -13.5 105.5t-99.5 37.5h-209l14 65h195q109 0 154 -61t26 -152l-135 -641q-14 -66 11.5 -104.5t101.5 -38.5h41l-13 -61h-41q-145 0 -178 -158 l-133 -627q-20 -102 -86.5 -157.5t-163.5 -55.5h-217z" />
<glyph unicode="~" horiz-adv-x="878" d="M195 668q16 94 59 154.5t115 60.5q49 0 76.5 -24.5t47 -58.5t40 -58.5t51.5 -24.5q76 0 100 155h64q-16 -88 -57 -151.5t-113 -63.5q-45 0 -74 25t-48.5 58.5t-40 58t-53.5 24.5q-39 0 -66.5 -43t-37.5 -112h-63z" />
<glyph unicode="&#xa1;" horiz-adv-x="493" d="M41 -442l262 1233h62l-254 -1233h-70zM303 1020q0 31 21.5 52.5t52.5 21.5t52.5 -21.5t21.5 -52.5t-21.5 -51.5t-52.5 -20.5t-52.5 20.5t-21.5 51.5z" />
<glyph unicode="&#xa2;" horiz-adv-x="1169" d="M121 446q0 127 38 246t111.5 212t178 147.5t239.5 54.5l33 156h65l-32 -158q98 -10 159.5 -49t95 -90.5t47 -101.5t15.5 -83l2 -32h-69l-2 26q-3 27 -13 67t-37.5 82t-79 72.5t-135.5 38.5l-209 -985h13q94 0 161.5 28.5t113.5 73t72.5 87.5t37.5 72l12 28h76l-14 -36 q-15 -36 -47.5 -89t-87 -107.5t-134.5 -90t-190 -35.5h-27l-33 -156h-65l35 164q-113 20 -187 87.5t-108.5 165t-34.5 205.5zM195 449q0 -94 28.5 -177.5t89 -140.5t152.5 -76l209 981q-154 -6 -260.5 -90t-162.5 -215.5t-56 -281.5z" />
<glyph unicode="&#xa3;" horiz-adv-x="1241" d="M55 0l17 76q106 20 195 82.5t142.5 155t53.5 204.5q0 41 -7 81t-18 79h-227l14 61h197q-23 74 -43.5 150t-20.5 160q0 137 67 246.5t190.5 175t291.5 65.5q92 0 166 -13.5t117 -27.5l43 -14l-14 -68l-42 13q-42 14 -113 27t-157 13q-154 0 -260 -55t-161.5 -149.5 t-55.5 -210.5q0 -82 21.5 -158t44.5 -154h479l-14 -61h-449q10 -39 16.5 -79t6.5 -83q0 -102 -33 -178t-82 -128t-98.5 -83t-81.5 -44l-33 -13h827l-14 -70h-965z" />
<glyph unicode="&#xa4;" horiz-adv-x="1134" d="M143 346l144 143q-41 49 -64.5 112t-23.5 132q0 66 21.5 126.5t60.5 107.5l-138 135l47 47l136 -135q49 45 113.5 70.5t135.5 25.5q70 0 132.5 -23.5t111.5 -64.5l127 127l45 -47l-127 -127q41 -49 64.5 -110.5t23.5 -131.5q0 -72 -24.5 -136.5t-69.5 -115.5l133 -135 l-45 -45l-137 135q-47 -37 -107.5 -58.5t-126.5 -21.5q-70 0 -131 23.5t-110 64.5l-144 -143zM264 731q0 -84 42 -154.5t112.5 -112.5t156.5 -42t157 42t113 112.5t42 154.5q0 86 -42 156.5t-112.5 112.5t-157.5 42q-86 0 -156.5 -42t-112.5 -112.5t-42 -156.5z" />
<glyph unicode="&#xa5;" horiz-adv-x="1329" d="M289 1516h73l320 -873l688 873h88l-620 -785h270l-12 -63h-310l-77 -99l-7 -26h367l-14 -64h-365l-102 -479h-72l102 479h-325l14 64h324l6 26l-37 99h-268l14 63h232z" />
<glyph unicode="&#xa6;" horiz-adv-x="806" d="M129 -455l213 1002h70l-213 -1002h-70zM412 877l227 1071h70l-228 -1071h-69z" />
<glyph unicode="&#xa7;" horiz-adv-x="1312" d="M-8 -29h69l7 -39q6 -38 27.5 -95.5t67.5 -116t128 -97.5t207 -39q121 0 218 41t154.5 118t57.5 185q0 125 -72 202t-180 116l-250 94q-129 49 -200.5 123t-71.5 172q0 92 42 148.5t100 85t110.5 40t72.5 13.5l2 8q-70 51 -113.5 118.5t-43.5 168.5q0 117 59 203.5 t163.5 136t239.5 49.5q133 0 219.5 -43t134.5 -106.5t68.5 -127t25.5 -106.5l5 -43h-70l-4 36q-4 35 -21.5 88.5t-57 106.5t-113.5 89t-189 36q-109 0 -196.5 -38t-139 -107.5t-51.5 -165.5q0 -117 69 -188.5t173 -112.5l250 -95q129 -49 200.5 -122.5t71.5 -171.5 q0 -92 -42 -148.5t-100 -85.5t-110.5 -40t-72.5 -13l-2 -8q84 -53 125.5 -127t41.5 -176q0 -127 -63.5 -223.5t-175.5 -148.5t-264 -52q-123 0 -210 32.5t-142.5 85t-87 111.5t-46 111.5t-17.5 84.5zM227 647q0 -76 52.5 -137t181.5 -111l278 -106h35q35 0 87 8t104.5 31.5 t87 68.5t34.5 121t-52 137.5t-181 110.5l-279 107h-35q-34 0 -86.5 -8.5t-104.5 -32t-87 -68.5t-35 -121z" />
<glyph unicode="&#xa8;" horiz-adv-x="542" d="M150 1364q0 29 20 51.5t51 22.5t52.5 -22.5t21.5 -51.5q0 -31 -21.5 -52.5t-52.5 -21.5t-51 21.5t-20 52.5zM434 1364q0 29 20.5 51.5t51.5 22.5t52.5 -22.5t21.5 -51.5q0 -31 -21.5 -52.5t-52.5 -21.5t-51.5 21.5t-20.5 52.5z" />
<glyph unicode="&#xa9;" horiz-adv-x="1644" d="M141 651q0 147 50.5 293t148.5 263.5t242.5 189t332.5 71.5q160 0 277 -54t194.5 -147t115.5 -211t38 -245q0 -147 -50 -292.5t-148.5 -263.5t-243 -189.5t-332.5 -71.5q-160 0 -276.5 54t-194.5 147.5t-116 211t-38 244.5zM215 651q0 -154 59.5 -287t182.5 -215.5 t309 -82.5q172 0 302 65.5t219 174t134 240.5t45 265q0 154 -59 287t-181 216t-311 83q-172 0 -302 -65.5t-219 -174t-134 -241t-45 -265.5zM455 651q0 92 31.5 186.5t91 172t146.5 125t198 47.5q94 0 151 -30t89 -73t45.5 -86t15.5 -73l2 -29h-68l-3 33q-3 34 -23.5 78.5 t-70.5 78t-142 33.5q-94 0 -167 -41t-123 -108.5t-76 -148.5t-26 -161q0 -82 29 -153.5t88 -114.5t152 -43q90 0 150.5 34t95 78t49.5 78l14 33h74l-12 -29q-11 -28 -37.5 -71t-70.5 -86t-108.5 -71.5t-154.5 -28.5q-117 0 -192 52t-111.5 136t-36.5 182z" />
<glyph unicode="&#xaa;" horiz-adv-x="770" d="M233 1042q0 78 58.5 133.5t173.5 59.5l237 10l11 45q8 39 2 82t-39 74t-107 31q-63 0 -101 -21.5t-57.5 -48.5t-26.5 -49l-7 -21h-68l11 30q10 30 37.5 70t78.5 69.5t133 29.5q121 0 177.5 -72.5t33.5 -181.5l-86 -401h-67l20 104h-8l-23 -29q-22 -28 -69 -58t-121 -30 q-86 0 -139.5 49.5t-53.5 124.5zM301 1047q0 -57 42 -89t99 -32q92 0 157 68.5t83 156.5l8 37l-221 -8q-78 -2 -123 -37t-45 -96z" />
<glyph unicode="&#xab;" horiz-adv-x="1167" d="M115 662l499 413h101l-512 -422l317 -407h-82zM608 662l500 413h100l-512 -422l318 -407h-82z" />
<glyph unicode="&#xac;" horiz-adv-x="1341" d="M256 1016l14 69h1014l-14 -69l-92 -432h-70l92 432h-944z" />
<glyph unicode="&#xad;" horiz-adv-x="1228" d="M227 606l15 70h762l-15 -70h-762z" />
<glyph unicode="&#xae;" horiz-adv-x="864" d="M221 1149q0 96 44 188.5t129 152.5t210 60q106 0 176 -47t104 -120.5t34 -157.5q0 -96 -44.5 -189.5t-129 -153t-209.5 -59.5q-106 0 -176 46t-104 121t-34 159zM268 1149q0 -72 29 -136.5t88.5 -104.5t149.5 -40q111 0 185.5 53.5t112 135.5t37.5 166q0 74 -28.5 138 t-88 104t-151.5 40q-109 0 -183.5 -53t-112.5 -135t-38 -168zM412 989l84 395h114q63 0 91 -32.5t28 -69.5q0 -41 -26.5 -79t-86.5 -44l64 -170h-49l-62 168h-75l-35 -168h-47zM504 1198h88q43 0 65.5 25.5t22.5 58.5q0 23 -16.5 42t-53.5 19h-75z" />
<glyph unicode="&#xaf;" horiz-adv-x="696" d="M338 1296l12 62h574l-13 -62h-573z" />
<glyph unicode="&#xb0;" horiz-adv-x="923" d="M270 1200q0 92 46 169t122 122t168 45q94 0 170 -45t121 -122t45 -169t-45 -169t-121 -122t-170 -45q-92 0 -168 45t-122 122t-46 169zM342 1200q0 -72 35 -132t95 -96t134 -36t133.5 36t95 96t35.5 132q0 74 -35.5 134.5t-96 95t-132.5 34.5t-132 -35.5t-96 -95 t-36 -133.5z" />
<glyph unicode="&#xb1;" horiz-adv-x="1263" d="M98 0l15 68h841l-14 -68h-842zM274 647l15 70h346l74 346h69l-73 -346h346l-15 -70h-346l-74 -346h-69l74 346h-347z" />
<glyph unicode="&#xb2;" horiz-adv-x="765" d="M203 874l10 48l233 184q80 63 144.5 117.5t102.5 108.5t38 116q0 66 -45 104.5t-115 38.5q-68 0 -106.5 -27.5t-57 -65.5t-23.5 -66l-5 -27h-60l7 37q8 37 31.5 86t75.5 86t140 37q102 0 162 -57.5t60 -143.5q0 -70 -41 -132.5t-111 -123.5t-158 -129l-168 -131h412 l-12 -60h-514z" />
<glyph unicode="&#xb3;" horiz-adv-x="737" d="M213 1098h61l4 -27q3 -27 20 -61.5t59 -61t118 -26.5q102 0 154.5 54t52.5 122q0 55 -29.5 87t-70.5 46t-80 14h-88l10 53h94q84 0 141.5 41t57.5 115q0 63 -44 102t-118 39q-68 0 -105.5 -24.5t-56 -55t-22.5 -55.5l-4 -24h-58l7 32q6 33 29.5 75t73.5 75t138 33 q104 0 163.5 -55.5t59.5 -135.5q0 -53 -21.5 -89t-52 -57.5t-55 -30.5t-30.5 -11v-2q6 -2 36.5 -19.5t60.5 -54.5t30 -102q0 -55 -32 -107.5t-92.5 -87.5t-148.5 -35q-100 0 -154.5 35t-77 82t-26.5 82z" />
<glyph unicode="&#xb4;" horiz-adv-x="413" d="M244 1266l149 311h76l-164 -311h-61z" />
<glyph unicode="&#xb5;" horiz-adv-x="1294" d="M59 -408l320 1493h70l-144 -677q-37 -174 19.5 -267.5t193.5 -93.5q127 0 220 70.5t152.5 181.5t84.5 229l119 557h69l-182 -860q-18 -88 -2 -136t106 -48q31 0 49 4l19 4l-12 -61l-19 -4q-20 -4 -55 -4q-94 0 -140 53t-16 192h-8q-25 -41 -76 -99t-127.5 -102 t-181.5 -44q-90 0 -145.5 25.5t-85 60t-39.5 60.5l-10 26l-9 -2l-4 -48q-4 -47 -14 -117.5t-27 -146.5l-53 -246h-72z" />
<glyph unicode="&#xb6;" horiz-adv-x="1032" d="M211 1059q0 92 47 178t137 141.5t221 55.5h410l-305 -1434h-62l293 1372h-155l-293 -1372h-62l158 743h-29q-123 0 -202.5 45.5t-118.5 118t-39 152.5z" />
<glyph unicode="&#xb7;" horiz-adv-x="522" d="M131 760q0 31 21.5 53.5t54.5 22.5t55.5 -22.5t22.5 -53.5q0 -33 -22.5 -55.5t-55.5 -22.5t-54.5 22.5t-21.5 55.5z" />
<glyph unicode="&#xb8;" horiz-adv-x="479" d="M-20 -485l14 61l45 -11t92 -11q84 0 123 39.5t39 84.5t-33 80t-96 35q-51 0 -85 -18.5t-32 -18.5l-31 39l160 205h72l-115 -147q20 4 43 4q92 0 140.5 -53.5t48.5 -118.5q0 -72 -57.5 -133.5t-176.5 -61.5q-63 0 -107 12z" />
<glyph unicode="&#xb9;" horiz-adv-x="475" d="M311 874l135 635h-135l11 37l26 6q59 14 90 30.5t56 47.5l8 10h35l-162 -766h-64z" />
<glyph unicode="&#xba;" horiz-adv-x="829" d="M260 1149q0 90 40 179t117 148.5t187 59.5q88 0 144.5 -39t84 -102.5t27.5 -137.5q0 -90 -41 -180t-117.5 -149.5t-185.5 -59.5q-88 0 -144.5 39t-84 103.5t-27.5 138.5zM326 1149q0 -88 48 -153.5t144 -65.5q88 0 148.5 50t93.5 126t33 149q0 88 -47.5 154t-143.5 66 q-86 0 -148.5 -50.5t-95 -125t-32.5 -150.5z" />
<glyph unicode="&#xbb;" horiz-adv-x="1167" d="M27 246l512 422l-318 407h82l324 -416l-500 -413h-100zM520 246l512 422l-317 407h82l323 -416l-499 -413h-101z" />
<glyph unicode="&#xbc;" horiz-adv-x="1607" d="M242 1309l8 45l26 6q53 12 85 29.5t65 50.5l8 10h43l-155 -727h-74l125 588zM381 0l727 1434h74l-729 -1434h-72zM1010 172l14 66l446 485h89l-105 -487h125l-12 -64h-127l-37 -176h-74l39 176h-358zM1108 236h272l84 385z" />
<glyph unicode="&#xbd;" horiz-adv-x="1632" d="M242 1309l8 45l26 6q53 12 85 29.5t65 50.5l8 10h43l-155 -727h-74l125 588zM381 0l727 1434h74l-729 -1434h-72zM1059 -4l12 51l219 172q72 55 131.5 105.5t95 100.5t35.5 107q0 61 -41 97.5t-106 36.5q-61 0 -96 -26t-52.5 -59.5t-21.5 -58.5l-4 -26h-70l7 36 q8 35 31.5 82.5t73.5 83t136 35.5q100 0 158.5 -57.5t58.5 -140.5q0 -94 -81 -177.5t-212 -181.5l-149 -115h383l-15 -65h-493z" />
<glyph unicode="&#xbe;" horiz-adv-x="1804" d="M170 938h72l3 -24q3 -25 19.5 -56t52 -55.5t103.5 -24.5q92 0 140 49.5t48 110.5q0 49 -25.5 77.5t-63.5 41t-73 12.5h-84l13 61h92q72 0 123 37t51 103q0 55 -39 90t-104 35q-61 0 -96 -21.5t-50.5 -50.5t-19.5 -51l-4 -21h-72l6 32q6 32 28.5 73t73 72.5t136.5 31.5 q104 0 160.5 -53t56.5 -129q0 -74 -46 -117t-104 -61v-4q41 -14 80 -54.5t39 -109.5q0 -51 -30.5 -102.5t-89 -84t-146.5 -32.5q-96 0 -147.5 33.5t-73 78.5t-25.5 79zM641 0l727 1434h74l-729 -1434h-72zM1270 172l14 66l447 485h88l-105 -487h125l-12 -64h-127l-37 -176 h-74l39 176h-358zM1368 236h272l84 385z" />
<glyph unicode="&#xbf;" horiz-adv-x="1187" d="M29 -78q0 109 41 187.5t105.5 140t138 116t142 110.5t115.5 124t58 158l4 37h67l-4 -37q-10 -102 -58 -177t-115.5 -132.5t-140.5 -110.5t-136.5 -110.5t-104.5 -130t-41 -173.5q0 -94 45 -163.5t121 -107.5t170 -38q115 0 190.5 41t121 101.5t67 121t27.5 101.5l6 40h70 l-8 -48q-9 -48 -34.5 -118.5t-78 -141t-141.5 -119t-222 -48.5q-117 0 -209 48.5t-144 133.5t-52 195zM629 1028q0 31 21 52.5t52 21.5t52.5 -21.5t21.5 -52.5q0 -29 -21.5 -50.5t-52.5 -21.5t-52 21.5t-21 50.5z" />
<glyph unicode="&#xc0;" d="M8 0l869 1516h88l225 -1516h-74l-65 451h-701l-258 -451h-84zM387 516h653l-133 911zM793 2007h73l109 -311h-60z" />
<glyph unicode="&#xc1;" d="M8 0l869 1516h88l225 -1516h-74l-65 451h-701l-258 -451h-84zM387 516h653l-133 911zM918 1696l149 311h76l-164 -311h-61z" />
<glyph unicode="&#xc2;" d="M8 0l869 1516h88l225 -1516h-74l-65 451h-701l-258 -451h-84zM387 516h653l-133 911zM688 1675l287 283h76l168 -283h-74l-135 232l-232 -232h-90z" />
<glyph unicode="&#xc3;" d="M8 0l869 1516h88l225 -1516h-74l-65 451h-701l-258 -451h-84zM387 516h653l-133 911zM705 1712q16 94 59 154.5t115 60.5q49 0 76.5 -24.5t47 -58.5t40 -58.5t51.5 -24.5q76 0 100 156h63q-16 -88 -57 -151.5t-113 -63.5q-45 0 -73.5 24.5t-48 58.5t-40 58.5t-53.5 24.5 q-39 0 -66.5 -43t-37.5 -113h-63z" />
<glyph unicode="&#xc4;" d="M8 0l869 1516h88l225 -1516h-74l-65 451h-701l-258 -451h-84zM387 516h653l-133 911zM762 1794q0 31 20.5 52.5t51.5 21.5t52 -21.5t21 -52.5t-21 -52.5t-52 -21.5t-51.5 21.5t-20.5 52.5zM1047 1794q0 31 20 52.5t51 21.5t52.5 -21.5t21.5 -52.5t-21.5 -52.5 t-52.5 -21.5t-51 21.5t-20 52.5z" />
<glyph unicode="&#xc5;" d="M8 0l869 1516h88l225 -1516h-74l-65 451h-701l-258 -451h-84zM387 516h653l-133 911zM805 1878q0 80 55 136.5t135 56.5t135.5 -56.5t55.5 -136.5q0 -78 -55.5 -134t-135.5 -56t-135 56t-55 134zM866 1878q0 -53 38 -91t91 -38t91 38t38 91t-37.5 92t-91.5 39 q-53 0 -91 -39t-38 -92z" />
<glyph unicode="&#xc6;" horiz-adv-x="1900" d="M8 0l1114 1516h881l-14 -70h-775l-135 -635h674l-14 -70h-674l-143 -671h786l-14 -70h-858l96 451h-506l-332 -451h-86zM473 516h471l193 903z" />
<glyph unicode="&#xc7;" horiz-adv-x="1527" d="M141 641q0 158 50.5 316.5t150.5 289.5t247.5 210t342.5 79q133 0 223 -36t146.5 -93t86 -120.5t42 -121t13.5 -93.5l1 -36h-74l-2 43q-2 43 -19.5 107.5t-63.5 129t-132 107.5t-225 43q-174 0 -308.5 -72.5t-223.5 -193.5t-135 -266.5t-46 -290.5q0 -156 54.5 -292 t168 -219t287.5 -83q137 0 234.5 43t163 107.5t103.5 129t54 107.5l16 43h76l-18 -49q-17 -49 -59 -121.5t-113.5 -146.5t-180 -126t-260.5 -56l-98 -127q20 4 43 4q92 0 140 -53.5t48 -118.5q0 -72 -57 -133.5t-176 -61.5q-63 0 -107 12l-45 13l15 61l45 -11t92 -11 q84 0 123 39.5t39 84.5t-33 80t-96 35q-51 0 -85 -18.5t-32 -18.5l-31 39l146 187q-180 12 -298 106t-175.5 240.5t-57.5 312.5z" />
<glyph unicode="&#xc8;" horiz-adv-x="1134" d="M70 0l321 1516h846l-14 -70h-774l-136 -635h674l-14 -70h-674l-143 -671h786l-14 -70h-858zM649 2007h74l108 -311h-59z" />
<glyph unicode="&#xc9;" horiz-adv-x="1134" d="M70 0l321 1516h846l-14 -70h-774l-136 -635h674l-14 -70h-674l-143 -671h786l-14 -70h-858zM774 1696l150 311h75l-163 -311h-62z" />
<glyph unicode="&#xca;" horiz-adv-x="1134" d="M70 0l321 1516h846l-14 -70h-774l-136 -635h674l-14 -70h-674l-143 -671h786l-14 -70h-858zM545 1675l286 283h76l168 -283h-74l-135 232l-231 -232h-90z" />
<glyph unicode="&#xcb;" horiz-adv-x="1134" d="M70 0l321 1516h846l-14 -70h-774l-136 -635h674l-14 -70h-674l-143 -671h786l-14 -70h-858zM618 1794q0 31 20.5 52.5t51.5 21.5t52.5 -21.5t21.5 -52.5t-21.5 -52.5t-52.5 -21.5t-51.5 21.5t-20.5 52.5zM903 1794q0 31 20.5 52.5t51.5 21.5t52.5 -21.5t21.5 -52.5 t-21.5 -52.5t-52.5 -21.5t-51.5 21.5t-20.5 52.5z" />
<glyph unicode="&#xcc;" horiz-adv-x="438" d="M70 0l321 1516h72l-322 -1516h-71zM303 2007h74l108 -311h-59z" />
<glyph unicode="&#xcd;" horiz-adv-x="438" d="M70 0l321 1516h72l-322 -1516h-71zM428 1696l150 311h75l-164 -311h-61z" />
<glyph unicode="&#xce;" horiz-adv-x="438" d="M70 0l321 1516h72l-322 -1516h-71zM199 1675l293 312h75l162 -312h-74l-131 258l-237 -258h-88z" />
<glyph unicode="&#xcf;" horiz-adv-x="438" d="M70 0l321 1516h72l-322 -1516h-71zM272 1794q0 31 20.5 52.5t51.5 21.5t52.5 -21.5t21.5 -52.5t-21.5 -52.5t-52.5 -21.5t-51.5 21.5t-20.5 52.5zM557 1794q0 31 20.5 52.5t51.5 21.5t52 -21.5t21 -52.5t-21 -52.5t-52 -21.5t-51.5 21.5t-20.5 52.5z" />
<glyph unicode="&#xd0;" horiz-adv-x="1556" d="M102 725l15 66h213l153 725h357q162 0 279.5 -51.5t195.5 -139.5t115.5 -200.5t37.5 -237.5q0 -156 -58 -312.5t-170 -286.5t-275.5 -209t-376.5 -79h-426l153 725h-213zM248 70h340q195 0 345 72.5t252.5 191.5t156 263t53.5 286q0 150 -59.5 277.5t-182.5 206.5 t-313 79h-299l-140 -655h336l-14 -66h-336z" />
<glyph unicode="&#xd1;" horiz-adv-x="1466" d="M70 0l321 1516h74l655 -1405l299 1405h72l-322 -1516h-73l-656 1407l-299 -1407h-71zM752 1712q16 94 59 154.5t115 60.5q49 0 76.5 -24.5t47 -58.5t40 -58.5t51.5 -24.5q76 0 100 156h64q-16 -88 -57 -151.5t-113 -63.5q-45 0 -74 24.5t-48.5 58.5t-40 58.5t-52.5 24.5 q-39 0 -67 -43t-38 -113h-63z" />
<glyph unicode="&#xd2;" horiz-adv-x="1601" d="M139 627q0 160 53.5 320.5t155 293.5t247.5 214t335 81q150 0 259 -52t181 -143.5t106.5 -208t34.5 -243.5q0 -160 -52 -320.5t-153.5 -294t-248 -214t-334.5 -80.5q-150 0 -260.5 52t-182 143t-106.5 207t-35 245zM213 627q0 -154 54.5 -285t168 -212t287.5 -81 q170 0 303 75t225 197.5t139.5 271t47.5 296.5q0 154 -54.5 285t-166 211.5t-287.5 80.5q-170 0 -303 -74.5t-225.5 -198.5t-140.5 -271.5t-48 -294.5zM842 2007h73l109 -311h-59z" />
<glyph unicode="&#xd3;" horiz-adv-x="1601" d="M139 627q0 160 53.5 320.5t155 293.5t247.5 214t335 81q150 0 259 -52t181 -143.5t106.5 -208t34.5 -243.5q0 -160 -52 -320.5t-153.5 -294t-248 -214t-334.5 -80.5q-150 0 -260.5 52t-182 143t-106.5 207t-35 245zM213 627q0 -154 54.5 -285t168 -212t287.5 -81 q170 0 303 75t225 197.5t139.5 271t47.5 296.5q0 154 -54.5 285t-166 211.5t-287.5 80.5q-170 0 -303 -74.5t-225.5 -198.5t-140.5 -271.5t-48 -294.5zM967 1696l149 311h76l-164 -311h-61z" />
<glyph unicode="&#xd4;" horiz-adv-x="1601" d="M139 627q0 160 53.5 320.5t155 293.5t247.5 214t335 81q150 0 259 -52t181 -143.5t106.5 -208t34.5 -243.5q0 -160 -52 -320.5t-153.5 -294t-248 -214t-334.5 -80.5q-150 0 -260.5 52t-182 143t-106.5 207t-35 245zM213 627q0 -154 54.5 -285t168 -212t287.5 -81 q170 0 303 75t225 197.5t139.5 271t47.5 296.5q0 154 -54.5 285t-166 211.5t-287.5 80.5q-170 0 -303 -74.5t-225.5 -198.5t-140.5 -271.5t-48 -294.5zM737 1675l287 283h76l168 -283h-74l-135 232l-232 -232h-90z" />
<glyph unicode="&#xd5;" horiz-adv-x="1601" d="M139 627q0 160 53.5 320.5t155 293.5t247.5 214t335 81q150 0 259 -52t181 -143.5t106.5 -208t34.5 -243.5q0 -160 -52 -320.5t-153.5 -294t-248 -214t-334.5 -80.5q-150 0 -260.5 52t-182 143t-106.5 207t-35 245zM213 627q0 -154 54.5 -285t168 -212t287.5 -81 q170 0 303 75t225 197.5t139.5 271t47.5 296.5q0 154 -54.5 285t-166 211.5t-287.5 80.5q-170 0 -303 -74.5t-225.5 -198.5t-140.5 -271.5t-48 -294.5zM754 1712q16 94 59 154.5t115 60.5q49 0 76.5 -24.5t47 -58.5t40 -58.5t51.5 -24.5q76 0 100 156h64q-16 -88 -57 -151.5 t-113 -63.5q-45 0 -74 24.5t-48.5 58.5t-40 58.5t-52.5 24.5q-39 0 -67 -43t-38 -113h-63z" />
<glyph unicode="&#xd6;" horiz-adv-x="1601" d="M139 627q0 160 53.5 320.5t155 293.5t247.5 214t335 81q150 0 259 -52t181 -143.5t106.5 -208t34.5 -243.5q0 -160 -52 -320.5t-153.5 -294t-248 -214t-334.5 -80.5q-150 0 -260.5 52t-182 143t-106.5 207t-35 245zM213 627q0 -154 54.5 -285t168 -212t287.5 -81 q170 0 303 75t225 197.5t139.5 271t47.5 296.5q0 154 -54.5 285t-166 211.5t-287.5 80.5q-170 0 -303 -74.5t-225.5 -198.5t-140.5 -271.5t-48 -294.5zM811 1794q0 31 20.5 52.5t51.5 21.5t52 -21.5t21 -52.5t-21 -52.5t-52 -21.5t-51.5 21.5t-20.5 52.5zM1096 1794 q0 31 20.5 52.5t50.5 21.5q31 0 52.5 -21.5t21.5 -52.5t-21.5 -52.5t-52.5 -21.5t-51 21.5t-20 52.5z" />
<glyph unicode="&#xd7;" horiz-adv-x="1011" d="M182 397l301 248l-188 238l51 49l191 -242l290 240l47 -49l-294 -244l186 -238l-51 -49l-191 242l-295 -244z" />
<glyph unicode="&#xd8;" horiz-adv-x="1601" d="M96 -47l187 219q-72 90 -108 208t-36 247q0 160 53.5 320.5t155 293.5t247.5 214t335 81q127 0 225 -39t168 -104l147 172h84l-188 -222q74 -88 109.5 -206.5t35.5 -247.5q0 -160 -52 -320.5t-153.5 -294t-248 -214t-334.5 -80.5q-129 0 -227.5 38.5t-167.5 106.5 l-148 -172h-84zM213 627q0 -113 29.5 -215.5t89.5 -182.5l944 1106q-61 61 -147.5 96t-198.5 35q-170 0 -303 -74.5t-225.5 -198.5t-140.5 -271.5t-48 -294.5zM375 180q61 -61 148 -96t200 -35q170 0 303 75t225 197.5t139.5 271t47.5 296.5q0 113 -30 216t-89 183z" />
<glyph unicode="&#xd9;" horiz-adv-x="1419" d="M177 342q-13 102 9 211l205 963h72l-205 -963q-49 -233 55.5 -368.5t323.5 -135.5q147 0 253.5 62.5t175.5 172t97 248.5l209 984h72l-209 -984q-31 -150 -104.5 -275.5t-195.5 -201t-300 -75.5q-141 0 -238.5 48t-152 130t-67.5 184zM793 2007h73l109 -311h-60z" />
<glyph unicode="&#xda;" horiz-adv-x="1419" d="M177 342q-13 102 9 211l205 963h72l-205 -963q-49 -233 55.5 -368.5t323.5 -135.5q147 0 253.5 62.5t175.5 172t97 248.5l209 984h72l-209 -984q-31 -150 -104.5 -275.5t-195.5 -201t-300 -75.5q-141 0 -238.5 48t-152 130t-67.5 184zM918 1696l149 311h76l-164 -311h-61 z" />
<glyph unicode="&#xdb;" horiz-adv-x="1419" d="M177 342q-13 102 9 211l205 963h72l-205 -963q-49 -233 55.5 -368.5t323.5 -135.5q147 0 253.5 62.5t175.5 172t97 248.5l209 984h72l-209 -984q-31 -150 -104.5 -275.5t-195.5 -201t-300 -75.5q-141 0 -238.5 48t-152 130t-67.5 184zM688 1675l293 312h76l162 -312h-74 l-131 258l-238 -258h-88z" />
<glyph unicode="&#xdc;" horiz-adv-x="1419" d="M177 342q-13 102 9 211l205 963h72l-205 -963q-49 -233 55.5 -368.5t323.5 -135.5q147 0 253.5 62.5t175.5 172t97 248.5l209 984h72l-209 -984q-31 -150 -104.5 -275.5t-195.5 -201t-300 -75.5q-141 0 -238.5 48t-152 130t-67.5 184zM762 1794q0 31 20.5 52.5t51.5 21.5 t52 -21.5t21 -52.5t-21 -52.5t-52 -21.5t-51.5 21.5t-20.5 52.5zM1047 1794q0 31 20 52.5t51 21.5t52.5 -21.5t21.5 -52.5t-21.5 -52.5t-52.5 -21.5t-51 21.5t-20 52.5z" />
<glyph unicode="&#xdd;" horiz-adv-x="1271" d="M252 1516h74l319 -873l688 873h88l-749 -947l-121 -569h-72l121 569zM823 1696l150 311h76l-164 -311h-62z" />
<glyph unicode="&#xde;" horiz-adv-x="1241" d="M70 0l321 1516h72l-64 -299h336q156 0 257.5 -58.5t151.5 -152t50 -199.5q0 -92 -37 -182t-108.5 -164t-177 -118t-244.5 -44h-422l-64 -299h-71zM219 369h410q162 0 271.5 65.5t165.5 165.5t56 205q0 88 -42 166t-128 127t-219 49h-348z" />
<glyph unicode="&#xdf;" horiz-adv-x="1208" d="M68 -8l231 1087q51 238 187.5 347.5t316.5 109.5q164 0 266 -92t102 -246q0 -131 -86 -244.5t-256 -160.5v-7q72 -16 127.5 -70t87 -126t31.5 -146q0 -127 -70.5 -232.5t-197.5 -168.5t-295 -63q-47 0 -96 3t-83 6l-34 3l10 69l34 -3t82 -6t87 -3q152 0 260.5 53.5 t167.5 143.5t59 198q0 137 -90 225.5t-235 88.5h-201l16 67h201q117 0 209 51.5t145.5 136.5t53.5 185q0 90 -41 149.5t-107.5 89t-146.5 29.5q-92 0 -180 -33.5t-156 -119.5t-100 -240l-230 -1081h-69z" />
<glyph unicode="&#xe0;" horiz-adv-x="1226" d="M129 444q0 117 38 234t109.5 214t176 155.5t235.5 58.5q92 0 157.5 -28.5t107.5 -69.5t65.5 -83t33.5 -71l9 -29h8l55 260h72l-231 -1085h-72l45 205h-8l-24 -34q-25 -34 -75.5 -79t-125 -78.5t-173.5 -33.5q-135 0 -225 65.5t-134 172t-44 226.5zM201 440 q0 -102 34.5 -192t108.5 -144.5t188 -54.5q115 0 205 54.5t153.5 142.5t97.5 193.5t34 209.5t-35 192.5t-108.5 141.5t-190.5 53t-207 -53t-152.5 -141t-95 -192.5t-32.5 -209.5zM604 1577h74l108 -311h-59z" />
<glyph unicode="&#xe1;" horiz-adv-x="1226" d="M129 444q0 117 38 234t109.5 214t176 155.5t235.5 58.5q92 0 157.5 -28.5t107.5 -69.5t65.5 -83t33.5 -71l9 -29h8l55 260h72l-231 -1085h-72l45 205h-8l-24 -34q-25 -34 -75.5 -79t-125 -78.5t-173.5 -33.5q-135 0 -225 65.5t-134 172t-44 226.5zM201 440 q0 -102 34.5 -192t108.5 -144.5t188 -54.5q115 0 205 54.5t153.5 142.5t97.5 193.5t34 209.5t-35 192.5t-108.5 141.5t-190.5 53t-207 -53t-152.5 -141t-95 -192.5t-32.5 -209.5zM729 1266l150 311h75l-163 -311h-62z" />
<glyph unicode="&#xe2;" horiz-adv-x="1226" d="M129 444q0 117 38 234t109.5 214t176 155.5t235.5 58.5q92 0 157.5 -28.5t107.5 -69.5t65.5 -83t33.5 -71l9 -29h8l55 260h72l-231 -1085h-72l45 205h-8l-24 -34q-25 -34 -75.5 -79t-125 -78.5t-173.5 -33.5q-135 0 -225 65.5t-134 172t-44 226.5zM201 440 q0 -102 34.5 -192t108.5 -144.5t188 -54.5q115 0 205 54.5t153.5 142.5t97.5 193.5t34 209.5t-35 192.5t-108.5 141.5t-190.5 53t-207 -53t-152.5 -141t-95 -192.5t-32.5 -209.5zM500 1245l293 311h75l162 -311h-74l-131 258l-237 -258h-88z" />
<glyph unicode="&#xe3;" horiz-adv-x="1226" d="M129 444q0 117 38 234t109.5 214t176 155.5t235.5 58.5q92 0 157.5 -28.5t107.5 -69.5t65.5 -83t33.5 -71l9 -29h8l55 260h72l-231 -1085h-72l45 205h-8l-24 -34q-25 -34 -75.5 -79t-125 -78.5t-173.5 -33.5q-135 0 -225 65.5t-134 172t-44 226.5zM201 440 q0 -102 34.5 -192t108.5 -144.5t188 -54.5q115 0 205 54.5t153.5 142.5t97.5 193.5t34 209.5t-35 192.5t-108.5 141.5t-190.5 53t-207 -53t-152.5 -141t-95 -192.5t-32.5 -209.5zM516 1282q16 94 59 154.5t115 60.5q49 0 77 -24.5t47.5 -58.5t39.5 -58.5t51 -24.5 q76 0 101 156h63q-16 -88 -57 -151.5t-113 -63.5q-45 0 -73.5 24.5t-48 58.5t-40 58.5t-53.5 24.5q-39 0 -66.5 -43t-37.5 -113h-64z" />
<glyph unicode="&#xe4;" horiz-adv-x="1226" d="M129 444q0 117 38 234t109.5 214t176 155.5t235.5 58.5q92 0 157.5 -28.5t107.5 -69.5t65.5 -83t33.5 -71l9 -29h8l55 260h72l-231 -1085h-72l45 205h-8l-24 -34q-25 -34 -75.5 -79t-125 -78.5t-173.5 -33.5q-135 0 -225 65.5t-134 172t-44 226.5zM201 440 q0 -102 34.5 -192t108.5 -144.5t188 -54.5q115 0 205 54.5t153.5 142.5t97.5 193.5t34 209.5t-35 192.5t-108.5 141.5t-190.5 53t-207 -53t-152.5 -141t-95 -192.5t-32.5 -209.5zM573 1364q0 29 20.5 51.5t51.5 22.5t52.5 -22.5t21.5 -51.5q0 -31 -21.5 -52.5t-52.5 -21.5 t-51.5 21.5t-20.5 52.5zM858 1364q0 29 20.5 51.5t51.5 22.5t52.5 -22.5t21.5 -51.5q0 -31 -21.5 -52.5t-52.5 -21.5t-51.5 21.5t-20.5 52.5z" />
<glyph unicode="&#xe5;" horiz-adv-x="1226" d="M129 444q0 117 38 234t109.5 214t176 155.5t235.5 58.5q92 0 157.5 -28.5t107.5 -69.5t65.5 -83t33.5 -71l9 -29h8l55 260h72l-231 -1085h-72l45 205h-8l-24 -34q-25 -34 -75.5 -79t-125 -78.5t-173.5 -33.5q-135 0 -225 65.5t-134 172t-44 226.5zM201 440 q0 -102 34.5 -192t108.5 -144.5t188 -54.5q115 0 205 54.5t153.5 142.5t97.5 193.5t34 209.5t-35 192.5t-108.5 141.5t-190.5 53t-207 -53t-152.5 -141t-95 -192.5t-32.5 -209.5zM616 1448q0 80 55.5 136t135.5 56t135 -56t55 -136q0 -78 -55 -134.5t-135 -56.5t-135.5 56.5 t-55.5 134.5zM678 1448q0 -53 38 -91t91 -38t91 38t38 91t-38 92t-91 39t-91 -39t-38 -92z" />
<glyph unicode="&#xe6;" horiz-adv-x="1894" d="M63 270q0 129 94.5 216t266.5 96l434 18l21 96q10 49 9 107.5t-26.5 113t-84 88t-161.5 33.5q-92 0 -154.5 -26.5t-101 -65.5t-59 -78t-27.5 -66l-8 -26h-76l10 34q11 34 37.5 82t74.5 97t123 83t181 34q141 0 232.5 -68.5t107.5 -201.5h2q74 121 191 195.5t264 74.5 q168 0 259 -77t117 -203t-5 -273l-4 -21h-862q-18 -127 12.5 -237.5t111 -178t215.5 -67.5q111 0 188 39t124 90t69 90l21 39h72l-15 -33q-16 -32 -51 -81.5t-90 -98.5t-134 -81.5t-186 -32.5q-119 0 -203.5 46t-134 125.5t-67.5 176.5h-4l-16 -35q-15 -35 -48.5 -87 t-88 -104.5t-131.5 -87t-179 -34.5q-139 0 -229.5 80.5t-90.5 209.5zM133 276q0 -111 76 -171t182 -60q113 0 204 60.5t151.5 155.5t80.5 202l15 69l-412 -14q-131 -4 -214 -66.5t-83 -175.5zM932 598h788q18 115 -2 215t-93 161.5t-216 61.5q-123 0 -219 -59t-161.5 -158.5 t-96.5 -220.5z" />
<glyph unicode="&#xe7;" horiz-adv-x="1126" d="M94 446q0 127 38 246t112.5 212t182.5 147.5t245 54.5q115 0 187.5 -36t111.5 -89t54 -107.5t19 -89.5l3 -36h-70l-2 28q-2 29 -15.5 73t-45 87t-91 71.5t-155.5 28.5q-119 0 -212.5 -48t-158 -131t-97 -188.5t-32.5 -219.5q0 -104 37 -195.5t113.5 -148t195.5 -56.5 q94 0 161.5 28.5t114 73t73 87.5t37.5 72l11 28h76l-15 -36q-14 -36 -46.5 -89t-87 -107.5t-134 -90t-190.5 -35.5h-18l-109 -140q20 4 43 4q92 0 140 -53t48 -119q0 -72 -57 -133t-176 -61q-63 0 -107 12l-45 12l15 62l45 -12q45 -11 92 -11q84 0 123 40t39 85t-33 80 t-96 35q-51 0 -85 -18.5t-32 -18.5l-31 39l160 203q-117 20 -190.5 87.5t-109.5 165t-36 207.5z" />
<glyph unicode="&#xe8;" horiz-adv-x="1128" d="M90 438q0 119 40 238t114.5 216t181 155.5t238.5 58.5q168 0 259 -77t116.5 -203t-5.5 -273l-4 -21h-862q-18 -127 11.5 -237.5t111.5 -178t217 -67.5q111 0 187.5 39t123.5 90t69 90l21 39h72l-15 -33q-16 -32 -50.5 -81.5t-90 -98.5t-134.5 -81.5t-185 -32.5 q-141 0 -233.5 63t-137.5 168.5t-45 226.5zM182 598h789q18 115 -2.5 215t-93 161.5t-216.5 61.5q-123 0 -219 -59t-161.5 -158.5t-96.5 -220.5zM578 1573h73l109 -311h-60z" />
<glyph unicode="&#xe9;" horiz-adv-x="1128" d="M90 438q0 119 40 238t114.5 216t181 155.5t238.5 58.5q168 0 259 -77t116.5 -203t-5.5 -273l-4 -21h-862q-18 -127 11.5 -237.5t111.5 -178t217 -67.5q111 0 187.5 39t123.5 90t69 90l21 39h72l-15 -33q-16 -32 -50.5 -81.5t-90 -98.5t-134.5 -81.5t-185 -32.5 q-141 0 -233.5 63t-137.5 168.5t-45 226.5zM182 598h789q18 115 -2.5 215t-93 161.5t-216.5 61.5q-123 0 -219 -59t-161.5 -158.5t-96.5 -220.5zM702 1262l150 311h76l-164 -311h-62z" />
<glyph unicode="&#xea;" horiz-adv-x="1128" d="M90 438q0 119 40 238t114.5 216t181 155.5t238.5 58.5q168 0 259 -77t116.5 -203t-5.5 -273l-4 -21h-862q-18 -127 11.5 -237.5t111.5 -178t217 -67.5q111 0 187.5 39t123.5 90t69 90l21 39h72l-15 -33q-16 -32 -50.5 -81.5t-90 -98.5t-134.5 -81.5t-185 -32.5 q-141 0 -233.5 63t-137.5 168.5t-45 226.5zM182 598h789q18 115 -2.5 215t-93 161.5t-216.5 61.5q-123 0 -219 -59t-161.5 -158.5t-96.5 -220.5zM473 1241l293 311h76l162 -311h-74l-131 258l-238 -258h-88z" />
<glyph unicode="&#xeb;" horiz-adv-x="1128" d="M90 438q0 119 40 238t114.5 216t181 155.5t238.5 58.5q168 0 259 -77t116.5 -203t-5.5 -273l-4 -21h-862q-18 -127 11.5 -237.5t111.5 -178t217 -67.5q111 0 187.5 39t123.5 90t69 90l21 39h72l-15 -33q-16 -32 -50.5 -81.5t-90 -98.5t-134.5 -81.5t-185 -32.5 q-141 0 -233.5 63t-137.5 168.5t-45 226.5zM182 598h789q18 115 -2.5 215t-93 161.5t-216.5 61.5q-123 0 -219 -59t-161.5 -158.5t-96.5 -220.5zM547 1360q0 31 20.5 52.5t50.5 21.5q31 0 52.5 -21.5t21.5 -52.5t-21.5 -52.5t-52.5 -21.5t-51 21.5t-20 52.5zM831 1360 q0 31 20.5 52.5t51.5 21.5t52.5 -21.5t21.5 -52.5t-21.5 -52.5t-52.5 -21.5t-51.5 21.5t-20.5 52.5z" />
<glyph unicode="&#xec;" horiz-adv-x="442" d="M68 0l231 1085h70l-232 -1085h-69zM209 1577h74l108 -311h-59z" />
<glyph unicode="&#xed;" horiz-adv-x="442" d="M68 0l231 1085h70l-232 -1085h-69zM334 1266l149 311h76l-164 -311h-61z" />
<glyph unicode="&#xee;" horiz-adv-x="442" d="M68 0l231 1085h70l-232 -1085h-69zM104 1245l293 311h76l162 -311h-74l-131 258l-237 -258h-89z" />
<glyph unicode="&#xef;" horiz-adv-x="442" d="M68 0l231 1085h70l-232 -1085h-69zM178 1364q0 31 20.5 52.5t51.5 21.5t52.5 -21.5t21.5 -52.5t-21.5 -52.5t-52.5 -21.5t-51.5 21.5t-20.5 52.5zM463 1364q0 31 20.5 52.5t51.5 21.5t52 -21.5t21 -52.5t-21 -52.5t-52 -21.5t-51.5 21.5t-20.5 52.5z" />
<glyph unicode="&#xf0;" horiz-adv-x="1243" d="M119 444q0 117 39 234t111.5 214t179 155.5t241.5 58.5q131 0 211 -51t124 -123t62 -135q-20 156 -81.5 276.5t-144.5 209.5t-167 151l-252 -129l-20 55l217 110q-102 66 -177 94l-75 29l25 60l41 -15q41 -16 107.5 -49t144.5 -84l280 144l21 -58l-246 -125 q96 -72 185 -174t147.5 -240.5t58.5 -314.5q0 -152 -45 -288t-127 -242.5t-192.5 -166.5t-241.5 -60q-147 0 -241.5 65.5t-139.5 171t-45 227.5zM190 446q0 -104 37 -195t116 -146.5t200 -55.5q119 0 211 52.5t156.5 139.5t98 191.5t33.5 206.5q0 106 -36.5 196.5 t-114.5 145.5t-201 55q-119 0 -211 -52t-156.5 -139t-98.5 -191.5t-34 -207.5z" />
<glyph unicode="&#xf1;" horiz-adv-x="1122" d="M59 0l232 1085h71l-49 -225h6q27 45 78.5 102.5t128 100.5t179.5 43q119 0 195.5 -55.5t106 -147.5t5.5 -203l-148 -700h-71l149 707q18 88 -1 163.5t-79.5 121.5t-165.5 46q-123 0 -214 -70.5t-149.5 -185t-86.5 -245.5l-115 -537h-72zM481 1282q16 94 59.5 154.5 t114.5 60.5q49 0 77 -24.5t47.5 -58.5t40 -58.5t50.5 -24.5q76 0 101 156h63q-16 -88 -57 -151.5t-113 -63.5q-45 0 -73.5 24.5t-48 58.5t-40 58.5t-53.5 24.5q-39 0 -66.5 -43t-37.5 -113h-64z" />
<glyph unicode="&#xf2;" horiz-adv-x="1175" d="M92 451q0 115 38 230.5t111.5 211.5t179 154.5t241.5 58.5q145 0 238 -66.5t138 -173t45 -231.5q0 -115 -37.5 -230.5t-111.5 -212t-179.5 -154.5t-240.5 -58q-145 0 -238.5 66.5t-138.5 174t-45 230.5zM164 449q0 -104 38 -195.5t115.5 -148t196.5 -56.5t211 52.5 t156.5 138.5t97.5 190.5t33 206.5q0 106 -38 196.5t-115 146.5t-197 56q-119 0 -211.5 -52t-156 -138t-97 -190.5t-33.5 -206.5zM555 1577h74l108 -311h-59z" />
<glyph unicode="&#xf3;" horiz-adv-x="1175" d="M92 451q0 115 38 230.5t111.5 211.5t179 154.5t241.5 58.5q145 0 238 -66.5t138 -173t45 -231.5q0 -115 -37.5 -230.5t-111.5 -212t-179.5 -154.5t-240.5 -58q-145 0 -238.5 66.5t-138.5 174t-45 230.5zM164 449q0 -104 38 -195.5t115.5 -148t196.5 -56.5t211 52.5 t156.5 138.5t97.5 190.5t33 206.5q0 106 -38 196.5t-115 146.5t-197 56q-119 0 -211.5 -52t-156 -138t-97 -190.5t-33.5 -206.5zM680 1266l149 311h76l-164 -311h-61z" />
<glyph unicode="&#xf4;" horiz-adv-x="1175" d="M92 451q0 115 38 230.5t111.5 211.5t179 154.5t241.5 58.5q145 0 238 -66.5t138 -173t45 -231.5q0 -115 -37.5 -230.5t-111.5 -212t-179.5 -154.5t-240.5 -58q-145 0 -238.5 66.5t-138.5 174t-45 230.5zM164 449q0 -104 38 -195.5t115.5 -148t196.5 -56.5t211 52.5 t156.5 138.5t97.5 190.5t33 206.5q0 106 -38 196.5t-115 146.5t-197 56q-119 0 -211.5 -52t-156 -138t-97 -190.5t-33.5 -206.5zM451 1245l292 311h76l162 -311h-74l-131 258l-237 -258h-88z" />
<glyph unicode="&#xf5;" horiz-adv-x="1175" d="M92 451q0 115 38 230.5t111.5 211.5t179 154.5t241.5 58.5q145 0 238 -66.5t138 -173t45 -231.5q0 -115 -37.5 -230.5t-111.5 -212t-179.5 -154.5t-240.5 -58q-145 0 -238.5 66.5t-138.5 174t-45 230.5zM164 449q0 -104 38 -195.5t115.5 -148t196.5 -56.5t211 52.5 t156.5 138.5t97.5 190.5t33 206.5q0 106 -38 196.5t-115 146.5t-197 56q-119 0 -211.5 -52t-156 -138t-97 -190.5t-33.5 -206.5zM467 1282q16 94 59 154.5t115 60.5q49 0 76.5 -24.5t47 -58.5t40 -58.5t51.5 -24.5q76 0 100 156h64q-16 -88 -57 -151.5t-113 -63.5 q-45 0 -73.5 24.5t-48 58.5t-40 58.5t-53.5 24.5q-39 0 -66.5 -43t-38.5 -113h-63z" />
<glyph unicode="&#xf6;" horiz-adv-x="1175" d="M92 451q0 115 38 230.5t111.5 211.5t179 154.5t241.5 58.5q145 0 238 -66.5t138 -173t45 -231.5q0 -115 -37.5 -230.5t-111.5 -212t-179.5 -154.5t-240.5 -58q-145 0 -238.5 66.5t-138.5 174t-45 230.5zM164 449q0 -104 38 -195.5t115.5 -148t196.5 -56.5t211 52.5 t156.5 138.5t97.5 190.5t33 206.5q0 106 -38 196.5t-115 146.5t-197 56q-119 0 -211.5 -52t-156 -138t-97 -190.5t-33.5 -206.5zM524 1364q0 31 20.5 52.5t51.5 21.5t52.5 -21.5t21.5 -52.5t-21.5 -52.5t-52.5 -21.5t-51.5 21.5t-20.5 52.5zM809 1364q0 31 20.5 52.5 t51.5 21.5t52 -21.5t21 -52.5t-21 -52.5t-52 -21.5t-51.5 21.5t-20.5 52.5z" />
<glyph unicode="&#xf7;" horiz-adv-x="1175" d="M229 618l15 70h753l-14 -70h-754zM471 332q0 31 21.5 53.5t54.5 22.5t55.5 -23t22.5 -53q0 -33 -22.5 -55.5t-55.5 -22.5t-54.5 22.5t-21.5 55.5zM602 977q0 31 21.5 53.5t54.5 22.5t55.5 -22.5t22.5 -53.5q0 -33 -22.5 -55.5t-55.5 -22.5t-54.5 22.5t-21.5 55.5z" />
<glyph unicode="&#xf8;" horiz-adv-x="1218" d="M119 451q0 115 38 230.5t111.5 211.5t179 154.5t240.5 58.5q94 0 172 -31l66 121h75l-81 -152q96 -63 143 -172.5t47 -236.5q0 -115 -38 -230.5t-111.5 -212t-179 -154.5t-240.5 -58q-100 0 -181 34l-65 -120h-76l84 153q-94 63 -139 171t-45 233zM190 449 q0 -102 36 -193.5t110 -144.5l489 901q-61 25 -137 24q-119 0 -211 -52t-155.5 -138t-97.5 -190.5t-34 -206.5zM395 78q66 -29 146 -29q119 0 211 52.5t156.5 138.5t97 190.5t32.5 206.5q0 106 -37.5 198.5t-115.5 145.5z" />
<glyph unicode="&#xf9;" horiz-adv-x="1105" d="M145 408l144 677h71l-143 -677q-37 -174 14.5 -267.5t196.5 -93.5q131 0 225.5 74t155.5 197.5t92 271.5l105 495h71l-229 -1085h-72l45 217h-8q-25 -37 -76 -93t-130.5 -100t-192.5 -44q-164 0 -238 113.5t-31 314.5zM559 1577h74l108 -311h-59z" />
<glyph unicode="&#xfa;" horiz-adv-x="1105" d="M145 408l144 677h71l-143 -677q-37 -174 14.5 -267.5t196.5 -93.5q131 0 225.5 74t155.5 197.5t92 271.5l105 495h71l-229 -1085h-72l45 217h-8q-25 -37 -76 -93t-130.5 -100t-192.5 -44q-164 0 -238 113.5t-31 314.5zM684 1266l150 311h75l-164 -311h-61z" />
<glyph unicode="&#xfb;" horiz-adv-x="1105" d="M145 408l144 677h71l-143 -677q-37 -174 14.5 -267.5t196.5 -93.5q131 0 225.5 74t155.5 197.5t92 271.5l105 495h71l-229 -1085h-72l45 217h-8q-25 -37 -76 -93t-130.5 -100t-192.5 -44q-164 0 -238 113.5t-31 314.5zM455 1245l293 311h75l162 -311h-74l-131 258 l-237 -258h-88z" />
<glyph unicode="&#xfc;" horiz-adv-x="1105" d="M145 408l144 677h71l-143 -677q-37 -174 14.5 -267.5t196.5 -93.5q131 0 225.5 74t155.5 197.5t92 271.5l105 495h71l-229 -1085h-72l45 217h-8q-25 -37 -76 -93t-130.5 -100t-192.5 -44q-164 0 -238 113.5t-31 314.5zM528 1364q0 31 20.5 52.5t51.5 21.5t52.5 -21.5 t21.5 -52.5t-21.5 -52.5t-52.5 -21.5t-51.5 21.5t-20.5 52.5zM813 1364q0 31 20.5 52.5t51.5 21.5t52 -21.5t21 -52.5t-21 -52.5t-52 -21.5t-51.5 21.5t-20.5 52.5z" />
<glyph unicode="&#xfd;" horiz-adv-x="1069" d="M-150 -395l15 69l27 -3q26 -3 55 -3q111 0 215 69.5t196 219.5l27 43l-197 1085h72l180 -997l611 997h82l-711 -1159q-201 -327 -494 -327q-33 0 -56 3zM633 1266l149 311h76l-164 -311h-61z" />
<glyph unicode="&#xfe;" horiz-adv-x="1245" d="M-16 -399l299 1400l118 555h72l-100 -471l-45 -204h8l24 33q25 34 75 79t125 79t173 34q137 0 226.5 -65.5t133.5 -171t44 -228.5q0 -117 -38 -233.5t-109.5 -214t-175 -155.5t-236.5 -58q-92 0 -158 28.5t-108 69.5t-65.5 83t-32.5 71l-9 28h-8l-56 -260l-86 -399h-71z M244 436q0 -102 34.5 -191t109.5 -142.5t190 -53.5q117 0 206.5 53.5t152 141.5t95.5 192.5t33 208.5t-35 193.5t-108.5 143.5t-188.5 54t-205 -54t-153.5 -142t-97 -194t-33.5 -210z" />
<glyph unicode="&#xff;" horiz-adv-x="1069" d="M-150 -395l15 69l27 -3q26 -3 55 -3q111 0 215 69.5t196 219.5l27 43l-197 1085h72l180 -997l611 997h82l-711 -1159q-201 -327 -494 -327q-33 0 -56 3zM477 1364q0 31 20.5 52.5t51.5 21.5t52.5 -21.5t21.5 -52.5t-21.5 -52.5t-52.5 -21.5t-51.5 21.5t-20.5 52.5z M762 1364q0 31 20.5 52.5t51.5 21.5t52 -21.5t21 -52.5t-21 -52.5t-52 -21.5t-51.5 21.5t-20.5 52.5z" />
<glyph unicode="&#x152;" horiz-adv-x="1884" d="M135 629q0 156 58.5 312.5t170 286.5t276.5 209t376 79h971l-15 -70h-774l-135 -635h674l-15 -70h-673l-144 -671h787l-15 -70h-913q-162 0 -279.5 51t-195.5 139.5t-116 201t-38 237.5zM209 633q0 -150 59.5 -278t183 -206.5t312.5 -78.5h70l292 1376h-110 q-195 0 -345.5 -73t-253 -191.5t-155.5 -263t-53 -285.5z" />
<glyph unicode="&#x153;" horiz-adv-x="2078" d="M119 451q0 115 38 230.5t111.5 211.5t179 154.5t240.5 58.5q121 0 205 -46t135 -125t70 -175q47 98 119.5 176t169 124t210.5 46q168 0 259.5 -77t117 -203t-5.5 -273l-4 -21h-862q-14 -133 16.5 -242.5t111.5 -175t212 -65.5q111 0 187.5 39t123.5 90t69 90l21 39h72 l-15 -33q-16 -32 -50.5 -81.5t-90 -98.5t-134.5 -81.5t-185 -32.5q-176 0 -275.5 97t-128.5 238q-68 -141 -193.5 -238t-301.5 -97q-145 0 -238.5 66.5t-138.5 174t-45 230.5zM190 449q0 -104 38 -195.5t116 -148t197 -56.5t211 52.5t156.5 138.5t97 190.5t32.5 206.5 q0 106 -37.5 196.5t-114.5 146.5t-198 56q-119 0 -211 -52t-155.5 -138t-97.5 -190.5t-34 -206.5zM1116 598h789q18 115 -2.5 215t-93 161.5t-216.5 61.5q-123 0 -219 -59t-161.5 -158.5t-96.5 -220.5z" />
<glyph unicode="&#x178;" horiz-adv-x="1271" d="M252 1516h74l319 -873l688 873h88l-749 -947l-121 -569h-72l121 569zM668 1794q0 31 20.5 52.5t50.5 21.5q31 0 52.5 -21.5t21.5 -52.5t-21.5 -52.5t-52.5 -21.5t-51 21.5t-20 52.5zM952 1794q0 31 20.5 52.5t51.5 21.5t52.5 -21.5t21.5 -52.5t-21.5 -52.5t-52.5 -21.5 t-51.5 21.5t-20.5 52.5z" />
<glyph unicode="&#x2c6;" horiz-adv-x="952" d="M354 1204l293 312h76l162 -312h-74l-131 258l-238 -258h-88z" />
<glyph unicode="&#x2dc;" horiz-adv-x="757" d="M393 1282q16 94 59.5 154.5t114.5 60.5q49 0 77 -24.5t47.5 -58.5t40 -58.5t50.5 -24.5q76 0 101 156h63q-16 -88 -57 -151.5t-113 -63.5q-45 0 -73.5 24.5t-48 58.5t-40 58.5t-53.5 24.5q-39 0 -66.5 -43t-37.5 -113h-64z" />
<glyph unicode="&#x2000;" horiz-adv-x="1035" />
<glyph unicode="&#x2001;" horiz-adv-x="2071" />
<glyph unicode="&#x2002;" horiz-adv-x="1035" />
<glyph unicode="&#x2003;" horiz-adv-x="2071" />
<glyph unicode="&#x2004;" horiz-adv-x="690" />
<glyph unicode="&#x2005;" horiz-adv-x="517" />
<glyph unicode="&#x2006;" horiz-adv-x="345" />
<glyph unicode="&#x2007;" horiz-adv-x="345" />
<glyph unicode="&#x2008;" horiz-adv-x="258" />
<glyph unicode="&#x2009;" horiz-adv-x="414" />
<glyph unicode="&#x200a;" horiz-adv-x="115" />
<glyph unicode="&#x2010;" horiz-adv-x="1183" d="M227 606l15 70h762l-15 -70h-762z" />
<glyph unicode="&#x2011;" horiz-adv-x="1183" d="M227 606l15 70h762l-15 -70h-762z" />
<glyph unicode="&#x2012;" horiz-adv-x="1183" d="M227 606l15 70h762l-15 -70h-762z" />
<glyph unicode="&#x2013;" horiz-adv-x="1261" d="M227 606l17 70h837l-16 -70h-838z" />
<glyph unicode="&#x2014;" horiz-adv-x="1570" d="M227 606l21 70h1143l-21 -70h-1143z" />
<glyph unicode="&#x2018;" horiz-adv-x="378" d="M215 1298q0 31 20.5 66t65.5 104l31 48h51l-84 -140q37 -2 56.5 -25.5t19.5 -50.5q0 -29 -19.5 -53t-60.5 -24q-31 0 -55.5 18.5t-24.5 56.5z" />
<glyph unicode="&#x2019;" horiz-adv-x="389" d="M229 1243l84 139q-37 2 -56 26t-19 50q0 29 20.5 53.5t58.5 24.5q31 0 55.5 -18.5t24.5 -57.5q0 -31 -19.5 -64.5t-66.5 -105.5l-30 -47h-52z" />
<glyph unicode="&#x201a;" horiz-adv-x="602" d="M90 -150l84 140q-37 2 -56.5 25.5t-19.5 50.5q0 29 20.5 53t59.5 24q31 0 55.5 -18.5t24.5 -56.5q0 -31 -19.5 -65t-66.5 -105l-31 -48h-51z" />
<glyph unicode="&#x201c;" horiz-adv-x="636" d="M215 1298q0 31 20.5 66t65.5 104l31 48h51l-84 -140q37 -2 56.5 -25.5t19.5 -50.5q0 -29 -19.5 -53t-60.5 -24q-31 0 -55.5 18.5t-24.5 56.5zM473 1298q0 31 20.5 66t65.5 104l31 48h51l-84 -140q37 -2 56.5 -25.5t19.5 -50.5q0 -29 -19.5 -53t-60.5 -24 q-31 0 -55.5 18.5t-24.5 56.5z" />
<glyph unicode="&#x201d;" horiz-adv-x="647" d="M229 1243l84 139q-37 2 -56 26t-19 50q0 29 20.5 53.5t58.5 24.5q31 0 55.5 -18.5t24.5 -57.5q0 -31 -19.5 -64.5t-66.5 -105.5l-30 -47h-52zM487 1243l84 139q-37 2 -56 26t-19 50q0 29 20.5 53.5t58.5 24.5q31 0 55.5 -18.5t24.5 -57.5q0 -31 -19.5 -64.5t-66.5 -105.5 l-30 -47h-52z" />
<glyph unicode="&#x201e;" horiz-adv-x="763" d="M92 -150l84 140q-37 2 -56.5 25.5t-19.5 50.5q0 29 20.5 53t59.5 24q31 0 55.5 -18.5t24.5 -56.5q0 -31 -19.5 -65t-66.5 -105l-31 -48h-51zM350 -150l84 140q-37 2 -56.5 25.5t-19.5 50.5q0 29 20.5 53t59.5 24q31 0 55.5 -18.5t24.5 -56.5q0 -31 -19.5 -65t-66.5 -105 l-31 -48h-51z" />
<glyph unicode="&#x2022;" horiz-adv-x="845" d="M266 774q0 84 58.5 144.5t146.5 60.5t149.5 -60.5t61.5 -144.5q0 -88 -61.5 -149.5t-149.5 -61.5t-146.5 61.5t-58.5 149.5z" />
<glyph unicode="&#x2026;" horiz-adv-x="1486" d="M82 68q0 31 21.5 53t54.5 22t55.5 -22.5t22.5 -52.5q0 -33 -22.5 -55.5t-55.5 -22.5t-54.5 22.5t-21.5 55.5zM573 68q0 31 21.5 53t54.5 22t55.5 -22.5t22.5 -52.5q0 -33 -22.5 -55.5t-55.5 -22.5t-54.5 22.5t-21.5 55.5zM1075 68q0 31 21.5 53t54.5 22t55.5 -22.5 t22.5 -52.5q0 -33 -22.5 -55.5t-55.5 -22.5t-54.5 22.5t-21.5 55.5z" />
<glyph unicode="&#x202f;" horiz-adv-x="414" />
<glyph unicode="&#x2039;" horiz-adv-x="673" d="M109 662l499 413h101l-512 -422l317 -407h-82z" />
<glyph unicode="&#x203a;" horiz-adv-x="673" d="M27 246l512 422l-318 407h82l324 -416l-500 -413h-100z" />
<glyph unicode="&#x205f;" horiz-adv-x="517" />
<glyph unicode="&#x20ac;" horiz-adv-x="1638" d="M96 623l13 61h247q2 94 21 188h-227l12 62h231q45 162 148.5 299t261.5 220t368 83q102 0 189.5 -14.5t139.5 -29.5l52 -15l-16 -72l-53 15q-53 16 -136 30t-176 14q-190 0 -332.5 -72.5t-235.5 -193.5t-136 -264h647l-12 -62h-651q-20 -94 -21 -188h631l-12 -61h-617 q10 -152 76.5 -283t190.5 -211t305 -80q106 0 199 22.5t151 46.5l57 23l-16 -78l-51 -20q-50 -20 -138 -41.5t-202 -21.5q-156 0 -274 52t-198.5 142t-123.5 206t-50 243h-262z" />
<glyph unicode="&#x2122;" horiz-adv-x="1624" d="M268 1460l13 56h542l-12 -56h-242l-141 -661h-59l141 661h-242zM811 799l154 717h82l161 -465l359 465h82l-154 -717h-59l133 631l-346 -445h-58l-159 451l-136 -637h-59z" />
<glyph unicode="&#x25fc;" horiz-adv-x="1085" d="M0 0v1085h1085v-1085h-1085z" />
</font>
</defs>
</svg>
